<?xml version="1.0" encoding="utf-8"?>
<!-- Generator: Adobe Illustrator 27.6.1, SVG Export Plug-In . SVG Version: 6.00 Build 0)  -->
<svg version="1.1" id="a" xmlns="http://www.w3.org/2000/svg" xmlns:xlink="http://www.w3.org/1999/xlink" x="0px" y="0px"
	 viewBox="0 0 90 90" style="enable-background:new 0 0 90 90;" xml:space="preserve">
<style type="text/css">
	.st0{fill:#FBB040;}
	.st1{fill:#BE1E2D;}
	.st2{fill:#FBCE8A;}
	.st3{fill:#A17129;}
	.st4{fill:#5B5B5B;}
</style>
<rect x="30" y="30" class="st0" width="30" height="30"/>
<polygon class="st1" points="45,0 24.2,30 65.8,30 "/>
<g>
	<path class="st2" d="M40.4,41.9c0-2.6,2.1-4.6,4.6-4.6l0,0c2.6,0,4.6,2.1,4.6,4.6v8.3h-9.3V41.9z"/>
	<path class="st0" d="M40.4,42.6c0-2.6,2.1-4.6,4.6-4.6l0,0c2.6,0,4.6,2.1,4.6,4.6v7.6h-9.3V42.6z"/>
	<path class="st3" d="M42.2,42.3c0-1.6,1.3-2.8,2.8-2.8l0,0c1.6,0,2.8,1.3,2.8,2.8v7.9h-5.7V42.3z"/>
	<rect x="40.4" y="51.7" class="st3" width="9.3" height="1.1"/>
	<path class="st4" d="M42.8,42.8c0-1.2,1-2.2,2.2-2.2l0,0c1.2,0,2.2,1,2.2,2.2v7.4h-4.4V42.8z"/>
</g>
</svg>
