<?xml version="1.0" encoding="utf-8"?>
<!-- Generator: Adobe Illustrator 27.6.1, SVG Export Plug-In . SVG Version: 6.00 Build 0)  -->
<svg version="1.1" id="a" xmlns="http://www.w3.org/2000/svg" xmlns:xlink="http://www.w3.org/1999/xlink" x="0px" y="0px"
	 viewBox="0 0 90 90" style="enable-background:new 0 0 90 90;" xml:space="preserve">
<style type="text/css">
	.st0{fill:#FBB040;}
	.st1{fill:url(#SVGID_1_);}
	.st2{fill:url(#SVGID_00000075856345548176097730000001862150591064201644_);}
	.st3{fill:#FBCE8A;}
	.st4{fill:#A17129;}
	.st5{fill:#5B5B5B;}
</style>
<path class="st0" d="M40.3,50.2v-8.3h0.1c0-2.6,2.1-4.6,4.6-4.6c1.3,0,2.5,0.5,3.3,1.4c0.8,0.8,1.3,2,1.3,3.2v8.3H40.3z"/>
<rect x="40.4" y="51.7" class="st0" width="9.3" height="1.1"/>
<g>
	<linearGradient id="SVGID_1_" gradientUnits="userSpaceOnUse" x1="30" y1="42.5" x2="60" y2="42.5">
		<stop  offset="0" style="stop-color:#DB9937"/>
		<stop  offset="0.1227" style="stop-color:#E8A33B"/>
		<stop  offset="0.2815" style="stop-color:#F2AA3D"/>
		<stop  offset="0.4941" style="stop-color:#F5AC3E"/>
		<stop  offset="0.7128" style="stop-color:#F2AA3D"/>
		<stop  offset="0.8742" style="stop-color:#E9A33B"/>
		<stop  offset="1" style="stop-color:#DB9937"/>
	</linearGradient>
	<path class="st1" d="M57.5,30v-5h-5v5h-5v-5h-5v5h-5v-5h-5v5H30v30h30V30H57.5z M40.3,41.9h0.1c0-2.6,2.1-4.6,4.6-4.6
		c1.3,0,2.5,0.5,3.3,1.4c0.8,0.8,1.3,2,1.3,3.2v8.3h-9.3V41.9z M49.7,52.8h-9.3v-1.1h9.3V52.8z"/>
</g>
<g>
	
		<linearGradient id="SVGID_00000066484941246266366200000006916976984651304378_" gradientUnits="userSpaceOnUse" x1="45" y1="760" x2="45" y2="725" gradientTransform="matrix(1 0 0 1 0 -700)">
		<stop  offset="0" style="stop-color:#DB9937;stop-opacity:0"/>
		<stop  offset="2.803169e-02" style="stop-color:#E29E41;stop-opacity:4.585588e-02"/>
		<stop  offset="9.398506e-02" style="stop-color:#EFA852;stop-opacity:0.1537"/>
		<stop  offset="0.1761" style="stop-color:#F8AE5D;stop-opacity:0.2881"/>
		<stop  offset="0.2914" style="stop-color:#FEB264;stop-opacity:0.4766"/>
		<stop  offset="0.6113" style="stop-color:#FFB366"/>
	</linearGradient>
	<polygon style="fill:url(#SVGID_00000066484941246266366200000006916976984651304378_);" points="60,30 60,60 30,60 30,30 32.5,30 
		32.5,25 37.5,25 37.5,30 42.5,30 42.5,25 47.5,25 47.5,30 52.5,30 52.5,25 57.5,25 57.5,30 	"/>
</g>
<g>
	<path class="st3" d="M49.6,41.9v8.3h-9.3v-8.3h0.1c0-2.6,2.1-4.6,4.6-4.6c1.3,0,2.5,0.5,3.3,1.4C49.1,39.5,49.6,40.7,49.6,41.9z"/>
	<path class="st0" d="M49.6,42.6v7.6h-9.3v-7.6h0.1c0-2.6,2.1-4.6,4.6-4.6c1.3,0,2.5,0.5,3.3,1.4C49.1,40.2,49.6,41.3,49.6,42.6z"/>
	<path class="st4" d="M47.8,42.3v7.9h-5.7v-7.9h0.1c0-1.6,1.3-2.8,2.8-2.8c0.8,0,1.5,0.3,2,0.8C47.5,40.8,47.8,41.5,47.8,42.3z"/>
	<rect x="40.4" y="51.7" class="st4" width="9.3" height="1.1"/>
	<path class="st5" d="M47.2,42.8v7.4h-4.4v-7.4c0-1.2,1-2.2,2.2-2.2c0.6,0,1.2,0.2,1.5,0.7C47,41.7,47.2,42.2,47.2,42.8z"/>
</g>
</svg>
