<?xml version="1.0" encoding="utf-8"?>
<!-- Generator: Adobe Illustrator 27.6.1, SVG Export Plug-In . SVG Version: 6.00 Build 0)  -->
<svg version="1.1" id="a" xmlns="http://www.w3.org/2000/svg" xmlns:xlink="http://www.w3.org/1999/xlink" x="0px" y="0px"
	 viewBox="0 0 90 90" style="enable-background:new 0 0 90 90;" xml:space="preserve">
<style type="text/css">
	.st0{fill:url(#SVGID_1_);}
	.st1{fill:#805920;}
	.st2{fill:url(#SVGID_00000072995622760740148140000012854524225035426737_);}
</style>
<g>
	
		<linearGradient id="SVGID_1_" gradientUnits="userSpaceOnUse" x1="30" y1="742.5" x2="60" y2="742.5" gradientTransform="matrix(1 0 0 1 0 -700)">
		<stop  offset="0" style="stop-color:#DB9937"/>
		<stop  offset="0.1227" style="stop-color:#E8A33B"/>
		<stop  offset="0.2815" style="stop-color:#F2AA3D"/>
		<stop  offset="0.4941" style="stop-color:#F5AC3E"/>
		<stop  offset="0.7128" style="stop-color:#F2AA3D"/>
		<stop  offset="0.8742" style="stop-color:#E9A33B"/>
		<stop  offset="1" style="stop-color:#DB9937"/>
	</linearGradient>
	<polygon class="st0" points="60,30 60,60 30,60 30,30 32.5,30 32.5,25 37.5,25 37.5,30 42.5,30 42.5,25 47.5,25 47.5,30 52.5,30 
		52.5,25 57.5,25 57.5,30 	"/>
</g>
<rect x="32.5" y="25" class="st1" width="5" height="0.7"/>
<rect x="42.5" y="25" class="st1" width="5" height="0.7"/>
<rect x="52.5" y="25" class="st1" width="5" height="0.7"/>
<rect x="30" y="29.3" class="st1" width="2.5" height="0.7"/>
<rect x="57.5" y="29.3" class="st1" width="2.5" height="0.7"/>
<rect x="37.5" y="29.3" class="st1" width="5" height="0.7"/>
<rect x="47.5" y="29.3" class="st1" width="5" height="0.7"/>
<g>
	
		<linearGradient id="SVGID_00000124162447438151768580000010285121732717022110_" gradientUnits="userSpaceOnUse" x1="45" y1="60" x2="45" y2="25">
		<stop  offset="0.7" style="stop-color:#DB9937;stop-opacity:0"/>
		<stop  offset="1" style="stop-color:#BF8630"/>
	</linearGradient>
	<polygon style="fill:url(#SVGID_00000124162447438151768580000010285121732717022110_);" points="60,30 60,60 30,60 30,30 32.5,30 
		32.5,25 37.5,25 37.5,30 42.5,30 42.5,25 47.5,25 47.5,30 52.5,30 52.5,25 57.5,25 57.5,30 	"/>
</g>
</svg>
