<?xml version="1.0" encoding="utf-8"?>
<!-- Generator: Adobe Illustrator 27.6.1, SVG Export Plug-In . SVG Version: 6.00 Build 0)  -->
<svg version="1.1" id="Layer_1" xmlns="http://www.w3.org/2000/svg" xmlns:xlink="http://www.w3.org/1999/xlink" x="0px" y="0px"
	 viewBox="0 0 553.59 713.83" style="enable-background:new 0 0 553.59 713.83;" xml:space="preserve">
<style type="text/css">
	.st0{fill:none;}
	.st1{fill:none;stroke:#000000;stroke-width:2;stroke-miterlimit:10;}
	.st2{fill:none;stroke:#000000;stroke-width:2;stroke-linecap:round;stroke-linejoin:round;stroke-miterlimit:10;}
	.st3{fill:none;stroke:#00AEEF;stroke-width:1.2661;stroke-miterlimit:10;}
	.st4{fill:#00AEEF;}
	.st5{font-family:'UniversLTStd-Cn';}
	.st6{font-size:10.1287px;}
	.st7{font-size:12px;}
	.st8{opacity:0.3;fill:#ED2024;}
	.st9{fill:#ED2024;}
	.st10{fill:#FFFFFF;}
	.st11{font-family:'UniversLTStd-BoldCn';}
	.st12{font-size:18.468px;}
	.st13{fill:#A7A9AC;}
	.st14{font-family:'UniversLTStd-CnObl';}
	.st15{font-size:8px;}
	.st16{font-size:6px;}
	.st17{fill:none;stroke:#EC008C;stroke-width:1.2661;stroke-miterlimit:10;}
	.st18{fill:#EC008C;}
	.st19{fill:#FBAA19;}
	.st20{fill:#ED2224;}
	.st21{fill:#F15822;}
	.st22{fill:#E83A95;}
	.st23{fill:#F15858;}
	.st24{fill:#ED1C59;}
	.st25{fill:#EF3F3E;}
	.st26{fill:#8352A1;}
	.st27{fill:#D45680;}
	.st28{fill:#D4127F;}
	.st29{fill:#E33A56;}
	.st30{fill:#AC469A;}
	.st31{fill:#E13A8E;}
	.st32{fill:#E10E8D;}
	.st33{fill:#E92C6B;}
	.st34{fill:#48A3DA;}
	.st35{fill:#7EAA7E;}
	.st36{fill:#80567F;}
	.st37{fill:#AB7256;}
	.st38{fill:#755DA8;}
	.st39{fill:#AA718D;}
	.st40{fill:#AA398E;}
	.st41{fill:#BF566A;}
	.st42{fill:#5861AC;}
	.st43{fill:#8D72AA;}
	.st44{fill:#87439A;}
	.st45{fill:#AB5680;}
	.st46{fill:#7954A2;}
	.st47{fill:#A957A2;}
	.st48{fill:#9F3E97;}
	.st49{fill:#BB4689;}
	.st50{fill:#71C493;}
	.st51{fill:#85C559;}
	.st52{fill:#7F8055;}
	.st53{fill:#AA8E38;}
	.st54{fill:#7F7FAA;}
	.st55{fill:#AA8D72;}
	.st56{fill:#AB5672;}
	.st57{fill:#C06B56;}
	.st58{fill:#5B7DBE;}
	.st59{fill:#8E8D8D;}
	.st60{fill:#8E568E;}
	.st61{fill:#AB6B6B;}
	.st62{fill:#825BA6;}
	.st63{fill:#AA6B95;}
	.st64{fill:#AC4094;}
	.st65{fill:#BB5678;}
	.st66{fill:#46C2C8;}
	.st67{fill:#5DBF8C;}
	.st68{fill:#558D8E;}
	.st69{fill:#80946B;}
	.st70{fill:#558DC6;}
	.st71{fill:#809494;}
	.st72{fill:#7F6B94;}
	.st73{fill:#997877;}
	.st74{fill:#4A89C8;}
	.st75{fill:#6A94AA;}
	.st76{fill:#6B6BAA;}
	.st77{fill:#897889;}
	.st78{fill:#6869B0;}
	.st79{fill:#8878AB;}
	.st80{fill:#8956A3;}
	.st81{fill:#9C648D;}
	.st82{fill:#B0D235;}
	.st83{fill:#D4D426;}
	.st84{fill:#D38028;}
	.st85{fill:#E18E26;}
	.st86{fill:#D47F55;}
	.st87{fill:#E28D38;}
	.st88{fill:#E25638;}
	.st89{fill:#E96B2A;}
	.st90{fill:#AB8080;}
	.st91{fill:#C58D54;}
	.st92{fill:#C65656;}
	.st93{fill:#D56B3F;}
	.st94{fill:#C7568E;}
	.st95{fill:#D46A6A;}
	.st96{fill:#D5406B;}
	.st97{fill:#DD5655;}
	.st98{fill:#68C07C;}
	.st99{fill:#8DC655;}
	.st100{fill:#8E8E55;}
	.st101{fill:#AA943F;}
	.st102{fill:#AA946A;}
	.st103{fill:#BB7756;}
	.st104{fill:#728DAA;}
	.st105{fill:#949480;}
	.st106{fill:#946A80;}
	.st107{fill:#AA7867;}
	.st108{fill:#956AAA;}
	.st109{fill:#AB7889;}
	.st110{fill:#AB5588;}
	.st111{fill:#B96472;}
	.st112{fill:#83C341;}
	.st113{fill:#95C93E;}
	.st114{fill:#8DAA3D;}
	.st115{fill:#A9AA36;}
	.st116{fill:#8CAA71;}
	.st117{fill:#A9A954;}
	.st118{fill:#AA8055;}
	.st119{fill:#BA8844;}
	.st120{fill:#72AB8E;}
	.st121{fill:#94AA6B;}
	.st122{fill:#95806B;}
	.st123{fill:#AA8955;}
	.st124{fill:#947F94;}
	.st125{fill:#AA8878;}
	.st126{fill:#AB6778;}
	.st127{fill:#B97164;}
	.st128{fill:#65C084;}
	.st129{fill:#77C26A;}
	.st130{fill:#69AA69;}
	.st131{fill:#87AA54;}
	.st132{fill:#6AAA94;}
	.st133{fill:#87AA77;}
	.st134{fill:#888878;}
	.st135{fill:#9C8D64;}
	.st136{fill:#55ABAB;}
	.st137{fill:#77AA88;}
	.st138{fill:#778888;}
	.st139{fill:#8D8D72;}
	.st140{fill:#7788AB;}
	.st141{fill:#8D728D;}
	.st142{fill:#9D7A79;}
	.st143{clip-path:url(#SVGID_00000070826092371620974310000009028579750478178731_);}
	.st144{fill:#F8951D;}
	.st145{fill:#F04F23;}
	.st146{fill:#DE4C9B;}
	.st147{fill:#F16262;}
	.st148{fill:#EE2762;}
	.st149{fill:#EF4645;}
	.st150{fill:#6B52A2;}
	.st151{fill:#C04B80;}
	.st152{fill:#BE1B80;}
	.st153{fill:#D53256;}
	.st154{fill:#994C9D;}
	.st155{fill:#D54294;}
	.st156{fill:#D0218F;}
	.st157{fill:#DF3170;}
	.st158{fill:#45AAE0;}
	.st159{fill:#7EA27F;}
	.st160{fill:#80597F;}
	.st161{fill:#AA6C56;}
	.st162{fill:#776EB2;}
	.st163{fill:#AB7C94;}
	.st164{fill:#AB4B95;}
	.st165{fill:#C05D70;}
	.st166{fill:#4F62AD;}
	.st167{fill:#806DAB;}
	.st168{fill:#7B459B;}
	.st169{fill:#A05280;}
	.st170{fill:#705BA7;}
	.st171{fill:#9E5DA5;}
	.st172{fill:#95469B;}
	.st173{fill:#B34B8D;}
	.st174{fill:#66BD4E;}
	.st175{fill:#9CBE3C;}
	.st176{fill:#9C722A;}
	.st177{fill:#BC7F2B;}
	.st178{fill:#9C898A;}
	.st179{fill:#BC8D5C;}
	.st180{fill:#BE5C5D;}
	.st181{fill:#CE6B45;}
	.st182{fill:#5D73AB;}
	.st183{fill:#937F72;}
	.st184{fill:#934D72;}
	.st185{fill:#AE5E56;}
	.st186{fill:#915CA6;}
	.st187{fill:#AD6B85;}
	.st188{fill:#AE4585;}
	.st189{fill:#BE556A;}
	.st190{fill:#41BDA4;}
	.st191{fill:#67B871;}
	.st192{fill:#698771;}
	.st193{fill:#8D8A55;}
	.st194{fill:#6896B1;}
	.st195{fill:#8C9684;}
	.st196{fill:#8D7084;}
	.st197{fill:#A5796B;}
	.st198{fill:#3E87C7;}
	.st199{fill:#6E8A95;}
	.st200{fill:#6F6695;}
	.st201{fill:#8C6F78;}
	.st202{fill:#7171B4;}
	.st203{fill:#8B789D;}
	.st204{fill:#8C5B9E;}
	.st205{fill:#9E6583;}
	.st206{fill:#FED609;}
	.st207{fill:#FDB515;}
	.st208{fill:#F36D21;}
	.st209{fill:#F47920;}
	.st210{fill:#F48166;}
	.st211{fill:#F68849;}
	.st212{fill:#F15948;}
	.st213{fill:#F26739;}
	.st214{fill:#BF6B84;}
	.st215{fill:#D47A58;}
	.st216{fill:#D44858;}
	.st217{fill:#DF5B42;}
	.st218{fill:#D45898;}
	.st219{fill:#E06673;}
	.st220{fill:#E04273;}
	.st221{fill:#E5525C;}
	.st222{fill:#7FC385;}
	.st223{fill:#ABB459;}
	.st224{fill:#AA8358;}
	.st225{fill:#BE8642;}
	.st226{fill:#AA9298;}
	.st227{fill:#BF9272;}
	.st228{fill:#BF6D73;}
	.st229{fill:#CC755B;}
	.st230{fill:#8083AE;}
	.st231{fill:#A08682;}
	.st232{fill:#A06283;}
	.st233{fill:#B26B69;}
	.st234{fill:#9F6EAF;}
	.st235{fill:#B2768F;}
	.st236{fill:#B4588F;}
	.st237{fill:#BF6176;}
	.st238{fill:#9FCC3B;}
	.st239{fill:#BCC532;}
	.st240{fill:#BC932E;}
	.st241{fill:#CC952B;}
	.st242{fill:#BCA35E;}
	.st243{fill:#CEA046;}
	.st244{fill:#CD7B47;}
	.st245{fill:#D77F37;}
	.st246{fill:#929374;}
	.st247{fill:#AC9458;}
	.st248{fill:#AE6F58;}
	.st249{fill:#BE7746;}
	.st250{fill:#AE7B88;}
	.st251{fill:#BE806D;}
	.st252{fill:#BF616C;}
	.st253{fill:#C96A5B;}
	.st254{fill:#72C275;}
	.st255{fill:#8DC057;}
	.st256{fill:#8D9A57;}
	.st257{fill:#A39945;}
	.st258{fill:#8DA687;}
	.st259{fill:#A4A26C;}
	.st260{fill:#A5856D;}
	.st261{fill:#B2875A;}
	.st262{fill:#6F9A97;}
	.st263{fill:#8B997A;}
	.st264{fill:#8C7B79;}
	.st265{fill:#9F8065;}
	.st266{fill:#8C869F;}
	.st267{fill:#9E8884;}
	.st268{fill:#AC7572;}
	.st269{font-size:4px;}
</style>
<symbol  id="Database" viewBox="-24 -24 48 48">
	<rect x="-24" y="-24" class="st0" width="48" height="48"/>
	<path class="st1" d="M17.33,13c0,2.39-7.76,4.33-17.33,4.33S-17.33,15.39-17.33,13c0-2.39,7.76-4.33,17.33-4.33
		S17.33,10.61,17.33,13z"/>
	<path class="st1" d="M-17.33-13c0-2.39,7.76-4.33,17.33-4.33S17.33-15.39,17.33-13"/>
	<path class="st1" d="M-17.33-4.33c0-2.39,7.76-4.33,17.33-4.33s17.33,1.94,17.33,4.33"/>
	<path class="st1" d="M-17.33,4.33C-17.33,1.94-9.57,0,0,0s17.33,1.94,17.33,4.33"/>
	<line class="st1" x1="17.33" y1="-13" x2="17.33" y2="13"/>
	<line class="st1" x1="-17.33" y1="-13" x2="-17.33" y2="13"/>
</symbol>
<symbol  id="Development" viewBox="-24 -24 48 48">
	<rect x="-24" y="-24" class="st0" width="48" height="48"/>
	<polyline class="st2" points="8.67,2.17 13,-2.17 8.67,-6.5 	"/>
	<polyline class="st2" points="-8.67,-6.5 -13,-2.17 -8.67,2.17 	"/>
	<line class="st2" x1="-4.33" y1="-6.5" x2="4.33" y2="2.17"/>
	<rect x="-17.33" y="-15.17" class="st2" width="34.67" height="30.33"/>
	<line class="st2" x1="17.33" y1="10.83" x2="-17.33" y2="10.83"/>
	<line class="st2" x1="-13" y1="15.17" x2="-13" y2="10.83"/>
	<line class="st2" x1="-8.67" y1="10.83" x2="-8.67" y2="15.17"/>
</symbol>
<symbol  id="Letter" viewBox="-24 -24 48 48">
	<rect x="-24" y="-24" class="st0" width="48" height="48"/>
	<polygon class="st2" points="13.39,-17.33 -13.39,-17.33 -13.39,17.33 4.73,17.33 13.39,8.67 	"/>
	<polyline class="st2" points="13.39,8.67 4.73,8.67 4.73,17.33 	"/>
	<line class="st2" x1="-7.27" y1="8.67" x2="-0.61" y2="8.67"/>
	<line class="st2" x1="-7.27" y1="0" x2="8.06" y2="0"/>
	<line class="st2" x1="8.06" y1="-8.67" x2="-7.27" y2="-8.67"/>
</symbol>
<symbol  id="Man" viewBox="-24 -24 48 48">
	<rect x="-24" y="-24" class="st0" width="48" height="48"/>
	<path class="st2" d="M8.67,8.67C8.67,3.88,4.79,0,0,0c-4.79,0-8.67,3.88-8.67,8.67c0,4.79,3.88,8.67,8.67,8.67
		C4.79,17.33,8.67,13.45,8.67,8.67z"/>
	<g>
		<line class="st2" x1="9.8" y1="-17.33" x2="8.67" y2="-13"/>
	</g>
	<g>
		<line class="st2" x1="-9.8" y1="-17.33" x2="-8.67" y2="-13"/>
	</g>
	<g>
		<path class="st2" d="M-17.34-17.33l3.65,10.94c0.38,1.13,1.66,2.06,2.85,2.06h21.67c1.19,0,2.48-0.92,2.85-2.06l3.65-10.94"/>
	</g>
</symbol>
<g>
	<g>
		<g>
			<path class="st3" d="M210.57,254.36c5.25-18.35,19.49-32.9,37.65-38.57"/>
			<g>
				<polygon class="st4" points="245.91,222.08 244.79,221.47 247.77,215.99 242.08,213.42 242.61,212.26 249.53,215.4 				"/>
			</g>
		</g>
	</g>
	<g>
		<g>
			<path class="st3" d="M249.53,324.61c-18.35-5.25-32.9-19.49-38.57-37.65"/>
			<g>
				<polygon class="st4" points="217.25,289.27 216.65,290.38 211.16,287.4 208.59,293.09 207.44,292.57 210.57,285.64 				"/>
			</g>
		</g>
	</g>
	<g>
		<g>
			<path class="st3" d="M319.78,285.64c-5.25,18.35-19.49,32.9-37.65,38.57"/>
			<g>
				<polygon class="st4" points="284.44,317.92 285.56,318.53 282.58,324.01 288.27,326.58 287.74,327.74 280.81,324.61 				"/>
			</g>
		</g>
	</g>
	<g>
		<g>
			<path class="st3" d="M280.82,215.4c18.35,5.25,32.9,19.49,38.57,37.65"/>
			<g>
				<polygon class="st4" points="313.1,250.73 313.7,249.62 319.19,252.6 321.76,246.91 322.91,247.43 319.78,254.36 				"/>
			</g>
		</g>
	</g>
	
		<use xlink:href="#Letter"  width="48" height="48" id="XMLID_00000087372216852534178820000003878423333901024941_" x="-24" y="-24" transform="matrix(0.3165 0 0 -0.3165 266.5461 212.6545)" style="overflow:visible;"/>
	
		<use xlink:href="#Development"  width="48" height="48" id="XMLID_00000096046784245036923020000002578533612795587207_" x="-24" y="-24" transform="matrix(0.3165 0 0 -0.3165 265.1745 327.4002)" style="overflow:visible;"/>
	
		<use xlink:href="#Database"  width="48" height="48" id="XMLID_00000168817261464035187110000012828972813049350278_" x="-24" y="-24" transform="matrix(0.3165 0 0 -0.3165 321.1083 261.957)" style="overflow:visible;"/>
	
		<use xlink:href="#Man"  width="48" height="48" id="XMLID_00000176008486035634967430000016221773073040374707_" x="-24" y="-24" transform="matrix(0.3165 0 0 -0.3165 209.0327 261.957)" style="overflow:visible;"/>
	<text transform="matrix(1 0 0 1 252.1987 232.1231)" class="st5 st6">prompt</text>
	<text transform="matrix(1 0 0 1 302.9341 279.1709)" class="st5 st6">chatGPT</text>
	<text transform="matrix(1 0 0 1 244.2344 347.7188)" class="st5 st6">list program</text>
	<text transform="matrix(1 0 0 1 197.6992 279.3614)" class="st5 st6">user</text>
</g>
<g>
	<g>
		<g>
			<path class="st3" d="M212.02,459.45c5.25-18.35,19.49-32.9,37.65-38.57"/>
			<g>
				<polygon class="st4" points="247.36,427.17 246.25,426.56 249.23,421.08 243.54,418.51 244.06,417.35 250.99,420.48 				"/>
			</g>
		</g>
	</g>
	<g>
		<g>
			<path class="st3" d="M250.99,529.7c-18.35-5.25-32.9-19.49-38.57-37.65"/>
			<g>
				<polygon class="st4" points="218.71,494.36 218.1,495.47 212.62,492.49 210.05,498.18 208.89,497.66 212.03,490.73 				"/>
			</g>
		</g>
	</g>
	<g>
		<g>
			<path class="st3" d="M321.24,490.73c-5.25,18.35-19.49,32.9-37.65,38.57"/>
			<g>
				<polygon class="st4" points="285.9,523.01 287.01,523.62 284.03,529.1 289.72,531.67 289.2,532.83 282.27,529.69 				"/>
			</g>
		</g>
	</g>
	<g>
		<g>
			<path class="st3" d="M282.27,420.48c18.35,5.25,32.9,19.49,38.57,37.65"/>
			<g>
				<polygon class="st4" points="314.55,455.82 315.16,454.71 320.64,457.69 323.21,452 324.37,452.52 321.24,459.45 				"/>
			</g>
		</g>
	</g>
	
		<use xlink:href="#Letter"  width="48" height="48" id="XMLID_00000023238773395223815740000002885165039224448131_" x="-24" y="-24" transform="matrix(0.3165 0 0 -0.3165 268.0024 417.743)" style="overflow:visible;"/>
	
		<use xlink:href="#Development"  width="48" height="48" id="XMLID_00000064325625954683215900000014369303993601966527_" x="-24" y="-24" transform="matrix(0.3165 0 0 -0.3165 266.6307 532.4886)" style="overflow:visible;"/>
	
		<use xlink:href="#Database"  width="48" height="48" id="XMLID_00000151537750646041366380000002880364023364076971_" x="-24" y="-24" transform="matrix(0.3165 0 0 -0.3165 322.5646 467.0454)" style="overflow:visible;"/>
	
		<use xlink:href="#Man"  width="48" height="48" id="XMLID_00000152982412625554625100000009874403940014977944_" x="-24" y="-24" transform="matrix(0.3165 0 0 -0.3165 210.489 467.0454)" style="overflow:visible;"/>
	<text transform="matrix(1 0 0 1 253.6553 437.2115)" class="st5 st6">prompt</text>
	<text transform="matrix(1 0 0 1 304.3904 484.2593)" class="st5 st6">chatGPT</text>
	<text transform="matrix(1 0 0 1 231.5071 552.8071)" class="st5 st6">hexcode replace</text>
	<text transform="matrix(1 0 0 1 199.1555 484.4497)" class="st5 st6">user</text>
</g>
<rect x="0.93" y="5.1" class="st0" width="536.57" height="99.1"/>
<text transform="matrix(1 0 0 1 0.9324 15.0586)"><tspan x="0" y="0" class="st5 st7">The next step was to create a program that could output fully modified logos, without the need for manual </tspan><tspan x="0" y="14.4" class="st5 st7">recoloring. My first plan was to pass the .svg to the model as part of the prompt and ask it to recolor it, but the </tspan><tspan x="0" y="28.8" class="st5 st7">.svg file was far too long for ChatGPT to accept it.</tspan></text>
<rect x="0.93" y="132.93" class="st0" width="536.57" height="99.1"/>
<text transform="matrix(1 0 0 1 0.9324 142.8947)"><tspan x="0" y="0" class="st5 st7">The new problem was, how can I get ChatGPT to modify a file that it can’t read?</tspan><tspan x="0" y="14.4" class="st5 st7">The revelation that seems obvious in hindsight was to ask it to make a program to extract the colors </tspan><tspan x="0" y="28.8" class="st5 st7">from any .svg file</tspan></text>
<rect x="-0.78" y="333.41" class="st0" width="536.57" height="99.1"/>
<text transform="matrix(1 0 0 1 -0.7803 343.3678)"><tspan x="0" y="0" class="st5 st7">Then I took my existing program to</tspan><tspan x="0" y="14.4" class="st5 st7">generate the 127 colors from the 7 base colors,</tspan><tspan x="0" y="28.8" class="st5 st7">entered that program into the prompt,</tspan><tspan x="0" y="43.2" class="st5 st7">and asked ChatGPT to combine it </tspan><tspan x="0" y="57.6" class="st5 st7">with the new .svg scraper,</tspan><tspan x="0" y="72" class="st5 st7">to replace the codes with the generated list</tspan></text>
<rect x="-0.78" y="561.61" class="st0" width="536.57" height="16.39"/>
<text transform="matrix(1 0 0 1 -0.7803 571.5656)" class="st5 st7">Final program:</text>
<path class="st8" d="M378.27,107.9H8.48c-4.08,0-7.38-3.3-7.38-7.38V66.14c0-4.08,3.3-7.38,7.38-7.38h369.79
	c4.08,0,7.38,3.3,7.38,7.38v34.38C385.65,104.59,382.34,107.9,378.27,107.9z"/>
<text transform="matrix(1 0 0 1 74.2314 78.8368)"><tspan x="0" y="0" class="st9 st5 st7">The message you submitted was too long,</tspan><tspan x="0" y="14.4" class="st9 st5 st7">please reload the conversation and submit something shorter.</tspan></text>
<g>
	<circle class="st9" cx="31.33" cy="83.33" r="15.71"/>
	<text transform="matrix(1 0 0 1 28.4271 90.367)" class="st10 st11 st12">!</text>
</g>
<g>
	<text transform="matrix(1 0 0 1 0.9326 211.0418)"><tspan x="0" y="0" class="st13 st14 st15">Can you write a program that takes an .svg as an input,</tspan><tspan x="0" y="9.6" class="st13 st14 st15">and extracts all the hex codes for the fill colors</tspan><tspan x="0" y="19.2" class="st13 st14 st15">and outputs a list of them?</tspan></text>
</g>
<g>
	<text transform="matrix(1 0 0 1 376.7219 203.3074)"><tspan x="0" y="0" class="st13 st5 st16">import re</tspan><tspan x="0" y="14.4" class="st13 st5 st16">def extract_fill_hexcodes(svg_content):</tspan><tspan x="0" y="21.6" class="st13 st5 st16"> # Regular expression pattern to find fill attributes with hexcodes</tspan><tspan x="0" y="28.8" class="st13 st5 st16"> pattern = r&apos;fill=&quot;#([A-Fa-f0-9]{6}|[A-Fa-f0-9]{3})&quot;&apos;</tspan><tspan x="0" y="36" class="st13 st5 st16"> fill_hexcodes = re.findall(pattern, svg_content)</tspan><tspan x="0" y="43.2" class="st13 st5 st16"> return fill_hexcodes</tspan><tspan x="0" y="50.4" class="st13 st5 st16">def main():</tspan><tspan x="0" y="57.6" class="st13 st5 st16"> input_svg_file = &quot;input.svg&quot; # Replace with your input SVG file path</tspan><tspan x="0" y="64.8" class="st13 st5 st16"> output_file = &quot;fill_hexcodes.txt&quot; # Replace with the desired output file path</tspan><tspan x="0" y="72" class="st13 st5 st16"> with open(input_svg_file, &quot;r&quot;) as file:</tspan><tspan x="0" y="79.2" class="st13 st5 st16"> svg_content = file.read()</tspan><tspan x="0" y="86.4" class="st13 st5 st16"> fill_hexcodes = extract_fill_hexcodes(svg_content)</tspan><tspan x="0" y="93.6" class="st13 st5 st16"> with open(output_file, &quot;w&quot;) as output:</tspan><tspan x="0" y="100.8" class="st13 st5 st16"> for hexcode in fill_hexcodes:</tspan><tspan x="0" y="108" class="st13 st5 st16"> output.write(hexcode + &quot;\n&quot;)</tspan><tspan x="0" y="115.2" class="st13 st5 st16">print(&quot;Fill hexcodes extracted and saved to&quot;, output_file)</tspan><tspan x="0" y="122.4" class="st13 st5 st16">if __name__ == &quot;__main__&quot;:</tspan><tspan x="0" y="129.6" class="st13 st5 st16">main()</tspan></text>
</g>
<g>
	<g>
		<line class="st17" x1="265.17" y1="355.38" x2="265.17" y2="400.1"/>
		<g>
			<polygon class="st18" points="260,395.9 260.92,395.04 265.17,399.61 269.42,395.04 270.35,395.9 265.17,401.47 			"/>
		</g>
	</g>
</g>
<text transform="matrix(1 0 0 1 -0.7803 595.6157)"><tspan x="0" y="0" class="st5 st7">Takes an .svg</tspan><tspan x="0" y="14.4" class="st5 st7">and 7 base colors</tspan><tspan x="0" y="28.8" class="st5 st7">as input</tspan></text>
<text transform="matrix(1 0 0 1 112.5348 595.6157)"><tspan x="0" y="0" class="st5 st7">generates the </tspan><tspan x="0" y="14.4" class="st5 st7">127 combinations</tspan></text>
<text transform="matrix(1 0 0 1 219.0022 595.6157)"><tspan x="0" y="0" class="st5 st7">scrapes the .svg</tspan><tspan x="0" y="14.4" class="st5 st7">for hexcodes</tspan></text>
<text transform="matrix(1 0 0 1 322.1543 595.6157)"><tspan x="0" y="0" class="st5 st7">replaces the hexcodes</tspan><tspan x="0" y="14.4" class="st5 st7">with the new list</tspan></text>
<text transform="matrix(1 0 0 1 455.2935 595.6157)"><tspan x="0" y="0" class="st5 st7">outputs a</tspan><tspan x="0" y="14.4" class="st5 st7">recolored .svg</tspan></text>
<polygon class="st4" points="98.51,601.75 91.85,597.91 91.85,605.59 "/>
<polygon class="st4" points="211.2,601.75 204.55,597.91 204.55,605.59 "/>
<polygon class="st4" points="314.94,601.75 308.29,597.91 308.29,605.59 "/>
<polygon class="st4" points="445.34,601.75 438.69,597.91 438.69,605.59 "/>
<g>
	<g>
		<path class="st19" d="M39.91,640.2c0.08,0.34,0.05,0.77-0.17,1.17c0.44,0.56,0.79,1.14,1.03,1.7c0.36,0.85,0.69,1.88,0.75,2.99
			c0.61,0.33,1.18,0.8,1.63,1.29c0.66,0.72,1.04,1.3,1.73,2.34c0.32-0.92,0.23-1.28,0.11-2.1c-0.38-2.62-1.9-5.16-3.5-7.19
			c-1.67-2.11-3.79-4.27-6-4.55c-0.12-0.01-0.24-0.03-0.35-0.05c0.04,0.09,0.08,0.18,0.11,0.27
			C35.79,637.45,39.54,638.51,39.91,640.2z"/>
		<path class="st20" d="M24.64,633.43c0.32,0.16,0.63,0.45,0.8,0.87c0.78,0,1.51,0.1,2.14,0.29c0.92,0.27,1.95,0.69,2.87,1.38
			c0.66-0.27,1.41-0.42,2.09-0.45c0.88-0.04,1.65,0.17,2.59,0.3c-0.32-0.69-0.92-1.32-1.62-1.73c-2.28-1.34-5.22-1.74-7.8-1.75
			c-2.66-0.01-5.87,0.27-7.36,1.68c0.1,0.01,0.2,0.03,0.3,0.05C19.79,634.4,23.09,632.66,24.64,633.43z"/>
		<path class="st21" d="M32.55,635.52c-0.69,0.03-1.43,0.18-2.09,0.45c0.85,0.64,1.61,1.52,2.07,2.74c0.08,0.2,0.14,0.41,0.19,0.62
			c0.56-0.06,1.15-0.03,1.73,0.08c0.04-0.2,0.12-0.38,0.23-0.51c0.56-0.66,1.85-0.07,2.79,0.49c0.92,0.54,1.68,1.24,2.28,1.99
			c0.22-0.4,0.25-0.82,0.17-1.17c-0.38-1.69-4.12-2.75-4.67-4.12c-0.03-0.09-0.07-0.18-0.11-0.27
			C34.2,635.68,33.43,635.48,32.55,635.52z"/>
		<path class="st22" d="M9.71,641.17c0.32-0.15,0.75-0.22,1.19-0.09c0.32-0.37,0.67-0.69,1.01-0.95c0.88-0.68,2.02-1.37,3.36-1.65
			c0.18-0.79,0.57-1.58,1.04-2.22c0.59-0.8,1.09-1.37,1.99-2.2c0.02-0.02,0.04-0.03,0.05-0.05c-0.84-0.09-1.73,0.27-2.49,0.56
			c-2.47,0.94-4.63,2.97-6.26,4.98c-1.69,2.08-3.41,4.79-3.21,7.09C7.6,645.87,8.15,641.91,9.71,641.17z"/>
		<path class="st23" d="M36.06,644.86c0.44-0.06,0.9-0.16,1.15-0.69c0.3-0.63-0.09-1.08-0.61-1.51c-0.45-0.37-1.15-0.59-1.63-1.02
			c-0.51,0.1-1.08,0.32-1.61,0.69c0.05,0.12,0.12,0.24,0.19,0.35C34.11,643.57,35.35,643.97,36.06,644.86z"/>
		<path class="st24" d="M16.31,636.26c-0.47,0.64-0.86,1.43-1.04,2.22c0.88-0.19,1.84-0.2,2.87,0.08c0.33,0.09,0.65,0.22,0.97,0.37
			c0.06-0.11,0.12-0.23,0.19-0.35c0.34-0.57,0.82-1.09,1.37-1.53c-0.1-0.14-0.16-0.28-0.19-0.42c-0.15-0.85,1.12-1.47,2.14-1.85
			c0.94-0.35,1.9-0.5,2.81-0.5c-0.17-0.42-0.49-0.71-0.8-0.87c-1.55-0.77-4.85,0.97-5.99,0.63c-0.1-0.02-0.2-0.04-0.3-0.05
			c-0.02,0.02-0.04,0.03-0.05,0.05C17.4,634.89,16.9,635.46,16.31,636.26z"/>
		<path class="st25" d="M34.97,641.64c-0.04-0.03-0.07-0.07-0.11-0.1c-0.33-0.34-0.58-1.4-0.42-2.14c-0.58-0.11-1.17-0.15-1.73-0.08
			c0.24,1.01,0.24,2.1,0.65,3.01C33.89,641.96,34.46,641.74,34.97,641.64z"/>
		<path class="st26" d="M6.4,657.38c0.09-0.35,0.31-0.72,0.7-0.98c-0.06-0.4-0.08-0.79-0.08-1.15c0.02-1.12,0.2-2.46,0.83-3.69
			c-0.51-0.64-0.89-1.45-1.09-2.22c-0.26-0.96-0.27-1.71-0.37-2.7c-0.66,0.47-0.97,1.25-1.25,2.12c-0.81,2.52-0.55,5.48,0,8
			c0.58,2.62,1.7,6.03,3.42,6.75c0.04,0.03,0.07,0.05,0.11,0.08c0-0.03,0-0.07,0-0.1C8.67,661.8,5.98,659.05,6.4,657.38z"/>
		<path class="st27" d="M38.57,642.18c0.57,1.15,0.54,2.41,0.32,3.55c0.82-0.34,1.77-0.13,2.63,0.34c-0.06-1.11-0.39-2.14-0.75-2.99
			c-0.24-0.56-0.59-1.15-1.03-1.7c-0.08,0.15-0.19,0.3-0.34,0.44C39.15,642.05,38.87,642.15,38.57,642.18z"/>
		<path class="st28" d="M25.94,639.41c0.25-0.39,0.49-0.83,0.23-1.38c-0.3-0.63-0.89-0.61-1.55-0.49c-0.61,0.12-1.27,0.57-1.96,0.63
			c-0.27,0.51-0.48,1.18-0.48,1.91C23.38,640.04,24.59,639.04,25.94,639.41z"/>
		<path class="st29" d="M38.38,641.83c0.07,0.11,0.13,0.23,0.19,0.35c0.3-0.02,0.57-0.13,0.83-0.37c0.14-0.14,0.25-0.28,0.34-0.44
			c-0.59-0.75-1.36-1.45-2.28-1.99c-0.94-0.55-2.22-1.14-2.79-0.49c-0.11,0.13-0.19,0.31-0.23,0.51
			C36.07,639.72,37.65,640.64,38.38,641.83z"/>
		<path class="st30" d="M7.85,651.55c0.4-0.79,0.99-1.53,1.84-2.15c0.31-0.23,0.65-0.41,1.01-0.57c-0.07-0.15-0.14-0.32-0.21-0.5
			c-0.13-0.37-0.22-0.78-0.27-1.19c-0.32,0.06-0.62,0.05-0.84-0.06c-0.78-0.38-0.53-1.77-0.23-2.82c0.35-1.24,1-2.33,1.74-3.17
			c-0.44-0.13-0.87-0.06-1.19,0.09c-1.57,0.74-2.12,4.7-3.32,5.46c0.1,0.99,0.12,1.74,0.37,2.7C6.97,650.1,7.34,650.92,7.85,651.55z
			"/>
		<path class="st31" d="M37.21,644.16c-0.25,0.53-0.71,0.64-1.15,0.69c0.29,0.37,0.5,0.81,0.53,1.41c0.02,0.43-0.15,0.87-0.44,1.31
			c0.83-0.26,1.55-1.36,2.73-1.85c0,0,0.01,0,0.01,0c0.22-1.14,0.25-2.4-0.32-3.55c-0.86,0.07-1.87-0.57-2.85-0.61
			c-0.22-0.01-0.48,0.01-0.75,0.07c0.49,0.43,1.18,0.65,1.63,1.02C37.12,643.08,37.51,643.53,37.21,644.16z"/>
		<path class="st32" d="M22.18,640.08c0.01-0.73,0.22-1.39,0.48-1.91c0,0-0.01,0-0.01,0c-0.49,0.04-1.54-0.49-1.98-1.11
			c-0.55,0.44-1.03,0.96-1.37,1.53c-0.07,0.12-0.14,0.23-0.19,0.35c0.95,0.45,1.85,1.07,2.85,1.14
			C22.04,640.08,22.11,640.08,22.18,640.08z"/>
		<path class="st33" d="M34.87,641.54c0.03,0.04,0.07,0.07,0.11,0.1c0.28-0.06,0.53-0.08,0.75-0.07c0.98,0.03,1.99,0.67,2.85,0.61
			c-0.06-0.12-0.12-0.23-0.19-0.35c-0.73-1.19-2.31-2.11-3.94-2.42C34.29,640.14,34.54,641.2,34.87,641.54z"/>
		<path class="st34" d="M17.85,670.67c-0.23-0.27-0.4-0.67-0.38-1.12c-0.78-0.33-1.47-0.77-2.01-1.24
			c-0.79-0.68-1.63-1.58-2.18-2.73c-0.77-0.03-1.57-0.23-2.24-0.52c-0.87-0.38-1.51-0.84-2.36-1.48c0.02,0.79,0.22,1.4,0.69,2.14
			c1.43,2.22,3.88,3.9,6.18,5.08c2.39,1.22,5.3,1.98,7.68,1.74c0.17-0.03,0.32-0.07,0.47-0.11
			C22.16,671.72,18.95,672.01,17.85,670.67z"/>
		<path class="st35" d="M18.15,668.3c-1.34-1.01-1.86-2.64-2.14-4.04c-0.12,0.19-0.26,0.37-0.42,0.54c-0.56,0.6-1.42,0.82-2.32,0.79
			c0.55,1.14,1.39,2.05,2.18,2.73c0.54,0.47,1.23,0.9,2.01,1.24c0.01-0.17,0.04-0.35,0.1-0.54
			C17.69,668.68,17.89,668.46,18.15,668.3z"/>
		<path class="st36" d="M25.32,635.73c1.37,0.33,2.39,1.29,3.17,2.28c0.02-0.09,0.04-0.17,0.07-0.26c0.26-0.84,1-1.43,1.9-1.79
			c-0.92-0.69-1.95-1.11-2.87-1.38c-0.63-0.18-1.37-0.29-2.14-0.29c0.07,0.16,0.11,0.34,0.13,0.54
			C25.6,635.19,25.5,635.48,25.32,635.73z"/>
		<path class="st37" d="M28.56,637.75c-0.03,0.09-0.05,0.17-0.07,0.26c0.23,0.29,0.43,0.58,0.62,0.86c0.4,0.6,0.84,1.27,1.03,1.86
			c0.49-0.7,1.2-1.24,2.48-1.4c0.03,0,0.06-0.01,0.08-0.01c-0.05-0.21-0.11-0.42-0.19-0.62c-0.46-1.21-1.22-2.09-2.07-2.74
			C29.56,636.33,28.82,636.91,28.56,637.75z"/>
		<path class="st38" d="M13.85,643.3c-0.69-0.13-1.02,0.36-1.31,0.97c-0.18,0.38-0.25,0.87-0.38,1.33c0.23,0.55,0.63,1.15,1.22,1.63
			c0.64-0.82,0.7-2.12,1.43-2.99C14.64,643.82,14.42,643.41,13.85,643.3z"/>
		<path class="st39" d="M33.79,645.7c0.42-0.32,1.06-0.61,1.7-0.76c0.17-0.04,0.37-0.06,0.57-0.08c-0.71-0.88-1.95-1.28-2.51-2.18
			c-0.07-0.11-0.13-0.23-0.19-0.35c-0.38,0.26-0.73,0.61-1.01,1.04c-0.13,0.2-0.26,0.44-0.37,0.7
			C32.73,644.13,33.27,644.89,33.79,645.7z"/>
		<path class="st40" d="M24.84,635.64c0.17,0.02,0.33,0.05,0.48,0.09c0.18-0.25,0.28-0.54,0.25-0.9c-0.02-0.2-0.06-0.38-0.13-0.54
			c-0.91,0-1.87,0.15-2.81,0.5c-1.02,0.38-2.29,0.99-2.14,1.85c0.03,0.14,0.09,0.28,0.19,0.42
			C21.91,636.07,23.52,635.48,24.84,635.64z"/>
		<path class="st41" d="M30.15,640.73c0.06,0.18,0.09,0.34,0.1,0.5c0.03,0.99-0.65,2.46-1.15,3.74c-0.38,0.98-1.21,2.66-0.64,3.7
			c0.47-0.68,0.73-1.46,1.16-2.28c0.44-0.85,1.23-2.13,2.01-2.31c0.13-0.03,0.25-0.04,0.37-0.03c0.11-0.26,0.24-0.49,0.37-0.7
			c0.28-0.43,0.63-0.77,1.01-1.04c-0.41-0.91-0.41-2-0.65-3.01c-0.03,0-0.06,0.01-0.08,0.01C31.34,639.49,30.63,640.03,30.15,640.73
			z"/>
		<path class="st42" d="M13.27,665.59c-0.42-0.88-0.68-1.9-0.6-3.07c0.01-0.18,0.04-0.36,0.07-0.55c-0.51-0.18-1.01-0.44-1.47-0.77
			c-0.12,0.16-0.26,0.28-0.41,0.35c-0.78,0.37-1.71-0.7-2.34-1.58c-0.8-1.13-1.26-2.41-1.43-3.57c-0.38,0.26-0.61,0.63-0.7,0.98
			c-0.42,1.68,2.27,4.42,2.27,6.1c0,0.03,0,0.07,0,0.1c0.86,0.64,1.49,1.1,2.36,1.48C11.71,665.36,12.51,665.56,13.27,665.59z"/>
		<path class="st43" d="M15.59,664.8c0.16-0.17,0.3-0.35,0.42-0.54c-0.03-0.14-0.05-0.27-0.07-0.41c-0.12-0.69-0.25-1.46-0.19-2.07
			c-0.72,0.43-1.58,0.62-2.81,0.25c-0.07-0.02-0.13-0.04-0.2-0.07c-0.03,0.18-0.06,0.36-0.07,0.55c-0.08,1.17,0.18,2.19,0.6,3.07
			C14.17,665.62,15.03,665.4,15.59,664.8z"/>
		<path class="st44" d="M26.17,638.02c0.26,0.55,0.02,0.99-0.23,1.38c0.23,0.06,0.47,0.17,0.71,0.33c0.53,0.35,0.85,1.07,1.01,1.9
			c0.08-0.04,0.16-0.08,0.23-0.14c0.82-0.68,0.27-2.08,0.6-3.49c-0.78-0.99-1.8-1.95-3.17-2.28c-0.5,0.7-1.61,1.08-2.24,1.82
			c-0.14,0.16-0.28,0.38-0.41,0.62c0.69-0.06,1.35-0.51,1.96-0.63C25.28,637.41,25.87,637.39,26.17,638.02z"/>
		<path class="st45" d="M27.9,641.5c-0.07,0.06-0.14,0.1-0.23,0.14c0.18,0.89,0.2,1.9,0.14,2.71c-0.02,0.35-0.08,0.78-0.16,1.22
			c0.8-0.6,1.03-1.71,1.4-2.54c0.36-0.8,0.62-1.63,1.09-2.3c-0.19-0.6-0.63-1.26-1.03-1.86c-0.19-0.28-0.39-0.57-0.62-0.86
			C28.17,639.42,28.71,640.81,27.9,641.5z"/>
		<path class="st46" d="M13.26,647.36c0.04-0.04,0.08-0.09,0.11-0.14c-0.58-0.48-0.99-1.08-1.22-1.63
			c-0.07,0.22-0.15,0.44-0.26,0.63c-0.21,0.35-0.98,0.79-1.67,0.91c0.05,0.41,0.14,0.81,0.27,1.19c0.06,0.18,0.13,0.35,0.21,0.5
			C11.62,648.4,12.6,648.08,13.26,647.36z"/>
		<path class="st47" d="M35.58,647.62c0.2,0.04,0.39,0.02,0.57-0.04c0.29-0.44,0.46-0.88,0.44-1.31c-0.03-0.6-0.24-1.05-0.53-1.41
			c-0.2,0.03-0.4,0.04-0.57,0.08c-0.64,0.15-1.29,0.44-1.7,0.76C34.35,646.57,34.88,647.49,35.58,647.62z"/>
		<path class="st48" d="M22.65,638.17c0,0,0.01,0,0.01,0c0.13-0.25,0.27-0.46,0.41-0.62c0.64-0.74,1.75-1.12,2.24-1.82
			c-0.16-0.04-0.32-0.07-0.48-0.09c-1.32-0.16-2.93,0.43-4.16,1.42C21.11,637.69,22.16,638.22,22.65,638.17z"/>
		<path class="st49" d="M27.65,645.57c-0.1,0.57-0.24,1.17-0.37,1.69c-0.26,1.04-0.61,2-0.54,2.83c0.55-0.22,1.08-0.61,1.51-1.15
			c0.07-0.08,0.13-0.17,0.19-0.25c-0.57-1.04,0.27-2.73,0.64-3.7c0.5-1.28,1.19-2.75,1.15-3.74c-0.01-0.16-0.04-0.33-0.1-0.5
			c-0.47,0.67-0.73,1.5-1.09,2.3C28.68,643.85,28.45,644.97,27.65,645.57z"/>
		<path class="st50" d="M34.58,669.7c-0.35,0.01-0.77-0.11-1.11-0.4c-0.75,0.4-1.51,0.67-2.21,0.8c-1.07,0.2-2.36,0.29-3.66-0.04
			c-0.51,0.61-1.2,1.12-1.89,1.47c-0.74,0.38-1.27,0.7-2.01,0.9c0,0,0,0,0,0c0.62,0.35,1.73,0.72,2.64,0.77
			c2.64,0.15,5.44-0.84,7.74-2c2.4-1.21,4.6-2.85,5.81-4.92c0.07-0.13,0.14-0.26,0.19-0.38c-0.13,0.05-0.25,0.1-0.37,0.14
			C38.19,666.5,36.31,669.67,34.58,669.7z"/>
		<path class="st51" d="M30.54,665.11c-0.04,0.44-0.04,0.91,0.42,1.27c0.55,0.43,1.07,0.15,1.6-0.26c0.49-0.38,0.88-1.09,1.47-1.45
			c0.03-0.02,0.07-0.04,0.11-0.06c0.01-0.51-0.09-1.1-0.33-1.68c-0.18,0.03-0.35,0.07-0.52,0.13
			C32.29,663.43,31.63,664.63,30.54,665.11z"/>
		<path class="st52" d="M33.11,668.88c-0.17-0.28-0.23-0.55-0.2-0.83c-1.68,0.52-3.32-0.09-4.63-0.79c0.05,0.18,0.09,0.37,0.12,0.56
			c0.1,0.79-0.24,1.56-0.8,2.22c1.29,0.33,2.59,0.24,3.66,0.04c0.7-0.13,1.47-0.4,2.21-0.8C33.34,669.18,33.21,669.05,33.11,668.88z
			"/>
		<path class="st53" d="M32.57,666.12c-0.53,0.41-1.05,0.69-1.6,0.26c-0.46-0.36-0.46-0.83-0.42-1.27
			c-0.39,0.17-0.84,0.25-1.38,0.17c-0.61-0.1-1.17-0.6-1.65-1.26c-0.03,0.04-0.05,0.08-0.07,0.13c-0.43,0.89,0.47,1.85,0.84,3.12
			c1.3,0.7,2.95,1.31,4.63,0.79c0.07-0.88,0.93-1.75,1.17-2.73c0.05-0.2,0.08-0.45,0.08-0.71c-0.04,0.02-0.08,0.04-0.11,0.06
			C33.45,665.03,33.06,665.73,32.57,666.12z"/>
		<path class="st54" d="M11.92,642.01c1.08-0.92,2.45-1.15,3.71-1.15c-0.02-0.03-0.04-0.06-0.06-0.09
			c-0.44-0.64-0.48-1.47-0.29-2.29c-1.34,0.28-2.48,0.97-3.36,1.65c-0.34,0.27-0.68,0.59-1.01,0.95c0.16,0.05,0.33,0.12,0.49,0.23
			C11.67,641.5,11.83,641.74,11.92,642.01z"/>
		<path class="st55" d="M31.89,661.25c-0.04,0.81-0.78,1.21-1.65,1.52c0.21,0.47,0.34,1.13,0.34,1.77c0,0.18-0.03,0.37-0.05,0.58
			c1.08-0.48,1.74-1.68,2.77-2.05c0.17-0.06,0.34-0.1,0.52-0.13c-0.18-0.45-0.46-0.88-0.84-1.26c-0.31-0.3-0.72-0.6-1.17-0.88
			C31.87,660.95,31.9,661.1,31.89,661.25z"/>
		<path class="st56" d="M15.57,640.77c0.02,0.03,0.04,0.06,0.06,0.09c0.46,0,0.9,0.03,1.31,0.07c0.63,0.06,1.32,0.13,1.87,0.3
			c-0.17-0.68-0.14-1.42,0.31-2.29c-0.32-0.15-0.64-0.28-0.97-0.37c-1.03-0.28-1.99-0.27-2.87-0.08
			C15.08,639.3,15.13,640.12,15.57,640.77z"/>
		<path class="st57" d="M27.52,664.02c0.48,0.66,1.04,1.16,1.65,1.26c0.54,0.09,0.99,0.01,1.38-0.17c0.02-0.2,0.05-0.4,0.05-0.58
			c-0.01-0.64-0.14-1.3-0.34-1.77C29.2,663.14,27.96,663.37,27.52,664.02z"/>
		<path class="st58" d="M10.71,655.71c-0.53,0.46-0.36,1.02-0.06,1.62c0.16,0.31,0.42,0.62,0.66,0.94c0.57,0.18,1.32,0.27,2.08,0.12
			c-0.16-0.98-1.03-1.81-1.34-2.84C11.62,655.42,11.16,655.33,10.71,655.71z"/>
		<path class="st59" d="M14.39,655.73c-0.5,0.1-1.17,0.1-1.79-0.02c-0.17-0.03-0.35-0.1-0.55-0.16c0.3,1.03,1.17,1.86,1.34,2.84
			c0.4-0.08,0.8-0.22,1.18-0.44c0.23-0.13,0.46-0.3,0.7-0.5C14.7,657.17,14.5,656.5,14.39,655.73z"/>
		<path class="st60" d="M25.18,641.63c0.02-0.52,0.2-1.2,0.49-1.79c0.07-0.14,0.17-0.29,0.26-0.44c-1.35-0.37-2.56,0.64-3.76,0.67
			c0,0.39,0.05,0.8,0.18,1.22c0.09,0.27,0.21,0.55,0.37,0.84C23.2,641.46,24.18,641.51,25.18,641.63z"/>
		<path class="st61" d="M25.98,645.92c-0.01-1.25-0.82-2.89-0.79-4.26c0-0.01,0-0.02,0-0.03c-1.01-0.12-1.98-0.17-2.45,0.5
			c0.4,0.76,0.97,1.55,1.41,2.17C24.58,644.91,25.15,645.7,25.98,645.92z"/>
		<path class="st62" d="M11.73,642.18c0.06-0.06,0.13-0.11,0.19-0.17c-0.09-0.27-0.25-0.51-0.53-0.7c-0.16-0.11-0.33-0.18-0.49-0.23
			c-0.74,0.84-1.39,1.93-1.74,3.17c-0.3,1.05-0.55,2.44,0.23,2.82c0.22,0.11,0.52,0.12,0.84,0.06
			C10.02,645.32,10.6,643.26,11.73,642.18z"/>
		<path class="st63" d="M17.14,655.58c0.42-0.46,0.95-1.04,1.13-1.72c-1.18,0.38-2.5,1.53-3.79,1.85c-0.03,0.01-0.07,0.02-0.1,0.02
			c0.11,0.77,0.32,1.44,0.89,1.72C15.94,656.9,16.61,656.16,17.14,655.58z"/>
		<path class="st64" d="M18.8,641.23c0.26,0.08,0.5,0.19,0.68,0.33c0.78,0.6,1.48,2.06,2.16,3.26c0.52,0.92,1.31,2.67,2.5,2.86
			c-0.22-0.8-0.65-1.5-1.02-2.37c-0.37-0.88-0.85-2.31-0.48-3.02c0.03-0.05,0.06-0.1,0.09-0.15c-0.15-0.29-0.28-0.57-0.37-0.84
			c-0.13-0.41-0.19-0.82-0.18-1.22c-0.07,0-0.14,0-0.22,0c-1.01-0.07-1.91-0.69-2.85-1.14C18.67,639.81,18.64,640.55,18.8,641.23z"
			/>
		<path class="st65" d="M25.12,647.47c0.65-0.35,0.86-0.9,0.86-1.55c-0.83-0.22-1.4-1.01-1.83-1.62c-0.44-0.62-1.01-1.42-1.41-2.17
			c-0.03,0.05-0.06,0.09-0.09,0.15c-0.37,0.71,0.11,2.14,0.48,3.02c0.36,0.87,0.79,1.57,1.02,2.37
			C24.44,647.72,24.77,647.67,25.12,647.47z"/>
		<path class="st66" d="M27.6,670.05c-0.9-0.23-1.79-0.66-2.61-1.41c-0.14-0.12-0.26-0.26-0.39-0.4c-0.54,0.34-1.17,0.59-1.83,0.75
			c0.02,0.15,0.02,0.29-0.01,0.41c-0.22,0.84-1.63,0.87-2.72,0.79c-0.92-0.07-1.8-0.3-2.58-0.64c-0.01,0.46,0.15,0.85,0.38,1.12
			c1.11,1.33,4.31,1.04,5.84,1.75c0.74-0.2,1.28-0.53,2.01-0.9C26.39,671.17,27.08,670.66,27.6,670.05z"/>
		<path class="st67" d="M18.52,668.55c-0.13-0.08-0.25-0.16-0.37-0.25c-0.26,0.16-0.46,0.38-0.58,0.71c-0.06,0.19-0.1,0.36-0.1,0.54
			c0.78,0.33,1.66,0.57,2.58,0.64c1.09,0.08,2.5,0.05,2.72-0.79c0.03-0.13,0.03-0.27,0.01-0.41
			C21.27,669.35,19.62,669.22,18.52,668.55z"/>
		<path class="st68" d="M28.4,667.83c-0.03-0.19-0.07-0.38-0.12-0.56c-0.17-0.09-0.34-0.19-0.5-0.28c-0.51-0.3-1.06-0.62-1.48-0.98
			c-0.15,0.75-0.56,1.46-1.52,2.12c-0.06,0.04-0.11,0.08-0.17,0.11c0.12,0.14,0.25,0.27,0.39,0.4c0.82,0.75,1.71,1.18,2.61,1.41
			C28.15,669.39,28.5,668.62,28.4,667.83z"/>
		<path class="st69" d="M27.44,664.15c0.02-0.04,0.05-0.09,0.07-0.13c-0.55-0.75-0.99-1.7-1.28-2.49c-0.04-0.11-0.08-0.23-0.12-0.36
			c-0.05,0.68,0.1,1.4,0.14,2.03c0.05,0.97,0.23,1.92,0.05,2.81c0.42,0.36,0.97,0.68,1.48,0.98c0.16,0.09,0.33,0.19,0.5,0.28
			C27.91,666,27.02,665.04,27.44,664.15z"/>
		<path class="st70" d="M13.85,643.3c0.57,0.11,0.79,0.52,0.96,0.94c0.27-0.32,0.62-0.58,1.12-0.75c0.61-0.2,1.36,0.01,2.12,0.39
			c0.02-0.09,0.03-0.17,0.03-0.26c-0.02-1.1-1.56-1.54-2.45-2.77c-1.26,0-2.63,0.24-3.71,1.15c0.27,0.83-0.14,1.97,0.04,2.95
			c0.04,0.19,0.1,0.41,0.2,0.64c0.14-0.46,0.2-0.95,0.38-1.33C12.83,643.66,13.16,643.17,13.85,643.3z"/>
		<path class="st71" d="M27.58,659.23c0.57,1.12,2.04,2.21,2.63,3.45c0.01,0.03,0.02,0.05,0.04,0.08c0.87-0.31,1.61-0.71,1.65-1.52
			c0.01-0.14-0.02-0.3-0.08-0.46c-0.6-0.37-1.25-0.7-1.79-0.98C29.34,659.46,28.44,659,27.58,659.23z"/>
		<path class="st72" d="M18.07,643.62c0,0.09-0.01,0.17-0.03,0.26c0.81,0.41,1.61,1.03,2.21,1.58c0.25,0.23,0.54,0.54,0.83,0.87
			c0.01-0.98-0.7-1.85-1.11-2.64c-0.43-0.84-0.96-1.6-1.17-2.46c-0.55-0.17-1.24-0.24-1.87-0.3c-0.41-0.04-0.85-0.07-1.31-0.07
			C16.52,642.08,18.05,642.52,18.07,643.62z"/>
		<path class="st73" d="M27.52,664.02c0.44-0.65,1.68-0.89,2.73-1.26c-0.01-0.03-0.02-0.05-0.04-0.08
			c-0.59-1.24-2.06-2.33-2.63-3.45c-0.24,0.06-0.48,0.18-0.71,0.38c-0.53,0.44-0.72,0.99-0.76,1.56c0.04,0.13,0.08,0.25,0.12,0.36
			C26.52,662.32,26.97,663.27,27.52,664.02z"/>
		<path class="st74" d="M13.4,658.47c0-0.03-0.01-0.05-0.01-0.08c-0.76,0.15-1.51,0.06-2.08-0.12c0.19,0.25,0.37,0.51,0.47,0.8
			c0.16,0.45-0.05,1.53-0.5,2.14c0.46,0.33,0.96,0.59,1.47,0.77C12.96,660.79,13.55,659.63,13.4,658.47z"/>
		<path class="st75" d="M15.75,661.79c0.02-0.2,0.06-0.39,0.12-0.55c0.37-0.91,1.6-1.98,2.58-2.94c0.81-0.8,2.45-2.14,2.05-3.41
			c-0.76,0.39-1.36,0.98-2.15,1.53c-0.78,0.55-2.07,1.33-2.84,1.13c-0.09-0.02-0.16-0.05-0.24-0.09c-0.24,0.2-0.47,0.37-0.7,0.5
			c-0.38,0.22-0.79,0.36-1.18,0.44c0,0.03,0.01,0.05,0.01,0.08c0.15,1.16-0.44,2.32-0.65,3.5c0.07,0.02,0.13,0.05,0.2,0.07
			C14.17,662.4,15.03,662.22,15.75,661.79z"/>
		<path class="st76" d="M27.67,641.64c-0.17-0.83-0.48-1.55-1.01-1.9c-0.24-0.16-0.48-0.26-0.71-0.33c-0.1,0.15-0.19,0.3-0.26,0.44
			c-0.29,0.59-0.47,1.26-0.49,1.79C26.11,641.74,27.07,641.92,27.67,641.64z"/>
		<path class="st77" d="M27.67,641.64c-0.6,0.28-1.56,0.11-2.49-0.01c0,0.01,0,0.02,0,0.03c-0.03,1.37,0.78,3,0.79,4.26
			c0.27,0.07,0.56,0.08,0.88,0.01c0.32-0.07,0.58-0.2,0.8-0.36c0.08-0.45,0.14-0.87,0.16-1.22
			C27.87,643.54,27.85,642.52,27.67,641.64z"/>
		<path class="st78" d="M11.9,646.23c0.12-0.19,0.2-0.41,0.26-0.63c-0.1-0.23-0.16-0.45-0.2-0.64c-0.18-0.98,0.23-2.12-0.04-2.95
			c-0.06,0.05-0.13,0.11-0.19,0.17c-1.13,1.08-1.71,3.14-1.5,4.96C10.92,647.02,11.69,646.58,11.9,646.23z"/>
		<path class="st79" d="M18.27,653.86c-0.18,0.68-0.71,1.26-1.13,1.72c-0.53,0.58-1.2,1.32-1.87,1.87c0.07,0.04,0.15,0.07,0.24,0.09
			c0.77,0.2,2.06-0.57,2.84-1.13c0.79-0.56,1.39-1.14,2.15-1.53c-0.07-0.22-0.19-0.43-0.39-0.64
			C19.56,653.67,18.94,653.64,18.27,653.86z"/>
		<path class="st80" d="M21.09,646.33c0.39,0.44,0.78,0.93,1.11,1.37c0.66,0.87,1.2,1.76,1.91,2.21c0.2-0.58,0.25-1.25,0.1-1.95
			c-0.02-0.1-0.04-0.19-0.07-0.29c-1.19-0.19-1.98-1.93-2.5-2.86c-0.67-1.2-1.38-2.66-2.16-3.26c-0.18-0.14-0.41-0.24-0.68-0.33
			c0.21,0.86,0.74,1.62,1.17,2.46C20.38,644.48,21.09,645.35,21.09,646.33z"/>
		<path class="st81" d="M24.11,649.91c0.01,0.01,0.02,0.01,0.03,0.02c0.75,0.46,1.71,0.51,2.61,0.15c-0.08-0.83,0.28-1.79,0.54-2.83
			c0.13-0.52,0.27-1.12,0.37-1.69c-0.22,0.17-0.48,0.29-0.8,0.36c-0.32,0.07-0.61,0.06-0.88-0.01c0.01,0.65-0.2,1.2-0.86,1.55
			c-0.35,0.19-0.68,0.24-0.98,0.2c0.03,0.09,0.05,0.19,0.07,0.29C24.36,648.67,24.31,649.33,24.11,649.91z"/>
		<path class="st82" d="M44.91,649.75c-0.01-0.02-0.02-0.03-0.03-0.05c-0.03,0.09-0.07,0.2-0.11,0.3c-0.37,1.17,0.52,5.07-0.56,6.41
			c-0.22,0.27-0.57,0.52-1.02,0.6c-0.16,0.71-0.41,1.36-0.7,1.91c-0.43,0.8-1.03,1.69-1.84,2.42c0.12,0.68,0.11,1.41,0.01,2.06
			c-0.14,0.86-0.17,1.59-0.57,2.48c0.61-0.25,1.27-0.68,1.78-1.24c1.77-1.97,2.75-4.77,3.27-7.3
			C45.68,654.73,46.03,651.43,44.91,649.75z"/>
		<path class="st83" d="M41.52,646.06c0.06,1.1-0.13,2.28-0.8,3.44c-0.12,0.21-0.26,0.41-0.41,0.61c0.01,0.01,0.01,0.01,0.02,0.02
			c0.45,0.43,0.82,0.96,1.12,1.55c0.17-0.08,0.35-0.13,0.51-0.12c0.87,0.03,1.2,1.4,1.35,2.48c0.15,1.03,0.08,2.06-0.13,2.98
			c0.45-0.08,0.8-0.32,1.02-0.6c1.08-1.35,0.2-5.25,0.56-6.41c0.04-0.11,0.08-0.21,0.11-0.3c-0.68-1.04-1.07-1.62-1.73-2.34
			C42.71,646.86,42.14,646.4,41.52,646.06z"/>
		<path class="st84" d="M38.16,656.35c0.32,0.31,0.69,0.6,1.26,0.47c0.68-0.16,0.79-0.74,0.8-1.41c0.01-0.59-0.26-1.29-0.22-1.95
			c-0.41-0.35-0.97-0.67-1.61-0.85c-0.03,0.07-0.06,0.14-0.08,0.21C37.94,653.88,38.51,655.18,38.16,656.35z"/>
		<path class="st85" d="M40,653.46c0-0.04,0.01-0.07,0.01-0.11c0.06-0.48,0.76-1.35,1.45-1.67c-0.3-0.58-0.68-1.12-1.12-1.55
			c-0.01-0.01-0.01-0.01-0.02-0.02c-0.66,0.84-1.53,1.56-1.93,2.5C39.03,652.79,39.58,653.11,40,653.46z"/>
		<path class="st86" d="M42.63,657.02c-0.35-0.05-0.61-0.21-0.82-0.43c-0.55,1.16-1.56,1.92-2.59,2.45c0.01,0,0.01,0.01,0.02,0.01
			c0.79,0.43,1.22,1.31,1.39,2.29c0.81-0.73,1.41-1.62,1.84-2.42c0.3-0.55,0.54-1.2,0.7-1.91
			C43.01,657.04,42.83,657.05,42.63,657.02z"/>
		<path class="st87" d="M43.32,654.04c-0.15-1.08-0.49-2.45-1.35-2.48c-0.16-0.01-0.33,0.04-0.51,0.12c0.74,1.45,1,3.21,0.54,4.5
			c-0.05,0.15-0.11,0.28-0.18,0.42c0.2,0.22,0.46,0.38,0.82,0.43c0.2,0.03,0.38,0.02,0.55-0.01
			C43.4,656.09,43.46,655.07,43.32,654.04z"/>
		<path class="st88" d="M40,653.46c-0.04,0.66,0.23,1.35,0.22,1.95c-0.01,0.67-0.12,1.25-0.8,1.41c-0.57,0.13-0.94-0.16-1.26-0.47
			c-0.11,0.39-0.33,0.76-0.71,1.1c-0.36,0.33-0.9,0.47-1.51,0.51c0.68,0.62,2.08,0.44,3.28,1.09c1.03-0.54,2.03-1.3,2.59-2.45
			c-0.58-0.63-0.71-1.81-1.3-2.59C40.39,653.82,40.21,653.64,40,653.46z"/>
		<path class="st89" d="M40.01,653.35c0,0.04-0.01,0.07-0.01,0.11c0.22,0.18,0.39,0.37,0.52,0.54c0.58,0.78,0.72,1.96,1.3,2.59
			c0.06-0.13,0.12-0.27,0.18-0.42c0.46-1.29,0.21-3.05-0.54-4.5C40.77,651.99,40.07,652.87,40.01,653.35z"/>
		<path class="st90" d="M8.7,656.32c0.17-1.42,1.02-2.64,1.83-3.59c-0.24,0.02-0.48,0.03-0.73,0.01c-0.77-0.06-1.43-0.54-1.95-1.19
			c-0.63,1.23-0.81,2.57-0.83,3.69c-0.01,0.36,0.02,0.75,0.08,1.15c0.14-0.09,0.3-0.17,0.48-0.23C8,656.05,8.37,656.13,8.7,656.32z"
			/>
		<path class="st91" d="M38.9,645.72c-0.1,0.52-0.24,1.01-0.38,1.46c-0.21,0.65-0.44,1.37-0.76,1.89c0.82-0.04,1.66,0.19,2.56,1.04
			c0.15-0.19,0.29-0.39,0.41-0.61c0.67-1.17,0.86-2.34,0.8-3.44C40.66,645.6,39.72,645.39,38.9,645.72z"/>
		<path class="st92" d="M36.08,655.09c0.51,0.13,1.14,0.45,1.66,0.86c0.14,0.11,0.27,0.26,0.42,0.4c0.35-1.17-0.22-2.47,0.14-3.53
			c0.02-0.07,0.05-0.14,0.08-0.21c-0.42-0.12-0.88-0.17-1.37-0.12c-0.24,0.02-0.5,0.07-0.77,0.14
			C36.66,653.26,36.39,654.18,36.08,655.09z"/>
		<path class="st93" d="M37.76,649.07c-0.12,0.19-0.25,0.35-0.39,0.47c-0.75,0.64-2.33,1.02-3.64,1.43c-1,0.31-2.82,0.71-3.29,1.78
			c0.82-0.06,1.59-0.34,2.5-0.52c0.94-0.19,2.43-0.37,3.06,0.13c0.11,0.08,0.19,0.18,0.26,0.28c0.27-0.07,0.53-0.12,0.77-0.14
			c0.48-0.05,0.94,0.01,1.37,0.12c0.4-0.94,1.27-1.66,1.93-2.5C39.41,649.25,38.58,649.02,37.76,649.07z"/>
		<path class="st94" d="M9.81,652.74c0.25,0.02,0.49,0.01,0.73-0.01c0.08-0.09,0.15-0.18,0.23-0.26c0.62-0.7,1.33-1.49,2.01-1.69
			c0.12-0.03,0.24-0.06,0.38-0.08c-0.98-0.24-1.86-0.67-2.44-1.88c-0.35,0.17-0.7,0.35-1.01,0.57c-0.85,0.62-1.44,1.37-1.84,2.15
			C8.37,652.21,9.04,652.68,9.81,652.74z"/>
		<path class="st95" d="M36.15,647.58c-0.6,0.91-1.71,1.78-2.6,2.35c-0.15,0.1-0.33,0.2-0.52,0.3c0.75-0.04,1.5-0.38,2.18-0.56
			c0.87-0.23,1.71-0.56,2.55-0.6c0.32-0.52,0.55-1.23,0.76-1.89c0.14-0.45,0.28-0.94,0.38-1.46c0,0-0.01,0-0.01,0
			C37.7,646.22,36.99,647.31,36.15,647.58z"/>
		<path class="st96" d="M36.08,655.09c-0.33,0.97-0.7,1.95-0.37,2.57c0.06,0.12,0.14,0.22,0.23,0.3c0.61-0.03,1.15-0.18,1.51-0.51
			c0.38-0.34,0.59-0.72,0.71-1.1c-0.15-0.14-0.28-0.29-0.42-0.4C37.22,655.54,36.59,655.22,36.08,655.09z"/>
		<path class="st97" d="M33.03,650.22c-0.65,0.35-1.46,0.71-2.15,0.99c-0.95,0.38-1.88,0.65-2.51,1.15c0.5,0.26,1.08,0.4,1.74,0.4
			c0.11,0,0.21-0.01,0.32-0.01c0.47-1.08,2.3-1.47,3.29-1.78c1.31-0.41,2.89-0.79,3.64-1.43c0.14-0.12,0.27-0.28,0.39-0.47
			c-0.84,0.04-1.68,0.37-2.55,0.6C34.54,649.84,33.78,650.18,33.03,650.22z"/>
		<path class="st98" d="M18.9,664.65c-0.37,0.24-0.74,0.54-0.73,1.12c0.01,0.7,0.56,0.93,1.21,1.09c0.61,0.15,1.4,0.01,2.05,0.24
			c0.04,0.01,0.08,0.03,0.12,0.06c0.41-0.32,0.82-0.77,1.12-1.33c-0.13-0.11-0.26-0.2-0.4-0.29
			C21.33,664.97,19.96,665.23,18.9,664.65z"/>
		<path class="st99" d="M19.38,666.86c-0.65-0.16-1.2-0.39-1.21-1.09c-0.01-0.58,0.36-0.88,0.73-1.12c-0.36-0.2-0.69-0.49-0.95-0.95
			c-0.29-0.52-0.27-1.23-0.08-1.99c-0.01,0-0.03,0-0.04,0.01c-0.93,0.23-1.12,1.47-1.82,2.54c0.27,1.4,0.8,3.03,2.14,4.04
			c0.74-0.45,1.92-0.34,2.8-0.76c0.19-0.09,0.4-0.22,0.61-0.38c-0.04-0.02-0.08-0.04-0.12-0.06
			C20.78,666.87,19.99,667.01,19.38,666.86z"/>
		<path class="st100" d="M22.9,663.32c-0.69,0.51-1.51,0.13-2.34-0.38c-0.24,0.46-0.68,0.98-1.18,1.39
			c-0.14,0.11-0.31,0.21-0.48,0.33c1.06,0.57,2.43,0.32,3.38,0.89c0.14,0.09,0.27,0.18,0.4,0.29c0.23-0.42,0.39-0.9,0.45-1.43
			c0.04-0.38,0.02-0.82-0.03-1.28C23.04,663.2,22.97,663.27,22.9,663.32z"/>
		<path class="st101" d="M17.87,661.72c-0.19,0.75-0.22,1.47,0.08,1.99c0.26,0.46,0.59,0.75,0.95,0.95
			c0.17-0.11,0.34-0.21,0.48-0.33c0.5-0.41,0.94-0.93,1.18-1.39C19.6,662.34,18.64,661.56,17.87,661.72z"/>
		<path class="st59" d="M16.14,646.18c-0.4-0.33-0.81-0.85-1.1-1.41c-0.08-0.16-0.15-0.35-0.22-0.54c-0.73,0.88-0.79,2.17-1.43,2.99
			c0.31,0.25,0.66,0.47,1.07,0.62c0.27,0.1,0.58,0.18,0.9,0.24C15.14,647.42,15.56,646.79,16.14,646.18z"/>
		<path class="st102" d="M31,649.02c0.96-0.81,1.7-2.46,2.78-3.31c0.01,0,0.01-0.01,0.02-0.01c-0.52-0.81-1.07-1.57-1.81-1.64
			c-0.36,0.81-0.64,1.8-0.85,2.58C30.94,647.34,30.69,648.25,31,649.02z"/>
		<path class="st61" d="M20.05,648.06c-1.03-0.7-2.78-1.01-3.84-1.82c-0.03-0.02-0.05-0.04-0.08-0.06c-0.57,0.61-0.99,1.23-0.78,1.9
			c0.84,0.15,1.8,0.2,2.56,0.24C18.57,648.36,19.4,648.4,20.05,648.06z"/>
		<path class="st103" d="M29.24,649.35c0.69,0.28,1.25,0.09,1.75-0.33c-0.31-0.77-0.06-1.68,0.14-2.38
			c0.22-0.77,0.49-1.77,0.85-2.58c-0.12-0.01-0.24,0-0.37,0.03c-0.78,0.17-1.57,1.45-2.01,2.31c-0.43,0.83-0.69,1.6-1.16,2.28
			C28.6,648.96,28.85,649.19,29.24,649.35z"/>
		<path class="st104" d="M8.71,657.42c-0.05-0.38-0.05-0.74-0.01-1.09c-0.33-0.19-0.7-0.28-1.12-0.15
			c-0.18,0.05-0.34,0.13-0.48,0.23c0.17,1.17,0.62,2.45,1.43,3.57c0.63,0.89,1.56,1.95,2.34,1.58c0.15-0.07,0.29-0.2,0.41-0.35
			C9.94,660.25,8.89,658.79,8.71,657.42z"/>
		<path class="st105" d="M17.83,661.73c0.01,0,0.03-0.01,0.04-0.01c0.23-0.92,0.71-1.9,1.15-2.64c0.07-0.12,0.15-0.25,0.24-0.38
			c-0.59,0.39-1.07,0.98-1.55,1.41c-0.66,0.59-1.25,1.25-1.96,1.68c-0.06,0.61,0.07,1.38,0.19,2.07c0.02,0.13,0.05,0.27,0.07,0.41
			C16.71,663.2,16.9,661.96,17.83,661.73z"/>
		<path class="st106" d="M21.64,658.67c-0.51,1.14-0.46,2.97-1.05,4.21c-0.01,0.02-0.02,0.04-0.03,0.06
			c0.83,0.52,1.66,0.89,2.34,0.38c0.07-0.05,0.14-0.12,0.2-0.2c-0.08-0.75-0.25-1.55-0.38-2.19
			C22.57,660.19,22.36,659.2,21.64,658.67z"/>
		<path class="st107" d="M17.87,661.72c0.77-0.16,1.73,0.63,2.69,1.22c0.01-0.02,0.02-0.04,0.03-0.06c0.6-1.23,0.54-3.06,1.05-4.21
			c-0.2-0.15-0.44-0.26-0.74-0.32c-0.65-0.13-1.18,0.04-1.64,0.34c-0.09,0.13-0.17,0.26-0.24,0.38
			C18.58,659.82,18.1,660.8,17.87,661.72z"/>
		<path class="st108" d="M13.14,650.7c0.96-0.13,2.33,0.11,3.53,0.26c1.12,0.13,3.18,0.57,3.93-0.52c-0.78-0.34-1.61-0.45-2.54-0.71
			c-0.92-0.26-2.34-0.78-2.66-1.51c-0.02-0.04-0.04-0.09-0.05-0.13c-0.33-0.06-0.64-0.14-0.9-0.24c-0.41-0.15-0.77-0.37-1.07-0.62
			c-0.04,0.05-0.07,0.09-0.11,0.14c-0.66,0.71-1.65,1.03-2.56,1.46C11.28,650.04,12.16,650.46,13.14,650.7z"/>
		<path class="st109" d="M36.15,647.58c-0.18,0.06-0.37,0.08-0.57,0.04c-0.7-0.13-1.23-1.05-1.79-1.92c-0.01,0-0.01,0.01-0.02,0.01
			c-1.07,0.84-1.82,2.5-2.78,3.31c0.11,0.27,0.29,0.53,0.57,0.75c0.47,0.38,0.97,0.48,1.47,0.45c0.19-0.1,0.37-0.2,0.52-0.3
			C34.45,649.35,35.55,648.49,36.15,647.58z"/>
		<path class="st110" d="M20.05,648.06c-0.66,0.34-1.49,0.3-2.14,0.26c-0.76-0.04-1.72-0.09-2.56-0.24
			c0.01,0.04,0.03,0.09,0.05,0.13c0.33,0.73,1.74,1.25,2.66,1.51c0.93,0.26,1.76,0.37,2.54,0.71c0.13-0.19,0.22-0.43,0.26-0.72
			C20.97,648.95,20.62,648.45,20.05,648.06z"/>
		<path class="st111" d="M26.75,650.09c0,0.03,0,0.06,0.01,0.09c0.12,0.91,0.72,1.73,1.62,2.19c0.63-0.5,1.56-0.77,2.51-1.15
			c0.69-0.28,1.5-0.64,2.15-0.99c-0.5,0.03-0.99-0.08-1.47-0.45c-0.28-0.22-0.46-0.48-0.57-0.75c-0.5,0.42-1.06,0.61-1.75,0.33
			c-0.39-0.16-0.64-0.39-0.8-0.67c-0.06,0.09-0.12,0.17-0.19,0.25C27.83,649.48,27.3,649.86,26.75,650.09z"/>
		<path class="st112" d="M40.64,661.34c-0.83,0.75-1.88,1.34-3.22,1.55c-0.23,0.04-0.47,0.05-0.71,0.05
			c-0.06,0.6-0.23,1.21-0.48,1.79c0.18,0.09,0.33,0.19,0.43,0.33c0.52,0.69-0.34,1.82-1.08,2.61c-0.63,0.68-1.36,1.22-2.11,1.62
			c0.35,0.3,0.76,0.41,1.11,0.4c1.73-0.03,3.61-3.2,5.12-3.67c0.12-0.04,0.25-0.08,0.37-0.14c0.4-0.89,0.44-1.62,0.57-2.48
			C40.75,662.75,40.76,662.03,40.64,661.34z"/>
		<path class="st113" d="M33.83,662.92c0.24,0.58,0.33,1.18,0.33,1.68c0.47-0.19,1.45-0.17,2.08,0.12c0.26-0.58,0.43-1.19,0.48-1.79
			C35.74,662.96,34.75,662.76,33.83,662.92z"/>
		<path class="st114" d="M33.03,668.01c-0.04,0.01-0.08,0.03-0.12,0.04c-0.02,0.27,0.03,0.55,0.2,0.83c0.1,0.17,0.23,0.3,0.36,0.41
			c0.75-0.4,1.48-0.94,2.11-1.62c0.74-0.8,1.6-1.92,1.08-2.61c-0.1-0.13-0.25-0.24-0.43-0.33
			C35.57,666.24,34.34,667.56,33.03,668.01z"/>
		<path class="st115" d="M34.16,664.61c0,0.27-0.03,0.51-0.08,0.71c-0.23,0.98-1.09,1.85-1.17,2.73c0.04-0.01,0.08-0.03,0.12-0.04
			c1.31-0.45,2.54-1.78,3.2-3.28C35.61,664.43,34.63,664.42,34.16,664.61z"/>
		<path class="st116" d="M39.25,659.06c-0.01,0-0.01-0.01-0.02-0.01c-0.45,0.23-0.9,0.43-1.32,0.59c-0.66,0.26-1.39,0.53-2,0.6
			c0.57,0.62,0.93,1.43,0.81,2.7c0,0,0,0,0,0.01c0.24,0,0.47-0.02,0.71-0.05c1.34-0.21,2.39-0.8,3.22-1.55
			C40.47,660.37,40.04,659.49,39.25,659.06z"/>
		<path class="st117" d="M35.91,660.23c-0.2,0.02-0.39,0.02-0.55-0.01c-0.97-0.18-2.26-1.18-3.4-1.94c-0.93-0.62-2.54-1.93-3.7-1.35
			c0.54,0.66,1.24,1.12,1.95,1.77c0.58,0.53,1.37,1.36,1.62,2.09c0.45,0.28,0.86,0.57,1.17,0.88c0.38,0.38,0.66,0.82,0.84,1.26
			c0.92-0.16,1.91,0.03,2.88,0.02c0,0,0,0,0-0.01C36.83,661.66,36.47,660.86,35.91,660.23z"/>
		<path class="st118" d="M32.7,657.42c-0.23-0.08-0.49-0.18-0.76-0.29c0.49,0.66,1.33,1.07,1.94,1.53c0.71,0.53,1.47,0.97,2.03,1.58
			c0.61-0.06,1.34-0.34,2-0.6c0.42-0.16,0.88-0.36,1.32-0.59c-1.2-0.65-2.6-0.46-3.28-1.09C34.9,658.01,33.64,657.73,32.7,657.42z"
			/>
		<path class="st119" d="M33.88,658.65c-0.61-0.46-1.44-0.87-1.94-1.53c-0.63-0.27-1.34-0.63-1.92-0.95
			c-0.95-0.52-1.8-1.11-2.63-1.23c0.06,0.6,0.3,1.22,0.72,1.8c0.05,0.07,0.1,0.13,0.15,0.19c1.16-0.58,2.77,0.73,3.7,1.35
			c1.14,0.77,2.43,1.76,3.4,1.94c0.17,0.03,0.36,0.03,0.55,0.01C35.35,659.62,34.59,659.18,33.88,658.65z"/>
		<path class="st120" d="M10.71,655.71c0.44-0.38,0.91-0.29,1.34-0.16c-0.14-0.48-0.16-1.01,0.08-1.61
			c0.22-0.56,0.81-0.99,1.53-1.31c-0.02-0.02-0.03-0.03-0.05-0.04c-0.75-0.58-1.83,0.02-3.07,0.15c-0.81,0.95-1.66,2.17-1.83,3.59
			c0.7,0.4,1.28,1.29,2.06,1.72c0.16,0.09,0.34,0.16,0.55,0.23c-0.24-0.32-0.5-0.62-0.66-0.94
			C10.35,656.73,10.18,656.17,10.71,655.71z"/>
		<path class="st121" d="M13.66,652.63c-0.72,0.32-1.3,0.76-1.53,1.31c-0.24,0.6-0.22,1.13-0.08,1.61c0.19,0.06,0.38,0.12,0.55,0.16
			c0.62,0.12,1.28,0.13,1.79,0.02C14.22,654.57,14.28,653.18,13.66,652.63z"/>
		<path class="st122" d="M31.74,654.97c1.23,0.25,2.99-0.2,4.32,0.11c0.01,0,0.01,0,0.02,0c0.31-0.92,0.57-1.83,0.16-2.46
			c-0.86,0.22-1.81,0.63-2.55,0.94C33.02,653.86,32.15,654.24,31.74,654.97z"/>
		<path class="st123" d="M30.4,653.81c0.21,0.72,0.71,1.04,1.35,1.17c0.4-0.73,1.28-1.11,1.95-1.4c0.74-0.31,1.69-0.72,2.55-0.94
			c-0.07-0.1-0.15-0.2-0.26-0.28c-0.62-0.5-2.11-0.31-3.06-0.13c-0.91,0.18-1.68,0.46-2.5,0.52
			C30.3,653.05,30.28,653.39,30.4,653.81z"/>
		<path class="st124" d="M13.6,652.58c0.02,0.01,0.04,0.03,0.05,0.04c0.86-0.39,1.91-0.62,2.76-0.74c0.32-0.04,0.71-0.07,1.12-0.08
			c-0.75-0.57-1.83-0.58-2.68-0.76c-0.58-0.13-1.17-0.2-1.72-0.34c-0.13,0.02-0.26,0.04-0.38,0.08c-0.67,0.2-1.39,0.99-2.01,1.69
			c-0.08,0.08-0.15,0.17-0.23,0.26C11.78,652.6,12.85,652,13.6,652.58z"/>
		<path class="st125" d="M13.66,652.63c0.62,0.56,0.56,1.94,0.73,3.11c0.03-0.01,0.07-0.01,0.1-0.02c1.29-0.32,2.61-1.47,3.79-1.85
			c0.11-0.39,0.1-0.82-0.11-1.27c-0.16-0.34-0.37-0.59-0.62-0.78c-0.41,0.01-0.8,0.04-1.12,0.08
			C15.57,652,14.52,652.24,13.66,652.63z"/>
		<path class="st126" d="M35.71,657.66c-0.34-0.62,0.04-1.59,0.37-2.57c-0.01,0-0.01,0-0.02,0c-1.33-0.32-3.09,0.13-4.32-0.11
			c-0.14,0.25-0.22,0.55-0.22,0.9c0,0.51,0.17,0.91,0.42,1.25c0.27,0.12,0.53,0.22,0.76,0.29c0.94,0.31,2.2,0.6,3.25,0.54
			C35.86,657.88,35.78,657.78,35.71,657.66z"/>
		<path class="st127" d="M28.38,652.36c-0.05,0.04-0.11,0.09-0.16,0.14c-0.63,0.6-0.94,1.5-0.84,2.44c0.83,0.12,1.68,0.71,2.63,1.23
			c0.59,0.32,1.29,0.68,1.92,0.95c-0.25-0.34-0.42-0.74-0.42-1.25c0-0.35,0.08-0.65,0.22-0.9c-0.64-0.13-1.14-0.45-1.35-1.17
			c-0.12-0.41-0.09-0.76,0.04-1.06c-0.11,0.01-0.21,0.01-0.32,0.01C29.46,652.77,28.87,652.62,28.38,652.36z"/>
		<path class="st128" d="M22.68,665.84c-0.3,0.56-0.72,1.01-1.12,1.33c0.47,0.27,1.12,1.13,1.22,1.83c0.66-0.16,1.29-0.41,1.83-0.75
			C23.93,667.46,23.43,666.48,22.68,665.84z"/>
		<path class="st129" d="M21.55,667.16c-0.21,0.16-0.42,0.29-0.61,0.38c-0.88,0.42-2.06,0.31-2.8,0.76
			c0.12,0.09,0.24,0.17,0.37,0.25c1.11,0.67,2.76,0.8,4.26,0.44C22.67,668.29,22.03,667.43,21.55,667.16z"/>
		<path class="st130" d="M26.29,666.01c-0.25-0.21-0.45-0.43-0.57-0.66c-0.46-0.87-0.49-2.5-0.6-3.87c-0.09-1.1-0.08-3.12-1.2-3.71
			c-0.16,0.83-0.08,1.66-0.13,2.61c-0.05,0.85-0.21,2.12-0.69,2.73c0.05,0.46,0.07,0.9,0.03,1.28c-0.05,0.53-0.22,1.01-0.45,1.43
			c0.76,0.65,1.25,1.62,1.92,2.4c0.06-0.04,0.11-0.07,0.17-0.11C25.73,667.47,26.14,666.76,26.29,666.01z"/>
		<path class="st131" d="M26.25,663.2c-0.03-0.63-0.19-1.35-0.14-2.03c-0.23-0.73-0.44-1.71-0.58-2.51
			c-0.18-1.05-0.25-2.07-0.65-2.79c-0.41,0.43-0.73,0.99-0.9,1.67c-0.02,0.08-0.04,0.17-0.05,0.25c1.12,0.59,1.1,2.61,1.2,3.71
			c0.11,1.37,0.14,2.99,0.6,3.87c0.12,0.23,0.32,0.45,0.57,0.66C26.48,665.12,26.3,664.17,26.25,663.2z"/>
		<path class="st132" d="M18.05,643.88c-0.75-0.39-1.51-0.59-2.12-0.39c-0.5,0.16-0.86,0.43-1.12,0.75
			c0.08,0.19,0.14,0.38,0.22,0.54c0.29,0.56,0.71,1.08,1.1,1.41C16.88,645.4,17.87,644.64,18.05,643.88z"/>
		<path class="st133" d="M27.65,657.47c-0.42,0.61-0.37,1.19-0.07,1.76c0.86-0.23,1.76,0.23,2.44,0.58
			c0.54,0.28,1.19,0.61,1.79,0.98c-0.25-0.72-1.04-1.55-1.62-2.09c-0.71-0.65-1.4-1.11-1.95-1.77
			C28.03,657.04,27.83,657.21,27.65,657.47z"/>
		<path class="st134" d="M20.25,645.46c-0.6-0.55-1.4-1.17-2.21-1.58c-0.18,0.76-1.17,1.51-1.91,2.3c0.03,0.02,0.05,0.04,0.08,0.06
			c1.07,0.81,2.81,1.12,3.84,1.82c0.33-0.17,0.62-0.44,0.82-0.85c0.15-0.31,0.21-0.6,0.21-0.89C20.8,646,20.51,645.69,20.25,645.46z
			"/>
		<path class="st135" d="M27.38,654.94c-0.02,0-0.04-0.01-0.05-0.01c-0.87-0.11-1.78,0.23-2.45,0.93c0.4,0.73,0.47,1.74,0.65,2.79
			c0.14,0.81,0.35,1.78,0.58,2.51c0.04-0.57,0.23-1.12,0.76-1.56c0.23-0.19,0.47-0.31,0.71-0.38c-0.29-0.58-0.35-1.16,0.07-1.76
			c0.18-0.26,0.38-0.43,0.6-0.54c-0.05-0.06-0.1-0.13-0.15-0.19C27.68,656.16,27.45,655.54,27.38,654.94z"/>
		<path class="st136" d="M11.78,659.07c-0.11-0.29-0.28-0.55-0.47-0.8c-0.21-0.07-0.4-0.15-0.55-0.23
			c-0.78-0.43-1.36-1.31-2.06-1.72c-0.04,0.35-0.04,0.72,0.01,1.09c0.18,1.37,1.23,2.84,2.57,3.79
			C11.73,660.6,11.95,659.51,11.78,659.07z"/>
		<path class="st137" d="M19.27,658.7c0.43-0.63,1.03-1.37,1.56-1.97c0.71-0.81,1.46-1.5,1.77-2.28c-0.6-0.06-1.24,0.04-1.88,0.33
			c-0.07,0.03-0.14,0.07-0.21,0.1c0.4,1.27-1.24,2.62-2.05,3.41c-0.98,0.97-2.21,2.03-2.58,2.94c-0.07,0.16-0.1,0.35-0.12,0.55
			c0.72-0.43,1.3-1.09,1.96-1.68C18.2,659.68,18.68,659.08,19.27,658.7z"/>
		<path class="st138" d="M23.06,657.62c-0.74,0.05-1.16,0.46-1.42,1.05c0.72,0.53,0.93,1.52,1.08,2.27c0.13,0.64,0.3,1.44,0.38,2.19
			c0.48-0.61,0.64-1.88,0.69-2.73c0.05-0.95-0.03-1.78,0.13-2.61C23.69,657.66,23.41,657.6,23.06,657.62z"/>
		<path class="st139" d="M24.88,655.87c-0.02-0.03-0.03-0.06-0.05-0.08c-0.46-0.75-1.28-1.24-2.24-1.33
			c-0.31,0.78-1.06,1.47-1.77,2.28c-0.52,0.6-1.13,1.34-1.56,1.97c0.46-0.3,0.99-0.47,1.64-0.34c0.29,0.06,0.54,0.17,0.74,0.32
			c0.27-0.59,0.68-1,1.42-1.05c0.34-0.02,0.62,0.04,0.86,0.16c0.02-0.08,0.03-0.17,0.05-0.25
			C24.15,656.86,24.47,656.29,24.88,655.87z"/>
		<path class="st140" d="M17.54,651.8c0.61-0.02,1.27-0.01,1.84,0.02c1.07,0.05,2.08,0.2,2.88-0.03c-0.33-0.5-0.81-0.94-1.43-1.25
			c-0.07-0.04-0.14-0.07-0.22-0.1c-0.75,1.09-2.81,0.65-3.93,0.52c-1.2-0.14-2.57-0.39-3.53-0.26c0.55,0.14,1.14,0.21,1.72,0.34
			C15.71,651.23,16.79,651.23,17.54,651.8z"/>
		<path class="st59" d="M22.6,654.45c0.01-0.02,0.02-0.05,0.03-0.07c0.3-0.83,0.16-1.78-0.37-2.59c-0.8,0.24-1.81,0.09-2.88,0.03
			c-0.57-0.03-1.23-0.04-1.84-0.02c0.25,0.19,0.46,0.44,0.62,0.78c0.21,0.45,0.22,0.88,0.11,1.27c0.67-0.22,1.29-0.19,1.84,0.38
			c0.2,0.21,0.33,0.42,0.39,0.64c0.07-0.04,0.14-0.07,0.21-0.1C21.35,654.49,22,654.39,22.6,654.45z"/>
		<path class="st141" d="M22.25,651.79c0.03-0.01,0.06-0.02,0.08-0.03c0.82-0.28,1.47-0.96,1.77-1.85
			c-0.72-0.45-1.25-1.34-1.91-2.21c-0.33-0.44-0.72-0.93-1.11-1.37c0,0.29-0.06,0.58-0.21,0.89c-0.2,0.41-0.49,0.68-0.82,0.85
			c0.57,0.38,0.92,0.88,0.82,1.65c-0.04,0.29-0.13,0.53-0.26,0.72c0.07,0.03,0.14,0.06,0.22,0.1
			C21.45,650.85,21.93,651.29,22.25,651.79z"/>
		<path class="st142" d="M28.22,652.5c0.05-0.05,0.1-0.09,0.16-0.14c-0.9-0.46-1.5-1.28-1.62-2.19c0-0.03-0.01-0.06-0.01-0.09
			c-0.89,0.36-1.86,0.3-2.61-0.15c-0.01-0.01-0.02-0.01-0.03-0.02c-0.3,0.89-0.96,1.57-1.77,1.85c-0.03,0.01-0.06,0.02-0.08,0.03
			c0.53,0.8,0.67,1.76,0.37,2.59c-0.01,0.02-0.02,0.05-0.03,0.07c0.96,0.09,1.78,0.59,2.24,1.33c0.02,0.03,0.03,0.05,0.05,0.08
			c0.67-0.7,1.57-1.04,2.45-0.93c0.02,0,0.04,0.01,0.05,0.01C27.28,654,27.59,653.1,28.22,652.5z"/>
	</g>
</g>
<g>
	<g>
		<g>
			<defs>
				<rect id="SVGID_1_" x="468.94" y="632.84" width="40" height="39.87"/>
			</defs>
			<clipPath id="SVGID_00000110447206415462999220000005940960049015056273_">
				<use xlink:href="#SVGID_1_"  style="overflow:visible;"/>
			</clipPath>
			<g style="clip-path:url(#SVGID_00000110447206415462999220000005940960049015056273_);">
				<path class="st144" d="M499.56,637.08c0.25,0.39,0.3,0.81,0.17,1.2c0.47,0.36,0.88,0.76,1.2,1.15c0.67,0.82,1.37,1.84,1.7,3.08
					c0.75,0.13,1.47,0.47,2.02,0.92c1.88,1.56,3.01,3.37,3.63,5.14c-0.1-4.34-3.61-9.07-7.68-11.97c-0.81-0.58-1.77-1.1-2.87-1.48
					C498.46,635.66,499.08,636.31,499.56,637.08L499.56,637.08z"/>
				<path class="st20" d="M484.34,635.41c0.58-0.15,1.14-0.22,1.66-0.23c1.06-0.01,2.29,0.07,3.45,0.58
					c0.57-0.5,1.27-0.86,1.98-1.01c2.4-0.5,4.53-0.26,6.3,0.35c-3.45-2.6-9.34-2.81-14.16-1.43c-0.96,0.27-1.97,0.7-2.95,1.33
					c0.88-0.23,1.77-0.3,2.67-0.21C483.76,634.85,484.11,635.07,484.34,635.41z"/>
				<path class="st145" d="M491.44,634.77c-0.7,0.15-1.42,0.51-1.98,1.01c0.81,0.35,1.58,0.9,2.24,1.74
					c0.18,0.22,0.32,0.47,0.47,0.73c0.07-0.03,0.15-0.07,0.23-0.1c0.51-0.22,1.08-0.35,1.66-0.41c-0.01-0.2,0.01-0.38,0.08-0.54
					c0.35-0.77,1.71-0.56,2.74-0.3c1.1,0.28,2.08,0.79,2.88,1.4c0.12-0.39,0.08-0.81-0.17-1.2c-0.48-0.76-1.1-1.41-1.82-1.96
					C495.97,634.51,493.84,634.27,491.44,634.77z"/>
				<path class="st146" d="M472.47,645.65c0.25-0.54,0.54-1.03,0.86-1.43c0.65-0.84,1.49-1.74,2.61-2.33
					c-0.03-0.75,0.12-1.53,0.46-2.18c1.12-2.19,2.63-3.7,4.22-4.7c-4.21,1.09-8.05,5.55-9.99,10.17c-0.38,0.92-0.68,1.98-0.81,3.13
					c0.37-0.83,0.87-1.58,1.51-2.22C471.67,645.76,472.06,645.62,472.47,645.65L472.47,645.65z"/>
				<path class="st147" d="M497.89,641.41c0.1-0.67-0.37-0.98-0.97-1.24c-0.46-0.2-1.07-0.23-1.61-0.42
					c-0.51,0.27-1.05,0.69-1.46,1.28c0.81,0.69,2.13,0.68,3.05,1.38C497.33,642.24,497.8,642.02,497.89,641.41L497.89,641.41z"/>
				<path class="st148" d="M476.4,639.71c-0.32,0.64-0.49,1.42-0.46,2.18c0.78-0.41,1.69-0.67,2.77-0.66c0.28,0,0.57,0.04,0.85,0.08
					c0.02-0.08,0.04-0.16,0.06-0.24c0.15-0.53,0.39-1.06,0.7-1.55c-0.17-0.11-0.29-0.25-0.37-0.39c-0.38-0.76,0.63-1.69,1.48-2.33
					c0.9-0.68,1.93-1.14,2.9-1.38c-0.23-0.35-0.58-0.56-1.05-0.61c-0.9-0.09-1.79-0.02-2.67,0.21
					C479.03,636.01,477.52,637.52,476.4,639.71z"/>
				<path class="st149" d="M493.84,641.03l0.01,0.01c0.42-0.59,0.96-1.03,1.46-1.28c-0.11-0.04-0.23-0.09-0.33-0.15
					c-0.4-0.23-0.92-1.15-0.96-1.89c-0.58,0.06-1.15,0.2-1.66,0.41c-0.08,0.03-0.16,0.07-0.23,0.1
					C492.68,639.2,493.06,640.34,493.84,641.03L493.84,641.03z"/>
				<path class="st150" d="M473.05,661.28c-0.27-0.53-0.47-1.06-0.58-1.56c-0.25-1.03-0.42-2.25-0.19-3.49
					c-0.61-0.45-1.12-1.06-1.42-1.71c-1.02-2.23-1.24-4.35-1.04-6.22c-1.78,3.96-0.69,9.74,1.71,14.12
					c0.48,0.87,1.12,1.76,1.94,2.58c-0.41-0.81-0.68-1.66-0.79-2.56C472.63,661.99,472.76,661.59,473.05,661.28L473.05,661.28z"/>
				<path class="st151" d="M498.78,639.26c0.96,1.11,1.19,2.57,1.22,3.87c0.07-0.06,0.15-0.12,0.22-0.18
					c0.64-0.49,1.53-0.59,2.4-0.44c-0.32-1.23-1.03-2.25-1.7-3.08c-0.32-0.39-0.74-0.79-1.2-1.15c-0.05,0.15-0.12,0.29-0.22,0.44
					C499.31,638.99,499.06,639.16,498.78,639.26L498.78,639.26z"/>
				<path class="st152" d="M485.65,638.79c-0.46-0.5-1.01-0.32-1.59-0.01c-0.45,0.24-0.85,0.69-1.34,0.98
					c-0.1,0.56-0.1,1.25,0.09,1.95c1.05-0.2,1.87-1.24,2.98-1.52C485.95,639.74,486.06,639.24,485.65,638.79L485.65,638.79z"/>
				<path class="st153" d="M498.43,638.9c0.12,0.11,0.24,0.24,0.35,0.36c0.28-0.09,0.53-0.27,0.73-0.55
					c0.09-0.15,0.18-0.29,0.22-0.44c-0.8-0.61-1.78-1.13-2.88-1.4c-1.03-0.26-2.38-0.47-2.74,0.3c-0.07,0.16-0.09,0.34-0.08,0.54
					C495.66,637.54,497.41,637.98,498.43,638.9z"/>
				<path class="st154" d="M472.28,656.23c0.17-0.86,0.53-1.74,1.21-2.57c0.18-0.22,0.38-0.41,0.6-0.61
					c-0.05-0.06-0.1-0.12-0.15-0.2c-0.32-0.45-0.58-0.96-0.77-1.52c-0.2,0.06-0.37,0.08-0.54,0.04c-0.83-0.17-0.92-1.54-0.9-2.6
					c0.03-1.13,0.31-2.21,0.74-3.13c-0.41-0.04-0.81,0.1-1.14,0.44c-0.64,0.64-1.14,1.39-1.51,2.22c-0.21,1.87,0.02,3.99,1.04,6.22
					C471.16,655.18,471.68,655.78,472.28,656.23L472.28,656.23z"/>
				<path class="st155" d="M497.89,641.41c-0.09,0.61-0.56,0.82-0.99,1.01c0.33,0.25,0.6,0.59,0.78,1.09
					c0.21,0.57,0.03,1.3-0.3,2.02c0.06,0.01,0.12,0.01,0.19,0c1.03-0.07,1.4-1.47,2.44-2.4c-0.03-1.28-0.26-2.76-1.22-3.87
					c-0.8,0.28-1.85-0.01-2.78,0.22c-0.21,0.05-0.44,0.15-0.68,0.27c0.53,0.2,1.14,0.23,1.61,0.42
					C497.52,640.42,498.01,640.75,497.89,641.41L497.89,641.41z"/>
				<path class="st156" d="M482.81,641.72c0,0,0.01,0,0.02,0c-0.2-0.69-0.2-1.39-0.09-1.95c-0.1,0.06-0.21,0.12-0.32,0.17
					c-0.42,0.18-1.48,0-2.08-0.41c-0.32,0.5-0.56,1.02-0.7,1.55c-0.02,0.08-0.04,0.17-0.06,0.24
					C480.65,641.49,481.78,641.91,482.81,641.72L482.81,641.72z"/>
				<path class="st157" d="M494.99,639.6c0.1,0.06,0.22,0.1,0.33,0.15c0.24-0.12,0.48-0.22,0.68-0.27c0.92-0.23,1.98,0.06,2.78-0.22
					c-0.1-0.12-0.23-0.25-0.35-0.36c-1.02-0.92-2.78-1.36-4.4-1.18C494.07,638.45,494.59,639.38,494.99,639.6L494.99,639.6z"/>
				<path class="st158" d="M486.33,671.56c-0.39-0.25-0.62-0.6-0.67-1.01c-0.58-0.12-1.11-0.3-1.56-0.51
					c-0.96-0.45-2.04-1.07-2.86-2.03c-0.73,0.2-1.53,0.22-2.23,0.05c-2.38-0.59-4.19-1.73-5.51-3.06c1.98,3.85,7.18,6.59,12.11,7.44
					c0.98,0.17,2.07,0.22,3.23,0.08C487.92,672.35,487.09,672.04,486.33,671.56L486.33,671.56z"/>
				<path class="st159" d="M486.08,669.25c-1.35-0.58-2.19-1.78-2.78-2.92c-0.03,0.08-0.07,0.17-0.11,0.25
					c-0.37,0.72-1.12,1.2-1.98,1.44c0.83,0.96,1.91,1.59,2.86,2.03c0.47,0.22,0.99,0.39,1.56,0.51c-0.02-0.16-0.02-0.32,0.01-0.49
					C485.72,669.72,485.86,669.46,486.08,669.25L486.08,669.25z"/>
				<path class="st160" d="M484.52,636.77c1.46-0.06,2.75,0.65,3.77,1.43c0-0.09-0.01-0.18,0-0.27c0.02-0.81,0.5-1.58,1.16-2.16
					c-1.16-0.51-2.39-0.59-3.45-0.58c-0.52,0.01-1.08,0.08-1.66,0.23c0.08,0.12,0.16,0.28,0.2,0.45
					C484.64,636.19,484.62,636.49,484.52,636.77z"/>
				<path class="st161" d="M488.29,637.93c0,0.09,0,0.18,0,0.27c0.21,0.16,0.4,0.32,0.59,0.48c0.56,0.47,1.15,1.1,1.47,1.66
					c0.23-0.82,0.68-1.55,1.78-2.09c-0.15-0.26-0.29-0.5-0.47-0.73c-0.65-0.85-1.43-1.4-2.24-1.74
					C488.78,636.35,488.31,637.12,488.29,637.93L488.29,637.93z"/>
				<path class="st162" d="M477.13,647.47c-0.27-0.37-0.58-0.79-1.19-0.74c-0.68,0.05-0.88,0.59-0.99,1.23
					c-0.09,0.5,0.01,1.1-0.06,1.66c0.37,0.44,0.91,0.86,1.58,1.14C476.95,649.82,476.65,648.53,477.13,647.47L477.13,647.47z"/>
				<path class="st163" d="M495.05,643.84c0.01-0.01,0.02-0.03,0.03-0.05c0.3-0.41,0.83-0.87,1.4-1.19
					c0.12-0.07,0.27-0.12,0.41-0.19c-0.91-0.69-2.25-0.68-3.05-1.38c-0.22,0.3-0.39,0.64-0.53,1.03c-0.12,0.35-0.21,0.72-0.28,1.09
					C493.73,642.85,494.4,643.27,495.05,643.84z"/>
				<path class="st164" d="M484.02,636.82c0.17-0.03,0.34-0.04,0.5-0.05c0.09-0.28,0.12-0.58,0.02-0.91
					c-0.05-0.17-0.11-0.31-0.2-0.45c-0.97,0.25-2,0.69-2.9,1.38c-0.85,0.64-1.85,1.58-1.48,2.33c0.07,0.15,0.21,0.28,0.37,0.39
					C481.22,638.14,482.66,637.04,484.02,636.82L484.02,636.82z"/>
				<path class="st165" d="M490.36,640.33c0.08,0.15,0.15,0.29,0.2,0.41c0.3,0.91,0.07,2.3-0.04,3.63c-0.1,1.1-0.48,3.12,0.61,3.81
					c0.25-0.74,0.31-1.49,0.51-2.35c0.21-0.91,0.64-2.31,1.34-2.66c0.03-0.01,0.05-0.03,0.08-0.04c0.06-0.37,0.16-0.74,0.28-1.09
					c0.13-0.38,0.31-0.73,0.53-1.03l-0.01-0.01c-0.78-0.68-1.16-1.82-1.69-2.79C491.04,638.78,490.59,639.51,490.36,640.33
					L490.36,640.33z"/>
				<path class="st166" d="M481.22,668.01c-0.57-0.66-1.03-1.49-1.24-2.53c-0.06-0.28-0.09-0.57-0.1-0.86c-0.08,0-0.17,0-0.26,0
					c-0.55-0.02-1.12-0.15-1.67-0.34c-0.07,0.19-0.18,0.34-0.3,0.45c-0.65,0.54-1.78-0.24-2.6-0.91c-0.87-0.73-1.53-1.62-1.99-2.52
					c-0.29,0.3-0.42,0.69-0.37,1.16c0.1,0.9,0.37,1.75,0.79,2.56c1.34,1.32,3.14,2.45,5.52,3.05
					C479.69,668.23,480.48,668.21,481.22,668.01z"/>
				<path class="st167" d="M483.19,666.57c0.04-0.08,0.08-0.17,0.11-0.25c-0.12-0.23-0.23-0.47-0.33-0.68
					c-0.3-0.66-0.56-1.48-0.6-2.13c-0.56,0.64-1.28,1.1-2.51,1.11c0.02,0.29,0.04,0.58,0.1,0.86c0.23,1.05,0.67,1.87,1.24,2.53
					C482.07,667.77,482.83,667.28,483.19,666.57z"/>
				<path class="st168" d="M484.07,638.79c0.58-0.31,1.13-0.49,1.59,0.01c0.41,0.46,0.29,0.95,0.17,1.4c0.4-0.1,0.84-0.1,1.34,0.06
					c0.57,0.2,1.04,0.78,1.39,1.49c0.04-0.04,0.08-0.08,0.11-0.13c0.58-0.85-0.29-2.01-0.36-3.41c-1.03-0.78-2.31-1.49-3.77-1.43
					c-0.28,0.8-1.17,1.44-1.58,2.31c-0.09,0.2-0.17,0.44-0.22,0.69C483.21,639.47,483.62,639.02,484.07,638.79L484.07,638.79z"/>
				<path class="st169" d="M488.65,641.61c-0.03,0.05-0.07,0.09-0.11,0.13c0.4,0.81,0.67,1.78,0.82,2.58
					c0.05,0.26,0.08,0.56,0.11,0.88c0.5-0.77,0.44-1.81,0.55-2.64c0.11-0.77,0.13-1.53,0.33-2.23c-0.32-0.57-0.92-1.2-1.47-1.66
					c-0.19-0.16-0.38-0.32-0.59-0.48C488.36,639.6,489.24,640.76,488.65,641.61z"/>
				<path class="st170" d="M476.45,650.76c-0.66-0.28-1.2-0.7-1.58-1.14c-0.02,0.12-0.04,0.24-0.07,0.35
					c-0.13,0.44-0.92,1.16-1.63,1.37c0.19,0.55,0.45,1.08,0.77,1.52c0.05,0.06,0.1,0.13,0.15,0.2c0.83-0.74,1.85-1.37,2.35-2.28
					C476.45,650.77,476.45,650.77,476.45,650.76L476.45,650.76z"/>
				<path class="st171" d="M497.39,645.52c0.34-0.73,0.51-1.45,0.3-2.02c-0.18-0.5-0.46-0.84-0.78-1.09
					c-0.15,0.06-0.29,0.12-0.41,0.19c-0.57,0.32-1.1,0.78-1.4,1.19c-0.01,0.02-0.02,0.03-0.03,0.05
					C495.85,644.54,496.64,645.44,497.39,645.52z"/>
				<path class="st172" d="M482.41,639.94c0.11-0.04,0.22-0.1,0.32-0.17c0.05-0.27,0.12-0.51,0.22-0.69
					c0.39-0.86,1.28-1.51,1.58-2.31c-0.17,0.01-0.33,0.02-0.5,0.05c-1.36,0.23-2.8,1.33-3.69,2.7
					C480.93,639.94,481.99,640.1,482.41,639.94L482.41,639.94z"/>
				<path class="st173" d="M490.03,642.56c-0.12,0.83-0.05,1.88-0.55,2.64c0.06,0.64,0.08,1.37,0.08,1.99c0,1.08-0.1,2.1,0.21,2.87
					c0.5-0.35,0.92-0.85,1.21-1.5c0.05-0.12,0.1-0.25,0.15-0.37c-1.09-0.69-0.72-2.72-0.61-3.81c0.12-1.34,0.34-2.72,0.04-3.63
					c-0.04-0.13-0.11-0.27-0.2-0.41C490.16,641.04,490.14,641.8,490.03,642.56L490.03,642.56z"/>
				<path class="st174" d="M501.99,666.57c-0.45,0.16-0.86,0.11-1.21-0.1c-0.46,0.37-0.92,0.68-1.38,0.91
					c-0.95,0.48-2.11,0.93-3.38,0.97c-0.3,0.69-0.79,1.34-1.36,1.77c-1.95,1.49-3.98,2.2-5.84,2.41c4.26,0.85,9.66-1.51,13.4-4.84
					c0.75-0.66,1.47-1.48,2.09-2.47C503.61,665.8,502.84,666.26,501.99,666.57L501.99,666.57z"/>
				<path class="st175" d="M498.14,663.98c0.63,0.25,1.05-0.15,1.43-0.67c0.29-0.4,0.47-0.98,0.77-1.45
					c-0.15-0.55-0.45-1.17-0.93-1.72c-0.85,0.63-1.14,1.93-2.02,2.66C497.47,663.25,497.57,663.75,498.14,663.98L498.14,663.98z"/>
				<path class="st176" d="M500.03,665.33c-1.3,0.68-2.77,0.59-4.03,0.34c0.04,0.08,0.08,0.17,0.12,0.25
					c0.33,0.74,0.24,1.63-0.11,2.44c1.27-0.05,2.42-0.5,3.38-0.97c0.46-0.23,0.93-0.53,1.38-0.91c-0.13-0.08-0.26-0.19-0.37-0.31
					C500.17,665.9,500.06,665.62,500.03,665.33L500.03,665.33z"/>
				<path class="st177" d="M498.14,663.98c-0.57-0.23-0.67-0.73-0.76-1.19c-0.32,0.27-0.72,0.46-1.23,0.52
					c-0.6,0.07-1.27-0.25-1.91-0.74c-0.02,0.06-0.04,0.12-0.05,0.19c-0.16,1.02,1.13,1.68,1.8,2.9c1.26,0.25,2.74,0.34,4.03-0.34
					c-0.09-0.84,0.44-1.8,0.41-2.76c0-0.22-0.04-0.46-0.1-0.73c-0.3,0.48-0.47,1.06-0.77,1.45
					C499.19,663.82,498.77,664.23,498.14,663.98L498.14,663.98z"/>
				<path class="st178" d="M472.94,645.77c0.32,0.13,0.54,0.33,0.69,0.58c0.87-1.18,2.24-1.74,3.48-2.06
					c-0.07-0.05-0.15-0.1-0.22-0.17c-0.61-0.52-0.92-1.36-0.95-2.25c-1.12,0.59-1.97,1.5-2.61,2.33c-0.32,0.4-0.61,0.89-0.86,1.43
					C472.63,645.67,472.78,645.71,472.94,645.77z"/>
				<path class="st179" d="M496.41,660.67c0.01,0.01,0.03,0.03,0.04,0.04c0.34,0.38,0.66,1.01,0.85,1.63
					c0.04,0.13,0.06,0.29,0.09,0.45c0.88-0.74,1.17-2.03,2.02-2.66c-0.25-0.27-0.54-0.53-0.88-0.74c-0.31-0.2-0.64-0.36-0.98-0.51
					C497.67,659.61,497.11,660.17,496.41,660.67L496.41,660.67z"/>
				<path class="st180" d="M476.91,644.13c0.07,0.06,0.15,0.11,0.22,0.17c0.26-0.06,0.51-0.12,0.75-0.17
					c0.7-0.15,1.58-0.22,2.22-0.11c-0.5-0.68-0.79-1.5-0.52-2.69c-0.29-0.05-0.57-0.08-0.85-0.08c-1.08-0.01-1.99,0.25-2.77,0.66
					C475.99,642.77,476.29,643.62,476.91,644.13z"/>
				<path class="st181" d="M496.15,663.32c0.53-0.06,0.92-0.26,1.23-0.52c-0.03-0.16-0.05-0.31-0.09-0.45
					c-0.19-0.63-0.51-1.24-0.85-1.63c-0.01-0.01-0.03-0.03-0.04-0.04c-0.85,0.63-1.91,1.19-2.17,1.9
					C494.88,663.07,495.55,663.39,496.15,663.32L496.15,663.32z"/>
				<path class="st182" d="M477.4,658.78c-0.47-0.02-0.97-0.03-1.33,0.48c-0.38,0.56-0.09,1.05,0.34,1.54
					c0.33,0.37,0.86,0.67,1.25,1.08c0.57-0.02,1.24-0.18,1.89-0.53C479.11,660.38,477.91,659.81,477.4,658.78L477.4,658.78z"/>
				<path class="st183" d="M479.68,658.3c-0.02,0.01-0.03,0.02-0.05,0.03c-0.46,0.25-1.13,0.42-1.78,0.47
					c-0.13,0.01-0.29,0-0.46-0.01c0.52,1.03,1.72,1.6,2.15,2.57c0.32-0.18,0.63-0.4,0.91-0.69c0.26-0.26,0.5-0.55,0.72-0.85
					C480.44,659.76,480.02,659.09,479.68,658.3L479.68,658.3z"/>
				<path class="st184" d="M485.77,642.53c-0.01-0.02-0.01-0.04-0.02-0.06c-0.13-0.5-0.16-1.19-0.05-1.83
					c0.02-0.13,0.06-0.29,0.11-0.44c-1.12,0.28-1.95,1.33-2.98,1.52c0.1,0.35,0.25,0.7,0.47,1.05c0.2,0.31,0.42,0.61,0.66,0.88
					C484.16,642.94,484.92,642.68,485.77,642.53z"/>
				<path class="st185" d="M487.61,645.97c-0.44-1.09-1.49-2.27-1.84-3.45c-0.85,0.17-1.61,0.42-1.81,1.13
					C485.04,644.89,486.49,645.76,487.61,645.97L487.61,645.97z"/>
				<path class="st186" d="M473.37,646.78c0.08-0.15,0.18-0.29,0.27-0.42c-0.16-0.25-0.37-0.46-0.69-0.58
					c-0.16-0.06-0.32-0.1-0.48-0.11c-0.42,0.91-0.7,1.99-0.74,3.13c-0.03,1.06,0.07,2.44,0.9,2.6c0.17,0.03,0.35,0.01,0.54-0.04
					C472.65,649.79,472.69,647.98,473.37,646.78z"/>
				<path class="st187" d="M482.64,655.73c-0.96,0.66-1.89,1.96-2.96,2.57c0.34,0.8,0.77,1.47,1.5,1.51
					C482.14,658.48,482.68,656.86,482.64,655.73z"/>
				<path class="st188" d="M480.08,644.01c0.17,0.02,0.32,0.06,0.45,0.11c0.9,0.33,1.84,1.37,2.81,2.29c0.8,0.76,2.15,2.3,3.37,1.9
					c-0.41-0.65-0.97-1.17-1.52-1.85c-0.58-0.73-1.41-1.94-1.25-2.69c0.01-0.03,0.02-0.06,0.02-0.09c-0.25-0.28-0.47-0.58-0.66-0.88
					c-0.22-0.34-0.37-0.69-0.47-1.05c0,0-0.01,0-0.02,0c-1.03,0.19-2.16-0.23-3.24-0.41C479.3,642.51,479.58,643.32,480.08,644.01z"
					/>
				<path class="st189" d="M487.33,647.9c0.57-0.58,0.55-1.23,0.28-1.92c-1.11-0.21-2.57-1.09-3.65-2.32
					c-0.01,0.03-0.02,0.06-0.02,0.09c-0.16,0.77,0.67,1.97,1.25,2.69c0.55,0.68,1.11,1.2,1.52,1.85
					C486.92,648.23,487.13,648.09,487.33,647.9z"/>
				<path class="st190" d="M494.66,670.12c0.57-0.44,1.06-1.08,1.36-1.77c-0.87,0.03-1.8-0.12-2.76-0.6
					c-0.25-0.12-0.5-0.28-0.74-0.46c-0.05,0.06-0.1,0.13-0.17,0.2c-0.36,0.41-0.81,0.78-1.3,1.09c0.1,0.18,0.17,0.35,0.17,0.52
					c0.01,0.84-1.3,1.25-2.34,1.46c-1.12,0.23-2.24,0.2-3.23-0.01c0.05,0.41,0.28,0.77,0.67,1.01c0.77,0.48,1.61,0.8,2.5,0.97
					C490.68,672.31,492.7,671.61,494.66,670.12z"/>
				<path class="st191" d="M488.88,670.56c1.05-0.22,2.35-0.62,2.34-1.46c0-0.17-0.06-0.34-0.17-0.52c-1.4,0.86-3.18,1.24-4.51,0.85
					c-0.17-0.05-0.32-0.1-0.48-0.18c-0.21,0.21-0.36,0.47-0.41,0.81c-0.03,0.17-0.03,0.33-0.01,0.49
					C486.64,670.76,487.76,670.8,488.88,670.56L488.88,670.56z"/>
				<path class="st192" d="M496.13,665.92c-0.04-0.08-0.08-0.18-0.12-0.25c-0.25-0.05-0.49-0.1-0.73-0.17
					c-0.7-0.18-1.52-0.5-2.06-0.87c0.16,0.84,0.06,1.7-0.69,2.66c0.24,0.18,0.49,0.33,0.74,0.46c0.95,0.48,1.89,0.63,2.76,0.6
					C496.37,667.53,496.45,666.64,496.13,665.92L496.13,665.92z"/>
				<path class="st193" d="M494.2,662.76c0.01-0.06,0.03-0.12,0.05-0.19c-0.7-0.55-1.37-1.31-1.85-1.96
					c-0.16-0.21-0.32-0.48-0.5-0.76c-0.12,0.91,0.39,1.82,0.64,2.63c0.23,0.74,0.54,1.43,0.66,2.13c0.54,0.37,1.36,0.68,2.06,0.87
					c0.23,0.06,0.48,0.11,0.73,0.17C495.32,664.45,494.04,663.78,494.2,662.76L494.2,662.76z"/>
				<path class="st194" d="M475.94,646.74c0.61-0.04,0.92,0.36,1.19,0.74c0.18-0.37,0.45-0.73,0.89-1.01
					c0.51-0.32,1.25-0.32,2.03-0.17c-0.01-0.06-0.02-0.11-0.03-0.18c-0.3-0.98-1.75-1.03-2.9-1.83c-1.24,0.32-2.61,0.88-3.48,2.06
					c0.45,0.72,0.39,1.81,0.82,2.66c0.09,0.19,0.24,0.39,0.41,0.6c0.07-0.56-0.03-1.16,0.06-1.66
					C475.05,647.32,475.25,646.78,475.94,646.74L475.94,646.74z"/>
				<path class="st195" d="M493.25,658.37c0.86,0.79,2.33,1.4,3.16,2.3c0.69-0.52,1.25-1.07,1.14-1.79
					C496.04,658.25,494.35,658.08,493.25,658.37L493.25,658.37z"/>
				<path class="st196" d="M480.02,646.13c0.02,0.05,0.03,0.11,0.03,0.18c0.88,0.19,1.81,0.58,2.53,0.96
					c0.23,0.12,0.5,0.28,0.77,0.46c-0.29-0.87-1.15-1.46-1.72-2.07c-0.53-0.56-1.11-1.06-1.54-1.65c-0.64-0.09-1.51-0.03-2.22,0.11
					c-0.24,0.05-0.49,0.1-0.75,0.17C478.26,645.11,479.72,645.15,480.02,646.13L480.02,646.13z"/>
				<path class="st197" d="M492.39,660.62c0.48,0.65,1.14,1.41,1.85,1.96c0.26-0.7,1.32-1.27,2.17-1.9c-0.83-0.91-2.3-1.51-3.16-2.3
					c-0.45,0.12-0.8,0.32-0.99,0.59c-0.22,0.3-0.32,0.6-0.36,0.9C492.07,660.14,492.24,660.4,492.39,660.62z"/>
				<path class="st198" d="M479.54,661.35c-0.63,0.35-1.32,0.51-1.89,0.53c0.08,0.08,0.17,0.18,0.23,0.28
					c0.26,0.37,0.32,1.44,0.05,2.12c0.55,0.2,1.12,0.32,1.67,0.34c0.08,0,0.18,0,0.26,0c-0.05-1.11,0.09-2.29-0.31-3.24
					C479.55,661.37,479.54,661.36,479.54,661.35L479.54,661.35z"/>
				<path class="st199" d="M482.37,663.5c-0.01-0.17-0.01-0.32,0.01-0.47c0.12-0.95,0.93-2.1,1.62-3.25
					c0.57-0.94,1.78-2.6,1.11-3.71c-0.54,0.55-0.93,1.21-1.47,1.9c-0.58,0.74-1.58,1.8-2.35,1.82c-0.03,0-0.06,0-0.1,0
					c-0.22,0.3-0.46,0.59-0.72,0.85c-0.28,0.29-0.59,0.52-0.91,0.69c0,0.01,0.01,0.02,0.01,0.03c0.4,0.95,0.26,2.13,0.31,3.24
					C481.09,664.61,481.81,664.14,482.37,663.5L482.37,663.5z"/>
				<path class="st200" d="M488.54,641.74c-0.35-0.72-0.82-1.3-1.39-1.49c-0.5-0.17-0.94-0.17-1.34-0.06
					c-0.04,0.16-0.08,0.3-0.11,0.44c-0.1,0.64-0.08,1.35,0.05,1.83c0,0.02,0.01,0.04,0.02,0.06
					C486.82,642.33,488.01,642.28,488.54,641.74L488.54,641.74z"/>
				<path class="st201" d="M488.54,641.74c-0.53,0.54-1.73,0.58-2.77,0.78c0.35,1.18,1.41,2.36,1.84,3.45
					c0.46,0.08,0.85,0.06,1.14-0.1c0.32-0.18,0.56-0.4,0.73-0.66c-0.03-0.32-0.07-0.63-0.11-0.88
					C489.21,643.52,488.94,642.55,488.54,641.74L488.54,641.74z"/>
				<path class="st202" d="M474.81,649.97c0.03-0.11,0.05-0.23,0.07-0.35c-0.18-0.21-0.32-0.41-0.41-0.6
					c-0.42-0.85-0.37-1.95-0.82-2.66c-0.09,0.13-0.19,0.27-0.27,0.42c-0.67,1.2-0.71,3.02-0.19,4.56
					C473.88,651.13,474.67,650.41,474.81,649.97z"/>
				<path class="st203" d="M484.58,655.56c-0.69-0.42-1.33-0.26-1.94,0.17c0.04,1.13-0.5,2.75-1.46,4.08c0.03,0,0.06,0,0.1,0
					c0.78-0.02,1.77-1.1,2.35-1.82c0.55-0.68,0.93-1.35,1.47-1.9C484.99,655.89,484.82,655.72,484.58,655.56L484.58,655.56z"/>
				<path class="st204" d="M483.34,647.73c0.54,0.35,1.13,0.79,1.61,1.17c0.85,0.66,1.58,1.39,2.37,1.63
					c0.03-0.6-0.09-1.24-0.42-1.88c-0.06-0.11-0.12-0.23-0.2-0.34c-1.22,0.41-2.57-1.13-3.37-1.9c-0.96-0.92-1.91-1.96-2.81-2.29
					c-0.13-0.05-0.28-0.08-0.45-0.11c0.42,0.59,1.01,1.09,1.54,1.65C482.2,646.27,483.06,646.86,483.34,647.73L483.34,647.73z"/>
				<path class="st205" d="M487.33,650.52L487.33,650.52c0.8,0.24,1.7,0.07,2.45-0.46c-0.31-0.77-0.2-1.79-0.21-2.87
					c0-0.62-0.03-1.35-0.08-1.99c-0.17,0.26-0.4,0.49-0.73,0.66c-0.29,0.16-0.68,0.19-1.14,0.1c0.27,0.69,0.29,1.34-0.28,1.92
					c-0.2,0.21-0.41,0.33-0.62,0.4c0.07,0.11,0.13,0.23,0.2,0.34C487.24,649.27,487.37,649.92,487.33,650.52L487.33,650.52z"/>
				<path class="st206" d="M507.88,651.2c-0.16,0.45-0.45,0.74-0.84,0.88c0.01,0.59-0.04,1.16-0.16,1.66
					c-0.23,1.04-0.59,2.23-1.35,3.25c0.35,0.66,0.55,1.44,0.54,2.16c-0.06,2.46-0.77,4.47-1.77,6.06c3.33-2.8,4.86-8.48,4.6-13.48
					c-0.05-0.99-0.24-2.08-0.63-3.18C508.31,649.47,508.18,650.35,507.88,651.2z"/>
				<path class="st207" d="M504.65,643.43c-0.55-0.46-1.28-0.79-2.02-0.92c0.23,0.84,0.27,1.78,0.02,2.83
					c-0.06,0.27-0.17,0.54-0.28,0.81c0.07,0.03,0.15,0.07,0.22,0.11c0.49,0.26,0.94,0.61,1.36,1.03c0.15-0.13,0.31-0.24,0.47-0.27
					c0.82-0.21,1.5,0.98,1.94,1.95c0.47,1.04,0.67,2.12,0.69,3.13c0.39-0.15,0.68-0.45,0.84-0.88c0.3-0.85,0.42-1.74,0.39-2.64
					C507.66,646.8,506.53,644.99,504.65,643.43L504.65,643.43z"/>
				<path class="st208" d="M503.46,652.62c0.59-0.34,0.54-0.91,0.36-1.54c-0.13-0.49-0.49-0.98-0.66-1.51
					c-0.52-0.23-1.19-0.38-1.92-0.34c-0.04,1.06,0.79,2.09,0.82,3.24C502.46,652.69,502.92,652.93,503.46,652.62L503.46,652.62z"/>
				<path class="st209" d="M501.24,649.21c0,0,0,0.01,0,0.02c0.73-0.04,1.4,0.11,1.92,0.34c-0.04-0.11-0.07-0.23-0.09-0.35
					c-0.07-0.46,0.33-1.44,0.87-1.94c-0.4-0.41-0.87-0.78-1.36-1.03c-0.07-0.04-0.15-0.07-0.22-0.11
					C501.95,647.16,501.29,648.18,501.24,649.21L501.24,649.21z"/>
				<path class="st210" d="M505.69,651.97c-0.27,1.45-1.27,2.55-2.26,3.38c0.09,0.02,0.19,0.03,0.28,0.06
					c0.78,0.2,1.42,0.82,1.83,1.61c0.76-1.03,1.13-2.21,1.35-3.25c0.11-0.51,0.17-1.07,0.16-1.66c-0.15,0.05-0.31,0.09-0.48,0.1
					C506.23,652.21,505.95,652.12,505.69,651.97L505.69,651.97z"/>
				<path class="st211" d="M505.76,651.46c-0.01,0.18-0.03,0.34-0.06,0.5c0.25,0.16,0.54,0.25,0.88,0.23
					c0.18-0.01,0.33-0.04,0.48-0.1c-0.02-1.01-0.23-2.09-0.69-3.13c-0.44-0.96-1.12-2.16-1.94-1.95c-0.17,0.04-0.32,0.13-0.47,0.27
					C505.09,648.45,505.84,650.09,505.76,651.46L505.76,651.46z"/>
				<path class="st212" d="M503.46,652.62c-0.54,0.3-0.99,0.07-1.4-0.15c0.01,0.41-0.08,0.84-0.36,1.3
					c-0.32,0.52-0.99,0.84-1.77,1.03c0.03,0.05,0.07,0.1,0.11,0.16c0.69,0.76,2.02,0.17,3.4,0.39c0.99-0.83,1.99-1.93,2.26-3.38
					c-0.72-0.45-1.14-1.46-1.9-2.04c-0.17-0.12-0.38-0.26-0.63-0.36c0.18,0.54,0.53,1.04,0.66,1.51
					C504,651.71,504.05,652.29,503.46,652.62L503.46,652.62z"/>
				<path class="st213" d="M503.08,649.22c0.02,0.11,0.05,0.24,0.09,0.35c0.25,0.1,0.47,0.24,0.63,0.36
					c0.76,0.58,1.18,1.59,1.9,2.04c0.03-0.17,0.05-0.33,0.06-0.5c0.09-1.38-0.66-3.02-1.81-4.19
					C503.41,647.78,503,648.77,503.08,649.22z"/>
				<path class="st214" d="M473.44,660.99c0.3-0.17,0.6-0.22,0.89-0.18c-0.38-1.41,0.04-2.83,0.57-4c-0.08,0.02-0.18,0.05-0.26,0.06
					c-0.79,0.17-1.64-0.12-2.36-0.65c-0.24,1.24-0.05,2.47,0.19,3.49c0.12,0.5,0.31,1.04,0.58,1.56
					C473.16,661.18,473.29,661.08,473.44,660.99L473.44,660.99z"/>
				<path class="st215" d="M500.23,642.94c-0.07,0.06-0.15,0.11-0.22,0.18c0.01,0.26,0,0.5,0,0.74c-0.02,0.73-0.15,1.59-0.38,2.19
					c0.79-0.33,1.64-0.44,2.75,0.08c0.11-0.27,0.21-0.54,0.28-0.81c0.26-1.04,0.21-1.98-0.02-2.83
					C501.76,642.35,500.87,642.46,500.23,642.94L500.23,642.94z"/>
				<path class="st216" d="M499.79,651.92c0.02,0,0.04,0,0.06,0c0.52-0.03,1.2,0.1,1.8,0.35c0.12,0.05,0.26,0.12,0.4,0.21
					c-0.02-1.15-0.86-2.19-0.82-3.24c-0.37,0.02-0.75,0.09-1.13,0.23c-0.35,0.12-0.69,0.28-1.03,0.46
					C499.74,650.27,499.82,651.06,499.79,651.92L499.79,651.92z"/>
				<path class="st217" d="M499.62,646.05c-0.06,0.16-0.13,0.3-0.21,0.41c-0.53,0.81-1.75,1.49-2.87,2.24
					c-0.92,0.61-2.74,1.59-2.6,2.87c0.73-0.26,1.37-0.69,2.16-1.08c0.84-0.4,2.21-0.94,2.91-0.62c0.03,0.01,0.05,0.02,0.08,0.04
					c0.33-0.18,0.67-0.33,1.03-0.46c0.38-0.13,0.76-0.21,1.13-0.23c0,0,0-0.01,0-0.02c0.05-1.04,0.7-2.04,1.13-3.07
					C501.26,645.63,500.41,645.72,499.62,646.05L499.62,646.05z"/>
				<path class="st218" d="M474.64,656.88c0.09-0.02,0.18-0.04,0.26-0.06c0.1-0.24,0.22-0.47,0.33-0.68
					c0.33-0.64,0.82-1.37,1.3-1.81c-0.85-0.04-1.67-0.32-2.44-1.27c-0.22,0.2-0.42,0.39-0.6,0.61c-0.68,0.83-1.05,1.71-1.21,2.57
					C472.99,656.76,473.85,657.05,474.64,656.88L474.64,656.88z"/>
				<path class="st219" d="M497.57,645.53c-0.06,0-0.12,0-0.19,0c-0.38,0.82-0.97,1.63-1.5,2.25c-0.17,0.2-0.38,0.41-0.62,0.64
					c0.91-0.09,1.69-0.8,2.41-1.22c0.66-0.39,1.28-0.85,1.95-1.14c0.24-0.61,0.36-1.47,0.38-2.19c0.01-0.24,0.01-0.49,0-0.74
					C498.96,644.05,498.6,645.45,497.57,645.53z"/>
				<path class="st220" d="M501.7,653.76c0.28-0.45,0.37-0.88,0.36-1.3c-0.15-0.07-0.27-0.16-0.4-0.21c-0.6-0.25-1.28-0.37-1.8-0.35
					c-0.02,0-0.04,0-0.06,0c-0.04,1.06-0.27,2.23,0.12,2.87C500.7,654.6,501.38,654.28,501.7,653.76L501.7,653.76z"/>
				<path class="st221" d="M495.26,648.41c-0.47,0.45-1.02,0.92-1.5,1.32c-0.84,0.67-1.71,1.23-2.12,1.96
					c0.58,0.17,1.23,0.19,1.93,0c0.12-0.03,0.26-0.07,0.38-0.12c-0.13-1.28,1.68-2.26,2.6-2.87c1.12-0.74,2.34-1.43,2.87-2.24
					c0.07-0.11,0.15-0.26,0.21-0.41c-0.67,0.29-1.28,0.75-1.95,1.14C496.95,647.62,496.17,648.32,495.26,648.41z"/>
				<path class="st222" d="M486.42,665.61c-0.31,0.35-0.63,0.75-0.46,1.34c0.2,0.65,0.77,0.73,1.42,0.69
					c0.5-0.02,1.06-0.25,1.62-0.31c0.34-0.46,0.64-1.09,0.77-1.8C488.73,665.25,487.54,665.83,486.42,665.61L486.42,665.61z"/>
				<path class="st223" d="M488.49,667.85c0.17-0.13,0.33-0.32,0.5-0.54c-0.56,0.06-1.12,0.29-1.62,0.31
					c-0.65,0.03-1.22-0.04-1.42-0.69c-0.18-0.59,0.16-0.98,0.46-1.34c-0.4-0.08-0.8-0.27-1.18-0.64c-0.44-0.42-0.59-1.15-0.6-1.95
					c-0.06,0.02-0.11,0.05-0.18,0.08c-0.9,0.52-0.61,1.94-1.16,3.23c0.59,1.14,1.43,2.35,2.78,2.93
					C486.68,668.66,487.76,668.47,488.49,667.85L488.49,667.85z"/>
				<path class="st224" d="M487.47,663.52c0,0.02-0.01,0.04-0.01,0.06c-0.09,0.51-0.37,1.14-0.75,1.68
					c-0.08,0.11-0.19,0.23-0.29,0.35c1.13,0.23,2.32-0.35,3.34-0.08c0.06-0.36,0.08-0.75,0.03-1.15c-0.04-0.36-0.11-0.74-0.22-1.09
					C489.09,663.83,488.3,663.74,487.47,663.52L487.47,663.52z"/>
				<path class="st225" d="M487.46,663.57c0-0.02,0.01-0.04,0.01-0.06c-1.03-0.27-2.11-0.75-2.83-0.51c0.01,0.81,0.18,1.53,0.6,1.95
					c0.37,0.37,0.77,0.56,1.18,0.64c0.1-0.12,0.21-0.24,0.29-0.35C487.09,664.73,487.37,664.08,487.46,663.57L487.46,663.57z"/>
				<path class="st226" d="M478.93,648.95c-0.02-0.01-0.04-0.02-0.05-0.02c-0.48-0.2-1.03-0.61-1.47-1.1
					c-0.09-0.1-0.18-0.23-0.27-0.36c-0.48,1.05-0.18,2.34-0.67,3.28c0.34,0.15,0.72,0.24,1.12,0.29c0.36,0.04,0.74,0.05,1.11,0.03
					C478.26,650.48,478.52,649.72,478.93,648.95L478.93,648.95z"/>
				<path class="st227" d="M495.05,643.84c-0.65-0.57-1.33-0.98-2.01-0.69c-0.29,1.62-0.07,3.3,0.46,4.3
					C494.08,646.42,494.35,644.86,495.05,643.84L495.05,643.84z"/>
				<path class="st228" d="M482.77,649.66c-1.12-0.34-2.7-0.25-3.85-0.7c-0.4,0.77-0.67,1.51-0.25,2.11
					C480.32,650.99,481.92,650.4,482.77,649.66z"/>
				<path class="st229" d="M491.82,648.42c0.81,0.08,1.31-0.34,1.68-0.98c-0.53-0.99-0.75-2.68-0.46-4.3
					c-0.03,0.01-0.05,0.02-0.08,0.04c-0.69,0.35-1.13,1.75-1.34,2.66c-0.2,0.85-0.26,1.62-0.51,2.35
					C491.31,648.32,491.54,648.39,491.82,648.42z"/>
				<path class="st230" d="M474.49,661.3c-0.06-0.16-0.11-0.32-0.16-0.48c-0.29-0.03-0.59,0.01-0.89,0.18
					c-0.15,0.08-0.28,0.19-0.38,0.3c0.46,0.9,1.12,1.79,1.99,2.52c0.82,0.68,1.95,1.45,2.6,0.91c0.12-0.1,0.23-0.26,0.3-0.45
					C476.4,663.72,475.01,662.57,474.49,661.3z"/>
				<path class="st231" d="M484.46,663.09c0.05-0.03,0.11-0.05,0.18-0.08c-0.01-0.9,0.17-1.89,0.38-2.67
					c0.07-0.26,0.17-0.55,0.28-0.86c-0.79,0.48-1.18,1.45-1.66,2.16c-0.44,0.64-0.79,1.33-1.26,1.87c0.05,0.65,0.31,1.48,0.6,2.13
					c0.1,0.22,0.21,0.46,0.33,0.68C483.85,665.04,483.56,663.61,484.46,663.09L484.46,663.09z"/>
				<path class="st232" d="M487.3,659.62c-0.08,1.16,0.35,2.69,0.16,3.91c0.84,0.23,1.62,0.31,2.1-0.24
					C489.14,661.71,488.22,660.29,487.3,659.62z"/>
				<path class="st233" d="M487.47,663.52c0.2-1.21-0.24-2.75-0.17-3.91c-0.37-0.28-0.75-0.42-1.08-0.4
					c-0.36,0.02-0.67,0.12-0.93,0.28c-0.11,0.31-0.22,0.6-0.28,0.86c-0.21,0.78-0.39,1.77-0.38,2.67
					C485.35,662.77,486.44,663.24,487.47,663.52L487.47,663.52z"/>
				<path class="st234" d="M476.54,654.32c0.12-0.11,0.25-0.21,0.36-0.28c0.83-0.5,2.23-0.59,3.55-0.78
					c1.1-0.15,3.14-0.24,3.59-1.45c-0.77-0.07-1.53,0.03-2.4,0.03c-0.93,0-2.39-0.1-2.89-0.69c-0.02-0.03-0.04-0.05-0.06-0.08
					c-0.37,0.02-0.75,0.01-1.11-0.03c-0.4-0.04-0.78-0.15-1.12-0.29c0,0,0,0.01-0.01,0.01c-0.5,0.91-1.52,1.54-2.35,2.28
					C474.87,654,475.68,654.28,476.54,654.32z"/>
				<path class="st235" d="M497.39,645.52c-0.75-0.09-1.52-0.99-2.33-1.69c-0.7,1.02-0.97,2.58-1.55,3.6
					c0.22,0.4,0.49,0.7,0.79,0.83c0.34,0.15,0.66,0.18,0.97,0.15c0.24-0.23,0.45-0.45,0.62-0.64
					C496.41,647.16,497,646.34,497.39,645.52L497.39,645.52z"/>
				<path class="st236" d="M484.11,651.07c-0.09-0.81-0.62-1.19-1.33-1.41c-0.86,0.74-2.46,1.33-4.1,1.41
					c0.02,0.03,0.04,0.05,0.06,0.08c0.5,0.6,1.96,0.7,2.89,0.69c0.87,0,1.64-0.11,2.4-0.03
					C484.11,651.6,484.14,651.36,484.11,651.07z"/>
				<path class="st237" d="M489.77,650.07c0.31,0.77,0.99,1.37,1.87,1.63c0.41-0.73,1.27-1.28,2.12-1.96
					c0.49-0.39,1.04-0.87,1.5-1.32c-0.31,0.03-0.63-0.01-0.97-0.15c-0.3-0.12-0.57-0.41-0.79-0.83c-0.37,0.64-0.86,1.07-1.68,0.98
					c-0.28-0.03-0.52-0.11-0.7-0.23c-0.04,0.12-0.09,0.25-0.15,0.37C490.69,649.21,490.27,649.72,489.77,650.07L489.77,650.07z"/>
				<path class="st238" d="M506.08,659.16c0.02-0.73-0.18-1.49-0.54-2.16c-0.52,0.7-1.22,1.33-2.2,1.78
					c-0.26,0.11-0.53,0.21-0.81,0.29c0.02,0.08,0.03,0.16,0.05,0.24c0.1,0.54,0.1,1.12,0.03,1.71c0.2,0.03,0.37,0.09,0.51,0.2
					c0.67,0.51,0.17,1.79-0.32,2.74c-0.52,1.02-1.25,1.87-2.03,2.52c0.35,0.22,0.77,0.26,1.21,0.1c0.85-0.3,1.63-0.76,2.32-1.35
					C505.31,663.63,506.02,661.62,506.08,659.16L506.08,659.16z"/>
				<path class="st239" d="M499.44,660.11c-0.01,0.01-0.02,0.01-0.02,0.02c0.49,0.54,0.78,1.16,0.93,1.72
					c0.07-0.1,0.15-0.21,0.23-0.3c0.31-0.34,1.34-0.64,2.06-0.53c0.07-0.58,0.06-1.16-0.03-1.71c-0.01-0.08-0.03-0.17-0.05-0.24
					C501.47,659.38,500.28,659.5,499.44,660.11L499.44,660.11z"/>
				<path class="st240" d="M500.47,665.06c-0.15,0.1-0.29,0.2-0.45,0.27c0.03,0.29,0.13,0.58,0.37,0.84
					c0.11,0.12,0.24,0.23,0.37,0.31c0.78-0.64,1.51-1.49,2.03-2.52c0.49-0.94,0.99-2.23,0.32-2.74c-0.13-0.1-0.31-0.17-0.51-0.2
					C502.42,662.64,501.6,664.26,500.47,665.06L500.47,665.06z"/>
				<path class="st241" d="M500.57,661.54c-0.08,0.09-0.16,0.2-0.23,0.3c0.07,0.26,0.1,0.51,0.1,0.73c0.02,0.95-0.51,1.92-0.41,2.76
					c0.16-0.08,0.3-0.17,0.45-0.27c1.13-0.79,1.95-2.41,2.15-4.03C501.9,660.9,500.88,661.2,500.57,661.54L500.57,661.54z"/>
				<path class="st242" d="M503.71,655.4c-0.09-0.02-0.19-0.04-0.28-0.06c-0.2,0.17-0.39,0.32-0.58,0.47
					c-0.58,0.44-1.33,0.88-1.95,1.07c0.75,0.4,1.36,1.02,1.64,2.21c0.28-0.08,0.55-0.18,0.81-0.29c0.97-0.46,1.68-1.08,2.2-1.78
					C505.13,656.22,504.48,655.6,503.71,655.4L503.71,655.4z"/>
				<path class="st243" d="M500.9,656.87c-0.16,0.05-0.31,0.08-0.46,0.09c-0.95,0.09-2.26-0.44-3.53-0.84
					c-1.05-0.34-2.94-1.15-3.87-0.24c0.66,0.4,1.39,0.63,2.18,1.02c0.84,0.4,2.1,1.13,2.3,1.89c0.01,0.03,0.01,0.06,0.02,0.09
					c0.34,0.15,0.67,0.31,0.98,0.51c0.34,0.21,0.63,0.47,0.88,0.74c0.01-0.01,0.01-0.01,0.02-0.02c0.84-0.61,2.04-0.74,3.11-1.04
					C502.26,657.89,501.65,657.27,500.9,656.87L500.9,656.87z"/>
				<path class="st244" d="M500.04,654.94c-0.04-0.05-0.08-0.09-0.11-0.16c-0.87,0.21-1.89,0.26-2.69,0.23
					c-0.26-0.01-0.57-0.04-0.89-0.08c0.64,0.65,1.67,0.82,2.46,1.12c0.73,0.28,1.46,0.47,2.1,0.81c0.62-0.2,1.38-0.63,1.95-1.07
					c0.19-0.15,0.38-0.3,0.58-0.47C502.05,655.11,500.73,655.7,500.04,654.94L500.04,654.94z"/>
				<path class="st245" d="M496.34,654.94c-0.64-0.08-1.36-0.22-1.96-0.35c-1.06-0.24-2.03-0.56-2.85-0.44
					c0.23,0.56,0.62,1.08,1.19,1.51c0.1,0.08,0.22,0.16,0.33,0.22c0.92-0.91,2.81-0.1,3.87,0.24c1.27,0.41,2.57,0.93,3.53,0.84
					c0.13-0.01,0.29-0.05,0.46-0.09c-0.64-0.34-1.38-0.54-2.1-0.81C498.02,655.76,496.98,655.6,496.34,654.94L496.34,654.94z"/>
				<path class="st246" d="M476.07,659.25c0.35-0.51,0.86-0.5,1.33-0.48c-0.19-0.36-0.28-0.79-0.23-1.31
					c0.06-0.6,0.53-1.18,1.15-1.7c-0.05-0.03-0.11-0.06-0.17-0.08c-0.96-0.37-1.9,0.74-3.25,1.12c-0.53,1.17-0.95,2.58-0.57,4
					c0.84,0.09,1.67,0.82,2.59,1.02c0.21,0.04,0.46,0.06,0.73,0.05c-0.39-0.4-0.93-0.69-1.25-1.08
					C475.98,660.31,475.68,659.81,476.07,659.25L476.07,659.25z"/>
				<path class="st247" d="M478.32,655.78c-0.62,0.51-1.09,1.09-1.15,1.7c-0.05,0.52,0.04,0.94,0.23,1.31
					c0.16,0.01,0.31,0.02,0.46,0.01c0.65-0.04,1.33-0.22,1.78-0.47c0.02-0.01,0.03-0.02,0.05-0.03
					C479.26,657.33,478.95,656.19,478.32,655.78L478.32,655.78z"/>
				<path class="st248" d="M496.01,652.95c1.16-0.19,2.55-0.95,3.78-1.04c0.03-0.87-0.05-1.66-0.7-2.01
					C497.65,650.69,496.46,651.92,496.01,652.95L496.01,652.95z"/>
				<path class="st249" d="M496.01,652.95c0.46-1.04,1.64-2.26,3.08-3.05c-0.02-0.01-0.05-0.03-0.08-0.04
					c-0.7-0.32-2.07,0.22-2.91,0.62c-0.79,0.38-1.43,0.81-2.16,1.08c0.02,0.22,0.1,0.46,0.26,0.69
					C494.64,652.95,495.27,653.07,496.01,652.95L496.01,652.95z"/>
				<path class="st250" d="M478.15,655.69c0.06,0.02,0.11,0.05,0.17,0.08c0.69-0.57,1.59-1.05,2.32-1.38
					c0.24-0.1,0.53-0.22,0.85-0.32c-0.86-0.32-1.88-0.01-2.72,0.05c-0.77,0.06-1.52,0.21-2.25,0.18c-0.48,0.45-0.96,1.16-1.3,1.81
					c-0.11,0.22-0.23,0.45-0.33,0.68C476.25,656.42,477.19,655.32,478.15,655.69z"/>
				<path class="st251" d="M478.32,655.78c0.63,0.4,0.94,1.55,1.36,2.52c1.08-0.61,2-1.91,2.96-2.57c-0.02-0.47-0.12-0.84-0.35-1.09
					c-0.24-0.27-0.51-0.45-0.8-0.55c-0.31,0.1-0.61,0.21-0.85,0.32C479.9,654.73,479.01,655.21,478.32,655.78L478.32,655.78z"/>
				<path class="st252" d="M499.92,654.8c-0.39-0.64-0.18-1.81-0.12-2.87c-1.23,0.08-2.62,0.85-3.78,1.04
					c-0.19,0.42-0.25,0.82-0.16,1.13c0.1,0.35,0.27,0.63,0.49,0.85c0.32,0.04,0.63,0.07,0.89,0.08
					C498.04,655.06,499.04,655,499.92,654.8L499.92,654.8z"/>
				<path class="st253" d="M491.63,651.69c-0.41,0.73-0.46,1.64-0.1,2.48c0.82-0.13,1.79,0.2,2.85,0.44
					c0.6,0.13,1.32,0.27,1.96,0.35c-0.22-0.22-0.38-0.5-0.49-0.85c-0.09-0.32-0.03-0.7,0.16-1.13c-0.74,0.11-1.37-0.01-1.81-0.69
					c-0.16-0.24-0.24-0.47-0.26-0.69c-0.12,0.04-0.25,0.08-0.38,0.12C492.88,651.88,492.22,651.85,491.63,651.69L491.63,651.69z"/>
				<path class="st254" d="M489.76,665.52c-0.12,0.72-0.42,1.34-0.77,1.8c0.12-0.01,0.25-0.02,0.37-0.01
					c0.46,0.03,1.33,0.63,1.69,1.27c0.5-0.3,0.94-0.67,1.3-1.09c0.06-0.06,0.11-0.13,0.17-0.2c-0.9-0.64-1.74-1.49-2.74-1.77
					C489.78,665.52,489.77,665.52,489.76,665.52L489.76,665.52z"/>
				<path class="st255" d="M489.37,667.31c-0.12-0.01-0.25,0-0.37,0.01c-0.17,0.22-0.33,0.4-0.5,0.54c-0.74,0.61-1.81,0.81-2.41,1.4
					c0.16,0.06,0.31,0.12,0.48,0.18c1.33,0.39,3.11,0.01,4.51-0.85C490.69,667.95,489.82,667.34,489.37,667.31L489.37,667.31z"/>
				<path class="st256" d="M493.21,664.63c-0.13-0.09-0.25-0.19-0.34-0.28c-0.66-0.69-1.07-2.03-1.53-3.28
					c-0.38-1.04-0.93-3.02-2.22-3.17c0.09,0.77,0.37,1.48,0.56,2.33c0.21,0.91,0.42,2.35-0.05,2.97c-0.02,0.03-0.04,0.05-0.06,0.07
					c0.09,0.35,0.18,0.73,0.22,1.09c0.05,0.4,0.03,0.79-0.03,1.15c0.01,0,0.02,0,0.03,0.01c0.99,0.27,1.83,1.13,2.74,1.77
					C493.27,666.33,493.37,665.47,493.21,664.63L493.21,664.63z"/>
				<path class="st257" d="M491.9,659.87c-0.33-0.55-0.66-1.19-0.93-1.74c-0.47-0.96-0.82-1.94-1.43-2.5
					c-0.29,0.53-0.46,1.16-0.44,1.88c0,0.13,0.02,0.27,0.03,0.39c1.28,0.16,1.82,2.13,2.22,3.17c0.47,1.25,0.87,2.59,1.53,3.28
					c0.09,0.09,0.21,0.2,0.34,0.28c-0.12-0.7-0.44-1.41-0.66-2.13C492.3,661.69,491.78,660.78,491.9,659.87L491.9,659.87z"/>
				<path class="st258" d="M480.05,646.31c-0.78-0.17-1.52-0.17-2.03,0.17c-0.45,0.29-0.71,0.63-0.89,1.01
					c0.09,0.12,0.18,0.26,0.27,0.36c0.44,0.49,0.99,0.9,1.47,1.1c0.02,0.01,0.04,0.02,0.05,0.02
					C479.43,648.02,480.14,647.06,480.05,646.31z"/>
				<path class="st259" d="M493.25,658.37c1.1-0.29,2.79-0.12,4.29,0.51c-0.01-0.03-0.01-0.06-0.02-0.09
					c-0.19-0.76-1.46-1.48-2.3-1.89c-0.79-0.38-1.52-0.61-2.18-1.02c-0.16,0.16-0.29,0.36-0.38,0.63
					C492.4,657.3,492.7,657.88,493.25,658.37L493.25,658.37z"/>
				<path class="st260" d="M480.05,646.31c0.08,0.75-0.62,1.71-1.12,2.65c1.14,0.46,2.74,0.37,3.85,0.7
					c0.35-0.3,0.58-0.63,0.63-0.95c0.06-0.36,0.03-0.69-0.06-0.98c-0.27-0.18-0.54-0.34-0.77-0.46
					C481.86,646.89,480.93,646.5,480.05,646.31L480.05,646.31z"/>
				<path class="st261" d="M491.53,654.17c-0.82,0.13-1.55,0.67-2,1.46c0.61,0.56,0.96,1.52,1.43,2.5c0.27,0.55,0.61,1.19,0.93,1.74
					c0.04-0.3,0.16-0.6,0.36-0.9c0.2-0.27,0.55-0.47,0.99-0.59c-0.55-0.5-0.85-1.08-0.58-1.85c0.09-0.27,0.23-0.48,0.38-0.63
					c-0.11-0.07-0.22-0.15-0.33-0.22C492.15,655.24,491.76,654.71,491.53,654.17L491.53,654.17z"/>
				<path class="st262" d="M477.89,662.16c-0.07-0.09-0.15-0.19-0.23-0.28c-0.27,0.01-0.52-0.01-0.73-0.05
					c-0.93-0.2-1.75-0.91-2.59-1.02c0.04,0.16,0.09,0.32,0.16,0.48c0.52,1.27,1.92,2.42,3.45,2.98
					C478.22,663.59,478.15,662.53,477.89,662.16L477.89,662.16z"/>
				<path class="st263" d="M485.29,659.48c0.23-0.6,0.52-1.26,0.78-1.82c0.47-0.97,1.01-1.85,1.06-2.68
					c-0.59,0.1-1.19,0.37-1.74,0.83c-0.1,0.08-0.2,0.18-0.29,0.27c0.67,1.1-0.54,2.76-1.11,3.71c-0.69,1.15-1.49,2.3-1.62,3.25
					c-0.02,0.13-0.02,0.29-0.01,0.47c0.48-0.55,0.84-1.22,1.26-1.87C484.11,660.93,484.51,659.96,485.29,659.48L485.29,659.48z"/>
				<path class="st264" d="M487.3,659.62c0.91,0.67,1.83,2.09,2.27,3.67c0.02-0.02,0.04-0.05,0.06-0.07
					c0.48-0.62,0.25-2.06,0.05-2.97c-0.2-0.85-0.47-1.56-0.56-2.33c-0.22-0.03-0.47,0-0.74,0.09
					C487.62,658.28,487.35,658.87,487.3,659.62L487.3,659.62z"/>
				<path class="st265" d="M489.53,655.63c-0.61-0.56-1.49-0.8-2.39-0.64c-0.05,0.83-0.6,1.71-1.06,2.68
					c-0.27,0.56-0.56,1.22-0.78,1.82c0.26-0.16,0.57-0.26,0.93-0.28c0.33-0.02,0.7,0.13,1.08,0.4c0.05-0.75,0.31-1.34,1.09-1.62
					c0.27-0.09,0.51-0.12,0.74-0.09c-0.02-0.12-0.03-0.26-0.03-0.39C489.06,656.79,489.23,656.16,489.53,655.63L489.53,655.63z"/>
				<path class="st266" d="M481.49,654.08c0.61-0.2,1.31-0.39,1.91-0.53c1.05-0.25,2.07-0.37,2.76-0.85
					c-0.45-0.4-1.04-0.7-1.73-0.84c-0.13-0.02-0.26-0.04-0.39-0.05c-0.45,1.21-2.5,1.31-3.59,1.45c-1.33,0.18-2.73,0.28-3.55,0.78
					c-0.12,0.07-0.24,0.17-0.36,0.28c0.73,0.03,1.48-0.11,2.25-0.18C479.62,654.07,480.63,653.77,481.49,654.08L481.49,654.08z"/>
				<path class="st267" d="M487.14,654.97c0.05-0.83-0.3-1.67-0.97-2.27c-0.68,0.48-1.71,0.6-2.76,0.85
					c-0.6,0.15-1.3,0.33-1.91,0.53c0.29,0.1,0.56,0.28,0.8,0.55c0.22,0.25,0.33,0.63,0.35,1.09c0.61-0.42,1.24-0.59,1.94-0.17
					c0.24,0.16,0.41,0.32,0.53,0.52c0.09-0.09,0.19-0.19,0.29-0.27C485.95,655.35,486.55,655.08,487.14,654.97z"/>
				<path class="st267" d="M486.16,652.7c0.68-0.48,1.12-1.27,1.17-2.19c-0.8-0.24-1.53-0.95-2.37-1.63
					c-0.49-0.38-1.07-0.82-1.61-1.17c0.09,0.29,0.13,0.61,0.06,0.98c-0.06,0.32-0.28,0.65-0.63,0.95c0.72,0.22,1.23,0.6,1.33,1.41
					c0.03,0.29,0,0.53-0.07,0.74c0.13,0.01,0.26,0.03,0.39,0.05C485.13,652,485.71,652.31,486.16,652.7L486.16,652.7z"/>
				<path class="st268" d="M489.53,655.63c0.45-0.8,1.18-1.34,2-1.46c-0.34-0.84-0.3-1.75,0.1-2.48c-0.87-0.25-1.55-0.85-1.87-1.63
					c-0.75,0.53-1.64,0.69-2.44,0.46l0,0c-0.05,0.91-0.49,1.71-1.17,2.19c0.67,0.61,1.04,1.44,0.97,2.27
					C488.04,654.83,488.91,655.07,489.53,655.63z"/>
			</g>
		</g>
	</g>
</g>
<text transform="matrix(1 0 0 1 58.7668 639.2898)"><tspan x="0" y="0" class="st5 st269">#87CEEB</tspan><tspan x="0" y="4.8" class="st5 st269">#98FF98</tspan><tspan x="0" y="9.6" class="st5 st269">#FF6B6B</tspan><tspan x="0" y="14.4" class="st5 st269">#FFD700</tspan><tspan x="0" y="19.2" class="st5 st269">#E6E6FA</tspan><tspan x="0" y="24" class="st5 st269">#708090</tspan><tspan x="0" y="28.8" class="st5 st269">#FFFACD</tspan></text>
</svg>
