<?xml version="1.0" encoding="utf-8"?>
<!-- Generator: Adobe Illustrator 27.6.1, SVG Export Plug-In . SVG Version: 6.00 Build 0)  -->
<svg version="1.1" id="Layer_1" xmlns="http://www.w3.org/2000/svg" xmlns:xlink="http://www.w3.org/1999/xlink" x="0px" y="0px"
	 viewBox="0 0 524.38 452.5" style="enable-background:new 0 0 524.38 452.5;" xml:space="preserve">
<style type="text/css">
	.st0{fill:none;}
	.st1{fill:none;stroke:#000000;stroke-width:2;stroke-miterlimit:10;}
	.st2{fill:none;stroke:#000000;stroke-width:2;stroke-linecap:round;stroke-linejoin:round;stroke-miterlimit:10;}
	.st3{fill:#F1F0F0;}
	.st4{fill:#ED2224;}
	.st5{fill:#FBAA19;}
	.st6{fill:#F6EB16;}
	.st7{fill:#6ABD45;}
	.st8{fill:#45ABE0;}
	.st9{fill:#6B52A2;}
	.st10{fill:#D3499A;}
	.st11{fill:#F15822;}
	.st12{fill:#F57F20;}
	.st13{fill:#7F8133;}
	.st14{fill:#80597F;}
	.st15{fill:#BE1B80;}
	.st16{fill:#ED1B68;}
	.st17{fill:#FED401;}
	.st18{fill:#86C440;}
	.st19{fill:#7FAC7F;}
	.st20{fill:#C05680;}
	.st21{fill:#F05767;}
	.st22{fill:#94C93D;}
	.st23{fill:#86C87F;}
	.st24{fill:#BF7F7F;}
	.st25{fill:#F47E67;}
	.st26{fill:#50BB78;}
	.st27{fill:#418080;}
	.st28{fill:#7F8067;}
	.st29{fill:#4F62AD;}
	.st30{fill:#7160AA;}
	.st31{fill:#974C9D;}
	.st32{fill:#F78D1E;}
	.st33{fill:#A88E30;}
	.st34{fill:#AA7456;}
	.st35{fill:#D43956;}
	.st36{fill:#EF4049;}
	.st37{fill:#A9AB36;}
	.st38{fill:#AA9055;}
	.st39{fill:#D55556;}
	.st40{fill:#F15849;}
	.st41{fill:#559055;}
	.st42{fill:#805656;}
	.st43{fill:#AA5645;}
	.st44{fill:#7C459B;}
	.st45{fill:#A93E97;}
	.st46{fill:#CC2890;}
	.st47{fill:#ABD037;}
	.st48{fill:#AAC855;}
	.st49{fill:#D38D55;}
	.st50{fill:#F68C49;}
	.st51{fill:#61BC58;}
	.st52{fill:#808D55;}
	.st53{fill:#AB8D43;}
	.st54{fill:#8074AB;}
	.st55{fill:#AA749A;}
	.st56{fill:#D23C96;}
	.st57{fill:#73C04F;}
	.st58{fill:#7FAA54;}
	.st59{fill:#A9A941;}
	.st60{fill:#7F90AA;}
	.st61{fill:#AA9099;}
	.st62{fill:#D45699;}
	.st63{fill:#2B90AA;}
	.st64{fill:#569099;}
	.st65{fill:#805699;}
	.st66{fill:#6E57A5;}
	.st67{fill:#BFAB30;}
	.st68{fill:#BE953D;}
	.st69{fill:#DF6B40;}
	.st70{fill:#F26A39;}
	.st71{fill:#7F963E;}
	.st72{fill:#9F6B40;}
	.st73{fill:#C06B32;}
	.st74{fill:#A05780;}
	.st75{fill:#BF5772;}
	.st76{fill:#E02A72;}
	.st77{fill:#7FAB40;}
	.st78{fill:#9F7F3F;}
	.st79{fill:#BF8033;}
	.st80{fill:#9F6D7F;}
	.st81{fill:#BF6C73;}
	.st82{fill:#E04073;}
	.st83{fill:#606C7F;}
	.st84{fill:#7F6D73;}
	.st85{fill:#9F4072;}
	.st86{fill:#934299;}
	.st87{fill:#87C543;}
	.st88{fill:#9FA93C;}
	.st89{fill:#C0AB33;}
	.st90{fill:#9F9680;}
	.st91{fill:#BF9672;}
	.st92{fill:#E06B73;}
	.st93{fill:#5F967F;}
	.st94{fill:#809672;}
	.st95{fill:#9F6B73;}
	.st96{fill:#9A58A3;}
	.st97{fill:#5FAB80;}
	.st98{fill:#80AB73;}
	.st99{fill:#9F7F73;}
	.st100{fill:#9F6DAF;}
	.st101{fill:#606DB3;}
	.st102{fill:#99AB3A;}
	.st103{fill:#B28933;}
	.st104{fill:#CC882A;}
	.st105{fill:#B27967;}
	.st106{fill:#CC775B;}
	.st107{fill:#E6565C;}
	.st108{fill:#807967;}
	.st109{fill:#9A785C;}
	.st110{fill:#B3565C;}
	.st111{fill:#B4458F;}
	.st112{fill:#7F8A67;}
	.st113{fill:#9A8A5C;}
	.st114{fill:#B2675C;}
	.st115{fill:#B4578F;}
	.st116{fill:#7F578F;}
	.st117{fill:#80AB66;}
	.st118{fill:#9AAB5A;}
	.st119{fill:#B2885B;}
	.st120{fill:#B3798E;}
	.st121{fill:#80788E;}
	.st122{fill:#7F898E;}
	.st123{fill:#948E56;}
	.st124{fill:#AB8E4C;}
	.st125{fill:#C0714C;}
	.st126{fill:#BF6478;}
	.st127{fill:#956578;}
	.st128{fill:#947377;}
	.st129{fill:#948F78;}
	.st130{fill:#A47B67;}
	.st131{fill:none;stroke:#00AEEF;stroke-width:1.2661;stroke-miterlimit:10;}
	.st132{fill:#00AEEF;}
	.st133{font-family:'UniversLTStd-Cn';}
	.st134{font-size:10.1287px;}
	.st135{fill:#A7A9AC;}
	.st136{font-family:'UniversLTStd-CnObl';}
	.st137{font-size:8px;}
	.st138{font-size:12px;}
	.st139{stroke:#000000;stroke-miterlimit:10;}
	.st140{fill:#A8A9AC;}
	.st141{font-size:6px;}
</style>
<symbol  id="Database" viewBox="-24 -24 48 48">
	<rect x="-24" y="-24" class="st0" width="48" height="48"/>
	<path class="st1" d="M17.33,13c0,2.39-7.76,4.33-17.33,4.33S-17.33,15.39-17.33,13c0-2.39,7.76-4.33,17.33-4.33
		S17.33,10.61,17.33,13z"/>
	<path class="st1" d="M-17.33-13c0-2.39,7.76-4.33,17.33-4.33S17.33-15.39,17.33-13"/>
	<path class="st1" d="M-17.33-4.33c0-2.39,7.76-4.33,17.33-4.33s17.33,1.94,17.33,4.33"/>
	<path class="st1" d="M-17.33,4.33C-17.33,1.94-9.57,0,0,0s17.33,1.94,17.33,4.33"/>
	<line class="st1" x1="17.33" y1="-13" x2="17.33" y2="13"/>
	<line class="st1" x1="-17.33" y1="-13" x2="-17.33" y2="13"/>
</symbol>
<symbol  id="Development" viewBox="-24 -24 48 48">
	<rect x="-24" y="-24" class="st0" width="48" height="48"/>
	<polyline class="st2" points="8.67,2.17 13,-2.17 8.67,-6.5 	"/>
	<polyline class="st2" points="-8.67,-6.5 -13,-2.17 -8.67,2.17 	"/>
	<line class="st2" x1="-4.33" y1="-6.5" x2="4.33" y2="2.17"/>
	<rect x="-17.33" y="-15.17" class="st2" width="34.67" height="30.33"/>
	<line class="st2" x1="17.33" y1="10.83" x2="-17.33" y2="10.83"/>
	<line class="st2" x1="-13" y1="15.17" x2="-13" y2="10.83"/>
	<line class="st2" x1="-8.67" y1="10.83" x2="-8.67" y2="15.17"/>
</symbol>
<symbol  id="Letter" viewBox="-24 -24 48 48">
	<rect x="-24" y="-24" class="st0" width="48" height="48"/>
	<polygon class="st2" points="13.39,-17.33 -13.39,-17.33 -13.39,17.33 4.73,17.33 13.39,8.67 	"/>
	<polyline class="st2" points="13.39,8.67 4.73,8.67 4.73,17.33 	"/>
	<line class="st2" x1="-7.27" y1="8.67" x2="-0.61" y2="8.67"/>
	<line class="st2" x1="-7.27" y1="0" x2="8.06" y2="0"/>
	<line class="st2" x1="8.06" y1="-8.67" x2="-7.27" y2="-8.67"/>
</symbol>
<symbol  id="Man" viewBox="-24 -24 48 48">
	<rect x="-24" y="-24" class="st0" width="48" height="48"/>
	<path class="st2" d="M8.67,8.67C8.67,3.88,4.79,0,0,0c-4.79,0-8.67,3.88-8.67,8.67c0,4.79,3.88,8.67,8.67,8.67
		C4.79,17.33,8.67,13.45,8.67,8.67z"/>
	<g>
		<line class="st2" x1="9.8" y1="-17.33" x2="8.67" y2="-13"/>
	</g>
	<g>
		<line class="st2" x1="-9.8" y1="-17.33" x2="-8.67" y2="-13"/>
	</g>
	<g>
		<path class="st2" d="M-17.34-17.33l3.65,10.94c0.38,1.13,1.66,2.06,2.85,2.06h21.67c1.19,0,2.48-0.92,2.85-2.06l3.65-10.94"/>
	</g>
</symbol>
<rect x="265.79" y="28.46" class="st3" width="258.59" height="424.04"/>
<g>
	<rect x="370.21" y="355.25" class="st4" width="5.88" height="5.88"/>
	<rect x="370.21" y="362.3" class="st5" width="5.88" height="5.88"/>
	<rect x="370.21" y="369.36" class="st6" width="5.88" height="5.88"/>
	<rect x="370.21" y="376.41" class="st7" width="5.88" height="5.88"/>
	<rect x="370.21" y="383.46" class="st8" width="5.88" height="5.88"/>
	<rect x="370.21" y="390.52" class="st9" width="5.88" height="5.88"/>
	<rect x="377.26" y="355.25" class="st10" width="5.88" height="5.88"/>
	<rect x="377.26" y="362.3" class="st11" width="5.88" height="5.88"/>
	<rect x="377.26" y="369.36" class="st12" width="5.88" height="5.88"/>
	<rect x="377.26" y="376.41" class="st13" width="5.88" height="5.88"/>
	<rect x="377.26" y="383.46" class="st14" width="5.88" height="5.88"/>
	<rect x="377.26" y="390.52" class="st15" width="5.88" height="5.88"/>
	<rect x="384.32" y="355.25" class="st16" width="5.88" height="5.88"/>
	<rect x="384.32" y="362.3" class="st17" width="5.88" height="5.88"/>
	<rect x="384.32" y="369.36" class="st18" width="5.88" height="5.88"/>
	<rect x="384.32" y="376.41" class="st19" width="5.88" height="5.88"/>
	<rect x="384.32" y="383.46" class="st20" width="5.88" height="5.88"/>
	<rect x="384.32" y="390.52" class="st21" width="5.88" height="5.88"/>
	<rect x="391.37" y="355.25" class="st22" width="5.88" height="5.88"/>
	<rect x="391.37" y="362.3" class="st23" width="5.88" height="5.88"/>
	<rect x="391.37" y="369.36" class="st24" width="5.88" height="5.88"/>
	<rect x="391.37" y="376.41" class="st25" width="5.88" height="5.88"/>
	<rect x="391.37" y="383.46" class="st26" width="5.88" height="5.88"/>
	<rect x="391.37" y="390.52" class="st27" width="5.88" height="5.88"/>
	<rect x="398.42" y="355.25" class="st28" width="5.88" height="5.88"/>
	<rect x="398.42" y="362.3" class="st29" width="5.88" height="5.88"/>
	<rect x="398.42" y="369.36" class="st30" width="5.88" height="5.88"/>
	<rect x="398.42" y="376.41" class="st31" width="5.88" height="5.88"/>
	<rect x="398.42" y="383.46" class="st32" width="5.88" height="5.88"/>
	<rect x="398.42" y="390.52" class="st33" width="5.88" height="5.88"/>
	<rect x="405.48" y="355.25" class="st34" width="5.88" height="5.88"/>
	<rect x="405.48" y="362.3" class="st35" width="5.88" height="5.88"/>
	<rect x="405.48" y="369.36" class="st36" width="5.88" height="5.88"/>
	<rect x="405.48" y="376.41" class="st37" width="5.88" height="5.88"/>
	<rect x="405.48" y="383.46" class="st38" width="5.88" height="5.88"/>
	<rect x="405.48" y="390.52" class="st39" width="5.88" height="5.88"/>
	<rect x="412.53" y="355.25" class="st40" width="5.88" height="5.88"/>
	<rect x="412.53" y="362.3" class="st41" width="5.88" height="5.88"/>
	<rect x="412.53" y="369.36" class="st42" width="5.88" height="5.88"/>
	<rect x="412.53" y="376.41" class="st43" width="5.88" height="5.88"/>
	<rect x="412.53" y="383.46" class="st44" width="5.88" height="5.88"/>
	<rect x="412.53" y="390.52" class="st45" width="5.88" height="5.88"/>
	<rect x="419.58" y="355.25" class="st46" width="5.88" height="5.88"/>
	<rect x="419.58" y="362.3" class="st47" width="5.88" height="5.88"/>
	<rect x="419.58" y="369.36" class="st48" width="5.88" height="5.88"/>
	<rect x="419.58" y="376.41" class="st49" width="5.88" height="5.88"/>
	<rect x="419.58" y="383.46" class="st50" width="5.88" height="5.88"/>
	<rect x="419.58" y="390.52" class="st51" width="5.88" height="5.88"/>
	<rect x="426.64" y="355.25" class="st52" width="5.88" height="5.88"/>
	<rect x="426.64" y="362.3" class="st53" width="5.88" height="5.88"/>
	<rect x="426.64" y="369.36" class="st54" width="5.88" height="5.88"/>
	<rect x="426.64" y="376.41" class="st55" width="5.88" height="5.88"/>
	<rect x="426.64" y="383.46" class="st56" width="5.88" height="5.88"/>
	<rect x="426.64" y="390.52" class="st57" width="5.88" height="5.88"/>
	<rect x="433.69" y="355.25" class="st58" width="5.88" height="5.88"/>
	<rect x="433.69" y="362.3" class="st59" width="5.88" height="5.88"/>
	<rect x="433.69" y="369.36" class="st60" width="5.88" height="5.88"/>
	<rect x="433.69" y="376.41" class="st61" width="5.88" height="5.88"/>
	<rect x="433.69" y="383.46" class="st62" width="5.88" height="5.88"/>
	<rect x="433.69" y="390.52" class="st63" width="5.88" height="5.88"/>
	<rect x="370.21" y="397.52" class="st64" width="5.88" height="5.88"/>
	<rect x="370.21" y="404.58" class="st65" width="5.88" height="5.88"/>
	<rect x="370.21" y="411.63" class="st66" width="5.88" height="5.88"/>
	<rect x="370.21" y="418.68" class="st67" width="5.88" height="5.88"/>
	<rect x="370.21" y="425.74" class="st68" width="5.88" height="5.88"/>
	<rect x="370.21" y="432.79" class="st69" width="5.88" height="5.88"/>
	<rect x="377.26" y="397.52" class="st70" width="5.88" height="5.88"/>
	<rect x="377.26" y="404.58" class="st71" width="5.88" height="5.88"/>
	<rect x="377.26" y="411.63" class="st72" width="5.88" height="5.88"/>
	<rect x="377.26" y="418.68" class="st73" width="5.88" height="5.88"/>
	<rect x="377.26" y="425.74" class="st74" width="5.88" height="5.88"/>
	<rect x="377.26" y="432.79" class="st75" width="5.88" height="5.88"/>
	<rect x="384.32" y="397.52" class="st76" width="5.88" height="5.88"/>
	<rect x="384.32" y="404.58" class="st77" width="5.88" height="5.88"/>
	<rect x="384.32" y="411.63" class="st78" width="5.88" height="5.88"/>
	<rect x="384.32" y="418.68" class="st79" width="5.88" height="5.88"/>
	<rect x="384.32" y="425.74" class="st80" width="5.88" height="5.88"/>
	<rect x="384.32" y="432.79" class="st81" width="5.88" height="5.88"/>
	<rect x="391.37" y="397.52" class="st82" width="5.88" height="5.88"/>
	<rect x="391.37" y="404.58" class="st83" width="5.88" height="5.88"/>
	<rect x="391.37" y="411.63" class="st84" width="5.88" height="5.88"/>
	<rect x="391.37" y="418.68" class="st85" width="5.88" height="5.88"/>
	<rect x="391.37" y="425.74" class="st86" width="5.88" height="5.88"/>
	<rect x="391.37" y="432.79" class="st87" width="5.88" height="5.88"/>
	<rect x="398.42" y="397.52" class="st88" width="5.88" height="5.88"/>
	<rect x="398.42" y="404.58" class="st89" width="5.88" height="5.88"/>
	<rect x="398.42" y="411.63" class="st90" width="5.88" height="5.88"/>
	<rect x="398.42" y="418.68" class="st91" width="5.88" height="5.88"/>
	<rect x="398.42" y="425.74" class="st92" width="5.88" height="5.88"/>
	<rect x="398.42" y="432.79" class="st93" width="5.88" height="5.88"/>
	<rect x="405.48" y="397.52" class="st94" width="5.88" height="5.88"/>
	<rect x="405.48" y="404.58" class="st95" width="5.88" height="5.88"/>
	<rect x="405.48" y="411.63" class="st96" width="5.88" height="5.88"/>
	<rect x="405.48" y="418.68" class="st97" width="5.88" height="5.88"/>
	<rect x="405.48" y="425.74" class="st98" width="5.88" height="5.88"/>
	<rect x="405.48" y="432.79" class="st99" width="5.88" height="5.88"/>
	<rect x="412.53" y="397.52" class="st100" width="5.88" height="5.88"/>
	<rect x="412.53" y="404.58" class="st101" width="5.88" height="5.88"/>
	<rect x="412.53" y="411.63" class="st102" width="5.88" height="5.88"/>
	<rect x="412.53" y="418.68" class="st103" width="5.88" height="5.88"/>
	<rect x="412.53" y="425.74" class="st104" width="5.88" height="5.88"/>
	<rect x="412.53" y="432.79" class="st105" width="5.88" height="5.88"/>
	<rect x="419.58" y="397.52" class="st106" width="5.88" height="5.88"/>
	<rect x="419.58" y="404.58" class="st107" width="5.88" height="5.88"/>
	<rect x="419.58" y="411.63" class="st108" width="5.88" height="5.88"/>
	<rect x="419.58" y="418.68" class="st109" width="5.88" height="5.88"/>
	<rect x="419.58" y="425.74" class="st110" width="5.88" height="5.88"/>
	<rect x="419.58" y="432.79" class="st111" width="5.88" height="5.88"/>
	<rect x="426.64" y="397.52" class="st112" width="5.88" height="5.88"/>
	<rect x="426.64" y="404.58" class="st113" width="5.88" height="5.88"/>
	<rect x="426.64" y="411.63" class="st114" width="5.88" height="5.88"/>
	<rect x="426.64" y="418.68" class="st115" width="5.88" height="5.88"/>
	<rect x="426.64" y="425.74" class="st116" width="5.88" height="5.88"/>
	<rect x="426.64" y="432.79" class="st117" width="5.88" height="5.88"/>
	<rect x="433.69" y="397.52" class="st118" width="5.88" height="5.88"/>
	<rect x="433.69" y="404.58" class="st119" width="5.88" height="5.88"/>
	<rect x="433.69" y="411.63" class="st120" width="5.88" height="5.88"/>
	<rect x="433.69" y="418.68" class="st121" width="5.88" height="5.88"/>
	<rect x="433.69" y="425.74" class="st122" width="5.88" height="5.88"/>
	<rect x="433.69" y="432.79" class="st123" width="5.88" height="5.88"/>
	<rect x="405.48" y="439.75" class="st124" width="5.88" height="5.88"/>
	<rect x="398.42" y="439.75" class="st125" width="5.88" height="5.88"/>
	<rect x="391.37" y="439.75" class="st126" width="5.88" height="5.88"/>
	<rect x="384.32" y="439.75" class="st127" width="5.88" height="5.88"/>
	<rect x="377.26" y="439.75" class="st128" width="5.88" height="5.88"/>
	<rect x="370.21" y="439.75" class="st129" width="5.88" height="5.88"/>
	<rect x="412.53" y="439.75" class="st130" width="5.88" height="5.88"/>
</g>
<g>
	<g>
		<g>
			<path class="st131" d="M211.19,207.38c5.25-18.35,19.49-32.9,37.65-38.57"/>
			<g>
				<polygon class="st132" points="246.52,175.1 245.41,174.49 248.39,169.01 242.7,166.44 243.22,165.28 250.15,168.42 				"/>
			</g>
		</g>
	</g>
	<g>
		<g>
			<path class="st131" d="M250.15,277.63c-18.35-5.25-32.9-19.49-38.57-37.65"/>
			<g>
				<polygon class="st132" points="217.87,242.29 217.26,243.4 211.78,240.42 209.21,246.11 208.05,245.59 211.19,238.66 				"/>
			</g>
		</g>
	</g>
	<g>
		<g>
			<path class="st131" d="M320.4,238.66c-5.25,18.35-19.49,32.9-37.65,38.57"/>
			<g>
				<polygon class="st132" points="285.06,270.94 286.17,271.55 283.19,277.03 288.88,279.6 288.36,280.76 281.43,277.63 				"/>
			</g>
		</g>
	</g>
	<g>
		<g>
			<path class="st131" d="M281.43,168.41c18.35,5.25,32.9,19.49,38.57,37.65"/>
			<g>
				<polygon class="st132" points="313.71,203.75 314.32,202.64 319.8,205.62 322.37,199.93 323.53,200.45 320.4,207.38 				"/>
			</g>
		</g>
	</g>
	
		<use xlink:href="#Letter"  width="48" height="48" id="XMLID_00000140736411726718826220000005557267524942121115_" x="-24" y="-24" transform="matrix(0.3165 0 0 -0.3165 267.1629 165.6743)" style="overflow:visible;"/>
	
		<use xlink:href="#Development"  width="48" height="48" id="XMLID_00000083783118478121209400000004643502674173124768_" x="-24" y="-24" transform="matrix(0.3165 0 0 -0.3165 265.7912 280.42)" style="overflow:visible;"/>
	
		<use xlink:href="#Database"  width="48" height="48" id="XMLID_00000177458149148837540230000007588916509911899797_" x="-24" y="-24" transform="matrix(0.3165 0 0 -0.3165 321.7251 214.9767)" style="overflow:visible;"/>
	
		<use xlink:href="#Man"  width="48" height="48" id="XMLID_00000178915080224724136670000003646767461341128084_" x="-24" y="-24" transform="matrix(0.3165 0 0 -0.3165 209.6495 214.9767)" style="overflow:visible;"/>
	<text transform="matrix(1 0 0 1 248.9136 185.1428)" class="st133 st134">prompt</text>
	<text transform="matrix(1 0 0 1 303.5508 232.1906)" class="st133 st134">chatGPT</text>
	<text transform="matrix(1 0 0 1 249.7139 300.7385)" class="st133 st134">response</text>
	<text transform="matrix(1 0 0 1 198.3159 232.3811)" class="st133 st134">user</text>
</g>
<text transform="matrix(1 0 0 1 -0.168 70.1352)"><tspan x="0" y="0" class="st135 st136 st137">I am making a picture of a seven set venn diagram.</tspan><tspan x="0" y="9.6" class="st135 st136 st137">Every section overlaps every other section in all possible combinations,</tspan><tspan x="0" y="19.2" class="st135 st136 st137">resulting in 128 individual sections. </tspan><tspan x="0" y="28.8" class="st135 st136 st137">If each of the seven sets is a specific color (hex value), </tspan><tspan x="0" y="38.4" class="st135 st136 st137">and every section is the average color of the sets that overlap in it, </tspan><tspan x="0" y="48" class="st135 st136 st137">how can I calculate the colors for all 128 sections?</tspan></text>
<g>
	<text transform="matrix(1 0 0 1 -0.168 59.994)" class="st133 st138">First I made sure it understood the problem:</text>
</g>
<g>
	<text transform="matrix(1 0 0 1 -0.168 9.0723)" class="st133 st138">Prompts (input)</text>
</g>
<g>
	<text transform="matrix(1 0 0 1 359.8917 9.0723)" class="st133 st138">Responses (output)</text>
</g>
<text transform="matrix(1 0 0 1 -0.168 175.9193)" class="st135 st136 st137">can you write a program that does this?</text>
<g>
	<text transform="matrix(1 0 0 1 -0.168 163.4876)" class="st133 st138">Then I asked it to make a program:</text>
</g>
<g>
	<text transform="matrix(1 0 0 1 359.8914 163.4875)" class="st133 st138">Program response output:</text>
</g>
<text transform="matrix(1 0 0 1 -0.168 333.6353)"><tspan x="0" y="0" class="st135 st136 st137">Now can you write the program,</tspan><tspan x="0" y="9.6" class="st135 st136 st137">but instead of outputting a list,</tspan><tspan x="0" y="19.2" class="st135 st136 st137">it outputs an .svg file of all the color combinations</tspan><tspan x="0" y="28.8" class="st135 st136 st137">as squares, organized by how many colors</tspan><tspan x="0" y="38.4" class="st135 st136 st137">are in the combinations?</tspan></text>
<text transform="matrix(1 0 0 1 0.4637 394.6068)"><tspan x="0" y="0" class="st135 st136 st137">can you edit this code</tspan><tspan x="0" y="9.6" class="st135 st136 st137">so that the rectangles do not overlap?</tspan></text>
<g>
	<text transform="matrix(1 0 0 1 -0.168 303.8295)"><tspan x="0" y="0" class="st133 st138">Then a program that returns a .svg </tspan><tspan x="0" y="14.4" class="st133 st138">of the color set</tspan></text>
</g>
<line class="st139" x1="0.58" y1="28.46" x2="524.38" y2="28.46"/>
<text transform="matrix(1 0 0 1 362.603 175.9198)"><tspan x="0" y="0" class="st140 st133 st141">from itertools import combinations</tspan><tspan x="0" y="7.2" class="st140 st133 st141"># Hex color values for each set</tspan><tspan x="0" y="21.6" class="st140 st133 st141">colors = {</tspan><tspan x="0" y="28.8" class="st140 st133 st141"> &apos;C1&apos;: &apos;#FF0000&apos;,</tspan><tspan x="0" y="36" class="st140 st133 st141"> &apos;C2&apos;: &apos;#00FF00&apos;,</tspan><tspan x="0" y="43.2" class="st140 st133 st141"> &apos;C3&apos;: &apos;#0000FF&apos;,</tspan><tspan x="0" y="50.4" class="st140 st133 st141"> &apos;C4&apos;: &apos;#FFFF00&apos;,</tspan><tspan x="0" y="57.6" class="st140 st133 st141"> &apos;C5&apos;: &apos;#FF00FF&apos;,</tspan><tspan x="0" y="64.8" class="st140 st133 st141"> &apos;C6&apos;: &apos;#00FFFF&apos;,</tspan><tspan x="0" y="72" class="st140 st133 st141"> &apos;C7&apos;: &apos;#FFFFFF&apos;</tspan><tspan x="0" y="79.2" class="st140 st133 st141">}</tspan><tspan x="0" y="86.4" class="st140 st133 st141"># Function to calculate average color</tspan><tspan x="0" y="93.6" class="st140 st133 st141">def calculate_average_color(combination):</tspan><tspan x="0" y="100.8" class="st140 st133 st141">total_r, total_g, total_b = 0, 0, 0</tspan><tspan x="0" y="108" class="st140 st133 st141">num_sets = sum(combination)</tspan></text>
<g>
	<rect x="369.62" y="327.34" class="st8" width="5.88" height="5.88"/>
	<rect x="375.5" y="321.46" class="st64" width="5.88" height="5.88"/>
	<rect x="381.38" y="315.58" class="st66" width="5.88" height="5.88"/>
	<rect x="387.26" y="309.71" class="st68" width="5.88" height="5.88"/>
	<rect x="393.13" y="303.83" class="st69" width="5.88" height="5.88"/>
	<rect x="399.01" y="297.95" class="st129" width="5.88" height="5.88"/>
</g>
<text transform="matrix(1 0 0 1 417.0142 300.8905)"><tspan x="0" y="0" class="st133 st141">the first .svg had all the squares</tspan><tspan x="0" y="7.2" class="st133 st141">on top of each other</tspan></text>
</svg>
