<?xml version="1.0" encoding="utf-8"?>
<!-- Generator: Adobe Illustrator 27.6.1, SVG Export Plug-In . SVG Version: 6.00 Build 0)  -->
<svg version="1.1" id="Layer_1" xmlns="http://www.w3.org/2000/svg" xmlns:xlink="http://www.w3.org/1999/xlink" x="0px" y="0px"
	 viewBox="0 0 69.36 90.38" style="enable-background:new 0 0 69.36 90.38;" xml:space="preserve">
<style type="text/css">
	.st0{fill:#ED2224;}
	.st1{fill:#FBAA19;}
	.st2{fill:#F6EB16;}
	.st3{fill:#6ABD45;}
	.st4{fill:#45ABE0;}
	.st5{fill:#6B52A2;}
	.st6{fill:#D3499A;}
	.st7{fill:#F15822;}
	.st8{fill:#F57F20;}
	.st9{fill:#7F8133;}
	.st10{fill:#80597F;}
	.st11{fill:#BE1B80;}
	.st12{fill:#ED1B68;}
	.st13{fill:#FED401;}
	.st14{fill:#86C440;}
	.st15{fill:#7FAC7F;}
	.st16{fill:#C05680;}
	.st17{fill:#F05767;}
	.st18{fill:#94C93D;}
	.st19{fill:#86C87F;}
	.st20{fill:#BF7F7F;}
	.st21{fill:#F47E67;}
	.st22{fill:#50BB78;}
	.st23{fill:#418080;}
	.st24{fill:#7F8067;}
	.st25{fill:#4F62AD;}
	.st26{fill:#7160AA;}
	.st27{fill:#974C9D;}
	.st28{fill:#F78D1E;}
	.st29{fill:#A88E30;}
	.st30{fill:#AA7456;}
	.st31{fill:#D43956;}
	.st32{fill:#EF4049;}
	.st33{fill:#A9AB36;}
	.st34{fill:#AA9055;}
	.st35{fill:#D55556;}
	.st36{fill:#F15849;}
	.st37{fill:#559055;}
	.st38{fill:#805656;}
	.st39{fill:#AA5645;}
	.st40{fill:#7C459B;}
	.st41{fill:#A93E97;}
	.st42{fill:#CC2890;}
	.st43{fill:#ABD037;}
	.st44{fill:#AAC855;}
	.st45{fill:#D38D55;}
	.st46{fill:#F68C49;}
	.st47{fill:#61BC58;}
	.st48{fill:#808D55;}
	.st49{fill:#AB8D43;}
	.st50{fill:#8074AB;}
	.st51{fill:#AA749A;}
	.st52{fill:#D23C96;}
	.st53{fill:#73C04F;}
	.st54{fill:#7FAA54;}
	.st55{fill:#A9A941;}
	.st56{fill:#7F90AA;}
	.st57{fill:#AA9099;}
	.st58{fill:#D45699;}
	.st59{fill:#2B90AA;}
	.st60{fill:#569099;}
	.st61{fill:#805699;}
	.st62{fill:#6E57A5;}
	.st63{fill:#BFAB30;}
	.st64{fill:#BE953D;}
	.st65{fill:#DF6B40;}
	.st66{fill:#F26A39;}
	.st67{fill:#7F963E;}
	.st68{fill:#9F6B40;}
	.st69{fill:#C06B32;}
	.st70{fill:#A05780;}
	.st71{fill:#BF5772;}
	.st72{fill:#E02A72;}
	.st73{fill:#7FAB40;}
	.st74{fill:#9F7F3F;}
	.st75{fill:#BF8033;}
	.st76{fill:#9F6D7F;}
	.st77{fill:#BF6C73;}
	.st78{fill:#E04073;}
	.st79{fill:#606C7F;}
	.st80{fill:#7F6D73;}
	.st81{fill:#9F4072;}
	.st82{fill:#934299;}
	.st83{fill:#87C543;}
	.st84{fill:#9FA93C;}
	.st85{fill:#C0AB33;}
	.st86{fill:#9F9680;}
	.st87{fill:#BF9672;}
	.st88{fill:#E06B73;}
	.st89{fill:#5F967F;}
	.st90{fill:#809672;}
	.st91{fill:#9F6B73;}
	.st92{fill:#9A58A3;}
	.st93{fill:#5FAB80;}
	.st94{fill:#80AB73;}
	.st95{fill:#9F7F73;}
	.st96{fill:#9F6DAF;}
	.st97{fill:#606DB3;}
	.st98{fill:#99AB3A;}
	.st99{fill:#B28933;}
	.st100{fill:#CC882A;}
	.st101{fill:#B27967;}
	.st102{fill:#CC775B;}
	.st103{fill:#E6565C;}
	.st104{fill:#807967;}
	.st105{fill:#9A785C;}
	.st106{fill:#B3565C;}
	.st107{fill:#B4458F;}
	.st108{fill:#7F8A67;}
	.st109{fill:#9A8A5C;}
	.st110{fill:#B2675C;}
	.st111{fill:#B4578F;}
	.st112{fill:#7F578F;}
	.st113{fill:#80AB66;}
	.st114{fill:#9AAB5A;}
	.st115{fill:#B2885B;}
	.st116{fill:#B3798E;}
	.st117{fill:#80788E;}
	.st118{fill:#7F898E;}
	.st119{fill:#948E56;}
	.st120{fill:#AB8E4C;}
	.st121{fill:#C0714C;}
	.st122{fill:#BF6478;}
	.st123{fill:#956578;}
	.st124{fill:#947377;}
	.st125{fill:#948F78;}
	.st126{fill:#A47B67;}
</style>
<g>
	<rect class="st0" width="5.88" height="5.88"/>
	<rect y="7.05" class="st1" width="5.88" height="5.88"/>
	<rect y="14.11" class="st2" width="5.88" height="5.88"/>
	<rect y="21.16" class="st3" width="5.88" height="5.88"/>
	<rect y="28.21" class="st4" width="5.88" height="5.88"/>
	<rect y="35.27" class="st5" width="5.88" height="5.88"/>
	<rect x="7.05" class="st6" width="5.88" height="5.88"/>
	<rect x="7.05" y="7.05" class="st7" width="5.88" height="5.88"/>
	<rect x="7.05" y="14.11" class="st8" width="5.88" height="5.88"/>
	<rect x="7.05" y="21.16" class="st9" width="5.88" height="5.88"/>
	<rect x="7.05" y="28.21" class="st10" width="5.88" height="5.88"/>
	<rect x="7.05" y="35.27" class="st11" width="5.88" height="5.88"/>
	<rect x="14.11" class="st12" width="5.88" height="5.88"/>
	<rect x="14.11" y="7.05" class="st13" width="5.88" height="5.88"/>
	<rect x="14.11" y="14.11" class="st14" width="5.88" height="5.88"/>
	<rect x="14.11" y="21.16" class="st15" width="5.88" height="5.88"/>
	<rect x="14.11" y="28.21" class="st16" width="5.88" height="5.88"/>
	<rect x="14.11" y="35.27" class="st17" width="5.88" height="5.88"/>
	<rect x="21.16" class="st18" width="5.88" height="5.88"/>
	<rect x="21.16" y="7.05" class="st19" width="5.88" height="5.88"/>
	<rect x="21.16" y="14.11" class="st20" width="5.88" height="5.88"/>
	<rect x="21.16" y="21.16" class="st21" width="5.88" height="5.88"/>
	<rect x="21.16" y="28.21" class="st22" width="5.88" height="5.88"/>
	<rect x="21.16" y="35.27" class="st23" width="5.88" height="5.88"/>
	<rect x="28.21" class="st24" width="5.88" height="5.88"/>
	<rect x="28.21" y="7.05" class="st25" width="5.88" height="5.88"/>
	<rect x="28.21" y="14.11" class="st26" width="5.88" height="5.88"/>
	<rect x="28.21" y="21.16" class="st27" width="5.88" height="5.88"/>
	<rect x="28.21" y="28.21" class="st28" width="5.88" height="5.88"/>
	<rect x="28.21" y="35.27" class="st29" width="5.88" height="5.88"/>
	<rect x="35.27" class="st30" width="5.88" height="5.88"/>
	<rect x="35.27" y="7.05" class="st31" width="5.88" height="5.88"/>
	<rect x="35.27" y="14.11" class="st32" width="5.88" height="5.88"/>
	<rect x="35.27" y="21.16" class="st33" width="5.88" height="5.88"/>
	<rect x="35.27" y="28.21" class="st34" width="5.88" height="5.88"/>
	<rect x="35.27" y="35.27" class="st35" width="5.88" height="5.88"/>
	<rect x="42.32" class="st36" width="5.88" height="5.88"/>
	<rect x="42.32" y="7.05" class="st37" width="5.88" height="5.88"/>
	<rect x="42.32" y="14.11" class="st38" width="5.88" height="5.88"/>
	<rect x="42.32" y="21.16" class="st39" width="5.88" height="5.88"/>
	<rect x="42.32" y="28.21" class="st40" width="5.88" height="5.88"/>
	<rect x="42.32" y="35.27" class="st41" width="5.88" height="5.88"/>
	<rect x="49.37" class="st42" width="5.88" height="5.88"/>
	<rect x="49.37" y="7.05" class="st43" width="5.88" height="5.88"/>
	<rect x="49.37" y="14.11" class="st44" width="5.88" height="5.88"/>
	<rect x="49.37" y="21.16" class="st45" width="5.88" height="5.88"/>
	<rect x="49.37" y="28.21" class="st46" width="5.88" height="5.88"/>
	<rect x="49.37" y="35.27" class="st47" width="5.88" height="5.88"/>
	<rect x="56.42" class="st48" width="5.88" height="5.88"/>
	<rect x="56.42" y="7.05" class="st49" width="5.88" height="5.88"/>
	<rect x="56.42" y="14.11" class="st50" width="5.88" height="5.88"/>
	<rect x="56.42" y="21.16" class="st51" width="5.88" height="5.88"/>
	<rect x="56.42" y="28.21" class="st52" width="5.88" height="5.88"/>
	<rect x="56.42" y="35.27" class="st53" width="5.88" height="5.88"/>
	<rect x="63.48" class="st54" width="5.88" height="5.88"/>
	<rect x="63.48" y="7.05" class="st55" width="5.88" height="5.88"/>
	<rect x="63.48" y="14.11" class="st56" width="5.88" height="5.88"/>
	<rect x="63.48" y="21.16" class="st57" width="5.88" height="5.88"/>
	<rect x="63.48" y="28.21" class="st58" width="5.88" height="5.88"/>
	<rect x="63.48" y="35.27" class="st59" width="5.88" height="5.88"/>
	<rect y="42.27" class="st60" width="5.88" height="5.88"/>
	<rect y="49.33" class="st61" width="5.88" height="5.88"/>
	<rect y="56.38" class="st62" width="5.88" height="5.88"/>
	<rect y="63.43" class="st63" width="5.88" height="5.88"/>
	<rect y="70.49" class="st64" width="5.88" height="5.88"/>
	<rect y="77.54" class="st65" width="5.88" height="5.88"/>
	<rect x="7.05" y="42.27" class="st66" width="5.88" height="5.88"/>
	<rect x="7.05" y="49.33" class="st67" width="5.88" height="5.88"/>
	<rect x="7.05" y="56.38" class="st68" width="5.88" height="5.88"/>
	<rect x="7.05" y="63.43" class="st69" width="5.88" height="5.88"/>
	<rect x="7.05" y="70.49" class="st70" width="5.88" height="5.88"/>
	<rect x="7.05" y="77.54" class="st71" width="5.88" height="5.88"/>
	<rect x="14.11" y="42.27" class="st72" width="5.88" height="5.88"/>
	<rect x="14.11" y="49.33" class="st73" width="5.88" height="5.88"/>
	<rect x="14.11" y="56.38" class="st74" width="5.88" height="5.88"/>
	<rect x="14.11" y="63.43" class="st75" width="5.88" height="5.88"/>
	<rect x="14.11" y="70.49" class="st76" width="5.88" height="5.88"/>
	<rect x="14.11" y="77.54" class="st77" width="5.88" height="5.88"/>
	<rect x="21.16" y="42.27" class="st78" width="5.88" height="5.88"/>
	<rect x="21.16" y="49.33" class="st79" width="5.88" height="5.88"/>
	<rect x="21.16" y="56.38" class="st80" width="5.88" height="5.88"/>
	<rect x="21.16" y="63.43" class="st81" width="5.88" height="5.88"/>
	<rect x="21.16" y="70.49" class="st82" width="5.88" height="5.88"/>
	<rect x="21.16" y="77.54" class="st83" width="5.88" height="5.88"/>
	<rect x="28.21" y="42.27" class="st84" width="5.88" height="5.88"/>
	<rect x="28.21" y="49.33" class="st85" width="5.88" height="5.88"/>
	<rect x="28.21" y="56.38" class="st86" width="5.88" height="5.88"/>
	<rect x="28.21" y="63.43" class="st87" width="5.88" height="5.88"/>
	<rect x="28.21" y="70.49" class="st88" width="5.88" height="5.88"/>
	<rect x="28.21" y="77.54" class="st89" width="5.88" height="5.88"/>
	<rect x="35.27" y="42.27" class="st90" width="5.88" height="5.88"/>
	<rect x="35.27" y="49.33" class="st91" width="5.88" height="5.88"/>
	<rect x="35.27" y="56.38" class="st92" width="5.88" height="5.88"/>
	<rect x="35.27" y="63.43" class="st93" width="5.88" height="5.88"/>
	<rect x="35.27" y="70.49" class="st94" width="5.88" height="5.88"/>
	<rect x="35.27" y="77.54" class="st95" width="5.88" height="5.88"/>
	<rect x="42.32" y="42.27" class="st96" width="5.88" height="5.88"/>
	<rect x="42.32" y="49.33" class="st97" width="5.88" height="5.88"/>
	<rect x="42.32" y="56.38" class="st98" width="5.88" height="5.88"/>
	<rect x="42.32" y="63.43" class="st99" width="5.88" height="5.88"/>
	<rect x="42.32" y="70.49" class="st100" width="5.88" height="5.88"/>
	<rect x="42.32" y="77.54" class="st101" width="5.88" height="5.88"/>
	<rect x="49.37" y="42.27" class="st102" width="5.88" height="5.88"/>
	<rect x="49.37" y="49.33" class="st103" width="5.88" height="5.88"/>
	<rect x="49.37" y="56.38" class="st104" width="5.88" height="5.88"/>
	<rect x="49.37" y="63.43" class="st105" width="5.88" height="5.88"/>
	<rect x="49.37" y="70.49" class="st106" width="5.88" height="5.88"/>
	<rect x="49.37" y="77.54" class="st107" width="5.88" height="5.88"/>
	<rect x="56.42" y="42.27" class="st108" width="5.88" height="5.88"/>
	<rect x="56.42" y="49.33" class="st109" width="5.88" height="5.88"/>
	<rect x="56.42" y="56.38" class="st110" width="5.88" height="5.88"/>
	<rect x="56.42" y="63.43" class="st111" width="5.88" height="5.88"/>
	<rect x="56.42" y="70.49" class="st112" width="5.88" height="5.88"/>
	<rect x="56.42" y="77.54" class="st113" width="5.88" height="5.88"/>
	<rect x="63.48" y="42.27" class="st114" width="5.88" height="5.88"/>
	<rect x="63.48" y="49.33" class="st115" width="5.88" height="5.88"/>
	<rect x="63.48" y="56.38" class="st116" width="5.88" height="5.88"/>
	<rect x="63.48" y="63.43" class="st117" width="5.88" height="5.88"/>
	<rect x="63.48" y="70.49" class="st118" width="5.88" height="5.88"/>
	<rect x="63.48" y="77.54" class="st119" width="5.88" height="5.88"/>
	<rect x="35.27" y="84.5" class="st120" width="5.88" height="5.88"/>
	<rect x="28.21" y="84.5" class="st121" width="5.88" height="5.88"/>
	<rect x="21.16" y="84.5" class="st122" width="5.88" height="5.88"/>
	<rect x="14.11" y="84.5" class="st123" width="5.88" height="5.88"/>
	<rect x="7.05" y="84.5" class="st124" width="5.88" height="5.88"/>
	<rect y="84.5" class="st125" width="5.88" height="5.88"/>
	<rect x="42.32" y="84.5" class="st126" width="5.88" height="5.88"/>
</g>
</svg>
