<?xml version="1.0" encoding="utf-8"?>
<!-- Generator: Adobe Illustrator 26.5.3, SVG Export Plug-In . SVG Version: 6.00 Build 0)  -->
<svg version="1.1" id="Layer_1" xmlns="http://www.w3.org/2000/svg" xmlns:xlink="http://www.w3.org/1999/xlink" x="0px" y="0px"
	 viewBox="0 0 800 2770" style="enable-background:new 0 0 800 2770;" xml:space="preserve">
<style type="text/css">
	.st0{fill:#FF0000;}
	.st1{font-family:'ArialMT';}
	.st2{font-size:12px;}
	.st3{fill:#FF2EBF;}
	.st4{fill:#8000FF;}
	.st5{fill:#00B0FF;}
	.st6{fill:#39E555;}
	.st7{fill:#FFD60A;}
	.st8{font-size:8.5283px;}
	.st9{fill:#FF9500;}
	.st10{fill:#FF175F;}
	.st11{fill:#BF007F;}
	.st12{fill:#7F587F;}
	.st13{fill:#9C722A;}
	.st14{fill:#FF6B05;}
	.st15{fill:#FF4A00;}
	.st16{fill:#BF17DF;}
	.st17{fill:#7F6FDF;}
	.st18{fill:#9C898A;}
	.st19{fill:#FF8264;}
	.st20{fill:#FF615F;}
	.st21{fill:#4058FF;}
	.st22{fill:#5C72AA;}
	.st23{fill:#BF6B84;}
	.st24{fill:#BF4A7F;}
	.st25{fill:#1CCAAA;}
	.st26{fill:#7FC384;}
	.st27{fill:#7FA27F;}
	.st28{fill:#9CDD2F;}
	.st29{fill:#9CBD2A;}
	.st30{fill:#FFB505;}
	.st31{fill:#D40F94;}
	.st32{fill:#AA4A94;}
	.st33{fill:#BD5B5C;}
	.st34{fill:#FF5643;}
	.st35{fill:#FF413F;}
	.st36{fill:#7F3AAA;}
	.st37{fill:#924C71;}
	.st38{fill:#D44758;}
	.st39{fill:#D43155;}
	.st40{fill:#688771;}
	.st41{fill:#AA8258;}
	.st42{fill:#AA6C55;}
	.st43{fill:#BD931F;}
	.st44{fill:#BD7E1C;}
	.st45{fill:#FF7903;}
	.st46{fill:#7F4AE9;}
	.st47{fill:#925BB1;}
	.st48{fill:#D45698;}
	.st49{fill:#D44194;}
	.st50{fill:#6896B1;}
	.st51{fill:#AA9198;}
	.st52{fill:#AA7B94;}
	.st53{fill:#BDA35F;}
	.st54{fill:#BD8D5C;}
	.st55{fill:#FF8843;}
	.st56{fill:#3D87C6;}
	.st57{fill:#7F82AD;}
	.st58{fill:#7F6CAA;}
	.st59{fill:#929374;}
	.st60{fill:#927E71;}
	.st61{fill:#D47958;}
	.st62{fill:#68CE74;}
	.st63{fill:#68B871;}
	.st64{fill:#AAB358;}
	.st65{fill:#BDC51F;}
	.st66{fill:#9F37AF;}
	.st67{fill:#AD4484;}
	.st68{fill:#DF4172;}
	.st69{fill:#DF306F;}
	.st70{fill:#8D7084;}
	.st71{fill:#BF6D72;}
	.st72{fill:#BF5C6F;}
	.st73{fill:#CD7A47;}
	.st74{fill:#CD6A45;}
	.st75{fill:#FF6632;}
	.st76{fill:#6E6594;}
	.st77{fill:#9F6182;}
	.st78{fill:#9F517F;}
	.st79{fill:#AD6E57;}
	.st80{fill:#AD5E55;}
	.st81{fill:#DF5A42;}
	.st82{fill:#8D9A57;}
	.st83{fill:#8D8A55;}
	.st84{fill:#BF8642;}
	.st85{fill:#CD9417;}
	.st86{fill:#6E70C4;}
	.st87{fill:#9F6DB1;}
	.st88{fill:#9F5CAF;}
	.st89{fill:#AD7A87;}
	.st90{fill:#AD6A84;}
	.st91{fill:#DF6672;}
	.st92{fill:#8DA687;}
	.st93{fill:#8D9684;}
	.st94{fill:#BF9272;}
	.st95{fill:#CD9F47;}
	.st96{fill:#6E9A97;}
	.st97{fill:#6E8A94;}
	.st98{fill:#9F8682;}
	.st99{fill:#AD9457;}
	.st100{fill:#8DC057;}
	.st101{fill:#8B5A9D;}
	.st102{fill:#B2578E;}
	.st103{fill:#B24A8C;}
	.st104{fill:#BE616C;}
	.st105{fill:#BE546A;}
	.st106{fill:#E5515B;}
	.st107{fill:#A4856C;}
	.st108{fill:#A4786A;}
	.st109{fill:#CC755B;}
	.st110{fill:#D77F39;}
	.st111{fill:#8B7B79;}
	.st112{fill:#8B6E77;}
	.st113{fill:#B26B68;}
	.st114{fill:#BE7646;}
	.st115{fill:#A49946;}
	.st116{fill:#8B859F;}
	.st117{fill:#8B789D;}
	.st118{fill:#B2758E;}
	.st119{fill:#BE7F6C;}
	.st120{fill:#A4A26C;}
	.st121{fill:#8B9979;}
	.st122{fill:#9E6E84;}
	.st123{fill:#9E6483;}
	.st124{fill:#BF6176;}
	.st125{fill:#C86A5A;}
	.st126{fill:#B3875A;}
	.st127{fill:#9E8064;}
	.st128{fill:#9E8784;}
	.st129{fill:#AC7471;}
</style>
<rect class="st0" width="100" height="100"/>
<text transform="matrix(1 0 0 1 41 50)" class="st1 st2">(1,)</text>
<rect x="120" class="st3" width="100" height="100"/>
<text transform="matrix(1 0 0 1 161 50)" class="st1 st2">(2,)</text>
<rect x="240" class="st4" width="100" height="100"/>
<text transform="matrix(1 0 0 1 281 50)" class="st1 st2">(3,)</text>
<rect x="360" class="st5" width="100" height="100"/>
<text transform="matrix(1 0 0 1 401 50)" class="st1 st2">(4,)</text>
<rect x="480" class="st6" width="100" height="100"/>
<text transform="matrix(1 0 0 1 521 50)" class="st1 st2">(5,)</text>
<rect x="600" class="st7" width="100" height="100"/>
<text transform="matrix(1.7527 0 0 1 641 47.021)" class="st1 st8">(6,)</text>
<rect y="120" class="st9" width="100" height="100"/>
<text transform="matrix(1 0 0 1 41 170)" class="st1 st2">(7,)</text>
<rect x="120" y="120" class="st10" width="100" height="100"/>
<text transform="matrix(1 0 0 1 155.9961 170)" class="st1 st2">(1, 2)</text>
<rect x="240" y="120" class="st11" width="100" height="100"/>
<text transform="matrix(1 0 0 1 275.9961 170)" class="st1 st2">(1, 3)</text>
<rect x="360" y="120" class="st12" width="100" height="100"/>
<text transform="matrix(1 0 0 1 395.9961 170)" class="st1 st2">(1, 4)</text>
<rect x="480" y="120" class="st13" width="100" height="100"/>
<text transform="matrix(1 0 0 1 515.9961 170)" class="st1 st2">(1, 5)</text>
<rect x="600" y="120" class="st14" width="100" height="100"/>
<text transform="matrix(1 0 0 1 635.9961 170)" class="st1 st2">(1, 6)</text>
<rect y="240" class="st15" width="100" height="100"/>
<text transform="matrix(1 0 0 1 35.9961 290)" class="st1 st2">(1, 7)</text>
<rect x="120" y="240" class="st16" width="100" height="100"/>
<text transform="matrix(1 0 0 1 155.9961 290)" class="st1 st2">(2, 3)</text>
<rect x="240" y="240" class="st17" width="100" height="100"/>
<text transform="matrix(1 0 0 1 275.9961 290)" class="st1 st2">(2, 4)</text>
<rect x="360" y="240" class="st18" width="100" height="100"/>
<text transform="matrix(1 0 0 1 395.9961 290)" class="st1 st2">(2, 5)</text>
<rect x="480" y="240" class="st19" width="100" height="100"/>
<text transform="matrix(1 0 0 1 515.9961 290)" class="st1 st2">(2, 6)</text>
<rect x="600" y="240" class="st20" width="100" height="100"/>
<text transform="matrix(1 0 0 1 635.9961 290)" class="st1 st2">(2, 7)</text>
<rect y="360" class="st21" width="100" height="100"/>
<text transform="matrix(1 0 0 1 35.9961 410)" class="st1 st2">(3, 4)</text>
<rect x="120" y="360" class="st22" width="100" height="100"/>
<text transform="matrix(1 0 0 1 155.9961 410)" class="st1 st2">(3, 5)</text>
<rect x="240" y="360" class="st23" width="100" height="100"/>
<text transform="matrix(1 0 0 1 275.9961 410)" class="st1 st2">(3, 6)</text>
<rect x="360" y="360" class="st24" width="100" height="100"/>
<text transform="matrix(1 0 0 1 395.9961 410)" class="st1 st2">(3, 7)</text>
<rect x="480" y="360" class="st25" width="100" height="100"/>
<text transform="matrix(1 0 0 1 515.9961 410)" class="st1 st2">(4, 5)</text>
<rect x="600" y="360" class="st26" width="100" height="100"/>
<text transform="matrix(1 0 0 1 635.9961 410)" class="st1 st2">(4, 6)</text>
<rect y="480" class="st27" width="100" height="100"/>
<text transform="matrix(1 0 0 1 35.9961 530)" class="st1 st2">(4, 7)</text>
<rect x="120" y="480" class="st28" width="100" height="100"/>
<text transform="matrix(1 0 0 1 155.9961 530)" class="st1 st2">(5, 6)</text>
<rect x="240" y="480" class="st29" width="100" height="100"/>
<text transform="matrix(1 0 0 1 275.9961 530)" class="st1 st2">(5, 7)</text>
<rect x="360" y="480" class="st30" width="100" height="100"/>
<text transform="matrix(1 0 0 1 395.9961 530)" class="st1 st2">(6, 7)</text>
<rect x="480" y="480" class="st31" width="100" height="100"/>
<text transform="matrix(1 0 0 1 509.3252 530)" class="st1 st2">(1, 2, 3)</text>
<rect x="600" y="480" class="st32" width="100" height="100"/>
<text transform="matrix(1 0 0 1 629.3252 530)" class="st1 st2">(1, 2, 4)</text>
<rect y="600" class="st33" width="100" height="100"/>
<text transform="matrix(1 0 0 1 29.3252 650)" class="st1 st2">(1, 2, 5)</text>
<rect x="120" y="600" class="st34" width="100" height="100"/>
<text transform="matrix(1 0 0 1 149.3252 650)" class="st1 st2">(1, 2, 6)</text>
<rect x="240" y="600" class="st35" width="100" height="100"/>
<text transform="matrix(1 0 0 1 269.3252 650)" class="st1 st2">(1, 2, 7)</text>
<rect x="360" y="600" class="st36" width="100" height="100"/>
<text transform="matrix(1 0 0 1 389.3252 650)" class="st1 st2">(1, 3, 4)</text>
<rect x="480" y="600" class="st37" width="100" height="100"/>
<text transform="matrix(1 0 0 1 509.3252 650)" class="st1 st2">(1, 3, 5)</text>
<rect x="600" y="600" class="st38" width="100" height="100"/>
<text transform="matrix(1 0 0 1 629.3252 650)" class="st1 st2">(1, 3, 6)</text>
<rect y="720" class="st39" width="100" height="100"/>
<text transform="matrix(1 0 0 1 29.3252 770)" class="st1 st2">(1, 3, 7)</text>
<rect x="120" y="720" class="st40" width="100" height="100"/>
<text transform="matrix(1 0 0 1 149.3252 770)" class="st1 st2">(1, 4, 5)</text>
<rect x="240" y="720" class="st41" width="100" height="100"/>
<text transform="matrix(1 0 0 1 269.3252 770)" class="st1 st2">(1, 4, 6)</text>
<rect x="360" y="720" class="st42" width="100" height="100"/>
<text transform="matrix(1 0 0 1 389.3252 770)" class="st1 st2">(1, 4, 7)</text>
<rect x="480" y="720" class="st43" width="100" height="100"/>
<text transform="matrix(1 0 0 1 509.3252 770)" class="st1 st2">(1, 5, 6)</text>
<rect x="600" y="720" class="st44" width="100" height="100"/>
<text transform="matrix(1 0 0 1 629.3252 770)" class="st1 st2">(1, 5, 7)</text>
<rect y="840" class="st45" width="100" height="100"/>
<text transform="matrix(1 0 0 1 29.3252 890)" class="st1 st2">(1, 6, 7)</text>
<rect x="120" y="840" class="st46" width="100" height="100"/>
<text transform="matrix(1 0 0 1 149.3252 890)" class="st1 st2">(2, 3, 4)</text>
<rect x="240" y="840" class="st47" width="100" height="100"/>
<text transform="matrix(1 0 0 1 269.3252 890)" class="st1 st2">(2, 3, 5)</text>
<rect x="360" y="840" class="st48" width="100" height="100"/>
<text transform="matrix(1 0 0 1 389.3252 890)" class="st1 st2">(2, 3, 6)</text>
<rect x="480" y="840" class="st49" width="100" height="100"/>
<text transform="matrix(1 0 0 1 509.3252 890)" class="st1 st2">(2, 3, 7)</text>
<rect x="600" y="840" class="st50" width="100" height="100"/>
<text transform="matrix(1 0 0 1 629.3252 890)" class="st1 st2">(2, 4, 5)</text>
<rect y="960" class="st51" width="100" height="100"/>
<text transform="matrix(1 0 0 1 29.3252 1010)" class="st1 st2">(2, 4, 6)</text>
<rect x="120" y="960" class="st52" width="100" height="100"/>
<text transform="matrix(1 0 0 1 149.3252 1010)" class="st1 st2">(2, 4, 7)</text>
<rect x="240" y="960" class="st53" width="100" height="100"/>
<text transform="matrix(1 0 0 1 269.3252 1010)" class="st1 st2">(2, 5, 6)</text>
<rect x="360" y="960" class="st54" width="100" height="100"/>
<text transform="matrix(1 0 0 1 389.3252 1010)" class="st1 st2">(2, 5, 7)</text>
<rect x="480" y="960" class="st55" width="100" height="100"/>
<text transform="matrix(1 0 0 1 509.3252 1010)" class="st1 st2">(2, 6, 7)</text>
<rect x="600" y="960" class="st56" width="100" height="100"/>
<text transform="matrix(1 0 0 1 629.3252 1010)" class="st1 st2">(3, 4, 5)</text>
<rect y="1080" class="st57" width="100" height="100"/>
<text transform="matrix(1 0 0 1 29.3252 1130)" class="st1 st2">(3, 4, 6)</text>
<rect x="120" y="1080" class="st58" width="100" height="100"/>
<text transform="matrix(1 0 0 1 149.3252 1130)" class="st1 st2">(3, 4, 7)</text>
<rect x="240" y="1080" class="st59" width="100" height="100"/>
<text transform="matrix(1 0 0 1 269.3252 1130)" class="st1 st2">(3, 5, 6)</text>
<rect x="360" y="1080" class="st60" width="100" height="100"/>
<text transform="matrix(1 0 0 1 389.3252 1130)" class="st1 st2">(3, 5, 7)</text>
<rect x="480" y="1080" class="st61" width="100" height="100"/>
<text transform="matrix(1 0 0 1 509.3252 1130)" class="st1 st2">(3, 6, 7)</text>
<rect x="600" y="1080" class="st62" width="100" height="100"/>
<text transform="matrix(1 0 0 1 629.3252 1130)" class="st1 st2">(4, 5, 6)</text>
<rect y="1200" class="st63" width="100" height="100"/>
<text transform="matrix(1 0 0 1 29.3252 1250)" class="st1 st2">(4, 5, 7)</text>
<rect x="120" y="1200" class="st64" width="100" height="100"/>
<text transform="matrix(1 0 0 1 149.3252 1250)" class="st1 st2">(4, 6, 7)</text>
<rect x="240" y="1200" class="st65" width="100" height="100"/>
<text transform="matrix(1 0 0 1 269.3252 1250)" class="st1 st2">(5, 6, 7)</text>
<rect x="360" y="1200" class="st66" width="100" height="100"/>
<text transform="matrix(1 0 0 1 382.6543 1250)" class="st1 st2">(1, 2, 3, 4)</text>
<rect x="480" y="1200" class="st67" width="100" height="100"/>
<text transform="matrix(1 0 0 1 502.6543 1250)" class="st1 st2">(1, 2, 3, 5)</text>
<rect x="600" y="1200" class="st68" width="100" height="100"/>
<text transform="matrix(1 0 0 1 622.6543 1250)" class="st1 st2">(1, 2, 3, 6)</text>
<rect y="1320" class="st69" width="100" height="100"/>
<text transform="matrix(1 0 0 1 22.6543 1370)" class="st1 st2">(1, 2, 3, 7)</text>
<rect x="120" y="1320" class="st70" width="100" height="100"/>
<text transform="matrix(1 0 0 1 142.6543 1370)" class="st1 st2">(1, 2, 4, 5)</text>
<rect x="240" y="1320" class="st71" width="100" height="100"/>
<text transform="matrix(1 0 0 1 262.6543 1370)" class="st1 st2">(1, 2, 4, 6)</text>
<rect x="360" y="1320" class="st72" width="100" height="100"/>
<text transform="matrix(1 0 0 1 382.6543 1370)" class="st1 st2">(1, 2, 4, 7)</text>
<rect x="480" y="1320" class="st73" width="100" height="100"/>
<text transform="matrix(1 0 0 1 502.6543 1370)" class="st1 st2">(1, 2, 5, 6)</text>
<rect x="600" y="1320" class="st74" width="100" height="100"/>
<text transform="matrix(1 0 0 1 622.6543 1370)" class="st1 st2">(1, 2, 5, 7)</text>
<rect y="1440" class="st75" width="100" height="100"/>
<text transform="matrix(1 0 0 1 22.6543 1490)" class="st1 st2">(1, 2, 6, 7)</text>
<rect x="120" y="1440" class="st76" width="100" height="100"/>
<text transform="matrix(1 0 0 1 142.6543 1490)" class="st1 st2">(1, 3, 4, 5)</text>
<rect x="240" y="1440" class="st77" width="100" height="100"/>
<text transform="matrix(1 0 0 1 262.6543 1490)" class="st1 st2">(1, 3, 4, 6)</text>
<rect x="360" y="1440" class="st78" width="100" height="100"/>
<text transform="matrix(1 0 0 1 382.6543 1490)" class="st1 st2">(1, 3, 4, 7)</text>
<rect x="480" y="1440" class="st79" width="100" height="100"/>
<text transform="matrix(1 0 0 1 502.6543 1490)" class="st1 st2">(1, 3, 5, 6)</text>
<rect x="600" y="1440" class="st80" width="100" height="100"/>
<text transform="matrix(1 0 0 1 622.6543 1490)" class="st1 st2">(1, 3, 5, 7)</text>
<rect y="1560" class="st81" width="100" height="100"/>
<text transform="matrix(1 0 0 1 22.6543 1610)" class="st1 st2">(1, 3, 6, 7)</text>
<rect x="120" y="1560" class="st82" width="100" height="100"/>
<text transform="matrix(1 0 0 1 142.6543 1610)" class="st1 st2">(1, 4, 5, 6)</text>
<rect x="240" y="1560" class="st83" width="100" height="100"/>
<text transform="matrix(1 0 0 1 262.6543 1610)" class="st1 st2">(1, 4, 5, 7)</text>
<rect x="360" y="1560" class="st84" width="100" height="100"/>
<text transform="matrix(1 0 0 1 382.6543 1610)" class="st1 st2">(1, 4, 6, 7)</text>
<rect x="480" y="1560" class="st85" width="100" height="100"/>
<text transform="matrix(1 0 0 1 502.6543 1610)" class="st1 st2">(1, 5, 6, 7)</text>
<rect x="600" y="1560" class="st86" width="100" height="100"/>
<text transform="matrix(1 0 0 1 622.6543 1610)" class="st1 st2">(2, 3, 4, 5)</text>
<rect y="1680" class="st87" width="100" height="100"/>
<text transform="matrix(1 0 0 1 22.6543 1730)" class="st1 st2">(2, 3, 4, 6)</text>
<rect x="120" y="1680" class="st88" width="100" height="100"/>
<text transform="matrix(1 0 0 1 142.6543 1730)" class="st1 st2">(2, 3, 4, 7)</text>
<rect x="240" y="1680" class="st89" width="100" height="100"/>
<text transform="matrix(1 0 0 1 262.6543 1730)" class="st1 st2">(2, 3, 5, 6)</text>
<rect x="360" y="1680" class="st90" width="100" height="100"/>
<text transform="matrix(1 0 0 1 382.6543 1730)" class="st1 st2">(2, 3, 5, 7)</text>
<rect x="480" y="1680" class="st91" width="100" height="100"/>
<text transform="matrix(1 0 0 1 502.6543 1730)" class="st1 st2">(2, 3, 6, 7)</text>
<rect x="600" y="1680" class="st92" width="100" height="100"/>
<text transform="matrix(1 0 0 1 622.6543 1730)" class="st1 st2">(2, 4, 5, 6)</text>
<rect y="1800" class="st93" width="100" height="100"/>
<text transform="matrix(1 0 0 1 22.6543 1850)" class="st1 st2">(2, 4, 5, 7)</text>
<rect x="120" y="1800" class="st94" width="100" height="100"/>
<text transform="matrix(1 0 0 1 142.6543 1850)" class="st1 st2">(2, 4, 6, 7)</text>
<rect x="240" y="1800" class="st95" width="100" height="100"/>
<text transform="matrix(1 0 0 1 262.6543 1850)" class="st1 st2">(2, 5, 6, 7)</text>
<rect x="360" y="1800" class="st96" width="100" height="100"/>
<text transform="matrix(1 0 0 1 382.6543 1850)" class="st1 st2">(3, 4, 5, 6)</text>
<rect x="480" y="1800" class="st97" width="100" height="100"/>
<text transform="matrix(1 0 0 1 502.6543 1850)" class="st1 st2">(3, 4, 5, 7)</text>
<rect x="600" y="1800" class="st98" width="100" height="100"/>
<text transform="matrix(1 0 0 1 622.6543 1850)" class="st1 st2">(3, 4, 6, 7)</text>
<rect y="1920" class="st99" width="100" height="100"/>
<text transform="matrix(1 0 0 1 22.6543 1970)" class="st1 st2">(3, 5, 6, 7)</text>
<rect x="120" y="1920" class="st100" width="100" height="100"/>
<text transform="matrix(1 0 0 1 142.6543 1970)" class="st1 st2">(4, 5, 6, 7)</text>
<rect x="240" y="1920" class="st101" width="100" height="100"/>
<text transform="matrix(1 0 0 1 255.9834 1970)" class="st1 st2">(1, 2, 3, 4, 5)</text>
<rect x="360" y="1920" class="st102" width="100" height="100"/>
<text transform="matrix(1 0 0 1 375.9834 1970)" class="st1 st2">(1, 2, 3, 4, 6)</text>
<rect x="480" y="1920" class="st103" width="100" height="100"/>
<text transform="matrix(1 0 0 1 495.9834 1970)" class="st1 st2">(1, 2, 3, 4, 7)</text>
<rect x="600" y="1920" class="st104" width="100" height="100"/>
<text transform="matrix(1 0 0 1 615.9834 1970)" class="st1 st2">(1, 2, 3, 5, 6)</text>
<rect y="2040" class="st105" width="100" height="100"/>
<text transform="matrix(1 0 0 1 15.9834 2090)" class="st1 st2">(1, 2, 3, 5, 7)</text>
<rect x="120" y="2040" class="st106" width="100" height="100"/>
<text transform="matrix(1 0 0 1 135.9834 2090)" class="st1 st2">(1, 2, 3, 6, 7)</text>
<rect x="240" y="2040" class="st107" width="100" height="100"/>
<text transform="matrix(1 0 0 1 255.9834 2090)" class="st1 st2">(1, 2, 4, 5, 6)</text>
<rect x="360" y="2040" class="st108" width="100" height="100"/>
<text transform="matrix(1 0 0 1 375.9834 2090)" class="st1 st2">(1, 2, 4, 5, 7)</text>
<rect x="480" y="2040" class="st109" width="100" height="100"/>
<text transform="matrix(1 0 0 1 495.9834 2090)" class="st1 st2">(1, 2, 4, 6, 7)</text>
<rect x="600" y="2040" class="st110" width="100" height="100"/>
<text transform="matrix(1 0 0 1 615.9834 2090)" class="st1 st2">(1, 2, 5, 6, 7)</text>
<rect y="2160" class="st111" width="100" height="100"/>
<text transform="matrix(1 0 0 1 15.9834 2210)" class="st1 st2">(1, 3, 4, 5, 6)</text>
<rect x="120" y="2160" class="st112" width="100" height="100"/>
<text transform="matrix(1 0 0 1 135.9834 2210)" class="st1 st2">(1, 3, 4, 5, 7)</text>
<rect x="240" y="2160" class="st113" width="100" height="100"/>
<text transform="matrix(1 0 0 1 255.9834 2210)" class="st1 st2">(1, 3, 4, 6, 7)</text>
<rect x="360" y="2160" class="st114" width="100" height="100"/>
<text transform="matrix(1 0 0 1 375.9834 2210)" class="st1 st2">(1, 3, 5, 6, 7)</text>
<rect x="480" y="2160" class="st115" width="100" height="100"/>
<text transform="matrix(1 0 0 1 495.9834 2210)" class="st1 st2">(1, 4, 5, 6, 7)</text>
<rect x="600" y="2160" class="st116" width="100" height="100"/>
<text transform="matrix(1 0 0 1 615.9834 2210)" class="st1 st2">(2, 3, 4, 5, 6)</text>
<rect y="2280" class="st117" width="100" height="100"/>
<text transform="matrix(1 0 0 1 15.9834 2330)" class="st1 st2">(2, 3, 4, 5, 7)</text>
<rect x="120" y="2280" class="st118" width="100" height="100"/>
<text transform="matrix(1 0 0 1 135.9834 2330)" class="st1 st2">(2, 3, 4, 6, 7)</text>
<rect x="240" y="2280" class="st119" width="100" height="100"/>
<text transform="matrix(1 0 0 1 255.9834 2330)" class="st1 st2">(2, 3, 5, 6, 7)</text>
<rect x="360" y="2280" class="st120" width="100" height="100"/>
<text transform="matrix(1 0 0 1 375.9834 2330)" class="st1 st2">(2, 4, 5, 6, 7)</text>
<rect x="480" y="2280" class="st121" width="100" height="100"/>
<text transform="matrix(1 0 0 1 495.9834 2330)" class="st1 st2">(3, 4, 5, 6, 7)</text>
<rect x="600" y="2280" class="st122" width="100" height="100"/>
<text transform="matrix(1 0 0 1 609.3125 2330)" class="st1 st2">(1, 2, 3, 4, 5, 6)</text>
<rect y="2400" class="st123" width="100" height="100"/>
<text transform="matrix(1 0 0 1 9.3125 2450)" class="st1 st2">(1, 2, 3, 4, 5, 7)</text>
<rect x="120" y="2400" class="st124" width="100" height="100"/>
<text transform="matrix(1 0 0 1 129.3125 2450)" class="st1 st2">(1, 2, 3, 4, 6, 7)</text>
<rect x="240" y="2400" class="st125" width="100" height="100"/>
<text transform="matrix(1 0 0 1 249.3125 2450)" class="st1 st2">(1, 2, 3, 5, 6, 7)</text>
<rect x="360" y="2400" class="st126" width="100" height="100"/>
<text transform="matrix(1 0 0 1 369.3125 2450)" class="st1 st2">(1, 2, 4, 5, 6, 7)</text>
<rect x="480" y="2400" class="st127" width="100" height="100"/>
<text transform="matrix(1 0 0 1 489.3125 2450)" class="st1 st2">(1, 3, 4, 5, 6, 7)</text>
<rect x="600" y="2400" class="st128" width="100" height="100"/>
<text transform="matrix(1 0 0 1 609.3125 2450)" class="st1 st2">(2, 3, 4, 5, 6, 7)</text>
<rect y="2520" class="st129" width="100" height="100"/>
<text transform="matrix(1 0 0 1 2.6416 2570)" class="st1 st2">(1, 2, 3, 4, 5, 6, 7)</text>
</svg>
