<?xml version="1.0" encoding="UTF-8"?>
<svg id="a" data-name="Layer 1" xmlns="http://www.w3.org/2000/svg" xmlns:xlink="http://www.w3.org/1999/xlink" viewBox="0 0 800.57 384.7">
  <defs>
    <clipPath id="b">
      <rect x="414.57" width="386" height="384.7" style="fill: none;"/>
    </clipPath>
  </defs>
  <g style="clip-path: url(#b); fill: none;">
    <g>
      <path d="m710.07,40.9c2.4,3.8,2.9,7.8,1.6,11.6,4.5,3.5,8.5,7.3,11.6,11.1,6.5,7.9,13.2,17.8,16.4,29.7,7.2,1.3,14.2,4.5,19.5,8.9,18.1,15.1,29,32.5,35,49.6-1-41.9-34.8-87.5-74.1-115.5-7.8-5.6-17.1-10.6-27.7-14.3,7.1,5.2,13,11.5,17.7,18.9h0Z" style="fill: #f8951d;"/>
      <path d="m563.17,24.8c5.6-1.4,11-2.1,16-2.2,10.2-.1,22.1.7,33.3,5.6,5.5-4.8,12.3-8.3,19.1-9.7,23.2-4.8,43.7-2.5,60.8,3.4-33.3-25.1-90.1-27.1-136.6-13.8-9.3,2.6-19,6.8-28.5,12.8,8.5-2.2,17.1-2.9,25.8-2,4.5.5,7.9,2.6,10.1,5.9Z" style="fill: #ed2224;"/>
      <path d="m631.67,18.6c-6.8,1.4-13.7,4.9-19.1,9.7,7.8,3.4,15.2,8.7,21.6,16.8,1.7,2.1,3.1,4.5,4.5,7,.7-.3,1.4-.7,2.2-1,4.9-2.1,10.4-3.4,16-4-.1-1.9.1-3.7.8-5.2,3.4-7.4,16.5-5.4,26.4-2.9,10.6,2.7,20.1,7.6,27.8,13.5,1.2-3.8.8-7.8-1.6-11.6-4.6-7.3-10.6-13.6-17.6-18.9-17.3-5.9-37.8-8.2-61-3.4Z" style="fill: #f04f23;"/>
      <path d="m448.67,123.6c2.4-5.2,5.2-9.9,8.3-13.8,6.3-8.1,14.4-16.8,25.2-22.5-.3-7.2,1.2-14.8,4.4-21,10.8-21.1,25.4-35.7,40.7-45.4-40.6,10.5-77.7,53.6-96.4,98.1-3.7,8.9-6.6,19.1-7.8,30.2,3.6-8,8.4-15.2,14.6-21.4,3.2-3.1,7-4.5,11-4.2h0Z" style="fill: #de4c9b;"/>
      <path d="m693.97,82.7c1-6.5-3.6-9.5-9.4-12-4.4-1.9-10.3-2.2-15.5-4.1-4.9,2.6-10.1,6.7-14.1,12.4,7.8,6.7,20.6,6.6,29.4,13.3,4.2-1.6,8.7-3.7,9.6-9.6h0Z" style="fill: #f16262;"/>
      <path d="m486.57,66.3c-3.1,6.2-4.7,13.7-4.4,21,7.5-4,16.3-6.5,26.7-6.4,2.7,0,5.5.4,8.2.8.2-.8.4-1.5.6-2.3,1.4-5.1,3.8-10.2,6.8-15-1.6-1.1-2.8-2.4-3.6-3.8-3.7-7.3,6.1-16.3,14.3-22.5,8.7-6.6,18.6-11,28-13.3-2.2-3.4-5.6-5.4-10.1-5.9-8.7-.9-17.3-.2-25.8,2-15.3,9.7-29.9,24.3-40.7,45.4Z" style="fill: #ee2762;"/>
      <path d="m654.87,79l.1.1c4.1-5.7,9.3-9.9,14.1-12.4-1.1-.4-2.2-.9-3.2-1.4-3.9-2.2-8.9-11.1-9.3-18.2-5.6.6-11.1,1.9-16,4-.8.3-1.5.7-2.2,1,5.3,9.3,9,20.3,16.5,26.9h0Z" style="fill: #ef4645;"/>
      <path d="m454.27,274.5c-2.6-5.1-4.5-10.2-5.6-15.1-2.4-9.9-4.1-21.7-1.8-33.7-5.9-4.3-10.8-10.2-13.7-16.5-9.8-21.5-12-42-10-60-17.2,38.2-6.7,94,16.5,136.3,4.6,8.4,10.8,17,18.7,24.9-4-7.8-6.6-16-7.6-24.7-.6-4.4.7-8.3,3.5-11.2h0Z" style="fill: #6b52a2;"/>
      <path d="m702.57,62c9.3,10.7,11.5,24.8,11.8,37.3.7-.6,1.4-1.2,2.1-1.7,6.2-4.7,14.8-5.7,23.2-4.2-3.1-11.9-9.9-21.7-16.4-29.7-3.1-3.8-7.1-7.6-11.6-11.1-.5,1.4-1.2,2.8-2.1,4.2-1.9,2.6-4.3,4.2-7,5.2h0Z" style="fill: #c04b80;"/>
      <path d="m575.77,57.4c-4.4-4.8-9.7-3.1-15.3-.1-4.3,2.3-8.2,6.7-12.9,9.5-1,5.4-1,12.1.9,18.8,10.1-1.9,18-12,28.8-14.7,1.4-4.3,2.5-9.1-1.5-13.5h0Z" style="fill: #be1b80;"/>
      <path d="m699.17,58.5c1.2,1.1,2.3,2.3,3.4,3.5,2.7-.9,5.1-2.6,7-5.3.9-1.4,1.7-2.8,2.1-4.2-7.7-5.9-17.2-10.9-27.8-13.5-9.9-2.5-23-4.5-26.4,2.9-.7,1.5-.9,3.3-.8,5.2,15.7-1.7,32.6,2.5,42.5,11.4Z" style="fill: #d53256;"/>
      <path d="m446.77,225.7c1.6-8.3,5.1-16.8,11.7-24.8,1.7-2.1,3.7-4,5.8-5.9-.5-.6-1-1.2-1.4-1.9-3.1-4.3-5.6-9.3-7.4-14.7-1.9.6-3.6.8-5.2.4-8-1.6-8.9-14.9-8.7-25.1.3-10.9,3-21.3,7.1-30.2-4-.4-7.8,1-11,4.2-6.2,6.2-11,13.4-14.6,21.4-2,18,.2,38.5,10,60,2.9,6.5,7.9,12.3,13.7,16.6h0Z" style="fill: #994c9d;"/>
      <path d="m693.97,82.7c-.9,5.9-5.4,7.9-9.6,9.7,3.2,2.4,5.8,5.7,7.5,10.5,2,5.5.3,12.5-2.9,19.5.6.1,1.2.1,1.8,0,9.9-.7,13.5-14.2,23.5-23.2-.3-12.4-2.5-26.6-11.8-37.3-7.7,2.7-17.9-.1-26.8,2.1-2,.5-4.2,1.4-6.6,2.6,5.1,1.9,11,2.2,15.5,4.1,5.8,2.5,10.5,5.6,9.4,12h0Z" style="fill: #d54294;"/>
      <path d="m548.37,85.7h.2c-1.9-6.7-1.9-13.4-.9-18.8-1,.6-2,1.2-3.1,1.6-4.1,1.7-14.3,0-20.1-4-3.1,4.8-5.4,9.8-6.8,15-.2.8-.4,1.6-.6,2.3,10.5,1.7,21.4,5.7,31.3,3.9h0Z" style="fill: #d0218f;"/>
      <path d="m665.97,65.2c1,.6,2.1,1,3.2,1.4,2.3-1.2,4.6-2.1,6.6-2.6,8.9-2.2,19.1.6,26.8-2.1-1-1.2-2.2-2.4-3.4-3.5-9.8-8.9-26.8-13.1-42.5-11.4.4,7.1,5.4,16.1,9.3,18.2h0Z" style="fill: #df3170;"/>
      <path d="m582.37,373.7c-3.8-2.4-6-5.8-6.5-9.7-5.6-1.2-10.7-2.9-15.1-4.9-9.3-4.3-19.7-10.3-27.6-19.6-7,1.9-14.8,2.1-21.5.5-23-5.7-40.4-16.7-53.2-29.5,19.1,37.2,69.3,63.6,116.9,71.8,9.5,1.6,20,2.1,31.2.8-8.8-1.8-16.9-4.8-24.2-9.4h0Z" style="fill: #45aae0;"/>
      <path d="m579.97,351.4c-13-5.6-21.1-17.2-26.8-28.2-.3.8-.7,1.6-1.1,2.4-3.6,6.9-10.8,11.6-19.1,13.9,8,9.3,18.4,15.3,27.6,19.6,4.5,2.1,9.6,3.8,15.1,4.9-.2-1.5-.2-3.1.1-4.7.7-3.4,2.1-5.9,4.2-7.9h0Z" style="fill: #7ea27f;"/>
      <path d="m564.87,37.9c14.1-.6,26.5,6.3,36.4,13.8,0-.9-.1-1.7,0-2.6.2-7.8,4.8-15.2,11.2-20.8-11.2-4.9-23.1-5.7-33.3-5.6-5,.1-10.4.8-16,2.2.8,1.2,1.5,2.7,1.9,4.3,1,3.1.8,6-.2,8.7Z" style="fill: #80597f;"/>
      <path d="m601.27,49.1v2.6c2,1.5,3.9,3.1,5.7,4.6,5.4,4.5,11.1,10.6,14.2,16,2.2-7.9,6.6-15,17.2-20.2-1.4-2.5-2.8-4.8-4.5-7-6.3-8.2-13.8-13.5-21.6-16.8-6.2,5.6-10.8,13-11,20.8h0Z" style="fill: #aa6c56;"/>
      <path d="m493.57,141.2c-2.6-3.6-5.6-7.6-11.5-7.1-6.6.5-8.5,5.7-9.6,11.9-.9,4.8.1,10.6-.6,16,3.6,4.2,8.8,8.3,15.2,11,4.8-9.1,1.9-21.6,6.5-31.8h0Z" style="fill: #776eb2;"/>
      <path d="m666.57,106.2c.1-.1.2-.3.3-.5,2.9-4,8-8.4,13.5-11.5,1.2-.7,2.6-1.2,4-1.8-8.8-6.7-21.7-6.6-29.4-13.3-2.1,2.9-3.8,6.2-5.1,9.9-1.2,3.4-2,6.9-2.7,10.5,6.6-2.9,13.1,1.2,19.4,6.7Z" style="fill: #ab7c94;"/>
      <path d="m560.07,38.4c1.6-.3,3.3-.4,4.8-.5.9-2.7,1.2-5.6.2-8.8-.5-1.6-1.1-3-1.9-4.3-9.4,2.4-19.3,6.7-28,13.3-8.2,6.2-17.9,15.2-14.3,22.5.7,1.4,2,2.7,3.6,3.8,8.6-13.2,22.5-23.9,35.6-26h0Z" style="fill: #ab4b95;"/>
      <path d="m621.27,72.3c.8,1.4,1.4,2.8,1.9,4,2.9,8.8.7,22.2-.4,35-1,10.6-4.6,30.1,5.9,36.8,2.4-7.1,3-14.4,4.9-22.7,2-8.8,6.2-22.3,12.9-25.7.3-.1.5-.3.8-.4.6-3.6,1.5-7.1,2.7-10.5,1.3-3.7,3-7,5.1-9.9l-.1-.1c-7.5-6.6-11.2-17.6-16.3-26.9-10.8,5.4-15.2,12.5-17.4,20.4h0Z" style="fill: #c05d70;"/>
      <path d="m533.07,339.4c-5.5-6.4-9.9-14.4-12-24.4-.6-2.7-.9-5.5-1-8.3h-2.5c-5.3-.2-10.8-1.4-16.1-3.3-.7,1.8-1.7,3.3-2.9,4.3-6.3,5.2-17.2-2.3-25.1-8.8-8.4-7-14.8-15.6-19.2-24.3-2.8,2.9-4.1,6.7-3.6,11.2,1,8.7,3.6,16.9,7.6,24.7,12.9,12.7,30.3,23.6,53.3,29.4,6.7,1.6,14.4,1.4,21.5-.5Z" style="fill: #4f62ad;"/>
      <path d="m552.07,325.5c.4-.8.8-1.6,1.1-2.4-1.2-2.2-2.2-4.5-3.2-6.6-2.9-6.4-5.4-14.3-5.8-20.6-5.4,6.2-12.4,10.6-24.2,10.7.2,2.8.4,5.6,1,8.3,2.2,10.1,6.5,18,12,24.4,8.3-2.2,15.6-6.9,19.1-13.8Z" style="fill: #806dab;"/>
      <path d="m560.57,57.4c5.6-3,10.9-4.7,15.3.1,4,4.4,2.8,9.2,1.6,13.5,3.9-1,8.1-1,12.9.6,5.5,1.9,10,7.5,13.4,14.4.4-.4.8-.8,1.1-1.3,5.6-8.2-2.8-19.4-3.5-32.9-9.9-7.5-22.3-14.4-36.4-13.8-2.7,7.7-11.3,13.9-15.2,22.3-.9,1.9-1.6,4.2-2.1,6.7,4.6-3,8.6-7.4,12.9-9.6h0Z" style="fill: #7b459b;"/>
      <path d="m604.77,84.6c-.3.5-.7.9-1.1,1.3,3.9,7.8,6.5,17.2,7.9,24.9.5,2.5.8,5.4,1.1,8.5,4.8-7.4,4.2-17.5,5.3-25.5,1.1-7.4,1.3-14.8,3.2-21.5-3.1-5.5-8.9-11.6-14.2-16-1.8-1.5-3.7-3.1-5.7-4.6.7,13.5,9.2,24.7,3.5,32.9Z" style="fill: #a05280;"/>
      <path d="m487.07,172.9c-6.4-2.7-11.6-6.8-15.2-11-.2,1.2-.4,2.3-.7,3.4-1.3,4.2-8.9,11.2-15.7,13.2,1.8,5.3,4.3,10.4,7.4,14.7.5.6,1,1.3,1.4,1.9,8-7.1,17.9-13.2,22.7-22q.1-.1.1-.2h0Z" style="fill: #705ba7;"/>
      <path d="m689.07,122.4c3.3-7,4.9-14,2.9-19.5-1.7-4.8-4.4-8.1-7.5-10.5-1.4.6-2.8,1.2-4,1.8-5.5,3.1-10.6,7.5-13.5,11.5-.1.2-.2.3-.3.5,7.6,6.7,15.2,15.4,22.4,16.2Z" style="fill: #9e5da5;"/>
      <path d="m544.57,68.5c1.1-.4,2.1-1,3.1-1.6.5-2.6,1.2-4.9,2.1-6.7,3.8-8.3,12.4-14.6,15.2-22.3-1.6.1-3.2.2-4.8.5-13.1,2.2-27,12.8-35.6,26.1,5.7,4,15.9,5.6,20,4h0Z" style="fill: #95469b;"/>
      <path d="m618.07,93.8c-1.2,8-.5,18.1-5.3,25.5.6,6.2.8,13.2.8,19.2,0,10.4-1,20.3,2,27.7,4.8-3.4,8.9-8.2,11.7-14.5.5-1.2,1-2.4,1.4-3.6-10.5-6.7-6.9-26.2-5.9-36.8,1.2-12.9,3.3-26.2.4-35-.4-1.3-1.1-2.6-1.9-4-1.9,6.8-2.1,14.2-3.2,21.5h0Z" style="fill: #b34b8d;"/>
      <path d="m733.47,325.5c-4.3,1.5-8.3,1.1-11.7-1-4.4,3.6-8.9,6.6-13.3,8.8-9.2,4.6-20.4,9-32.6,9.4-2.9,6.7-7.6,12.9-13.1,17.1-18.8,14.4-38.4,21.2-56.4,23.3,41.1,8.2,93.2-14.6,129.3-46.7,7.2-6.4,14.2-14.3,20.2-23.8-6.7,5.5-14.2,9.9-22.4,12.9h0Z" style="fill: #66bd4e;"/>
      <path d="m696.37,300.5c6.1,2.4,10.1-1.4,13.8-6.5,2.8-3.9,4.5-9.5,7.4-14-1.4-5.3-4.3-11.3-9-16.6-8.2,6.1-11,18.6-19.5,25.7.8,4.4,1.8,9.2,7.3,11.4h0Z" style="fill: #9cbe3c;"/>
      <path d="m714.57,313.5c-12.5,6.6-26.7,5.7-38.9,3.3.4.8.8,1.6,1.2,2.4,3.2,7.1,2.3,15.7-1.1,23.5,12.3-.5,23.4-4.8,32.6-9.4,4.4-2.2,9-5.1,13.3-8.8-1.3-.8-2.5-1.8-3.6-3-2.1-2.5-3.2-5.2-3.5-8h0Z" style="fill: #9c722a;"/>
      <path d="m696.37,300.5c-5.5-2.2-6.5-7-7.3-11.5-3.1,2.6-6.9,4.4-11.9,5-5.8.7-12.3-2.4-18.4-7.1-.2.6-.4,1.2-.5,1.8-1.5,9.8,10.9,16.2,17.4,28,12.2,2.4,26.4,3.3,38.9-3.3-.9-8.1,4.2-17.4,4-26.6,0-2.1-.4-4.4-1-7-2.9,4.6-4.5,10.2-7.4,14-3.7,5.2-7.7,9.1-13.8,6.7h0Z" style="fill: #bc7f2b;"/>
      <path d="m453.17,124.8c3.1,1.3,5.2,3.2,6.7,5.6,8.4-11.4,21.6-16.8,33.6-19.9-.7-.5-1.4-1-2.1-1.6-5.9-5-8.9-13.1-9.2-21.7-10.8,5.7-19,14.5-25.2,22.5-3.1,3.9-5.9,8.6-8.3,13.8,1.5.3,3,.7,4.5,1.3Z" style="fill: #9c898a;"/>
      <path d="m679.67,268.6l.4.4c3.3,3.7,6.4,9.7,8.2,15.7.4,1.3.6,2.8.9,4.3,8.5-7.1,11.3-19.6,19.5-25.7-2.4-2.6-5.2-5.1-8.5-7.1-3-1.9-6.2-3.5-9.5-4.9,1.1,7-4.3,12.4-11,17.3h0Z" style="fill: #bc8d5c;"/>
      <path d="m491.47,109c.7.6,1.4,1.1,2.1,1.6,2.5-.6,4.9-1.2,7.2-1.6,6.8-1.4,15.2-2.1,21.4-1.1-4.8-6.6-7.6-14.5-5-26-2.8-.5-5.5-.8-8.2-.8-10.4-.1-19.2,2.4-26.7,6.4.3,8.3,3.2,16.5,9.2,21.5Z" style="fill: #be5c5d;"/>
      <path d="m677.17,294.1c5.1-.6,8.9-2.5,11.9-5-.3-1.5-.5-3-.9-4.3-1.8-6.1-4.9-12-8.2-15.7l-.4-.4c-8.2,6.1-18.4,11.5-20.9,18.3,6.2,4.7,12.7,7.8,18.5,7.1h0Z" style="fill: #ce6b45;"/>
      <path d="m496.17,250.3c-4.5-.2-9.4-.3-12.8,4.6-3.7,5.4-.9,10.1,3.3,14.9,3.2,3.6,8.3,6.5,12.1,10.4,5.5-.2,12-1.7,18.2-5.1-4.3-9.3-15.8-14.8-20.8-24.8h0Z" style="fill: #5d73ab;"/>
      <path d="m518.17,245.7c-.2.1-.3.2-.5.3-4.4,2.4-10.9,4.1-17.2,4.5-1.3.1-2.8,0-4.4-.1,5,9.9,16.6,15.4,20.7,24.8,3.1-1.7,6.1-3.9,8.8-6.7,2.5-2.5,4.8-5.3,6.9-8.2-6.9-.5-11-7-14.3-14.6h0Z" style="fill: #937f72;"/>
      <path d="m576.97,93.5c-.1-.2-.1-.4-.2-.6-1.3-4.8-1.5-11.5-.5-17.7.2-1.3.6-2.8,1.1-4.2-10.8,2.7-18.8,12.8-28.8,14.7,1,3.4,2.4,6.8,4.5,10.1,1.9,3,4.1,5.9,6.4,8.5,2-6.8,9.3-9.3,17.5-10.8Z" style="fill: #934d72;"/>
      <path d="m594.77,126.7c-4.2-10.5-14.4-21.9-17.8-33.3-8.2,1.6-15.5,4.1-17.5,10.9,10.5,12,24.5,20.4,35.3,22.4h0Z" style="fill: #ae5e56;"/>
      <path d="m457.27,134.5c.8-1.4,1.7-2.8,2.6-4.1-1.5-2.4-3.6-4.4-6.7-5.6-1.5-.6-3.1-1-4.6-1.1-4.1,8.8-6.8,19.2-7.1,30.2-.3,10.2.7,23.5,8.7,25.1,1.6.3,3.4.1,5.2-.4-5-15-4.6-32.5,1.9-44.1Z" style="fill: #915ca6;"/>
      <path d="m546.77,220.9c-9.3,6.4-18.2,18.9-28.6,24.8,3.3,7.7,7.4,14.2,14.5,14.6,9.3-12.9,14.5-28.5,14.1-39.4Z" style="fill: #ad6b85;"/>
      <path d="m522.07,107.8c1.6.2,3.1.6,4.3,1.1,8.7,3.2,17.8,13.2,27.1,22.1,7.7,7.3,20.7,22.2,32.5,18.3-4-6.3-9.4-11.3-14.7-17.9-5.6-7-13.6-18.7-12.1-26,.1-.3.2-.6.2-.9-2.4-2.7-4.5-5.6-6.4-8.5-2.1-3.3-3.6-6.7-4.5-10.1h-.2c-9.9,1.8-20.8-2.2-31.3-4-2.4,11.4.3,19.2,5.1,25.9Z" style="fill: #ae4585;"/>
      <path d="m592.07,145.3c5.5-5.6,5.3-11.9,2.7-18.5-10.7-2-24.8-10.5-35.2-22.4-.1.3-.2.6-.2.9-1.5,7.4,6.5,19,12.1,26,5.3,6.6,10.7,11.6,14.7,17.9,1.9-.7,3.9-2,5.9-3.9Z" style="fill: #be556a;"/>
      <path d="m662.77,359.8c5.5-4.2,10.2-10.4,13.1-17.1-8.4.3-17.4-1.2-26.6-5.8-2.4-1.2-4.8-2.7-7.1-4.4-.5.6-1,1.3-1.6,1.9-3.5,4-7.8,7.5-12.5,10.5,1,1.7,1.6,3.4,1.6,5,.1,8.1-12.5,12.1-22.6,14.1-10.8,2.2-21.6,1.9-31.2-.1.5,4,2.7,7.4,6.5,9.7,7.4,4.6,15.5,7.7,24.1,9.4,17.9-2.1,37.4-8.9,56.3-23.2Z" style="fill: #41bda4;"/>
      <path d="m606.97,364c10.1-2.1,22.7-6,22.6-14.1,0-1.6-.6-3.3-1.6-5-13.5,8.3-30.7,12-43.5,8.2-1.6-.5-3.1-1-4.6-1.7-2,2-3.5,4.5-4,7.8-.3,1.6-.3,3.2-.1,4.7,9.6,2,20.4,2.4,31.2.1h0Z" style="fill: #67b871;"/>
      <path d="m676.97,319.2c-.4-.8-.8-1.7-1.2-2.4-2.4-.5-4.7-1-7-1.6-6.8-1.7-14.7-4.8-19.9-8.4,1.5,8.1.6,16.4-6.7,25.7,2.3,1.7,4.7,3.2,7.1,4.4,9.2,4.6,18.2,6.1,26.6,5.8,3.4-7.9,4.2-16.5,1.1-23.5h0Z" style="fill: #698771;"/>
      <path d="m658.37,288.7c.1-.6.3-1.2.5-1.8-6.8-5.3-13.2-12.6-17.9-18.9-1.5-2-3.1-4.6-4.8-7.3-1.2,8.8,3.8,17.6,6.2,25.4,2.2,7.1,5.2,13.8,6.4,20.6,5.2,3.6,13.1,6.6,19.9,8.4,2.2.6,4.6,1.1,7,1.6-6.5-11.7-18.9-18.1-17.3-28h0Z" style="fill: #8d8a55;"/>
      <path d="m482.07,134.1c5.9-.4,8.9,3.5,11.5,7.1,1.7-3.6,4.3-7,8.6-9.7,4.9-3.1,12.1-3.1,19.6-1.6-.1-.6-.2-1.1-.3-1.7-2.9-9.5-16.9-9.9-28-17.7-12,3.1-25.2,8.5-33.6,19.9,4.3,6.9,3.8,17.5,7.9,25.7.9,1.8,2.3,3.8,4,5.8.7-5.4-.3-11.2.6-16,1.2-6.2,3.1-11.4,9.7-11.8h0Z" style="fill: #6896b1;"/>
      <path d="m649.17,246.4c8.3,7.6,22.5,13.5,30.5,22.2,6.7-5,12.1-10.3,11-17.3-14.6-6.1-30.9-7.7-41.5-4.9h0Z" style="fill: #8c9684;"/>
      <path d="m521.47,128.3c.2.5.3,1.1.3,1.7,8.5,1.8,17.5,5.6,24.4,9.3,2.2,1.2,4.8,2.7,7.4,4.4-2.8-8.4-11.1-14.1-16.6-20-5.1-5.4-10.7-10.2-14.9-15.9-6.2-.9-14.6-.3-21.4,1.1-2.3.5-4.7,1-7.2,1.6,11,7.9,25.1,8.3,28,17.8h0Z" style="fill: #8d7084;"/>
      <path d="m640.87,268.1c4.6,6.3,11,13.6,17.9,18.9,2.5-6.8,12.7-12.3,20.9-18.3-8-8.8-22.2-14.6-30.5-22.2-4.3,1.2-7.7,3.1-9.6,5.7-2.1,2.9-3.1,5.8-3.5,8.7,1.7,2.6,3.3,5.1,4.8,7.2Z" style="fill: #a5796b;"/>
      <path d="m516.87,275.1c-6.1,3.4-12.7,4.9-18.2,5.1.8.8,1.6,1.7,2.2,2.7,2.5,3.6,3.1,13.9.5,20.5,5.3,1.9,10.8,3.1,16.1,3.3h2.5c-.5-10.7.9-22.1-3-31.3,0-.1-.1-.2-.1-.3h0Z" style="fill: #3e87c7;"/>
      <path d="m544.17,295.9c-.1-1.6-.1-3.1.1-4.5,1.2-9.2,9-20.3,15.6-31.4,5.5-9.1,17.2-25.1,10.7-35.8-5.2,5.3-9,11.7-14.2,18.3-5.6,7.1-15.2,17.4-22.7,17.6h-1c-2.1,2.9-4.4,5.7-6.9,8.2-2.7,2.8-5.7,5-8.8,6.7,0,.1.1.2.1.3,3.9,9.2,2.5,20.6,3,31.3,11.7,0,18.7-4.5,24.1-10.7h0Z" style="fill: #6e8a95;"/>
      <path d="m603.67,85.9c-3.4-6.9-7.9-12.5-13.4-14.4-4.8-1.6-9.1-1.6-12.9-.6-.4,1.5-.8,2.9-1.1,4.2-1,6.2-.8,13,.5,17.7,0,.2.1.4.2.6,10.1-1.8,21.6-2.3,26.7-7.5h0Z" style="fill: #6f6695;"/>
      <path d="m603.67,85.9c-5.1,5.2-16.7,5.6-26.7,7.5,3.4,11.4,13.6,22.8,17.8,33.3,4.4.8,8.2.6,11-1,3.1-1.7,5.4-3.9,7-6.4-.3-3.1-.7-6.1-1.1-8.5-1.5-7.7-4.1-17.1-8-24.9h0Z" style="fill: #8c6f78;"/>
      <path d="m471.17,165.3c.3-1.1.5-2.2.7-3.4-1.7-2-3.1-4-4-5.8-4.1-8.2-3.6-18.8-7.9-25.7-.9,1.3-1.8,2.6-2.6,4.1-6.5,11.6-6.9,29.1-1.8,44,6.7-2,14.3-8.9,15.6-13.2Z" style="fill: #7171b4;"/>
      <path d="m565.47,219.3c-6.7-4.1-12.8-2.5-18.7,1.6.4,10.9-4.8,26.5-14.1,39.4h1c7.5-.2,17.1-10.6,22.7-17.6,5.3-6.6,9-13,14.2-18.3-1.1-2-2.8-3.6-5.1-5.1h0Z" style="fill: #8b789d;"/>
      <path d="m553.57,143.7c5.2,3.4,10.9,7.6,15.5,11.3,8.2,6.4,15.2,13.4,22.9,15.7.3-5.8-.9-12-4.1-18.1-.6-1.1-1.2-2.2-1.9-3.3-11.8,4-24.8-10.9-32.5-18.3-9.3-8.9-18.4-18.9-27.1-22.1-1.3-.5-2.7-.8-4.3-1.1,4.1,5.7,9.7,10.5,14.9,15.9,5.6,5.9,13.9,11.6,16.6,20h0Z" style="fill: #8c5b9e;"/>
      <path d="m592.07,170.6h0c7.7,2.3,16.4.7,23.6-4.4-3-7.4-1.9-17.3-2-27.7,0-6-.3-13-.8-19.2-1.6,2.5-3.9,4.7-7,6.4-2.8,1.5-6.6,1.8-11,1,2.6,6.7,2.8,12.9-2.7,18.5-1.9,2-4,3.2-6,3.9.7,1.1,1.3,2.2,1.9,3.3,3.1,6.2,4.3,12.4,4,18.2h0Z" style="fill: #9e6583;"/>
      <path d="m790.37,177.2c-1.5,4.3-4.3,7.1-8.1,8.5.1,5.7-.4,11.2-1.5,16-2.2,10-5.7,21.5-13,31.4,3.4,6.4,5.3,13.9,5.2,20.8-.6,23.7-7.4,43.1-17.1,58.5,32.1-27,46.9-81.8,44.4-130.1-.5-9.6-2.3-20.1-6.1-30.7.3,8.9-.9,17.4-3.8,25.6Z" style="fill: #fed609;"/>
      <path d="m759.17,102.2c-5.3-4.4-12.4-7.6-19.5-8.9,2.2,8.1,2.6,17.2.2,27.3-.6,2.6-1.6,5.2-2.7,7.8.7.3,1.4.7,2.1,1.1,4.7,2.5,9.1,5.9,13.1,9.9,1.4-1.3,3-2.3,4.5-2.6,7.9-2,14.5,9.5,18.7,18.8,4.5,10,6.5,20.5,6.7,30.2,3.8-1.4,6.6-4.3,8.1-8.5,2.9-8.2,4.1-16.8,3.8-25.5-6-17.1-16.9-34.5-35-49.6h0Z" style="fill: #fdb515;"/>
      <path d="m747.67,190.9c5.7-3.3,5.2-8.8,3.5-14.9-1.3-4.7-4.7-9.5-6.4-14.6-5-2.2-11.5-3.7-18.5-3.3-.4,10.2,7.6,20.2,7.9,31.3,3.9,2.2,8.3,4.5,13.5,1.5h0Z" style="fill: #f36d21;"/>
      <path d="m726.27,158v.2c7-.4,13.5,1.1,18.5,3.3-.4-1.1-.7-2.2-.9-3.4-.7-4.4,3.2-13.9,8.4-18.7-3.9-4-8.4-7.5-13.1-9.9-.7-.4-1.4-.7-2.1-1.1-4,9.8-10.3,19.6-10.8,29.6h0Z" style="fill: #f47920;"/>
      <path d="m769.17,184.6c-2.6,14-12.3,24.6-21.8,32.6.9.2,1.8.3,2.7.6,7.5,1.9,13.7,7.9,17.7,15.5,7.3-9.9,10.9-21.3,13-31.4,1.1-4.9,1.6-10.3,1.5-16-1.4.5-3,.9-4.6,1-3.3,0-6-.8-8.5-2.3h0Z" style="fill: #f48166;"/>
      <path d="m769.87,179.7c-.1,1.7-.3,3.3-.6,4.8,2.4,1.5,5.2,2.4,8.5,2.2,1.7-.1,3.2-.4,4.6-1-.2-9.7-2.2-20.2-6.7-30.2-4.2-9.3-10.8-20.8-18.7-18.8-1.6.4-3.1,1.3-4.5,2.6,10.9,11.3,18.2,27.2,17.4,40.4h0Z" style="fill: #f68849;"/>
      <path d="m747.67,190.9c-5.2,2.9-9.6.7-13.5-1.4.1,4-.8,8.1-3.5,12.5-3.1,5-9.6,8.1-17.1,9.9.3.5.7,1,1.1,1.5,6.7,7.3,19.5,1.6,32.8,3.8,9.6-8,19.2-18.6,21.8-32.6-6.9-4.3-11-14.1-18.3-19.7-1.6-1.2-3.7-2.5-6.1-3.5,1.7,5.2,5.1,10,6.4,14.6,1.6,6.1,2.1,11.7-3.6,14.9h0Z" style="fill: #f15948;"/>
      <path d="m743.97,158.1c.2,1.1.5,2.3.9,3.4,2.4,1,4.5,2.3,6.1,3.5,7.3,5.6,11.4,15.3,18.3,19.7.3-1.6.5-3.2.6-4.8.9-13.3-6.4-29.1-17.5-40.4-5.2,4.7-9.1,14.2-8.4,18.6Z" style="fill: #f26739;"/>
      <path d="m457.97,271.7c2.9-1.6,5.8-2.1,8.6-1.7-3.7-13.6.4-27.3,5.5-38.6-.8.2-1.7.5-2.5.6-7.6,1.6-15.8-1.2-22.8-6.3-2.3,12-.5,23.8,1.8,33.7,1.2,4.8,3,10,5.6,15.1,1.1-1,2.4-2,3.8-2.8h0Z" style="fill: #bf6b84;"/>
      <path d="m716.47,97.5c-.7.6-1.4,1.1-2.1,1.7.1,2.5,0,4.8,0,7.1-.2,7-1.4,15.3-3.7,21.1,7.6-3.2,15.8-4.2,26.5.8,1.1-2.6,2-5.2,2.7-7.8,2.5-10,2-19.1-.2-27.3-8.4-1.3-17-.3-23.2,4.4h0Z" style="fill: #d47a58;"/>
      <path d="m712.27,184.1h.6c5-.3,11.6,1,17.4,3.4,1.2.5,2.5,1.2,3.9,2-.2-11.1-8.3-21.1-7.9-31.3-3.6.2-7.2.9-10.9,2.2-3.4,1.2-6.7,2.7-9.9,4.4,6.3,3.4,7.1,11,6.8,19.3h0Z" style="fill: #d44858;"/>
      <path d="m710.67,127.5c-.6,1.5-1.3,2.9-2,4-5.1,7.8-16.9,14.4-27.7,21.6-8.9,5.9-26.4,15.3-25.1,27.7,7-2.5,13.2-6.7,20.8-10.4,8.1-3.9,21.3-9.1,28.1-6,.3.1.5.2.8.4,3.2-1.7,6.5-3.2,9.9-4.4,3.7-1.3,7.3-2,10.9-2.2v-.2c.5-10,6.8-19.7,10.9-29.6-10.8-5-19-4.1-26.6-.9h0Z" style="fill: #df5b42;"/>
      <path d="m469.57,232c.9-.2,1.7-.4,2.5-.6,1-2.3,2.1-4.5,3.2-6.6,3.2-6.2,7.9-13.2,12.5-17.5-8.2-.4-16.1-3.1-23.5-12.3-2.1,1.9-4.1,3.8-5.8,5.9-6.6,8-10.1,16.5-11.7,24.8,6.9,5.1,15.2,7.9,22.8,6.3h0Z" style="fill: #d45898;"/>
      <path d="m690.87,122.5h-1.8c-3.7,7.9-9.4,15.7-14.5,21.7-1.6,1.9-3.7,4-6,6.2,8.8-.9,16.3-7.7,23.3-11.8,6.4-3.8,12.4-8.2,18.8-11,2.3-5.9,3.5-14.2,3.7-21.1.1-2.3.1-4.7,0-7.1-10.1,8.8-13.6,22.3-23.5,23.1Z" style="fill: #e06673;"/>
      <path d="m730.67,201.9c2.7-4.3,3.6-8.5,3.5-12.5-1.4-.7-2.6-1.5-3.9-2-5.8-2.4-12.4-3.6-17.4-3.4h-.6c-.4,10.2-2.6,21.5,1.2,27.7,7.6-1.7,14.1-4.8,17.2-9.8h0Z" style="fill: #e04273;"/>
      <path d="m668.57,150.3c-4.5,4.3-9.8,8.9-14.5,12.7-8.1,6.5-16.5,11.9-20.5,18.9,5.6,1.6,11.9,1.8,18.6,0,1.2-.3,2.5-.7,3.7-1.2-1.3-12.4,16.2-21.8,25.1-27.7,10.8-7.1,22.6-13.8,27.7-21.6.7-1.1,1.4-2.5,2-4-6.5,2.8-12.4,7.2-18.8,11-7,4.2-14.5,11-23.3,11.9Z" style="fill: #e5525c;"/>
      <path d="m583.27,316.2c-3,3.4-6.1,7.2-4.4,12.9,1.9,6.3,7.4,7,13.7,6.7,4.8-.2,10.2-2.4,15.6-3,3.3-4.4,6.2-10.5,7.4-17.4-10-2.6-21.5,3-32.3.8h0Z" style="fill: #7fc385;"/>
      <path d="m603.27,337.9c1.6-1.3,3.2-3.1,4.8-5.2-5.4.6-10.8,2.8-15.6,3-6.3.3-11.8-.4-13.7-6.7-1.7-5.7,1.5-9.5,4.4-12.9-3.9-.8-7.7-2.6-11.4-6.2-4.2-4.1-5.7-11.1-5.8-18.8-.6.2-1.1.5-1.7.8-8.7,5-5.9,18.7-11.2,31.2,5.7,11,13.8,22.7,26.8,28.3,5.9-5.7,16.3-7.6,23.4-13.5h0Z" style="fill: #abb459;"/>
      <path d="m593.37,296.1c0,.2-.1.4-.1.6-.9,4.9-3.6,11-7.2,16.2-.8,1.1-1.8,2.2-2.8,3.4,10.9,2.2,22.4-3.4,32.2-.8.6-3.5.8-7.2.3-11.1-.4-3.5-1.1-7.1-2.1-10.5-4.7,5.2-12.3,4.3-20.3,2.2h0Z" style="fill: #aa8358;"/>
      <path d="m593.27,296.6c0-.2.1-.4.1-.6-9.9-2.6-20.4-7.2-27.3-4.9.1,7.8,1.7,14.8,5.8,18.8,3.6,3.6,7.4,5.4,11.4,6.2,1-1.2,2-2.3,2.8-3.4,3.6-5,6.3-11.2,7.2-16.1h0Z" style="fill: #be8642;"/>
      <path d="m510.97,155.5c-.2-.1-.4-.2-.5-.2-4.6-1.9-9.9-5.9-14.2-10.6-.9-1-1.7-2.2-2.6-3.5-4.6,10.1-1.7,22.6-6.5,31.7,3.3,1.4,6.9,2.3,10.8,2.8,3.5.4,7.1.5,10.7.3-4.2-5.8-1.7-13.1,2.3-20.5h0Z" style="fill: #aa9298;"/>
      <path d="m666.57,106.2c-6.3-5.5-12.8-9.5-19.4-6.7-2.8,15.6-.7,31.8,4.4,41.5,5.6-9.9,8.2-25,15-34.8h0Z" style="fill: #bf9272;"/>
      <path d="m548.07,162.3c-10.8-3.3-26.1-2.4-37.2-6.8-3.9,7.4-6.5,14.6-2.4,20.4,15.9-.7,31.4-6.4,39.6-13.6Z" style="fill: #bf6d73;"/>
      <path d="m635.37,150.4c7.8.8,12.6-3.3,16.2-9.5-5.1-9.6-7.2-25.9-4.4-41.5-.3.1-.5.2-.8.4-6.7,3.4-10.9,16.9-12.9,25.7-1.9,8.2-2.5,15.6-4.9,22.7,1.9,1.2,4.1,1.9,6.8,2.2Z" style="fill: #cc755b;"/>
      <path d="m468.17,274.6c-.6-1.5-1.1-3.1-1.5-4.6-2.8-.3-5.7.1-8.6,1.7-1.4.8-2.7,1.8-3.7,2.9,4.4,8.7,10.8,17.3,19.2,24.3,7.9,6.6,18.8,14,25.1,8.8,1.2-1,2.2-2.5,2.9-4.3-15-5.4-28.4-16.5-33.4-28.8Z" style="fill: #8083ae;"/>
      <path d="m564.37,291.9c.5-.3,1.1-.5,1.7-.8-.1-8.7,1.6-18.2,3.7-25.8.7-2.5,1.6-5.3,2.7-8.3-7.6,4.6-11.4,14-16,20.8-4.2,6.2-7.6,12.8-12.2,18,.5,6.3,3,14.3,5.8,20.6,1,2.1,2,4.4,3.2,6.6,5.2-12.3,2.4-26.1,11.1-31.1h0Z" style="fill: #a08682;"/>
      <path d="m591.77,258.4c-.8,11.2,3.4,26,1.5,37.7,8.1,2.2,15.6,3,20.3-2.3-4.1-15.2-13-28.9-21.8-35.4Z" style="fill: #a06283;"/>
      <path d="m593.37,296.1c1.9-11.7-2.3-26.5-1.6-37.7-3.6-2.7-7.2-4.1-10.4-3.9-3.5.2-6.5,1.2-9,2.7-1.1,3-2.1,5.8-2.7,8.3-2,7.5-3.8,17.1-3.7,25.8,7-2.5,17.5,2.1,27.4,4.8h0Z" style="fill: #b26b69;"/>
      <path d="m487.87,207.3c1.2-1.1,2.4-2,3.5-2.7,8-4.8,21.5-5.7,34.3-7.5,10.6-1.4,30.3-2.3,34.6-14-7.4-.7-14.8.3-23.2.3-9,0-23.1-1-27.9-6.7-.2-.3-.4-.5-.6-.8-3.6.2-7.2.1-10.7-.3-3.9-.4-7.5-1.4-10.8-2.8,0,0,0,.1-.1.1-4.8,8.8-14.7,14.9-22.7,22,7.5,9.3,15.3,12,23.6,12.4Z" style="fill: #9f6eaf;"/>
      <path d="m689.07,122.4c-7.2-.9-14.7-9.6-22.5-16.3-6.8,9.8-9.4,24.9-15,34.7,2.1,3.9,4.7,6.8,7.6,8,3.3,1.4,6.4,1.7,9.4,1.4,2.3-2.2,4.3-4.3,6-6.2,5.1-5.8,10.8-13.7,14.5-21.6h0Z" style="fill: #b2768f;"/>
      <path d="m560.97,175.9c-.9-7.8-6-11.5-12.8-13.6-8.3,7.1-23.7,12.8-39.6,13.6.2.3.4.5.6.8,4.8,5.8,18.9,6.8,27.9,6.7,8.4,0,15.8-1.1,23.2-.3.7-2.1,1-4.4.7-7.2Z" style="fill: #b4588f;"/>
      <path d="m615.57,166.3c3,7.4,9.6,13.2,18,15.7,4-7,12.3-12.4,20.5-18.9,4.7-3.8,10-8.4,14.5-12.7-3,.3-6.1-.1-9.4-1.4-2.9-1.2-5.5-4-7.6-8-3.6,6.2-8.3,10.3-16.2,9.5-2.7-.3-5-1.1-6.8-2.2-.4,1.2-.9,2.4-1.4,3.6-2.7,6.1-6.8,11-11.6,14.4h0Z" style="fill: #bf6176;"/>
      <path d="m772.97,254c.2-7-1.7-14.4-5.2-20.8-5,6.8-11.8,12.8-21.2,17.2-2.5,1.1-5.1,2-7.8,2.8.2.8.3,1.5.5,2.3,1,5.2,1,10.8.3,16.5,1.9.3,3.6.9,4.9,1.9,6.5,4.9,1.6,17.3-3.1,26.4-5,9.8-12.1,18-19.6,24.3,3.4,2.1,7.4,2.5,11.7,1,8.2-2.9,15.7-7.3,22.4-13,9.7-15.5,16.5-34.9,17.1-58.6h0Z" style="fill: #9fcc3b;"/>
      <path d="m708.87,263.2c-.1.1-.2.1-.2.2,4.7,5.2,7.5,11.2,9,16.6.7-1,1.4-2,2.2-2.9,3-3.3,12.9-6.2,19.9-5.1.7-5.6.6-11.2-.3-16.5-.1-.8-.3-1.6-.5-2.3-10.5,2.9-22,4.1-30.1,10h0Z" style="fill: #bcc532;"/>
      <path d="m718.87,310.9c-1.4,1-2.8,1.9-4.3,2.6.3,2.8,1.3,5.6,3.6,8.1,1.1,1.2,2.3,2.2,3.6,3,7.5-6.2,14.6-14.4,19.6-24.3,4.7-9.1,9.6-21.5,3.1-26.4-1.3-1-3-1.6-4.9-1.9-1.9,15.6-9.8,31.2-20.7,38.9h0Z" style="fill: #bc932e;"/>
      <path d="m719.77,277c-.8.9-1.5,1.9-2.2,2.9.7,2.5,1,4.9,1,7,.2,9.2-4.9,18.5-4,26.6,1.5-.8,2.9-1.6,4.3-2.6,10.9-7.6,18.8-23.3,20.7-38.9-6.9-1.2-16.8,1.7-19.8,5h0Z" style="fill: #cc952b;"/>
      <path d="m750.07,217.7c-.9-.2-1.8-.4-2.7-.6-1.9,1.6-3.8,3.1-5.6,4.5-5.6,4.2-12.8,8.5-18.8,10.3,7.2,3.9,13.1,9.8,15.8,21.3,2.7-.8,5.3-1.7,7.8-2.8,9.4-4.4,16.2-10.4,21.2-17.2-4-7.6-10.2-13.6-17.7-15.5h0Z" style="fill: #bca35e;"/>
      <path d="m722.97,231.9c-1.5.5-3,.8-4.4.9-9.2.9-21.8-4.2-34.1-8.1-10.1-3.3-28.4-11.1-37.3-2.3,6.4,3.9,13.4,6.1,21,9.8,8.1,3.9,20.3,10.9,22.2,18.2.1.3.1.6.2.9,3.3,1.4,6.5,3,9.5,4.9,3.3,2,6.1,4.5,8.5,7.1l.2-.2c8.1-5.9,19.7-7.1,30-10-2.7-11.4-8.6-17.3-15.8-21.2h0Z" style="fill: #cea046;"/>
      <path d="m714.67,213.3c-.4-.5-.8-.9-1.1-1.5-8.4,2-18.2,2.5-26,2.2-2.5-.1-5.5-.4-8.6-.8,6.2,6.3,16.1,7.9,23.7,10.8,7,2.7,14.1,4.5,20.3,7.8,6-1.9,13.3-6.1,18.8-10.3,1.8-1.4,3.7-2.9,5.6-4.5-13.3-2.1-26,3.6-32.7-3.7h0Z" style="fill: #cd7b47;"/>
      <path d="m678.97,213.3c-6.2-.8-13.1-2.1-18.9-3.4-10.2-2.3-19.6-5.4-27.5-4.2,2.2,5.4,6,10.4,11.5,14.6,1,.8,2.1,1.5,3.2,2.1,8.9-8.8,27.1-1,37.3,2.3,12.3,4,24.8,9,34.1,8.1,1.3-.1,2.8-.5,4.4-.9-6.2-3.3-13.3-5.2-20.3-7.8-7.6-2.9-17.6-4.5-23.8-10.8h0Z" style="fill: #d77f37;"/>
      <path d="m483.37,254.9c3.4-4.9,8.3-4.8,12.8-4.6-1.8-3.5-2.7-7.6-2.2-12.6.6-5.8,5.1-11.4,11.1-16.4-.5-.3-1.1-.6-1.6-.8-9.3-3.6-18.3,7.1-31.4,10.8-5.1,11.3-9.2,24.9-5.5,38.6,8.1.9,16.1,7.9,25,9.8,2,.4,4.4.6,7,.5-3.8-3.9-9-6.7-12.1-10.4-4-4.7-6.9-9.5-3.1-14.9h0Z" style="fill: #929374;"/>
      <path d="m505.07,221.4c-6,4.9-10.5,10.5-11.1,16.4-.5,5,.4,9.1,2.2,12.6,1.5.1,3,.2,4.4.1,6.3-.4,12.8-2.1,17.2-4.5.2-.1.3-.2.5-.3-4.1-9.4-7.1-20.4-13.2-24.3h0Z" style="fill: #ac9458;"/>
      <path d="m675.77,194.1c11.2-1.8,24.6-9.2,36.5-10,.3-8.4-.5-16-6.8-19.4-13.9,7.6-25.3,19.4-29.7,29.4h0Z" style="fill: #ae6f58;"/>
      <path d="m675.77,194.1c4.4-10,15.8-21.8,29.7-29.4-.2-.1-.5-.3-.8-.4-6.8-3.1-20,2.1-28.1,6-7.6,3.7-13.8,7.8-20.8,10.4.2,2.1,1,4.4,2.5,6.7,4.3,6.7,10.4,7.8,17.5,6.7h0Z" style="fill: #be7746;"/>
      <path d="m503.47,220.5c.6.2,1.1.5,1.6.8,6.7-5.5,15.3-10.1,22.4-13.3,2.3-1,5.1-2.1,8.2-3.1-8.3-3.1-18.1-.1-26.2.5-7.4.6-14.7,2-21.7,1.7-4.6,4.3-9.3,11.2-12.5,17.5-1.1,2.1-2.2,4.3-3.2,6.6,13-3.6,22.1-14.3,31.4-10.7Z" style="fill: #ae7b88;"/>
      <path d="m505.07,221.4c6.1,3.9,9.1,15,13.1,24.3,10.4-5.9,19.3-18.4,28.6-24.8-.2-4.5-1.2-8.1-3.4-10.5-2.3-2.6-4.9-4.3-7.7-5.3-3,1-5.9,2-8.2,3.1-7.1,3-15.7,7.7-22.4,13.2h0Z" style="fill: #be806d;"/>
      <path d="m713.57,211.9c-3.8-6.2-1.7-17.5-1.2-27.7-11.9.8-25.3,8.2-36.5,10-1.8,4.1-2.4,7.9-1.5,10.9,1,3.4,2.6,6.1,4.7,8.2,3.1.4,6.1.7,8.6.8,7.7.3,17.4-.2,25.9-2.2h0Z" style="fill: #bf616c;"/>
      <path d="m633.57,181.9c-4,7-4.4,15.8-1,23.9,7.9-1.3,17.3,1.9,27.5,4.2,5.8,1.3,12.7,2.6,18.9,3.4-2.1-2.1-3.7-4.8-4.7-8.2-.9-3.1-.3-6.8,1.5-10.9-7.1,1.1-13.2-.1-17.5-6.7-1.5-2.3-2.3-4.5-2.5-6.7-1.2.4-2.4.8-3.7,1.2-6.5,1.6-12.9,1.4-18.5-.2h0Z" style="fill: #c96a5b;"/>
      <path d="m615.47,315.4c-1.2,6.9-4.1,12.9-7.4,17.4,1.2-.1,2.4-.2,3.6-.1,4.4.3,12.8,6.1,16.3,12.3,4.8-2.9,9.1-6.5,12.5-10.5.6-.6,1.1-1.3,1.6-1.9-8.7-6.2-16.8-14.4-26.4-17.1,0-.1-.1-.1-.2-.1h0Z" style="fill: #72c275;"/>
      <path d="m611.67,332.6c-1.2-.1-2.4,0-3.6.1-1.6,2.1-3.2,3.9-4.8,5.2-7.1,5.9-17.5,7.8-23.3,13.5,1.5.6,3,1.2,4.6,1.7,12.8,3.8,30,.1,43.5-8.2-3.6-6.1-12-12-16.4-12.3h0Z" style="fill: #8dc057;"/>
      <path d="m648.77,306.8c-1.3-.9-2.4-1.8-3.3-2.7-6.4-6.7-10.3-19.6-14.8-31.7-3.7-10-9-29.1-21.4-30.6.9,7.4,3.6,14.3,5.4,22.5,2,8.8,4.1,22.7-.5,28.7-.2.3-.4.5-.6.7.9,3.4,1.7,7,2.1,10.5.5,3.9.3,7.6-.3,11.1.1,0,.2,0,.3.1,9.6,2.6,17.7,10.9,26.4,17.1,7.3-9.3,8.2-17.6,6.7-25.7h0Z" style="fill: #8d9a57;"/>
      <path d="m636.17,260.8c-3.2-5.3-6.4-11.5-9-16.8-4.5-9.3-7.9-18.7-13.8-24.1-2.8,5.1-4.4,11.2-4.2,18.1,0,1.3.2,2.6.3,3.8,12.4,1.5,17.6,20.6,21.4,30.6,4.5,12.1,8.4,25,14.8,31.7.9.9,2,1.9,3.3,2.7-1.2-6.8-4.2-13.6-6.4-20.6-2.6-7.8-7.6-16.6-6.4-25.4h0Z" style="fill: #a39945;"/>
      <path d="m521.77,130c-7.5-1.6-14.7-1.6-19.6,1.6-4.3,2.8-6.9,6.1-8.6,9.7.9,1.2,1.7,2.5,2.6,3.5,4.2,4.7,9.6,8.7,14.2,10.6.2.1.4.2.5.2,4.9-9.1,11.8-18.4,10.9-25.6Z" style="fill: #8da687;"/>
      <path d="m649.17,246.4c10.6-2.8,26.9-1.2,41.4,4.9-.1-.3-.1-.6-.2-.9-1.8-7.3-14.1-14.3-22.2-18.2-7.6-3.7-14.7-5.9-21-9.8-1.5,1.5-2.8,3.5-3.7,6.1-2.5,7.5.4,13.1,5.7,17.9h0Z" style="fill: #a4a26c;"/>
      <path d="m521.77,130c.8,7.2-6,16.5-10.8,25.6,11,4.4,26.4,3.6,37.2,6.8,3.4-2.9,5.6-6.1,6.1-9.2.6-3.5.3-6.7-.6-9.5-2.6-1.7-5.2-3.3-7.4-4.4-7-3.7-16-7.5-24.5-9.3h0Z" style="fill: #a5856d;"/>
      <path d="m632.57,205.8c-7.9,1.3-15,6.5-19.3,14.1,5.9,5.4,9.3,14.7,13.8,24.1,2.6,5.3,5.9,11.5,9,16.8.4-2.9,1.5-5.8,3.5-8.7,1.9-2.6,5.3-4.5,9.6-5.7-5.3-4.8-8.2-10.4-5.6-17.9.9-2.6,2.2-4.6,3.7-6.1-1.1-.7-2.1-1.4-3.2-2.1-5.5-4.1-9.3-9.2-11.5-14.5h0Z" style="fill: #b2875a;"/>
      <path d="m500.97,282.9c-.7-.9-1.4-1.8-2.2-2.7-2.6.1-5-.1-7-.5-9-1.9-16.9-8.8-25-9.8.4,1.5.9,3.1,1.5,4.6,5,12.3,18.5,23.4,33.3,28.8,2.5-6.6,1.9-16.8-.6-20.4h0Z" style="fill: #6f9a97;"/>
      <path d="m572.37,257.1c2.2-5.8,5-12.2,7.5-17.6,4.5-9.4,9.7-17.9,10.2-25.9-5.7,1-11.5,3.6-16.8,8-1,.8-1.9,1.7-2.8,2.6,6.5,10.6-5.2,26.6-10.7,35.8-6.7,11.1-14.4,22.2-15.6,31.4-.2,1.3-.2,2.8-.1,4.5,4.6-5.3,8.1-11.8,12.2-18,4.7-6.8,8.5-16.2,16.1-20.8h0Z" style="fill: #8b997a;"/>
      <path d="m591.77,258.4c8.8,6.5,17.7,20.2,21.9,35.4.2-.2.4-.5.6-.7,4.6-6,2.4-19.9.5-28.7-1.9-8.2-4.5-15.1-5.4-22.5-2.1-.3-4.5,0-7.1.9-7.4,2.7-10,8.4-10.5,15.6h0Z" style="fill: #8c7b79;"/>
      <path d="m613.27,219.9c-5.9-5.4-14.4-7.7-23.1-6.2-.5,8-5.8,16.5-10.2,25.9-2.6,5.4-5.4,11.8-7.5,17.6,2.5-1.5,5.5-2.5,9-2.7,3.2-.2,6.8,1.3,10.4,3.9.5-7.2,3-12.9,10.5-15.6,2.6-.9,4.9-1.2,7.1-.9-.2-1.2-.3-2.5-.3-3.8-.4-7,1.2-13.1,4.1-18.2h0Z" style="fill: #9f8065;"/>
      <path d="m535.67,205c5.9-1.9,12.6-3.8,18.4-5.1,10.1-2.4,20-3.6,26.6-8.2-4.3-3.9-10-6.8-16.7-8.1-1.3-.2-2.5-.4-3.8-.5-4.3,11.7-24.1,12.6-34.6,14-12.8,1.7-26.3,2.7-34.3,7.5-1.2.7-2.3,1.6-3.5,2.7,7,.3,14.3-1.1,21.7-1.7,8.2-.7,17.9-3.6,26.2-.6h0Z" style="fill: #8c869f;"/>
      <path d="m590.17,213.6c.5-8-2.9-16.1-9.4-21.9-6.6,4.6-16.5,5.8-26.6,8.2-5.8,1.4-12.5,3.2-18.4,5.1,2.8,1,5.4,2.7,7.7,5.3,2.1,2.4,3.2,6.1,3.4,10.5,5.9-4.1,12-5.7,18.7-1.6,2.3,1.5,4,3.1,5.1,5,.9-.9,1.8-1.8,2.8-2.6,5.2-4.4,11-7,16.7-8Z" style="fill: #9e8884;"/>
      <path d="m580.77,191.7c6.6-4.6,10.8-12.3,11.3-21.1-7.7-2.3-14.8-9.2-22.9-15.7-4.7-3.7-10.3-7.9-15.5-11.3.9,2.8,1.3,5.9.6,9.5-.6,3.1-2.7,6.3-6.1,9.2,6.9,2.1,11.9,5.8,12.8,13.6.3,2.8,0,5.1-.7,7.1,1.3.1,2.5.3,3.8.5,6.7,1.4,12.3,4.4,16.7,8.2h0Z" style="fill: #9e8884;"/>
      <path d="m613.27,219.9c4.3-7.7,11.4-12.9,19.3-14.1-3.3-8.1-2.9-16.9,1-23.9-8.4-2.4-15-8.2-18-15.7-7.2,5.1-15.8,6.7-23.5,4.4h0c-.5,8.8-4.7,16.5-11.3,21.1,6.5,5.9,10,13.9,9.4,21.9,8.7-1.4,17.1.9,23.1,6.3Z" style="fill: #ac7572;"/>
    </g>
  </g>
  <g>
    <g>
      <path d="m329.2,75.19c.71,3.21.44,7.19-1.59,10.89,4.12,5.21,7.35,10.66,9.59,15.88,3.39,7.93,6.42,17.51,7.01,27.85,5.72,3.11,11.04,7.45,15.23,12.06,5.99,6.59,8.87,15.87,15.6,21.61,1.9-5.33,2.36-13.36,1.49-19.38-3.52-24.4-17.73-48.14-32.66-67-15.54-19.63-34.6-36.72-55.74-43.92-1.06.23-2.12.38-3.19.46.47,1.12.73,2.17.72,3.13,13.03,12.22,40.03,22.67,43.54,38.41Z" style="fill: none; fill-rule: evenodd; stroke: #000; stroke-width: .56px;"/>
      <path d="m186.84,12.05c2.95,1.46,5.88,4.17,7.48,8.08,7.25-.02,14.08.97,19.98,2.69,8.54,2.48,18.18,6.39,26.75,12.84,6.18-2.52,13.1-3.88,19.49-4.15,8.16-.35,16.37,2.77,24.4,2.15-2.23-5.3-9.3-11.94-15.38-15.51C248.3,5.66,220.89,1.93,196.84,1.81c-25.04-.12-50.28,4.1-69.11,16.11-.42.85-.9,1.65-1.41,2.43,1.34.34,2.47.83,3.29,1.51,17.69-2.48,42.77-16.96,57.23-9.81Z" style="fill: none; fill-rule: evenodd; stroke: #000; stroke-width: .56px;"/>
      <path d="m260.54,31.51c-6.39.27-13.32,1.63-19.49,4.15,7.96,6,14.99,14.19,19.31,25.52.72,1.88,1.28,3.82,1.75,5.79,5.21-.57,10.7-.26,16.14.79.41-1.89,1.1-3.54,2.15-4.76,5.26-6.13,17.2-.61,25.98,4.53,8.55,5,15.69,11.57,21.22,18.56,2.04-3.7,2.31-7.68,1.59-10.89-3.5-15.75-30.5-26.19-43.54-38.41.01-.95-.25-2.01-.72-3.13-8.03.62-16.24-2.49-24.4-2.15Z" style="fill: none; fill-rule: evenodd; stroke: #000; stroke-width: .56px;"/>
      <path d="m47.69,84.2c2.99-1.41,6.97-2.02,11.06-.8,3.02-3.42,6.2-6.41,9.4-8.88,8.21-6.34,18.86-12.76,31.36-15.4,1.67-7.38,5.34-14.77,9.68-20.7,4.91-6.7,12.64-11.21,17.14-18.07-5.58-1.41-14.89-.08-21.32,2.36-23.06,8.72-43.16,27.73-58.34,46.39-15.8,19.42-28.36,41.73-30.81,63.92.5,1.08.9,2.18,1.23,3.3.91-.62,1.8-1.04,2.66-1.22,9.07-15.39,13.35-44.03,27.95-50.89Z" style="fill: none; fill-rule: evenodd; stroke: #000; stroke-width: .56px;"/>
      <path d="m293.32,118.56c4.12-.53,8.43-1.53,10.73-6.45,2.77-5.9-.85-10.07-5.68-14.04-4.18-3.44-10.67-5.48-15.21-9.47-4.75.95-10.1,2.99-14.98,6.41.51,1.13,1.08,2.22,1.74,3.28,5.19,8.33,16.74,12.03,23.39,20.28Z" style="fill: none; fill-rule: evenodd; stroke: #000; stroke-width: .56px;"/>
      <path d="m109.18,38.41c-4.35,5.93-8.01,13.32-9.68,20.7,8.19-1.73,17.16-1.84,26.77.77,3.1.84,6.08,2.09,9.02,3.49.54-1.06,1.13-2.13,1.8-3.24,3.21-5.29,7.66-10.13,12.81-14.24-.9-1.28-1.52-2.6-1.75-3.92-1.39-7.96,10.44-13.68,19.99-17.21,8.73-3.22,17.74-4.62,26.19-4.64-1.6-3.92-4.53-6.62-7.48-8.08-14.46-7.15-39.53,7.32-57.23,9.81-.82-.68-1.95-1.17-3.29-1.51-4.5,6.85-12.23,11.36-17.14,18.07Z" style="fill: none; fill-rule: evenodd; stroke: #000; stroke-width: .56px;"/>
      <path d="m283.16,88.6c-.35-.31-.69-.62-1.01-.95-3.07-3.14-5.39-13.05-3.9-19.9-5.44-1.05-10.93-1.36-16.14-.79,2.22,9.4,2.26,19.59,6.08,28.04,4.88-3.42,10.23-5.45,14.98-6.41Z" style="fill: none; fill-rule: evenodd; stroke: #000; stroke-width: .56px;"/>
      <path d="m38.44,289.17c-6.14-16.78-25.55-38.26-21.59-53.9.82-3.23,2.9-6.73,6.49-9.12-.54-3.72-.77-7.33-.71-10.71.18-10.47,1.85-22.94,7.74-34.44-4.77-5.96-8.27-13.52-10.18-20.69-2.08-7.79-.87-16.37-3.1-24-4.75,3.22-9.81,11.75-12,18.57-7.53,23.48-5.17,51.04-.01,74.53,5.36,24.46,15.01,48.17,30.85,63.9.58.14,1.16.31,1.72.49-.06-1.85.17-3.46.79-4.64Z" style="fill: none; fill-rule: evenodd; stroke: #000; stroke-width: .56px;"/>
      <path d="m316.72,93.59c5.3,10.74,5.06,22.43,3.01,33.06,7.65-3.13,16.46-1.2,24.47,3.16-.59-10.34-3.62-19.93-7.01-27.85-2.23-5.22-5.47-10.67-9.59-15.88-.78,1.41-1.81,2.79-3.15,4.06-2.38,2.25-4.97,3.24-7.73,3.45Z" style="fill: none; fill-rule: evenodd; stroke: #000; stroke-width: .56px;"/>
      <path d="m198.97,67.77c2.33-3.64,4.6-7.75,2.15-12.9-2.8-5.88-8.33-5.73-14.46-4.52-5.68,1.12-11.81,5.31-18.23,5.91-2.5,4.79-4.43,11.03-4.51,17.79,11.22-.34,22.5-9.71,35.05-6.28Z" style="fill: none; fill-rule: evenodd; stroke: #000; stroke-width: .56px;"/>
      <path d="m314.93,90.34c.66,1.07,1.25,2.16,1.79,3.25,2.76-.21,5.36-1.2,7.73-3.45,1.34-1.27,2.37-2.65,3.15-4.06-5.53-6.99-12.68-13.56-21.22-18.56-8.78-5.14-20.72-10.65-25.98-4.53-1.05,1.22-1.74,2.87-2.15,4.76,15.15,2.91,29.87,11.51,36.68,22.59Z" style="fill: none; fill-rule: evenodd; stroke: #000; stroke-width: .56px;"/>
      <path d="m30.36,181.01c3.76-7.35,9.24-14.3,17.16-20.08,2.89-2.11,6.09-3.8,9.39-5.34-.69-1.43-1.33-2.98-1.92-4.66-1.23-3.49-2.04-7.22-2.49-11.07-2.95.52-5.75.44-7.84-.58-7.25-3.56-4.9-16.5-2.13-26.29,3.28-11.58,9.31-21.73,16.22-29.58-4.09-1.21-8.07-.61-11.06.8-14.6,6.87-18.88,35.5-27.95,50.89-.86.18-1.75.61-2.66,1.22,2.23,7.63,1.02,16.21,3.1,24,1.91,7.17,5.41,14.74,10.18,20.69Z" style="fill: none; fill-rule: evenodd; stroke: #000; stroke-width: .56px;"/>
      <path d="m304.05,112.11c-2.31,4.92-6.62,5.92-10.73,6.45,2.75,3.41,4.66,7.58,4.94,13.19.2,3.98-1.41,8.12-4.09,12.18,7.76-2.47,14.42-12.64,25.46-17.24.03-.01.07-.03.11-.04,2.05-10.63,2.29-22.33-3.01-33.06-8.03.62-17.41-5.32-26.56-5.64-2.04-.07-4.43.13-7,.65,4.54,3.99,11.03,6.03,15.21,9.47,4.83,3.97,8.44,8.14,5.68,14.04Z" style="fill: none; fill-rule: evenodd; stroke: #000; stroke-width: .56px;"/>
      <path d="m163.92,74.05c.08-6.77,2.01-13,4.51-17.79-.04,0-.08.01-.11.01-4.58.4-14.34-4.54-18.42-10.37-5.15,4.11-9.6,8.95-12.81,14.24-.67,1.1-1.26,2.18-1.8,3.24,8.84,4.23,17.21,9.94,26.6,10.63.67.05,1.35.06,2.02.04Z" style="fill: none; fill-rule: evenodd; stroke: #000; stroke-width: .56px;"/>
      <path d="m282.15,87.65c.32.33.66.64,1.01.95,2.57-.52,4.96-.72,7-.65,9.15.32,18.53,6.26,26.56,5.64-.54-1.09-1.13-2.18-1.79-3.25-6.81-11.08-21.52-19.68-36.68-22.59-1.48,6.85.83,16.76,3.9,19.9Z" style="fill: none; fill-rule: evenodd; stroke: #000; stroke-width: .56px;"/>
      <path d="m123.53,359.22c-2.11-2.54-3.69-6.22-3.55-10.47-7.31-3.12-13.73-7.16-18.77-11.53-7.34-6.34-15.17-14.76-20.31-25.41-7.14-.24-14.59-2.13-20.91-4.89-7.93-3.46-14.21-10.44-22.34-13.11.2,5.73,3.28,13.83,6.78,19.24,13.36,20.72,36.17,36.39,57.59,47.31,22.3,11.38,46.75,18.97,68.96,16.71,2.29-1.73,4.86-2.93,7.54-3.9-17.29-4.44-44.94-1.85-54.99-13.95Z" style="fill: none; fill-rule: evenodd; stroke: #000; stroke-width: .56px;"/>
      <path d="m126.33,337.1c-12.49-9.42-17.35-24.6-19.91-37.63-1.14,1.74-2.42,3.44-3.91,5.02-5.26,5.6-13.24,7.6-21.62,7.33,5.14,10.65,12.97,19.07,20.31,25.41,5.05,4.36,11.46,8.41,18.77,11.53.05-1.6.34-3.27.95-5,1.1-3.13,3-5.21,5.41-6.66Z" style="fill: none; fill-rule: evenodd; stroke: #000; stroke-width: .56px;"/>
      <path d="m193.2,33.51c12.78,3.07,22.3,12.02,29.53,21.24.18-.8.39-1.61.64-2.41,2.42-7.8,9.36-13.29,17.67-16.68-8.56-6.45-18.21-10.35-26.75-12.84-5.9-1.72-12.73-2.7-19.98-2.69.61,1.49,1.03,3.15,1.18,4.99.27,3.36-.65,6.05-2.3,8.38Z" style="fill: none; fill-rule: evenodd; stroke: #000; stroke-width: .56px;"/>
      <path d="m223.38,52.34c-.25.8-.46,1.61-.64,2.41,2.11,2.69,4.04,5.41,5.78,8.01,3.76,5.59,7.86,11.8,9.64,17.36,4.53-6.54,11.16-11.54,23.16-13.07.26-.03.52-.05.79-.08-.47-1.97-1.03-3.91-1.75-5.79-4.32-11.33-11.34-19.52-19.31-25.52-8.31,3.39-15.25,8.88-17.67,16.68Z" style="fill: none; fill-rule: evenodd; stroke: #000; stroke-width: .56px;"/>
      <path d="m86.28,104.05c-6.4-1.2-9.54,3.35-12.17,9.02-1.66,3.57-2.29,8.13-3.56,12.42,2.14,5.09,5.89,10.74,11.32,15.19,5.99-7.67,6.56-19.73,13.33-27.9-1.54-3.84-3.6-7.74-8.92-8.73Z" style="fill: none; fill-rule: evenodd; stroke: #000; stroke-width: .56px;"/>
      <path d="m272.14,126.4c3.87-2.98,9.86-5.67,15.86-7.08,1.59-.37,3.43-.52,5.31-.76-6.65-8.25-18.2-11.94-23.39-20.28-.66-1.06-1.23-2.15-1.74-3.28-3.52,2.47-6.8,5.65-9.41,9.66-1.24,1.9-2.38,4.1-3.45,6.48,6.89.6,11.99,7.73,16.83,15.24Z" style="fill: none; fill-rule: evenodd; stroke: #000; stroke-width: .56px;"/>
      <path d="m188.69,32.69c1.55.19,3.05.47,4.52.82,1.65-2.33,2.58-5.02,2.3-8.38-.15-1.84-.57-3.5-1.18-4.99-8.45.02-17.46,1.41-26.19,4.64-9.54,3.52-21.38,9.25-19.99,17.21.23,1.32.86,2.64,1.75,3.92,11.52-9.2,26.5-14.71,38.79-13.22Z" style="fill: none; fill-rule: evenodd; stroke: #000; stroke-width: .56px;"/>
      <path d="m238.16,80.12c.52,1.63.85,3.21.9,4.69.32,9.2-6.09,22.91-10.73,34.86-3.54,9.1-11.28,24.84-6.01,34.52,4.35-6.37,6.79-13.57,10.8-21.3,4.12-7.94,11.45-19.88,18.73-21.5,1.21-.27,2.36-.33,3.47-.24,1.07-2.38,2.22-4.59,3.45-6.48,2.62-4.02,5.89-7.2,9.41-9.66-3.82-8.45-3.85-18.64-6.08-28.04-.26.03-.53.05-.79.08-11.99,1.53-18.62,6.52-23.16,13.07Z" style="fill: none; fill-rule: evenodd; stroke: #000; stroke-width: .56px;"/>
      <path d="m80.9,311.82c-3.95-8.2-6.31-17.72-5.59-28.64.11-1.7.34-3.39.65-5.08-4.74-1.65-9.37-4.12-13.68-7.16-1.12,1.48-2.38,2.65-3.79,3.31-7.31,3.44-15.95-6.48-21.85-14.76-7.48-10.49-11.73-22.42-13.31-33.32-3.59,2.39-5.67,5.88-6.49,9.12-3.96,15.64,15.45,37.12,21.59,53.9-.62,1.19-.85,2.79-.79,4.64,8.13,2.68,14.41,9.66,22.34,13.11,6.32,2.76,13.77,4.65,20.91,4.89Z" style="fill: none; fill-rule: evenodd; stroke: #000; stroke-width: .56px;"/>
      <path d="m102.51,304.49c1.49-1.58,2.77-3.28,3.91-5.02-.25-1.28-.48-2.55-.7-3.78-1.11-6.46-2.29-13.59-1.75-19.31-6.73,4-14.75,5.76-26.15,2.33-.63-.19-1.25-.39-1.87-.61-.31,1.69-.54,3.38-.65,5.08-.72,10.92,1.64,20.44,5.59,28.64,8.38.28,16.35-1.73,21.62-7.33Z" style="fill: none; fill-rule: evenodd; stroke: #000; stroke-width: .56px;"/>
      <path d="m201.12,54.87c2.45,5.14.18,9.25-2.15,12.9,2.18.6,4.4,1.58,6.66,3.06,4.98,3.26,7.88,10,9.46,17.74.76-.36,1.47-.79,2.1-1.32,7.62-6.35,2.54-19.37,5.55-32.5-7.23-9.22-16.75-18.18-29.53-21.24-4.62,6.52-14.98,10.1-20.91,16.95-1.32,1.53-2.66,3.5-3.86,5.8,6.42-.6,12.54-4.79,18.23-5.91,6.13-1.21,11.65-1.36,14.46,4.52Z" style="fill: none; fill-rule: evenodd; stroke: #000; stroke-width: .56px;"/>
      <path d="m217.19,87.25c-.63.53-1.34.96-2.1,1.32,1.68,8.27,1.84,17.69,1.35,25.25-.21,3.26-.77,7.23-1.51,11.39,7.42-5.6,9.62-15.98,13.1-23.66,3.36-7.43,5.79-15.14,10.14-21.42-1.78-5.56-5.88-11.77-9.64-17.36-1.75-2.6-3.67-5.31-5.78-8.01-3.01,13.13,2.07,26.14-5.55,32.5Z" style="fill: none; fill-rule: evenodd; stroke: #000; stroke-width: .56px;"/>
      <path d="m80.81,141.94c.37-.4.72-.83,1.06-1.26-5.43-4.45-9.18-10.1-11.32-15.19-.61,2.07-1.37,4.08-2.45,5.89-1.99,3.29-9.14,7.32-15.59,8.47.44,3.85,1.26,7.58,2.49,11.07.59,1.68,1.23,3.23,1.92,4.66,8.55-4,17.74-7,23.9-13.64Z" style="fill: none; fill-rule: evenodd; stroke: #000; stroke-width: .56px;"/>
      <path d="m288.86,144.31c1.86.34,3.61.16,5.31-.38,2.68-4.06,4.29-8.2,4.09-12.18-.28-5.61-2.2-9.78-4.94-13.19-1.88.24-3.72.39-5.31.76-6,1.41-11.99,4.09-15.86,7.08,5.24,8.14,10.16,16.72,16.71,17.91Z" style="fill: none; fill-rule: evenodd; stroke: #000; stroke-width: .56px;"/>
      <path d="m168.32,56.27s.08-.01.11-.01c1.2-2.3,2.53-4.27,3.86-5.8,5.93-6.86,16.29-10.43,20.91-16.95-1.46-.35-2.97-.63-4.52-.82-12.29-1.49-27.27,4.02-38.79,13.22,4.08,5.83,13.84,10.77,18.42,10.37Z" style="fill: none; fill-rule: evenodd; stroke: #000; stroke-width: .56px;"/>
      <path d="m214.93,125.2c-.95,5.29-2.2,10.9-3.43,15.76-2.45,9.68-5.73,18.62-5.01,26.35,5.15-2.08,10.06-5.64,14.11-10.76.61-.77,1.18-1.56,1.73-2.36-5.28-9.68,2.47-25.42,6.01-34.52,4.64-11.94,11.05-25.66,10.73-34.86-.05-1.49-.38-3.06-.9-4.69-4.35,6.28-6.78,13.99-10.14,21.42-3.47,7.68-5.67,18.06-13.1,23.66Z" style="fill: none; fill-rule: evenodd; stroke: #000; stroke-width: .56px;"/>
      <path d="m325.82,315.13c-14.58,10.33-30.2,34.71-46.33,35-3.3.06-7.16-1.01-10.39-3.77-6.97,3.74-14.11,6.21-20.64,7.42-9.96,1.85-22.03,2.71-34.07-.38-4.78,5.67-11.23,10.47-17.63,13.73-5.68,2.9-12.27,3.89-18.24,6.05.43.11.86.22,1.28.34,2.44,4.92,14.31,8.75,22.83,9.23,24.61,1.4,50.71-7.8,72.16-18.67,22.33-11.32,42.87-26.61,54.13-45.89-.02-1.06.05-2.11.18-3.15-1.21.25-2.32.3-3.27.09Z" style="fill: none; fill-rule: evenodd; stroke: #000; stroke-width: .56px;"/>
      <path d="m241.87,307.39c-.38,4.12-.33,8.52,3.95,11.84,5.15,3.99,10.02,1.37,14.95-2.47,4.6-3.58,8.2-10.13,13.71-13.55.31-.19.67-.37,1.06-.53.06-4.74-.79-10.29-3.03-15.7-1.63.29-3.24.69-4.82,1.26-9.59,3.45-15.72,14.66-25.82,19.14Z" style="fill: none; fill-rule: evenodd; stroke: #000; stroke-width: .56px;"/>
      <path d="m265.79,342.5c-1.62-2.59-2.11-5.15-1.89-7.72-15.65,4.89-30.97-.83-43.14-7.32.49,1.69.88,3.44,1.11,5.25.95,7.35-2.28,14.53-7.48,20.68,12.04,3.09,24.11,2.23,34.07.38,6.53-1.21,13.67-3.68,20.64-7.42-1.21-1.04-2.34-2.31-3.31-3.86Z" style="fill: none; fill-rule: evenodd; stroke: #000; stroke-width: .56px;"/>
      <path d="m260.77,316.76c-4.93,3.84-9.8,6.46-14.95,2.47-4.28-3.32-4.33-7.72-3.95-11.84-3.65,1.62-7.81,2.36-12.84,1.54-5.67-.92-10.9-5.59-15.38-11.71-.26.38-.48.77-.68,1.18-3.98,8.31,4.39,17.28,7.8,29.06,12.16,6.49,27.49,12.21,43.14,7.32.69-8.18,8.69-16.35,10.88-25.45.46-1.9.73-4.16.76-6.65-.39.16-.75.34-1.06.53-5.52,3.41-9.11,9.97-13.71,13.55Z" style="fill: none; fill-rule: evenodd; stroke: #000; stroke-width: .56px;"/>
      <path d="m68.28,92.04c10.09-8.56,22.82-10.75,34.56-10.76-.2-.27-.4-.55-.59-.83-4.07-6.01-4.48-13.66-2.75-21.33-12.5,2.64-23.15,9.06-31.36,15.4-3.2,2.47-6.38,5.46-9.4,8.88,1.52.45,3.06,1.15,4.57,2.16,2.62,1.75,4.13,3.97,4.96,6.49Z" style="fill: none; fill-rule: evenodd; stroke: #000; stroke-width: .56px;"/>
      <path d="m239.11,285.5c1.92,4.41,3.13,10.57,3.19,16.49.02,1.65-.25,3.49-.43,5.4,10.1-4.48,16.23-15.69,25.82-19.14,1.57-.57,3.18-.97,4.82-1.26-1.72-4.15-4.26-8.21-7.84-11.75-2.87-2.83-6.74-5.58-10.92-8.16.51,1.48.77,2.92.71,4.26-.36,7.55-7.23,11.29-15.34,14.16Z" style="fill: none; fill-rule: evenodd; stroke: #000; stroke-width: .56px;"/>
      <path d="m102.25,80.45c.19.28.39.56.59.83,4.25,0,8.37.27,12.2.64,5.86.56,12.26,1.22,17.4,2.82-1.57-6.34-1.27-13.21,2.85-21.35-2.94-1.41-5.93-2.65-9.02-3.49-9.6-2.61-18.58-2.5-26.77-.77-1.74,7.67-1.32,15.33,2.75,21.33Z" style="fill: none; fill-rule: evenodd; stroke: #000; stroke-width: .56px;"/>
      <path d="m213.65,297.22c4.48,6.11,9.71,10.78,15.38,11.71,5.03.82,9.2.08,12.84-1.54.18-1.9.44-3.75.43-5.4-.06-5.92-1.27-12.08-3.19-16.49-9.78,3.46-21.35,5.64-25.47,11.72Z" style="fill: none; fill-rule: evenodd; stroke: #000; stroke-width: .56px;"/>
      <path d="m57.01,219.74c-4.94,4.25-3.34,9.54-.57,15.14,1.46,2.93,3.89,5.74,6.15,8.72,5.33,1.7,12.26,2.51,19.37,1.14-1.52-9.12-9.61-16.92-12.45-26.48-3.99-1.21-8.36-2.09-12.5,1.47Z" style="fill: none; fill-rule: evenodd; stroke: #000; stroke-width: .56px;"/>
      <path d="m91.26,219.93c-4.69.97-10.9.92-16.66-.2-1.59-.31-3.3-.92-5.09-1.46,2.84,9.56,10.93,17.36,12.45,26.48,3.7-.71,7.45-2.02,11.04-4.11,2.13-1.24,4.32-2.84,6.52-4.66-5.3-2.63-7.24-8.9-8.26-16.05Z" style="fill: none; fill-rule: evenodd; stroke: #000; stroke-width: .56px;"/>
      <path d="m191.91,88.5c.17-4.87,1.89-11.16,4.6-16.65.65-1.31,1.56-2.66,2.46-4.08-12.55-3.43-23.84,5.94-35.05,6.28-.04,3.67.45,7.5,1.7,11.34.81,2.47,2,5.11,3.42,7.8,4.4-6.27,13.5-5.81,22.87-4.68Z" style="fill: none; fill-rule: evenodd; stroke: #000; stroke-width: .56px;"/>
      <path d="m199.3,128.49c-.11-11.68-7.68-26.91-7.4-39.67,0-.11,0-.22.01-.32-9.37-1.13-18.47-1.59-22.87,4.68,3.72,7.04,9.03,14.43,13.17,20.24,4.04,5.67,9.36,13.03,17.08,15.06Z" style="fill: none; fill-rule: evenodd; stroke: #000; stroke-width: .56px;"/>
      <path d="m66.52,93.62c.58-.55,1.16-1.07,1.76-1.57-.83-2.52-2.35-4.73-4.96-6.49-1.51-1.01-3.04-1.71-4.57-2.16-6.91,7.85-12.94,18-16.22,29.58-2.77,9.79-5.12,22.73,2.13,26.29,2.09,1.03,4.89,1.11,7.84.58-1.96-16.98,3.46-36.15,14.02-46.23Z" style="fill: none; fill-rule: evenodd; stroke: #000; stroke-width: .56px;"/>
      <path d="m116.93,218.53c3.93-4.31,8.83-9.73,10.54-16.07-10.98,3.55-23.28,14.26-35.28,17.25-.3.08-.61.15-.93.21,1.02,7.15,2.97,13.43,8.26,16.05,6.23-5.16,12.5-12.07,17.41-17.45Z" style="fill: none; fill-rule: evenodd; stroke: #000; stroke-width: .56px;"/>
      <path d="m132.44,84.73c2.47.77,4.65,1.74,6.33,3.03,7.31,5.59,13.84,19.25,20.13,30.42,4.85,8.62,12.22,24.9,23.28,26.63-2.09-7.49-6.08-14.01-9.47-22.09-3.46-8.25-7.93-21.53-4.5-28.15.26-.49.54-.95.84-1.38-1.42-2.69-2.62-5.32-3.42-7.8-1.25-3.84-1.75-7.66-1.7-11.34-.67.02-1.35,0-2.02-.04-9.4-.69-17.77-6.4-26.6-10.63-4.12,8.14-4.42,15.01-2.85,21.35Z" style="fill: none; fill-rule: evenodd; stroke: #000; stroke-width: .56px;"/>
      <path d="m191.31,142.97c6.1-3.31,8.05-8.41,7.99-14.48-7.72-2.04-13.04-9.4-17.08-15.06-4.15-5.81-9.45-13.2-13.17-20.24-.3.43-.58.89-.84,1.38-3.43,6.62,1.04,19.9,4.5,28.15,3.39,8.08,7.38,14.61,9.47,22.09,2.8.44,5.83-.06,9.13-1.84Z" style="fill: none; fill-rule: evenodd; stroke: #000; stroke-width: .56px;"/>
      <path d="m214.4,353.4c-8.36-2.15-16.71-6.19-24.32-13.14-1.27-1.16-2.46-2.41-3.59-3.72-5.05,3.18-10.91,5.51-17.04,6.97.21,1.37.19,2.68-.11,3.85-2.05,7.81-15.19,8.09-25.34,7.32-8.59-.65-16.75-2.83-24.02-5.93-.14,4.25,1.44,7.93,3.55,10.47,10.06,12.11,37.7,9.52,54.99,13.95,5.97-2.16,12.56-3.15,18.24-6.05,6.4-3.27,12.85-8.07,17.63-13.73Z" style="fill: none; fill-rule: evenodd; stroke: #000; stroke-width: .56px;"/>
      <path d="m129.76,339.43c-1.21-.73-2.35-1.51-3.43-2.33-2.4,1.45-4.31,3.53-5.41,6.66-.61,1.73-.89,3.4-.95,5,7.27,3.1,15.43,5.28,24.02,5.93,10.14.77,23.29.49,25.34-7.32.31-1.17.32-2.48.11-3.85-13.98,3.34-29.36,2.13-39.68-4.09Z" style="fill: none; fill-rule: evenodd; stroke: #000; stroke-width: .56px;"/>
      <path d="m221.87,332.71c-.23-1.81-.62-3.56-1.11-5.25-1.62-.87-3.2-1.75-4.7-2.62-4.76-2.75-9.9-5.78-13.83-9.09-1.44,6.97-5.26,13.6-14.15,19.74-.52.36-1.05.71-1.59,1.05,1.13,1.31,2.32,2.56,3.59,3.72,7.61,6.95,15.96,11,24.32,13.14,5.2-6.16,8.43-13.33,7.48-20.68Z" style="fill: none; fill-rule: evenodd; stroke: #000; stroke-width: .56px;"/>
      <path d="m212.97,298.4c.2-.41.42-.8.68-1.18-5.12-6.98-9.26-15.85-11.96-23.18-.38-1.04-.76-2.18-1.14-3.38-.48,6.36.96,13.06,1.27,18.89.47,9.05,2.14,17.87.42,26.19,3.93,3.31,9.07,6.34,13.83,9.09,1.51.87,3.08,1.75,4.7,2.62-3.41-11.79-11.77-20.76-7.8-29.06Z" style="fill: none; fill-rule: evenodd; stroke: #000; stroke-width: .56px;"/>
      <path d="m86.28,104.05c5.32,1,7.38,4.89,8.92,8.73,2.47-2.98,5.76-5.44,10.45-6.98,5.64-1.85,12.71.08,19.72,3.68.19-.8.29-1.6.27-2.41-.21-10.28-14.52-14.38-22.81-25.8-11.75.01-24.47,2.2-34.56,10.76,2.56,7.73-1.3,18.34.41,27.45.34,1.81.96,3.85,1.86,5.99,1.27-4.3,1.9-8.86,3.56-12.42,2.64-5.67,5.77-10.22,12.17-9.02Z" style="fill: none; fill-rule: evenodd; stroke: #000; stroke-width: .56px;"/>
      <path d="m214.28,252.59c5.33,10.41,18.99,20.62,24.5,32.17.11.24.23.49.34.74,8.11-2.87,14.98-6.6,15.34-14.16.06-1.34-.2-2.78-.71-4.26-5.57-3.44-11.69-6.55-16.71-9.12-6.37-3.27-14.77-7.51-22.76-5.37Z" style="fill: none; fill-rule: evenodd; stroke: #000; stroke-width: .56px;"/>
      <path d="m125.65,107.08c.02.8-.08,1.61-.27,2.41,7.52,3.86,14.99,9.63,20.59,14.74,2.36,2.15,5.04,4.99,7.76,8.09.07-9.16-6.57-17.24-10.37-24.65-4-7.81-8.94-14.96-10.92-22.94-5.14-1.59-11.54-2.26-17.4-2.82-3.82-.36-7.95-.64-12.2-.64,8.28,11.42,22.6,15.52,22.81,25.8Z" style="fill: none; fill-rule: evenodd; stroke: #000; stroke-width: .56px;"/>
      <path d="m213.65,297.22c4.11-6.08,15.69-8.27,25.47-11.72-.11-.25-.22-.5-.34-.74-5.51-11.55-19.17-21.77-24.5-32.17-2.27.61-4.5,1.72-6.65,3.52-4.93,4.13-6.68,9.22-7.08,14.56.38,1.2.76,2.34,1.14,3.38,2.71,7.33,6.85,16.2,11.96,23.18Z" style="fill: none; fill-rule: evenodd; stroke: #000; stroke-width: .56px;"/>
      <path d="m82.06,245.46c-.03-.24-.07-.47-.11-.71-7.1,1.37-14.04.56-19.37-1.14,1.76,2.32,3.41,4.75,4.39,7.42,1.53,4.16-.46,14.3-4.7,19.91,4.31,3.05,8.94,5.51,13.68,7.16,2.02-11.05,7.49-21.84,6.11-32.64Z" style="fill: none; fill-rule: evenodd; stroke: #000; stroke-width: .56px;"/>
      <path d="m103.98,276.38c.18-1.89.54-3.62,1.15-5.13,3.47-8.52,14.94-18.41,24.06-27.41,7.54-7.44,22.79-19.96,19.07-31.82-7.09,3.67-12.69,9.12-20.02,14.3-7.31,5.16-19.3,12.4-26.51,10.49-.8-.21-1.53-.49-2.21-.83-2.2,1.82-4.39,3.43-6.52,4.66-3.59,2.09-7.34,3.39-11.04,4.11.04.23.07.47.11.71,1.38,10.8-4.08,21.59-6.11,32.64.62.22,1.25.42,1.87.61,11.4,3.43,19.41,1.67,26.15-2.33Z" style="fill: none; fill-rule: evenodd; stroke: #000; stroke-width: .56px;"/>
      <path d="m215.09,88.56c-1.57-7.74-4.48-14.48-9.46-17.74-2.26-1.48-4.48-2.46-6.66-3.06-.91,1.42-1.82,2.77-2.46,4.08-2.7,5.5-4.42,11.78-4.6,16.65,8.68,1.05,17.58,2.67,23.18.06Z" style="fill: none; fill-rule: evenodd; stroke: #000; stroke-width: .56px;"/>
      <path d="m215.09,88.56c-5.6,2.61-14.5.99-23.18-.06,0,.11-.01.22-.01.32-.28,12.76,7.29,27.99,7.4,39.67,2.47.65,5.19.76,8.19.09,2.96-.66,5.4-1.84,7.44-3.38.74-4.16,1.3-8.13,1.51-11.39.49-7.56.33-16.98-1.35-25.25Z" style="fill: none; fill-rule: evenodd; stroke: #000; stroke-width: .56px;"/>
      <path d="m68.09,131.38c1.09-1.81,1.84-3.82,2.45-5.89-.9-2.14-1.52-4.18-1.86-5.99-1.71-9.12,2.15-19.73-.41-27.45-.59.5-1.18,1.02-1.76,1.57-10.55,10.08-15.97,29.25-14.02,46.23,6.45-1.14,13.6-5.17,15.59-8.47Z" style="fill: none; fill-rule: evenodd; stroke: #000; stroke-width: .56px;"/>
      <path d="m127.47,202.47c-1.71,6.33-6.61,11.76-10.54,16.07-4.91,5.38-11.18,12.29-17.41,17.45.68.34,1.42.62,2.21.83,7.21,1.91,19.2-5.33,26.51-10.49,7.33-5.18,12.93-10.63,20.02-14.3-.63-2.02-1.81-4.02-3.68-5.97-5.08-5.31-10.88-5.6-17.11-3.58Z" style="fill: none; fill-rule: evenodd; stroke: #000; stroke-width: .56px;"/>
      <path d="m153.73,132.32c3.6,4.1,7.27,8.66,10.35,12.73,6.15,8.12,11.15,16.44,17.83,20.64,1.83-5.39,2.31-11.61.94-18.2-.19-.91-.42-1.8-.66-2.68-11.07-1.73-18.43-18.01-23.28-26.63-6.28-11.17-12.81-24.82-20.13-30.42-1.69-1.29-3.87-2.27-6.33-3.03,1.98,7.98,6.91,15.13,10.92,22.94,3.8,7.41,10.44,15.49,10.37,24.65Z" style="fill: none; fill-rule: evenodd; stroke: #000; stroke-width: .56px;"/>
      <path d="m181.91,165.69c.09.06.18.13.28.18,7,4.25,15.96,4.8,24.3,1.43-.71-7.73,2.56-16.67,5.01-26.35,1.23-4.86,2.48-10.47,3.43-15.76-2.04,1.54-4.47,2.72-7.44,3.38-3,.67-5.72.56-8.19-.09.06,6.06-1.89,11.17-7.99,14.48-3.29,1.78-6.33,2.28-9.13,1.84.25.88.47,1.77.66,2.68,1.37,6.59.89,12.81-.94,18.2Z" style="fill: none; fill-rule: evenodd; stroke: #000; stroke-width: .56px;"/>
      <path d="m375.81,164.14c-.27-.21-.52-.43-.78-.65-.77,2.15-1.77,3.87-3.01,4.83-1.41,17.81,7.3,45.42-2.82,57.99-2.06,2.56-5.33,4.83-9.49,5.55-1.51,6.64-3.81,12.71-6.57,17.82-4.04,7.5-9.57,15.72-17.15,22.57,1.11,6.36,1.03,13.14.06,19.23-1.29,8.09-6,15.53-6.97,23.55,5.63-1.16,13.51-6.74,18.2-11.96,16.48-18.34,25.6-44.46,30.51-68,5.11-24.51,6.02-50.09-2-70.93Z" style="fill: none; fill-rule: evenodd; stroke: #000; stroke-width: .56px;"/>
      <path d="m359.43,141.88c-4.19-4.61-9.51-8.95-15.23-12.06.59,10.24-1.22,21.22-7.42,32.08-1.13,1.97-2.44,3.84-3.85,5.65.05.05.11.1.16.15,4.15,3.99,7.69,8.96,10.48,14.41,1.61-.75,3.22-1.18,4.72-1.12,8.07.3,11.19,13.08,12.63,23.15,1.38,9.64.74,19.16-1.21,27.73,4.16-.72,7.44-2.99,9.49-5.55,10.11-12.57,1.41-40.18,2.82-57.99,1.25-.97,2.25-2.68,3.01-4.83-6.73-5.74-9.61-15.02-15.6-21.61Z" style="fill: none; fill-rule: evenodd; stroke: #000; stroke-width: .56px;"/>
      <path d="m312.87,225.72c2.97,2.88,6.43,5.61,11.7,4.35,6.34-1.51,7.35-6.94,7.46-13.19.09-5.52-2.45-12.01-2.04-18.15-3.85-3.24-9.04-6.25-15.05-7.89-.28.65-.54,1.32-.77,2-3.35,9.88,1.92,21.98-1.3,32.88Z" style="fill: none; fill-rule: evenodd; stroke: #000; stroke-width: .56px;"/>
      <path d="m329.99,198.73c.02-.34.05-.69.09-1.03.55-4.44,7.09-12.63,13.49-15.6-2.8-5.45-6.33-10.41-10.48-14.41-.05-.05-.11-.1-.16-.15-6.13,7.84-14.22,14.52-17.98,23.3,6.01,1.64,11.19,4.66,15.05,7.89Z" style="fill: none; fill-rule: evenodd; stroke: #000; stroke-width: .56px;"/>
      <path d="m354.57,231.94c-3.3-.46-5.71-1.91-7.62-3.99-5.17,10.78-14.51,17.86-24.1,22.87.06.03.13.06.19.1,7.35,4.03,11.37,12.24,12.96,21.33,7.58-6.85,13.1-15.07,17.15-22.57,2.76-5.11,5.05-11.18,6.57-17.82-1.59.28-3.31.33-5.14.08Z" style="fill: none; fill-rule: evenodd; stroke: #000; stroke-width: .56px;"/>
      <path d="m360.92,204.13c-1.44-10.07-4.56-22.85-12.63-23.15-1.5-.06-3.1.37-4.72,1.12,6.92,13.49,9.28,29.93,5.01,41.95-.48,1.35-1.03,2.65-1.63,3.9,1.9,2.07,4.32,3.53,7.62,3.99,1.84.25,3.55.2,5.14-.08,1.95-8.57,2.59-18.09,1.21-27.73Z" style="fill: none; fill-rule: evenodd; stroke: #000; stroke-width: .56px;"/>
      <path d="m329.99,198.73c-.41,6.14,2.13,12.63,2.04,18.15-.1,6.25-1.12,11.68-7.46,13.19-5.27,1.25-8.73-1.47-11.7-4.35-1.06,3.59-3.05,7.05-6.58,10.26-3.36,3.05-8.37,4.43-14.06,4.73,6.34,5.81,19.38,4.07,30.61,10.12,9.59-5.01,18.94-12.1,24.1-22.87-5.42-5.91-6.66-16.86-12.09-24.16-1.22-1.64-2.87-3.38-4.87-5.06Z" style="fill: none; fill-rule: evenodd; stroke: #000; stroke-width: .56px;"/>
      <path d="m330.08,197.71c-.04.34-.07.68-.09,1.03,2,1.68,3.65,3.42,4.87,5.06,5.43,7.3,6.67,18.25,12.09,24.16.6-1.25,1.15-2.55,1.63-3.9,4.27-12.02,1.91-28.46-5.01-41.95-6.4,2.98-12.94,11.17-13.49,15.6Z" style="fill: none; fill-rule: evenodd; stroke: #000; stroke-width: .56px;"/>
      <path d="m38.26,225.45c1.61-13.26,9.49-24.59,17.06-33.47-2.2.23-4.45.3-6.76.11-7.16-.6-13.34-5-18.2-11.07-5.89,11.5-7.56,23.97-7.74,34.44-.06,3.39.17,6.99.71,10.71,1.29-.86,2.78-1.59,4.48-2.1,3.97-1.19,7.34-.41,10.45,1.39Z" style="fill: none; fill-rule: evenodd; stroke: #000; stroke-width: .56px;"/>
      <path d="m319.73,126.66c-.93,4.81-2.22,9.4-3.55,13.58-1.93,6.09-4.1,12.76-7.08,17.57,7.66-.4,15.44,1.73,23.83,9.73,1.41-1.81,2.72-3.68,3.85-5.65,6.21-10.86,8.01-21.84,7.42-32.08-8.01-4.36-16.82-6.29-24.47-3.16Z" style="fill: none; fill-rule: evenodd; stroke: #000; stroke-width: .56px;"/>
      <path d="m293.49,213.98c4.75,1.17,10.6,4.19,15.45,8.02,1.29,1.02,2.56,2.38,3.93,3.71,3.22-10.89-2.04-23,1.3-32.88.23-.68.49-1.34.77-2-3.94-1.08-8.23-1.56-12.74-1.12-2.25.22-4.67.7-7.19,1.34,3.84,5.82,1.36,14.37-1.52,22.92Z" style="fill: none; fill-rule: evenodd; stroke: #000; stroke-width: .56px;"/>
      <path d="m309.1,157.81c-1.09,1.75-2.28,3.27-3.61,4.41-7,5.97-21.73,9.49-33.96,13.3-9.28,2.88-26.29,6.59-30.69,16.63,7.67-.6,14.8-3.18,23.31-4.87,8.77-1.75,22.67-3.49,28.48,1.19.98.79,1.76,1.66,2.39,2.61,2.51-.65,4.94-1.13,7.19-1.34,4.51-.44,8.8.05,12.74,1.12,3.77-8.78,11.85-15.45,17.98-23.3-8.39-8-16.17-10.13-23.83-9.73Z" style="fill: none; fill-rule: evenodd; stroke: #000; stroke-width: .56px;"/>
      <path d="m48.56,192.08c2.31.19,4.56.12,6.76-.11.71-.83,1.42-1.65,2.12-2.43,5.78-6.52,12.43-13.88,18.71-15.74,1.09-.32,2.26-.56,3.52-.73-9.15-2.25-17.36-6.21-22.75-17.49-3.3,1.54-6.5,3.24-9.39,5.34-7.92,5.78-13.4,12.73-17.16,20.08,4.86,6.08,11.04,10.48,18.2,11.07Z" style="fill: none; fill-rule: evenodd; stroke: #000; stroke-width: .56px;"/>
      <path d="m294.17,143.93c-5.6,8.48-15.91,16.56-24.28,21.87-1.42.9-3.06,1.84-4.83,2.79,7-.39,14.02-3.58,20.28-5.2,8.14-2.11,15.89-5.18,23.76-5.59,2.98-4.81,5.16-11.49,7.08-17.57,1.32-4.18,2.62-8.77,3.55-13.58-.03.01-.07.03-.11.04-11.04,4.59-17.7,14.77-25.46,17.24Z" style="fill: none; fill-rule: evenodd; stroke: #000; stroke-width: .56px;"/>
      <path d="m293.49,213.98c-3.06,9.07-6.56,18.14-3.43,23.93.59,1.1,1.33,2.01,2.18,2.79,5.69-.3,10.7-1.68,14.06-4.73,3.53-3.21,5.51-6.67,6.58-10.26-1.37-1.33-2.64-2.69-3.93-3.71-4.85-3.83-10.7-6.85-15.45-8.02Z" style="fill: none; fill-rule: evenodd; stroke: #000; stroke-width: .56px;"/>
      <path d="m265.06,168.6c-6.01,3.24-13.6,6.63-20.02,9.21-8.81,3.54-17.52,6.08-23.37,10.73,4.63,2.38,10.11,3.76,16.18,3.73,1.01,0,2-.05,2.98-.13,4.4-10.04,21.41-13.74,30.69-16.63,12.23-3.8,26.96-7.32,33.96-13.3,1.33-1.14,2.52-2.65,3.61-4.41-7.87.41-15.61,3.48-23.76,5.59-6.25,1.62-13.28,4.81-20.28,5.2Z" style="fill: none; fill-rule: evenodd; stroke: #000; stroke-width: .56px;"/>
      <path d="m133.32,303.1c-3.46,2.28-6.86,5.06-6.78,10.48.1,6.51,5.18,8.68,11.26,10.13,5.67,1.36,13.03.07,19.14,2.25.36.13.74.31,1.13.53,3.78-2.95,7.64-7.15,10.47-12.37-1.17-1-2.4-1.91-3.72-2.71-8.82-5.38-21.63-2.98-31.51-8.32Z" style="fill: none; fill-rule: evenodd; stroke: #000; stroke-width: .56px;"/>
      <path d="m137.8,323.72c-6.08-1.46-11.16-3.62-11.26-10.13-.08-5.41,3.32-8.2,6.78-10.48-3.39-1.83-6.43-4.56-8.85-8.82-2.74-4.82-2.5-11.5-.73-18.53-.12.02-.24.04-.36.07-8.7,2.14-10.48,13.7-16.96,23.64,2.56,13.03,7.42,28.22,19.91,37.63,6.87-4.15,17.86-3.18,26.1-7.05,1.76-.83,3.69-2.02,5.65-3.54-.39-.22-.77-.4-1.13-.53-6.11-2.18-13.48-.9-19.14-2.25Z" style="fill: none; fill-rule: evenodd; stroke: #000; stroke-width: .56px;"/>
      <path d="m170.62,290.71c-6.39,4.75-14.08,1.24-21.84-3.59-2.22,4.29-6.33,9.16-10.97,12.94-1.28,1.04-2.88,1.98-4.48,3.04,9.88,5.33,22.69,2.94,31.51,8.32,1.32.8,2.55,1.72,3.72,2.71,2.11-3.9,3.66-8.35,4.17-13.29.37-3.56.2-7.68-.26-11.96-.57.71-1.18,1.33-1.85,1.83Z" style="fill: none; fill-rule: evenodd; stroke: #000; stroke-width: .56px;"/>
      <path d="m123.74,275.75c-1.77,7.04-2,13.72.73,18.53,2.42,4.26,5.47,6.99,8.85,8.82,1.6-1.05,3.2-1.99,4.48-3.04,4.64-3.79,8.75-8.65,10.97-12.94-8.9-5.54-17.88-12.82-25.04-11.37Z" style="fill: none; fill-rule: evenodd; stroke: #000; stroke-width: .56px;"/>
      <path d="m107.57,130.93c-3.7-3.05-7.55-7.95-10.29-13.16-.77-1.46-1.37-3.22-2.08-4.99-6.77,8.16-7.34,20.22-13.33,27.9,2.86,2.34,6.19,4.36,10,5.78,2.49.93,5.37,1.64,8.43,2.21-1.99-6.23,1.94-12.08,7.27-17.74Z" style="fill: none; fill-rule: evenodd; stroke: #000; stroke-width: .56px;"/>
      <path d="m246.09,157.36c8.91-7.53,15.87-22.97,25.87-30.83.06-.05.12-.09.18-.13-4.84-7.51-9.94-14.64-16.83-15.24-3.38,7.52-5.95,16.82-7.97,24.03-1.83,6.53-4.14,15-1.26,22.17Z" style="fill: none; fill-rule: evenodd; stroke: #000; stroke-width: .56px;"/>
      <path d="m144.1,148.46c-9.6-6.49-25.88-9.39-35.81-16.97-.24-.18-.48-.37-.71-.57-5.33,5.66-9.26,11.51-7.27,17.74,7.78,1.44,16.78,1.89,23.84,2.25,6.1.32,13.83.68,19.95-2.46Z" style="fill: none; fill-rule: evenodd; stroke: #000; stroke-width: .56px;"/>
      <path d="m229.75,160.44c6.46,2.63,11.67.86,16.34-3.09-2.89-7.17-.57-15.65,1.26-22.17,2.02-7.21,4.59-16.51,7.97-24.03-1.11-.1-2.26-.03-3.47.24-7.28,1.61-14.61,13.55-18.73,21.5-4.01,7.73-6.45,14.93-10.8,21.3,1.42,2.61,3.78,4.78,7.42,6.26Z" style="fill: none; fill-rule: evenodd; stroke: #000; stroke-width: .56px;"/>
      <path d="m38.31,235.64c-.47-3.51-.45-6.91-.05-10.19-3.11-1.8-6.49-2.58-10.45-1.39-1.7.51-3.18,1.23-4.48,2.1,1.58,10.9,5.82,22.83,13.31,33.32,5.91,8.28,14.54,18.2,21.85,14.76,1.4-.66,2.67-1.83,3.79-3.31-12.49-8.83-22.26-22.53-23.96-35.29Z" style="fill: none; fill-rule: evenodd; stroke: #000; stroke-width: .56px;"/>
      <path d="m123.38,275.82c.12-.03.24-.05.36-.07,2.16-8.6,6.61-17.73,10.74-24.64.67-1.11,1.43-2.3,2.27-3.54-5.5,3.6-9.98,9.15-14.49,13.16-6.19,5.51-11.61,11.68-18.29,15.65-.54,5.72.64,12.85,1.75,19.31.21,1.23.44,2.5.7,3.78,6.48-9.94,8.26-21.5,16.96-23.64Z" style="fill: none; fill-rule: evenodd; stroke: #000; stroke-width: .56px;"/>
      <path d="m158.89,247.33c-4.8,10.66-4.25,27.72-9.83,39.23-.09.19-.19.38-.29.57,7.76,4.83,15.46,8.34,21.84,3.59.67-.5,1.28-1.12,1.85-1.83-.75-7-2.29-14.41-3.51-20.41-1.43-7.03-3.37-16.25-10.06-21.15Z" style="fill: none; fill-rule: evenodd; stroke: #000; stroke-width: .56px;"/>
      <path d="m123.74,275.75c7.16-1.45,16.14,5.83,25.04,11.37.1-.19.2-.38.29-.57,5.58-11.51,5.03-28.57,9.83-39.23-1.88-1.38-4.14-2.42-6.88-2.97-6.05-1.22-10.97.4-15.26,3.21-.84,1.24-1.61,2.43-2.27,3.54-4.14,6.92-8.58,16.05-10.74,24.64Z" style="fill: none; fill-rule: evenodd; stroke: #000; stroke-width: .56px;"/>
      <path d="m79.66,173.07c8.94-1.22,21.76,1.07,32.92,2.38,10.47,1.23,29.67,5.28,36.67-4.87-7.3-3.21-15.05-4.16-23.67-6.62-8.6-2.45-21.77-7.25-24.8-14.06-.19-.42-.34-.83-.47-1.24-3.06-.57-5.94-1.28-8.43-2.21-3.81-1.42-7.14-3.44-10-5.78-.34.43-.69.86-1.06,1.26-6.16,6.64-15.36,9.64-23.9,13.64,5.39,11.28,13.6,15.24,22.75,17.49Z" style="fill: none; fill-rule: evenodd; stroke: #000; stroke-width: .56px;"/>
      <path d="m294.17,143.93c-1.7.54-3.45.72-5.31.38-6.55-1.2-11.48-9.78-16.71-17.91-.06.05-.12.09-.18.13-10.01,7.86-16.96,23.3-25.87,30.83,1.03,2.55,2.71,4.94,5.31,7.02,4.39,3.5,9.02,4.48,13.66,4.22,1.77-.95,3.4-1.89,4.83-2.79,8.37-5.31,18.67-13.39,24.28-21.87Z" style="fill: none; fill-rule: evenodd; stroke: #000; stroke-width: .56px;"/>
      <path d="m144.1,148.46c-6.13,3.14-13.85,2.78-19.95,2.46-7.06-.37-16.06-.82-23.84-2.25.13.41.28.83.47,1.24,3.03,6.81,16.2,11.61,24.8,14.06,8.63,2.46,16.37,3.4,23.67,6.62,1.23-1.78,2.08-3.99,2.45-6.72.96-7.15-2.31-11.82-7.6-15.4Z" style="fill: none; fill-rule: evenodd; stroke: #000; stroke-width: .56px;"/>
      <path d="m206.49,167.3c.02.27.04.54.08.8,1.1,8.47,6.69,16.1,15.11,20.43,5.84-4.65,14.56-7.19,23.37-10.73,6.42-2.58,14.01-5.96,20.02-9.21-4.64.26-9.27-.72-13.66-4.22-2.6-2.08-4.29-4.46-5.31-7.02-4.67,3.94-9.88,5.71-16.34,3.09-3.64-1.48-6-3.65-7.42-6.26-.54.8-1.11,1.59-1.73,2.36-4.06,5.12-8.97,8.68-14.11,10.76Z" style="fill: none; fill-rule: evenodd; stroke: #000; stroke-width: .56px;"/>
      <path d="m336,272.25c-7.69,6.95-17.49,12.49-30.01,14.42-2.17.33-4.38.47-6.6.5-.52,5.56-2.1,11.23-4.49,16.66,1.69.8,3.1,1.82,4.03,3.07,4.83,6.48-3.17,16.92-10.11,24.36-5.9,6.33-12.72,11.36-19.71,15.1,3.23,2.76,7.09,3.83,10.39,3.77,16.13-.29,31.75-24.66,46.33-35,.95.21,2.06.16,3.27-.09.97-8.02,5.68-15.46,6.97-23.55.97-6.09,1.05-12.88-.06-19.23Z" style="fill: none; fill-rule: evenodd; stroke: #000; stroke-width: .56px;"/>
      <path d="m272.51,286.99c2.24,5.4,3.09,10.96,3.03,15.7,4.38-1.79,13.53-1.62,19.36,1.15,2.38-5.42,3.97-11.1,4.49-16.66-9.04.11-18.33-1.69-26.88-.19Z" style="fill: none; fill-rule: evenodd; stroke: #000; stroke-width: .56px;"/>
      <path d="m265.05,334.41c-.38.13-.76.25-1.14.37-.22,2.56.27,5.12,1.89,7.72.97,1.55,2.1,2.82,3.31,3.86,6.99-3.75,13.81-8.77,19.71-15.1,6.93-7.44,14.93-17.88,10.11-24.36-.93-1.25-2.34-2.27-4.03-3.07-6.16,14.03-17.66,26.37-29.85,30.58Z" style="fill: none; fill-rule: evenodd; stroke: #000; stroke-width: .56px;"/>
      <path d="m275.54,302.68c-.03,2.49-.3,4.75-.76,6.65-2.19,9.11-10.18,17.27-10.88,25.45.38-.12.76-.24,1.14-.37,12.19-4.22,23.69-16.56,29.85-30.58-5.83-2.77-14.98-2.94-19.36-1.15Z" style="fill: none; fill-rule: evenodd; stroke: #000; stroke-width: .56px;"/>
      <path d="m323.04,250.93c-.06-.03-.13-.07-.19-.1-4.17,2.18-8.39,3.97-12.33,5.51-6.14,2.39-12.93,4.97-18.66,5.57,5.29,5.81,8.63,13.33,7.53,25.21,0,.02,0,.04,0,.05,2.22-.03,4.43-.17,6.6-.5,12.52-1.93,22.32-7.47,30.01-14.42-1.59-9.09-5.61-17.3-12.96-21.33Z" style="fill: none; fill-rule: evenodd; stroke: #000; stroke-width: .56px;"/>
      <path d="m291.86,261.91c-1.85.19-3.6.18-5.17-.11-9.05-1.7-21.02-10.96-31.66-18.1-8.67-5.82-23.69-18.01-34.53-12.59,5.07,6.13,11.55,10.46,18.13,16.52,5.39,4.97,12.81,12.72,15.11,19.46,4.17,2.57,8.04,5.32,10.92,8.16,3.59,3.54,6.12,7.6,7.84,11.75,8.54-1.5,17.84.3,26.88.19,0-.02,0-.04,0-.05,1.09-11.88-2.25-19.4-7.53-25.21Z" style="fill: none; fill-rule: evenodd; stroke: #000; stroke-width: .56px;"/>
      <path d="m261.98,235.66c-2.14-.7-4.56-1.65-7.11-2.75,4.61,6.17,12.38,9.96,18.07,14.23,6.61,4.96,13.72,9.03,18.93,14.76,5.73-.6,12.52-3.18,18.66-5.57,3.94-1.54,8.16-3.33,12.33-5.51-11.23-6.06-24.26-4.31-30.61-10.12-9.75.51-21.47-2.15-30.27-5.04Z" style="fill: none; fill-rule: evenodd; stroke: #000; stroke-width: .56px;"/>
      <path d="m272.93,247.14c-5.69-4.27-13.46-8.06-18.07-14.23-5.88-2.52-12.46-5.84-17.93-8.84-8.87-4.86-16.78-10.35-24.54-11.5.61,5.61,2.76,11.39,6.71,16.75.45.61.92,1.2,1.4,1.78,10.84-5.42,25.86,6.76,34.53,12.59,10.64,7.14,22.61,16.4,31.66,18.1,1.57.3,3.32.31,5.17.11-5.21-5.73-12.31-9.8-18.93-14.76Z" style="fill: none; fill-rule: evenodd; stroke: #000; stroke-width: .56px;"/>
      <path d="m57.01,219.74c4.14-3.57,8.51-2.69,12.5-1.47-1.34-4.51-1.51-9.42.73-15.04,2.07-5.2,7.54-9.22,14.24-12.25-.16-.14-.32-.28-.49-.41-7.01-5.42-17.01.2-28.66,1.4-7.57,8.88-15.45,20.21-17.06,33.47,6.52,3.76,11.89,12,19.19,16,1.45.8,3.19,1.54,5.14,2.16-2.25-2.98-4.69-5.79-6.15-8.72-2.78-5.6-4.37-10.89.57-15.14Z" style="fill: none; fill-rule: evenodd; stroke: #000; stroke-width: .56px;"/>
      <path d="m84.48,190.98c-6.7,3.03-12.16,7.04-14.24,12.25-2.24,5.62-2.07,10.53-.73,15.04,1.79.54,3.51,1.15,5.09,1.46,5.76,1.11,11.97,1.17,16.66.2-1.55-10.86-.97-23.75-6.78-28.94Z" style="fill: none; fill-rule: evenodd; stroke: #000; stroke-width: .56px;"/>
      <path d="m253.05,212.86c11.44,2.31,27.88-1.87,40.27,1.07.06.01.12.03.18.05,2.88-8.55,5.36-17.1,1.52-22.92-7.99,2.06-16.88,5.86-23.78,8.79-6.29,2.67-14.43,6.18-18.19,13.01Z" style="fill: none; fill-rule: evenodd; stroke: #000; stroke-width: .56px;"/>
      <path d="m240.49,202c1.96,6.68,6.58,9.66,12.55,10.86,3.76-6.83,11.91-10.34,18.19-13.01,6.9-2.93,15.79-6.73,23.78-8.79-.62-.94-1.41-1.82-2.39-2.61-5.81-4.67-19.71-2.93-28.48-1.19-8.51,1.7-15.64,4.28-23.31,4.87-1.21,2.77-1.47,6.02-.34,9.86Z" style="fill: none; fill-rule: evenodd; stroke: #000; stroke-width: .56px;"/>
      <path d="m83.98,190.57c.17.13.33.27.49.41,8.02-3.62,17.83-5.82,25.74-6.9,2.98-.41,6.6-.64,10.44-.76-7.02-5.33-17.08-5.38-24.96-7.09-5.42-1.18-10.88-1.9-16.04-3.17-1.25.17-2.43.41-3.52.73-6.28,1.86-12.93,9.21-18.71,15.74-.7.79-1.41,1.6-2.12,2.43,11.65-1.2,21.65-6.82,28.66-1.4Z" style="fill: none; fill-rule: evenodd; stroke: #000; stroke-width: .56px;"/>
      <path d="m84.48,190.98c5.81,5.2,5.23,18.08,6.78,28.94.32-.07.63-.14.93-.21,12-2.99,24.3-13.7,35.28-17.25.99-3.65.92-7.61-1.02-11.83-1.47-3.19-3.46-5.54-5.79-7.31-3.85.11-7.47.35-10.44.76-7.91,1.08-17.72,3.28-25.74,6.9Z" style="fill: none; fill-rule: evenodd; stroke: #000; stroke-width: .56px;"/>
      <path d="m290.06,237.91c-3.12-5.8.38-14.86,3.43-23.93-.06-.01-.12-.03-.18-.05-12.39-2.94-28.82,1.24-40.27-1.07-1.3,2.36-2.08,5.12-2.08,8.38,0,4.76,1.54,8.52,3.89,11.67,2.55,1.1,4.98,2.04,7.11,2.75,8.79,2.9,20.52,5.56,30.27,5.04-.85-.78-1.59-1.7-2.18-2.79Z" style="fill: none; fill-rule: evenodd; stroke: #000; stroke-width: .56px;"/>
      <path d="m221.68,188.54c-.51.41-1.01.83-1.48,1.27-5.87,5.57-8.76,13.95-7.8,22.77,7.75,1.16,15.67,6.64,24.54,11.5,5.47,3,12.05,6.31,17.93,8.84-2.35-3.15-3.88-6.91-3.89-11.67,0-3.26.78-6.02,2.08-8.38-5.98-1.2-10.59-4.18-12.55-10.86-1.13-3.85-.87-7.09.34-9.86-.99.08-1.98.12-2.98.13-6.07.03-11.55-1.36-16.18-3.73Z" style="fill: none; fill-rule: evenodd; stroke: #000; stroke-width: .56px;"/>
      <path d="m168.55,314.13c-2.83,5.22-6.69,9.42-10.47,12.37,4.4,2.49,10.39,10.51,11.37,17.01,6.13-1.46,11.99-3.8,17.04-6.97-6.31-7.27-10.9-16.39-17.94-22.41Z" style="fill: none; fill-rule: evenodd; stroke: #000; stroke-width: .56px;"/>
      <path d="m158.08,326.5c-1.95,1.52-3.88,2.72-5.65,3.54-8.25,3.87-19.23,2.9-26.1,7.05,1.09.82,2.23,1.6,3.43,2.33,10.32,6.22,25.7,7.43,39.68,4.09-.97-6.5-6.97-14.52-11.37-17.01Z" style="fill: none; fill-rule: evenodd; stroke: #000; stroke-width: .56px;"/>
      <path d="m202.23,315.75c-2.3-1.94-4.18-3.97-5.31-6.11-4.32-8.13-4.57-23.27-5.63-36.03-.85-10.22-.73-29.05-11.15-34.54-1.49,7.77-.73,15.48-1.24,24.37-.45,7.93-1.92,19.78-6.44,25.45.46,4.28.63,8.4.26,11.96-.51,4.93-2.06,9.39-4.17,13.29,7.04,6.02,11.63,15.14,17.94,22.41.54-.34,1.07-.69,1.59-1.05,8.89-6.13,12.71-12.76,14.15-19.74Z" style="fill: none; fill-rule: evenodd; stroke: #000; stroke-width: .56px;"/>
      <path d="m201.81,289.56c-.3-5.83-1.75-12.54-1.27-18.89-2.14-6.84-4.09-15.92-5.38-23.43-1.69-9.81-2.33-19.28-6.09-26.04-3.82,3.99-6.82,9.24-8.42,15.54-.2.78-.36,1.56-.51,2.34,10.42,5.49,10.3,24.32,11.15,34.54,1.06,12.77,1.31,27.9,5.63,36.03,1.13,2.14,3.01,4.17,5.31,6.11,1.72-8.33.05-17.14-.42-26.19Z" style="fill: none; fill-rule: evenodd; stroke: #000; stroke-width: .56px;"/>
      <path d="m125.38,109.49c-7.01-3.6-14.08-5.53-19.72-3.68-4.69,1.53-7.98,4-10.45,6.98.71,1.77,1.32,3.53,2.08,4.99,2.74,5.2,6.59,10.11,10.29,13.16,6.9-7.33,16.12-14.34,17.8-21.44Z" style="fill: none; fill-rule: evenodd; stroke: #000; stroke-width: .56px;"/>
      <path d="m214.93,236.14c-3.94,5.67-3.4,11.08-.66,16.45,8-2.14,16.39,2.11,22.76,5.37,5.02,2.57,11.13,5.69,16.71,9.12-2.3-6.74-9.72-14.49-15.11-19.46-6.58-6.06-13.06-10.39-18.13-16.52-2.02,1.01-3.9,2.64-5.57,5.03Z" style="fill: none; fill-rule: evenodd; stroke: #000; stroke-width: .56px;"/>
      <path d="m145.97,124.23c-5.6-5.11-13.07-10.89-20.59-14.74-1.68,7.1-10.9,14.11-17.8,21.44.24.2.48.39.71.57,9.93,7.58,26.22,10.48,35.81,16.97,3.09-1.58,5.78-4.06,7.64-7.89,1.38-2.85,1.96-5.6,1.98-8.26-2.72-3.1-5.4-5.93-7.76-8.09Z" style="fill: none; fill-rule: evenodd; stroke: #000; stroke-width: .56px;"/>
      <path d="m212.39,212.58c-.17-.03-.34-.06-.51-.08-8.15-1.01-16.58,2.17-22.82,8.69,3.76,6.77,4.4,16.24,6.09,26.04,1.29,7.51,3.24,16.59,5.38,23.43.4-5.34,2.15-10.43,7.08-14.56,2.15-1.8,4.38-2.92,6.65-3.52-2.75-5.36-3.28-10.78.66-16.45,1.66-2.4,3.54-4.02,5.57-5.03-.48-.58-.95-1.17-1.4-1.78-3.94-5.36-6.1-11.14-6.71-16.75Z" style="fill: none; fill-rule: evenodd; stroke: #000; stroke-width: .56px;"/>
      <path d="m66.98,251.02c-.98-2.67-2.63-5.09-4.39-7.42-1.95-.62-3.69-1.36-5.14-2.16-7.3-4-12.67-12.23-19.19-16-.4,3.28-.42,6.68.05,10.19,1.7,12.76,11.48,26.46,23.96,35.29,4.24-5.62,6.24-15.75,4.7-19.91Z" style="fill: none; fill-rule: evenodd; stroke: #000; stroke-width: .56px;"/>
      <path d="m136.75,247.57c3.97-5.85,9.63-12.81,14.51-18.36,6.62-7.52,13.64-13.99,16.52-21.22-5.55-.53-11.57.37-17.55,3.07-.67.3-1.32.63-1.97.96,3.72,11.85-11.54,24.38-19.07,31.82-9.12,9-20.58,18.89-24.06,27.41-.61,1.5-.98,3.24-1.15,5.13,6.68-3.97,12.1-10.14,18.29-15.65,4.51-4.01,8.98-9.56,14.49-13.16Z" style="fill: none; fill-rule: evenodd; stroke: #000; stroke-width: .56px;"/>
      <path d="m172.15,237.57c-6.89.46-10.78,4.26-13.25,9.75,6.69,4.9,8.63,14.12,10.06,21.15,1.22,6,2.76,13.41,3.51,20.41,4.52-5.67,5.99-17.52,6.44-25.45.5-8.89-.25-16.6,1.24-24.37-2.17-1.14-4.8-1.71-7.99-1.49Z" style="fill: none; fill-rule: evenodd; stroke: #000; stroke-width: .56px;"/>
      <path d="m189.07,221.19c-.14-.26-.28-.52-.43-.77-4.25-6.97-11.93-11.57-20.85-12.43-2.88,7.23-9.9,13.7-16.52,21.22-4.89,5.55-10.54,12.51-14.51,18.36,4.29-2.81,9.21-4.43,15.26-3.21,2.73.55,4.99,1.59,6.88,2.97,2.47-5.49,6.37-9.29,13.25-9.75,3.19-.22,5.82.35,7.99,1.49.15-.78.31-1.56.51-2.34,1.6-6.3,4.6-11.54,8.42-15.54Z" style="fill: none; fill-rule: evenodd; stroke: #000; stroke-width: .56px;"/>
      <path d="m120.66,183.33c5.66-.17,11.82-.06,17.14.19,9.97.47,19.37,1.91,26.8-.32-3.06-4.62-7.53-8.72-13.35-11.67-.66-.34-1.33-.64-2-.94-7,10.15-26.2,6.1-36.67,4.87-11.16-1.31-23.98-3.6-32.92-2.38,5.16,1.27,10.62,1.99,16.04,3.17,7.88,1.71,17.94,1.76,24.96,7.09Z" style="fill: none; fill-rule: evenodd; stroke: #000; stroke-width: .56px;"/>
      <path d="m167.79,207.99c.09-.23.19-.45.27-.68,2.77-7.71,1.52-16.61-3.45-24.11-7.43,2.23-16.84.8-26.8.32-5.33-.25-11.48-.36-17.14-.19,2.33,1.77,4.32,4.12,5.79,7.31,1.94,4.22,2.01,8.17,1.02,11.83,6.23-2.02,12.04-1.73,17.11,3.58,1.86,1.95,3.04,3.95,3.68,5.97.64-.33,1.3-.66,1.97-.96,5.98-2.69,12.01-3.6,17.55-3.07Z" style="fill: none; fill-rule: evenodd; stroke: #000; stroke-width: .56px;"/>
      <path d="m164.61,183.2c.26-.08.53-.15.78-.24,7.6-2.6,13.68-8.94,16.51-17.27-6.68-4.2-11.68-12.51-17.83-20.64-3.08-4.07-6.75-8.63-10.35-12.73-.02,2.66-.6,5.41-1.98,8.26-1.86,3.83-4.55,6.3-7.64,7.89,5.29,3.58,8.55,8.25,7.6,15.4-.37,2.74-1.22,4.95-2.45,6.72.67.3,1.34.6,2,.94,5.82,2.95,10.29,7.05,13.35,11.67Z" style="fill: none; fill-rule: evenodd; stroke: #000; stroke-width: .56px;"/>
      <path d="m220.2,189.81c.47-.44.97-.86,1.48-1.27-8.42-4.33-14.01-11.95-15.11-20.43-.03-.27-.05-.54-.08-.8-8.34,3.36-17.3,2.81-24.3-1.43-.09-.06-.19-.12-.28-.18-2.83,8.33-8.91,14.67-16.51,17.27-.26.09-.52.16-.78.24,4.97,7.5,6.22,16.4,3.45,24.11-.08.23-.18.45-.27.68,8.92.86,16.6,5.46,20.85,12.43.15.25.29.51.43.77,6.24-6.52,14.67-9.71,22.82-8.69.17.02.34.06.51.08-.96-8.82,1.93-17.2,7.8-22.77Z" style="fill: none; fill-rule: evenodd; stroke: #000; stroke-width: .56px;"/>
    </g>
    <text transform="translate(234.37 20.14)" style="fill: #231f20; font-family: UniversLTStd-Cn, &apos;Univers LT Std&apos;; font-size: 6.76px;"><tspan x="0" y="0">1</tspan></text>
    <text transform="translate(270.13 52.56)" style="fill: #231f20; font-family: UniversLTStd-Cn, &apos;Univers LT Std&apos;; font-size: 6.76px;"><tspan x="0" y="0">12</tspan></text>
    <text transform="translate(350.72 167.54)" style="fill: #231f20; font-family: UniversLTStd-Cn, &apos;Univers LT Std&apos;; font-size: 6.76px;"><tspan x="0" y="0">23</tspan></text>
    <text transform="translate(336.98 254.57)" style="fill: #231f20; font-family: UniversLTStd-Cn, &apos;Univers LT Std&apos;; font-size: 6.76px;"><tspan x="0" y="0">37</tspan></text>
    <text transform="translate(319.59 217.21)" style="fill: #231f20; font-family: UniversLTStd-Cn, &apos;Univers LT Std&apos;; font-size: 6.76px;"><tspan x="0" y="0">13</tspan></text>
    <text transform="translate(285.95 107.95)" style="fill: #231f20; font-family: UniversLTStd-Cn, &apos;Univers LT Std&apos;; font-size: 6.76px;"><tspan x="0" y="0">27</tspan></text>
    <text transform="translate(178.52 63.38)" style="fill: #231f20; font-family: UniversLTStd-Cn, &apos;Univers LT Std&apos;; font-size: 6.76px;"><tspan x="0" y="0">16</tspan></text>
    <text transform="translate(78.71 122.27)" style="fill: #231f20; font-family: UniversLTStd-Cn, &apos;Univers LT Std&apos;; font-size: 6.76px;"><tspan x="0" y="0">57</tspan></text>
    <text transform="translate(64.21 235.98)" style="fill: #231f20; font-family: UniversLTStd-Cn, &apos;Univers LT Std&apos;; font-size: 6.76px;"><tspan x="0" y="0">46</tspan></text>
    <text transform="translate(141.31 318.15)" style="fill: #231f20; font-family: UniversLTStd-Cn, &apos;Univers LT Std&apos;; font-size: 6.76px;"><tspan x="0" y="0">35</tspan></text>
    <text transform="translate(258.44 306.42)" style="fill: #231f20; font-family: UniversLTStd-Cn, &apos;Univers LT Std&apos;; font-size: 6.76px;"><tspan x="0" y="0">24</tspan></text>
    <text transform="translate(229.87 346.03)" style="fill: #231f20; font-family: UniversLTStd-Cn, &apos;Univers LT Std&apos;; font-size: 6.76px;"><tspan x="0" y="0">14</tspan></text>
    <text transform="translate(100.31 326.5)" style="fill: #231f20; font-family: UniversLTStd-Cn, &apos;Univers LT Std&apos;; font-size: 6.76px;"><tspan x="0" y="0">25</tspan></text>
    <text transform="translate(30.36 206.54)" style="fill: #231f20; font-family: UniversLTStd-Cn, &apos;Univers LT Std&apos;; font-size: 6.76px;"><tspan x="0" y="0">36</tspan></text>
    <text transform="translate(80.9 77.27)" style="fill: #231f20; font-family: UniversLTStd-Cn, &apos;Univers LT Std&apos;; font-size: 6.76px;"><tspan x="0" y="0">47</tspan></text>
    <text transform="translate(215.09 37.44)" style="fill: #231f20; font-family: UniversLTStd-Cn, &apos;Univers LT Std&apos;; font-size: 6.76px;"><tspan x="0" y="0">15</tspan></text>
    <text transform="translate(326.7 112.78)" style="fill: #231f20; font-family: UniversLTStd-Cn, &apos;Univers LT Std&apos;; font-size: 6.76px;"><tspan x="0" y="0">26</tspan></text>
    <text transform="translate(305.01 123.71)" style="fill: #231f20; font-family: UniversLTStd-Cn, &apos;Univers LT Std&apos;; font-size: 6.76px;"><tspan x="0" y="0">267</tspan></text>
    <text transform="translate(322.85 149.42)" style="fill: #231f20; font-family: UniversLTStd-Cn, &apos;Univers LT Std&apos;; font-size: 6.76px;"><tspan x="0" y="0">236</tspan></text>
    <text transform="translate(326.7 183.2)" style="fill: #231f20; font-family: UniversLTStd-Cn, &apos;Univers LT Std&apos;; font-size: 6.76px;"><tspan x="0" y="0">123</tspan></text>
    <text transform="translate(299.6 208.09)" style="fill: #231f20; font-family: UniversLTStd-Cn, &apos;Univers LT Std&apos;; font-size: 6.76px;"><tspan x="0" y="0">136</tspan></text>
    <text transform="translate(248.72 289.33)" style="fill: #231f20; font-family: UniversLTStd-Cn, &apos;Univers LT Std&apos;; font-size: 6.76px;"><tspan x="0" y="0">247</tspan></text>
    <text transform="translate(151.86 301.66)" style="fill: #231f20; font-family: UniversLTStd-Cn, &apos;Univers LT Std&apos;; font-size: 6.76px;"><tspan x="0" y="0">135</tspan></text>
    <text transform="translate(85.5 297.38)" style="fill: #231f20; font-family: UniversLTStd-Cn, &apos;Univers LT Std&apos;; font-size: 6.76px;"><tspan x="0" y="0">256</tspan></text>
    <text transform="translate(114.37 315.75)" style="fill: #231f20; font-family: UniversLTStd-Cn, &apos;Univers LT Std&apos;; font-size: 6.76px;"><tspan x="0" y="0">235</tspan></text>
    <text transform="translate(68.94 263.21)" style="fill: #231f20; font-family: UniversLTStd-Cn, &apos;Univers LT Std&apos;; font-size: 6.76px;"><tspan x="0" y="0">456</tspan></text>
    <text transform="translate(48.61 213.98)" style="fill: #231f20; font-family: UniversLTStd-Cn, &apos;Univers LT Std&apos;; font-size: 6.76px;"><tspan x="0" y="0">346</tspan></text>
    <text transform="translate(46.27 177.76)" style="fill: #231f20; font-family: UniversLTStd-Cn, &apos;Univers LT Std&apos;; font-size: 6.76px;"><tspan x="0" y="0">367</tspan></text>
    <text transform="translate(61.33 146.33)" style="fill: #231f20; font-family: UniversLTStd-Cn, &apos;Univers LT Std&apos;; font-size: 6.76px;"><tspan x="0" y="0">567</tspan></text>
    <text transform="translate(45.55 112.89)" style="fill: #231f20; font-family: UniversLTStd-Cn, &apos;Univers LT Std&apos;; font-size: 6.76px;"><tspan x="0" y="0">467</tspan></text>
    <text transform="translate(54.24 128.98)" style="fill: #231f20; font-family: UniversLTStd-Cn, &apos;Univers LT Std&apos;; font-size: 6.76px;"><tspan x="0" y="0">4567</tspan></text>
    <text transform="translate(77.7 161.69)" style="fill: #231f20; font-family: UniversLTStd-Cn, &apos;Univers LT Std&apos;; font-size: 6.76px;"><tspan x="0" y="0">3567</tspan></text>
    <text transform="translate(103.08 117.58)" style="fill: #231f20; font-family: UniversLTStd-Cn, &apos;Univers LT Std&apos;; font-size: 6.76px;"><tspan x="0" y="0">3457</tspan></text>
    <text transform="translate(128.1 108.77)" style="fill: #231f20; font-family: UniversLTStd-Cn, &apos;Univers LT Std&apos;; font-size: 6.76px;"><tspan x="0" y="0">1457</tspan></text>
    <text transform="translate(147.31 88.6)" style="fill: #231f20; font-family: UniversLTStd-Cn, &apos;Univers LT Std&apos;; font-size: 6.76px;"><tspan x="0" y="0">1467</tspan></text>
    <text transform="translate(175.13 98.34)" style="fill: #231f20; font-family: UniversLTStd-Cn, &apos;Univers LT Std&apos;; font-size: 6.76px;"><tspan x="0" y="0">1246</tspan></text>
    <text transform="translate(195.58 84.73)" style="fill: #231f20; font-family: UniversLTStd-Cn, &apos;Univers LT Std&apos;; font-size: 6.76px;"><tspan x="0" y="0">1456</tspan></text>
    <text transform="translate(222.74 82.85)" style="fill: #231f20; font-family: UniversLTStd-Cn, &apos;Univers LT Std&apos;; font-size: 6.76px;"><tspan x="0" y="0">1256</tspan></text>
    <text transform="translate(246.35 95.01)" style="fill: #231f20; font-family: UniversLTStd-Cn, &apos;Univers LT Std&apos;; font-size: 6.76px;"><tspan x="0" y="0">1257</tspan></text>
    <text transform="translate(254.46 128.49)" style="fill: #231f20; font-family: UniversLTStd-Cn, &apos;Univers LT Std&apos;; font-size: 6.76px;"><tspan x="0" y="0">2357</tspan></text>
    <text transform="translate(279.69 132.32)" style="fill: #231f20; font-family: UniversLTStd-Cn, &apos;Univers LT Std&apos;; font-size: 6.76px;"><tspan x="0" y="0">2567</tspan></text>
    <text transform="translate(294.17 151.23)" style="fill: #231f20; font-family: UniversLTStd-Cn, &apos;Univers LT Std&apos;; font-size: 6.76px;"><tspan x="0" y="0">2367</tspan></text>
    <text transform="translate(299.6 178.43)" style="fill: #231f20; font-family: UniversLTStd-Cn, &apos;Univers LT Std&apos;; font-size: 6.76px;"><tspan x="0" y="0">1236</tspan></text>
    <text transform="translate(273.26 209.22)" style="fill: #231f20; font-family: UniversLTStd-Cn, &apos;Univers LT Std&apos;; font-size: 6.76px;"><tspan x="0" y="0">1346</tspan></text>
    <text transform="translate(293.49 229.75)" style="fill: #231f20; font-family: UniversLTStd-Cn, &apos;Univers LT Std&apos;; font-size: 6.76px;"><tspan x="0" y="0">1367</tspan></text>
    <text transform="translate(286.88 253.68)" style="fill: #231f20; font-family: UniversLTStd-Cn, &apos;Univers LT Std&apos;; font-size: 6.76px;"><tspan x="0" y="0">1347</tspan></text>
    <text transform="translate(269.11 273.52)" style="fill: #231f20; font-family: UniversLTStd-Cn, &apos;Univers LT Std&apos;; font-size: 6.76px;"><tspan x="0" y="0">2347</tspan></text>
    <text transform="translate(236.47 274.9)" style="fill: #231f20; font-family: UniversLTStd-Cn, &apos;Univers LT Std&apos;; font-size: 6.76px;"><tspan x="0" y="0">2457</tspan></text>
    <text transform="translate(222.97 300.63)" style="fill: #231f20; font-family: UniversLTStd-Cn, &apos;Univers LT Std&apos;; font-size: 6.76px;"><tspan x="0" y="0">1247</tspan></text>
    <text transform="translate(202.94 317.58)" style="fill: #231f20; font-family: UniversLTStd-Cn, &apos;Univers LT Std&apos;; font-size: 6.76px;"><tspan x="0" y="0">1245</tspan></text>
    <text transform="translate(177.31 316.92)" style="fill: #231f20; font-family: UniversLTStd-Cn, &apos;Univers LT Std&apos;; font-size: 6.76px;"><tspan x="0" y="0">1345</tspan></text>
    <text transform="translate(154.38 284.57)" style="fill: #231f20; font-family: UniversLTStd-Cn, &apos;Univers LT Std&apos;; font-size: 6.76px;"><tspan x="0" y="0">1356</tspan></text>
    <text transform="translate(82.87 52.56)" style="fill: #010101; font-family: UniversLTStd-Cn, &apos;Univers LT Std&apos;; font-size: 6.76px;"><tspan x="0" y="0">7</tspan></text>
    <text transform="translate(128.33 292.62)" style="fill: #231f20; font-family: UniversLTStd-Cn, &apos;Univers LT Std&apos;; font-size: 6.76px;"><tspan x="0" y="0">1235</tspan></text>
    <text transform="translate(110.85 275.81)" style="fill: #231f20; font-family: UniversLTStd-Cn, &apos;Univers LT Std&apos;; font-size: 6.76px;"><tspan x="0" y="0">2356</tspan></text>
    <text transform="translate(91.51 259.01)" style="fill: #231f20; font-family: UniversLTStd-Cn, &apos;Univers LT Std&apos;; font-size: 6.76px;"><tspan x="0" y="0">2456</tspan></text>
    <text transform="translate(72.28 212.02)" style="fill: #231f20; font-family: UniversLTStd-Cn, &apos;Univers LT Std&apos;; font-size: 6.76px;"><tspan x="0" y="0">2346</tspan></text>
    <text transform="translate(72.52 184.41)" style="fill: #231f20; font-family: UniversLTStd-Cn, &apos;Univers LT Std&apos;; font-size: 6.76px;"><tspan x="0" y="0">3467</tspan></text>
    <text transform="translate(94.26 226.16)" style="fill: #231f20; font-family: UniversLTStd-Cn, &apos;Univers LT Std&apos;; font-size: 6.76px;"><tspan x="0" y="0">2467</tspan></text>
    <text transform="translate(106.06 144.66)" style="fill: #231f20; font-family: UniversLTStd-Cn, &apos;Univers LT Std&apos;; font-size: 6.76px;"><tspan x="0" y="0">1357</tspan></text>
    <text transform="translate(48.61 254.67)" style="fill: #231f20; font-family: UniversLTStd-Cn, &apos;Univers LT Std&apos;; font-size: 6.76px;"><tspan x="0" y="0">3456</tspan></text>
    <text transform="translate(143.69 340.78)" style="fill: #231f20; font-family: UniversLTStd-Cn, &apos;Univers LT Std&apos;; font-size: 6.76px;"><tspan x="0" y="0">2345</tspan></text>
    <text transform="translate(276.66 312.68)" style="fill: #231f20; font-family: UniversLTStd-Cn, &apos;Univers LT Std&apos;; font-size: 6.76px;"><tspan x="0" y="0">1234</tspan></text>
    <text transform="translate(334.05 197.47)" style="fill: #231f20; font-family: UniversLTStd-Cn, &apos;Univers LT Std&apos;; font-size: 6.76px;"><tspan x="0" y="0">1237</tspan></text>
    <text transform="translate(283.16 82.75)" style="fill: #231f20; font-family: UniversLTStd-Cn, &apos;Univers LT Std&apos;; font-size: 6.76px;"><tspan x="0" y="0">1267</tspan></text>
    <text transform="translate(158.08 47.79)" style="fill: #231f20; font-family: UniversLTStd-Cn, &apos;Univers LT Std&apos;; font-size: 6.76px;"><tspan x="0" y="0">1567</tspan></text>
    <text transform="translate(87.35 97.21)" style="fill: #231f20; font-family: UniversLTStd-Cn, &apos;Univers LT Std&apos;; font-size: 6.76px;"><tspan x="0" y="0">457</tspan></text>
    <text transform="translate(112.4 72.58)" style="fill: #231f20; font-family: UniversLTStd-Cn, &apos;Univers LT Std&apos;; font-size: 6.76px;"><tspan x="0" y="0">147</tspan></text>
    <text transform="translate(146.91 63.48)" style="fill: #231f20; font-family: UniversLTStd-Cn, &apos;Univers LT Std&apos;; font-size: 6.76px;"><tspan x="0" y="0">167</tspan></text>
    <text transform="translate(91.26 136.4)" style="fill: #231f20; font-family: UniversLTStd-Cn, &apos;Univers LT Std&apos;; font-size: 6.76px;"><tspan x="0" y="0">357</tspan></text>
    <text transform="translate(81.06 232.92)" style="fill: #231f20; font-family: UniversLTStd-Cn, &apos;Univers LT Std&apos;; font-size: 6.76px;"><tspan x="0" y="0">246</tspan></text>
    <text transform="translate(173.42 29.79)" style="fill: #231f20; font-family: UniversLTStd-Cn, &apos;Univers LT Std&apos;; font-size: 6.76px;"><tspan x="0" y="0">157</tspan></text>
    <text transform="translate(198.41 48.99)" style="fill: #231f20; font-family: UniversLTStd-Cn, &apos;Univers LT Std&apos;; font-size: 6.76px;"><tspan x="0" y="0">156</tspan></text>
    <text transform="translate(237.6 59.11)" style="fill: #231f20; font-family: UniversLTStd-Cn, &apos;Univers LT Std&apos;; font-size: 6.76px;"><tspan x="0" y="0">125</tspan></text>
    <text transform="translate(267.4 81.28)" style="fill: #231f20; font-family: UniversLTStd-Cn, &apos;Univers LT Std&apos;; font-size: 6.76px;"><tspan x="0" y="0">127</tspan></text>
    <text transform="translate(300.4 75.19)" style="fill: #231f20; font-family: UniversLTStd-Cn, &apos;Univers LT Std&apos;; font-size: 6.76px;"><tspan x="0" y="0">126</tspan></text>
    <text transform="translate(350.36 228.34)" style="fill: #231f20; font-family: UniversLTStd-Cn, &apos;Univers LT Std&apos;; font-size: 6.76px;"><tspan x="0" y="0">237</tspan></text>
    <text transform="translate(35.4 258.44)" style="fill: #231f20; font-family: UniversLTStd-Cn, &apos;Univers LT Std&apos;; font-size: 6.76px;"><tspan x="0" y="0">356</tspan></text>
    <text transform="translate(267.63 115.94)" style="fill: #231f20; font-family: UniversLTStd-Cn, &apos;Univers LT Std&apos;; font-size: 6.76px;"><tspan x="0" y="0">257</tspan></text>
    <text transform="translate(174.5 81.28)" style="fill: #231f20; font-family: UniversLTStd-Cn, &apos;Univers LT Std&apos;; font-size: 6.76px;"><tspan x="0" y="0">146</tspan></text>
    <text transform="translate(319.59 241.49)" style="fill: #231f20; font-family: UniversLTStd-Cn, &apos;Univers LT Std&apos;; font-size: 6.76px;"><tspan x="0" y="0">137</tspan></text>
    <text transform="translate(311.49 273.52)" style="fill: #231f20; font-family: UniversLTStd-Cn, &apos;Univers LT Std&apos;; font-size: 6.76px;"><tspan x="0" y="0">347</tspan></text>
    <text transform="translate(232.92 327.46)" style="fill: #231f20; font-family: UniversLTStd-Cn, &apos;Univers LT Std&apos;; font-size: 6.76px;"><tspan x="0" y="0">124</tspan></text>
    <text transform="translate(142.52 351.71)" style="fill: #231f20; font-family: UniversLTStd-Cn, &apos;Univers LT Std&apos;; font-size: 6.76px;"><tspan x="0" y="0">245</tspan></text>
    <text transform="translate(167.54 333.46)" style="fill: #231f20; font-family: UniversLTStd-Cn, &apos;Univers LT Std&apos;; font-size: 6.76px;"><tspan x="0" y="0">345</tspan></text>
    <text transform="translate(200.99 339.2)" style="fill: #231f20; font-family: UniversLTStd-Cn, &apos;Univers LT Std&apos;; font-size: 6.76px;"><tspan x="0" y="0">145</tspan></text>
    <text transform="translate(272.63 336.54)" style="fill: #231f20; font-family: UniversLTStd-Cn, &apos;Univers LT Std&apos;; font-size: 6.76px;"><tspan x="0" y="0">134</tspan></text>
    <text transform="translate(279.4 297.38)" style="fill: #231f20; font-family: UniversLTStd-Cn, &apos;Univers LT Std&apos;; font-size: 6.76px;"><tspan x="0" y="0">234</tspan></text>
    <text transform="translate(311.32 304.1)" style="fill: #231f20; font-family: UniversLTStd-Cn, &apos;Univers LT Std&apos;; font-size: 6.76px;"><tspan x="0" y="0">34</tspan></text>
    <text transform="translate(178.52 360.41)" style="fill: #231f20; font-family: UniversLTStd-Cn, &apos;Univers LT Std&apos;; font-size: 6.76px;"><tspan x="0" y="0">45</tspan></text>
    <text transform="translate(52.11 292.97)" style="fill: #231f20; font-family: UniversLTStd-Cn, &apos;Univers LT Std&apos;; font-size: 6.76px;"><tspan x="0" y="0">56</tspan></text>
    <text transform="translate(30.36 154.19)" style="fill: #231f20; font-family: UniversLTStd-Cn, &apos;Univers LT Std&apos;; font-size: 6.76px;"><tspan x="0" y="0">67</tspan></text>
    <text transform="translate(182.48 197.61)" style="fill: #231f20; font-family: UniversLTStd-Cn, &apos;Univers LT Std&apos;; font-size: 6.76px;"><tspan x="0" y="0">1234567</tspan></text>
    <text transform="translate(136.75 197.61)" style="fill: #231f20; font-family: UniversLTStd-Cn, &apos;Univers LT Std&apos;; font-size: 6.76px;"><tspan x="0" y="0">234567</tspan></text>
    <text transform="translate(156.87 170.59)" style="fill: #231f20; font-family: UniversLTStd-Cn, &apos;Univers LT Std&apos;; font-size: 6.76px;"><tspan x="0" y="0">134567</tspan></text>
    <text transform="translate(125.37 161.69)" style="fill: #231f20; font-family: UniversLTStd-Cn, &apos;Univers LT Std&apos;; font-size: 6.76px;"><tspan x="0" y="0">13567</tspan></text>
    <text transform="translate(142.81 182.1)" style="fill: #231f20; font-family: UniversLTStd-Cn, &apos;Univers LT Std&apos;; font-size: 6.76px;"><tspan x="0" y="0">34567</tspan></text>
    <text transform="translate(123.89 134.26)" style="fill: #231f20; font-family: UniversLTStd-Cn, &apos;Univers LT Std&apos;; font-size: 6.76px;"><tspan x="0" y="0">13457</tspan></text>
    <text transform="translate(167.71 151.33)" style="fill: #231f20; font-family: UniversLTStd-Cn, &apos;Univers LT Std&apos;; font-size: 6.76px;"><tspan x="0" y="0">14567</tspan></text>
    <text transform="translate(179.75 134.92)" style="fill: #231f20; font-family: UniversLTStd-Cn, &apos;Univers LT Std&apos;; font-size: 6.76px;"><tspan x="0" y="0">12467</tspan></text>
    <text transform="translate(198.41 106.8)" style="fill: #231f20; font-family: UniversLTStd-Cn, &apos;Univers LT Std&apos;; font-size: 6.76px;"><tspan x="0" y="0">12456</tspan></text>
    <text transform="translate(207.34 154.29)" style="fill: #231f20; font-family: UniversLTStd-Cn, &apos;Univers LT Std&apos;; font-size: 6.76px;"><tspan x="0" y="0">12567</tspan></text>
    <text transform="translate(226.54 156.93)" style="fill: #231f20; font-family: UniversLTStd-Cn, &apos;Univers LT Std&apos;; font-size: 6.76px;"><tspan x="0" y="0">12357</tspan></text>
    <text transform="translate(260.05 157.36)" style="fill: #231f20; font-family: UniversLTStd-Cn, &apos;Univers LT Std&apos;; font-size: 6.76px;"><tspan x="0" y="0">23567</tspan></text>
    <text transform="translate(265.06 173.89)" style="fill: #231f20; font-family: UniversLTStd-Cn, &apos;Univers LT Std&apos;; font-size: 6.76px;"><tspan x="0" y="0">12367</tspan></text>
    <text transform="translate(246.35 201.31)" style="fill: #231f20; font-family: UniversLTStd-Cn, &apos;Univers LT Std&apos;; font-size: 6.76px;"><tspan x="0" y="0">12346</tspan></text>
    <text transform="translate(262.11 226.8)" style="fill: #231f20; font-family: UniversLTStd-Cn, &apos;Univers LT Std&apos;; font-size: 6.76px;"><tspan x="0" y="0">13467</tspan></text>
    <text transform="translate(220.5 227.95)" style="fill: #231f20; font-family: UniversLTStd-Cn, &apos;Univers LT Std&apos;; font-size: 6.76px;"><tspan x="0" y="0">12347</tspan></text>
    <text transform="translate(215.09 248.92)" style="fill: #231f20; font-family: UniversLTStd-Cn, &apos;Univers LT Std&apos;; font-size: 6.76px;"><tspan x="0" y="0">23457</tspan></text>
    <text transform="translate(205.63 276.38)" style="fill: #231f20; font-family: UniversLTStd-Cn, &apos;Univers LT Std&apos;; font-size: 6.76px;"><tspan x="0" y="0">12457</tspan></text>
    <text transform="translate(182.18 243.6)" style="fill: #231f20; font-family: UniversLTStd-Cn, &apos;Univers LT Std&apos;; font-size: 6.76px;"><tspan x="0" y="0">12345</tspan></text>
    <text transform="translate(162.35 247.45)" style="fill: #231f20; font-family: UniversLTStd-Cn, &apos;Univers LT Std&apos;; font-size: 6.76px;"><tspan x="0" y="0">13456</tspan></text>
    <text transform="translate(132.25 270.14)" style="fill: #231f20; font-family: UniversLTStd-Cn, &apos;Univers LT Std&apos;; font-size: 6.76px;"><tspan x="0" y="0">12356</tspan></text>
    <text transform="translate(148.77 218.27)" style="fill: #231f20; font-family: UniversLTStd-Cn, &apos;Univers LT Std&apos;; font-size: 6.76px;"><tspan x="0" y="0">23456</tspan></text>
    <text transform="translate(123.13 215.93)" style="fill: #231f20; font-family: UniversLTStd-Cn, &apos;Univers LT Std&apos;; font-size: 6.76px;"><tspan x="0" y="0">24567</tspan></text>
    <text transform="translate(95.98 203.33)" style="fill: #231f20; font-family: UniversLTStd-Cn, &apos;Univers LT Std&apos;; font-size: 6.76px;"><tspan x="0" y="0">23467</tspan></text>
    <text transform="translate(186.49 151.12)" style="fill: #231f20; font-family: UniversLTStd-Cn, &apos;Univers LT Std&apos;; font-size: 6.76px;"><tspan x="0" y="0">124567</tspan></text>
    <text transform="translate(215.89 174.96)" style="fill: #231f20; font-family: UniversLTStd-Cn, &apos;Univers LT Std&apos;; font-size: 6.76px;"><tspan x="0" y="0">123567</tspan></text>
    <text transform="translate(217.15 207.99)" style="fill: #231f20; font-family: UniversLTStd-Cn, &apos;Univers LT Std&apos;; font-size: 6.76px;"><tspan x="0" y="0">123467</tspan></text>
    <text transform="translate(194.32 232.1)" style="fill: #231f20; font-family: UniversLTStd-Cn, &apos;Univers LT Std&apos;; font-size: 6.76px;"><tspan x="0" y="0">123457</tspan></text>
    <text transform="translate(158.08 231.1)" style="fill: #231f20; font-family: UniversLTStd-Cn, &apos;Univers LT Std&apos;; font-size: 6.76px;"><tspan x="0" y="0">123456</tspan></text>
    <text transform="translate(348.67 123.71)" style="fill: #231f20; font-family: UniversLTStd-Cn, &apos;Univers LT Std&apos;; font-size: 6.76px;"><tspan x="0" y="0">2</tspan></text>
    <text transform="translate(350.72 272.25)" style="fill: #231f20; font-family: UniversLTStd-Cn, &apos;Univers LT Std&apos;; font-size: 6.76px;"><tspan x="0" y="0">3</tspan></text>
    <text transform="translate(214.28 370.53)" style="fill: #231f20; font-family: UniversLTStd-Cn, &apos;Univers LT Std&apos;; font-size: 6.76px;"><tspan x="0" y="0">4</tspan></text>
    <text transform="translate(75.96 328.82)" style="fill: #231f20; font-family: UniversLTStd-Cn, &apos;Univers LT Std&apos;; font-size: 6.76px;"><tspan x="0" y="0">5</tspan></text>
    <text transform="translate(15.85 182.52)" style="fill: #231f20; font-family: UniversLTStd-Cn, &apos;Univers LT Std&apos;; font-size: 6.76px;"><tspan x="0" y="0">6</tspan></text>
    <text transform="translate(82.87 52.56)" style="fill: #231f20; font-family: UniversLTStd-Cn, &apos;Univers LT Std&apos;; font-size: 6.76px;"><tspan x="0" y="0">7</tspan></text>
    <text transform="translate(130.65 44.37)" style="fill: #231f20; font-family: UniversLTStd-Cn, &apos;Univers LT Std&apos;; font-size: 6.76px;"><tspan x="0" y="0">17</tspan></text>
  </g>
</svg>