<?xml version="1.0" encoding="UTF-8"?>
<svg id="a" data-name="Layer 4" xmlns="http://www.w3.org/2000/svg" viewBox="0 0 1024 1024">
  <circle cx="512" cy="512" r="512" style="fill: #fff;"/>
  <path d="m814.43,221.02H132.06v133.42c0,26.65,21.61,48.26,48.26,48.26h100.4c16.15,0,29.24,13.09,29.24,29.24v124.52h48.26v-124.53c0-42.8-34.69-77.49-77.49-77.49h-100.41v-85.16h307.55v485.45H209.57c-16.15,0-29.24-13.09-29.24-29.24v-274.52c0-26.65-21.61-48.26-48.26-48.26h0v322.78c0,42.8,34.7,77.5,77.5,77.5h326.57v-5.72c9.02,3.68,18.91,5.72,29.24,5.72h326.56v-504.46c0-42.8-34.7-77.5-77.5-77.5Zm29.24,222.38h-129.64v-64.82h-48.26v113.08h177.89v263.07h-278.3c-16.15,0-29.24-13.09-29.24-29.24v-144.88h100.4c16.15,0,29.24,13.09,29.24,29.24v4.34h48.26v-4.34c0-42.8-34.7-77.5-77.5-77.5h-100.4v-263.06h278.31c16.12,0,29.23,13.11,29.23,29.24v144.87Z" style="fill: #ed1c24;"/>
</svg>