<?xml version="1.0" encoding="UTF-8"?>
<svg id="a" data-name="Layer 1" xmlns="http://www.w3.org/2000/svg" viewBox="0 0 536.62 442.4">
  <rect x="65.09" y="246.02" width="431.03" height="137.4" rx="18.93" ry="18.93" style="fill: #e6e7e8;"/>
  <text transform="translate(500.79 257.56)" style="fill: #231f20; font-family: UniversLTStd-Cn, &apos;Univers LT Std&apos;; font-size: 11.13px;"><tspan x="0" y="0">screens</tspan></text>
  <text transform="translate(78.86 439.62)" style="fill: #231f20; font-family: UniversLTStd-Cn, &apos;Univers LT Std&apos;; font-size: 11.13px;"><tspan x="0" y="0">nav bar</tspan></text>
  <text transform="translate(1.71 337.61)" style="fill: #231f20; font-family: UniversLTStd-Cn, &apos;Univers LT Std&apos;; font-size: 11.13px;"><tspan x="0" y="0">user</tspan></text>
  <text transform="translate(91.37 337.73)" style="fill: #231f20; font-family: UniversLTStd-Cn, &apos;Univers LT Std&apos;; font-size: 11.13px;"><tspan x="0" y="0">text</tspan><tspan x="0" y="13.35">input</tspan></text>
  <text transform="translate(254.11 337.61)" style="fill: #231f20; font-family: UniversLTStd-Cn, &apos;Univers LT Std&apos;;"><tspan style="font-size: 11.13px;"><tspan x="0" y="0">journal</tspan></tspan><tspan style="font-size: 7.42px;"><tspan x="0" y="8.9">text input + </tspan></tspan><tspan style="font-size: 7.42px;"><tspan x="0" y="17.8">background color</tspan></tspan><tspan style="font-size: 7.42px;"><tspan x="0" y="26.7">from API +</tspan></tspan><tspan style="font-size: 7.42px;"><tspan x="0" y="35.6">date</tspan></tspan></text>
  <text transform="translate(435.25 337.61)" style="fill: #231f20; font-family: UniversLTStd-Cn, &apos;Univers LT Std&apos;;"><tspan style="font-size: 11.13px;"><tspan x="0" y="0">quilt</tspan></tspan><tspan style="font-size: 7.42px;"><tspan x="0" y="8.9">mood colors</tspan></tspan><tspan style="font-size: 7.42px;"><tspan x="0" y="17.8">arranged in a grid</tspan></tspan></text>
  <text transform="translate(90.77 126.12)" style="fill: #231f20; font-family: UniversLTStd-Cn, &apos;Univers LT Std&apos;; font-size: 11.13px;"><tspan x="0" y="0">API</tspan></text>
  <text transform="translate(256.28 126.23)" style="fill: #231f20; font-family: UniversLTStd-Cn, &apos;Univers LT Std&apos;; font-size: 11.13px;"><tspan x="0" y="0">response</tspan></text>
  <text transform="translate(92.09 188.94)"><tspan style="fill: #231f20; font-family: UniversLTStd-Cn, &apos;Univers LT Std&apos;; font-size: 11.13px;"><tspan x="0" y="0">Prompt:</tspan></tspan><tspan style="font-family: UniversLTStd-CnObl, &apos;Univers LT Std&apos;; font-size: 7.42px; font-style: oblique;"><tspan x="0" y="8.9" style="fill: #231f20;">“return an rgb color value based on the mood of the text </tspan><tspan x="167.67" y="8.9" style="fill: #00a651;">(TEXT INPUT)</tspan><tspan x="208.06" y="8.9" style="fill: #231f20;">,</tspan></tspan><tspan style="fill: #231f20; font-family: UniversLTStd-CnObl, &apos;Univers LT Std&apos;; font-size: 7.42px; font-style: oblique;"><tspan x="0" y="17.8">respond only in the form “r: xxx g:xxx b:xxx” </tspan></tspan><tspan style="fill: #231f20; font-family: UniversLTStd-CnObl, &apos;Univers LT Std&apos;; font-size: 7.42px; font-style: oblique;"><tspan x="0" y="26.7">where xxx is the corresponding values”</tspan></tspan></text>
  <g>
    <line x1="36.82" y1="334.43" x2="78.19" y2="334.43" style="fill: none; stroke: #00aeef; stroke-miterlimit: 10; stroke-width: .62px;"/>
    <polygon points="76.14 336.96 75.72 336.51 77.95 334.44 75.72 332.36 76.14 331.91 78.86 334.44 76.14 336.96" style="fill: #00aeef;"/>
  </g>
  <g>
    <line x1="154.13" y1="334.16" x2="221.29" y2="334.16" style="fill: none; stroke: #00aeef; stroke-miterlimit: 10; stroke-width: .62px;"/>
    <polygon points="219.24 336.69 218.82 336.24 221.05 334.16 218.82 332.09 219.24 331.64 221.96 334.16 219.24 336.69" style="fill: #00aeef;"/>
  </g>
  <g>
    <line x1="154.13" y1="117.82" x2="221.29" y2="117.82" style="fill: none; stroke: #00aeef; stroke-miterlimit: 10; stroke-width: .62px;"/>
    <polygon points="219.24 120.35 218.82 119.89 221.05 117.82 218.82 115.74 219.24 115.29 221.96 117.82 219.24 120.35" style="fill: #00aeef;"/>
  </g>
  <g>
    <line x1="98.62" y1="295.15" x2="98.62" y2="225.05" style="fill: none; stroke: #00aeef; stroke-miterlimit: 10; stroke-width: .62px;"/>
    <polygon points="101.15 227.1 100.69 227.52 98.62 225.29 96.54 227.52 96.09 227.1 98.62 224.38 101.15 227.1" style="fill: #00aeef;"/>
  </g>
  <g>
    <line x1="98.62" y1="175.97" x2="98.62" y2="134.6" style="fill: none; stroke: #00aeef; stroke-miterlimit: 10; stroke-width: .62px;"/>
    <polygon points="101.15 136.65 100.69 137.07 98.62 134.84 96.54 137.07 96.09 136.65 98.62 133.93 101.15 136.65" style="fill: #00aeef;"/>
  </g>
  <g>
    <line x1="273.31" y1="94.84" x2="273.31" y2="53.47" style="fill: none; stroke: #00aeef; stroke-miterlimit: 10; stroke-width: .62px;"/>
    <polygon points="275.84 55.52 275.39 55.94 273.31 53.71 271.24 55.94 270.79 55.52 273.31 52.8 275.84 55.52" style="fill: #00aeef;"/>
  </g>
  <g>
    <line x1="294.34" y1="253.9" x2="393.82" y2="148.52" style="fill: none; stroke: #00aeef; stroke-miterlimit: 10; stroke-width: .62px;"/>
    <polygon points="297.58 254.14 297.54 253.53 294.5 253.72 294.52 250.68 293.9 250.67 293.88 254.38 297.58 254.14" style="fill: #00aeef;"/>
  </g>
  <text transform="translate(254.86 25.25)" style="fill: #231f20; font-family: UniversLTStd-Cn, &apos;Univers LT Std&apos;;"><tspan style="font-size: 11.13px;"><tspan x="0" y="0">parser</tspan></tspan><tspan style="font-size: 7.42px;"><tspan x="0" y="8.9">scrapes an rgb value</tspan></tspan><tspan style="font-size: 7.42px;"><tspan x="0" y="17.8">from the response</tspan></tspan></text>
  <text transform="translate(382.79 126.12)" style="fill: #231f20; font-family: UniversLTStd-Cn, &apos;Univers LT Std&apos;;"><tspan style="font-size: 11.13px;"><tspan x="0" y="0">color</tspan></tspan><tspan style="font-size: 7.42px;"><tspan x="0" y="8.9">codable rgb value</tspan></tspan></text>
  <text transform="translate(0 320.73)" style="fill: #231f20; font-family: SFCompact-Black, &apos;SF Compact&apos;; font-size: 22.25px; font-variation-settings: &apos;opsz&apos; 19, &apos;wght&apos; 1000; font-weight: 800;"><tspan x="0" y="0">􀉪</tspan></text>
  <text transform="translate(86.8 320.73)" style="fill: #231f20; font-family: SFCompact-Regular, &apos;SF Compact&apos;; font-size: 22.25px; font-variation-settings: &apos;opsz&apos; 19, &apos;wght&apos; 457;"><tspan x="0" y="0">􀓕</tspan></text>
  <rect x="258.66" y="260.13" width="28.46" height="44.72" rx="7.41" ry="7.41" style="fill: #f7941d;"/>
  <rect x="254.21" y="264.58" width="28.46" height="44.72" rx="7.41" ry="7.41" style="fill: #92278f;"/>
  <rect x="249.76" y="269.03" width="28.46" height="44.72" rx="7.41" ry="7.41" style="fill: #39b54a;"/>
  <text transform="translate(252.99 278.04)" style="fill: #fff; font-family: SFCompact-Regular, &apos;SF Compact&apos;; font-variation-settings: &apos;opsz&apos; 19, &apos;wght&apos; 457;"><tspan style="font-size: 3.71px;"><tspan x="0" y="0">tod</tspan><tspan x="5.69" y="0" style="letter-spacing: 0em;">a</tspan><tspan x="7.68" y="0">y</tspan></tspan><tspan style="font-size: 3.71px;"><tspan x="0" y="4.45">I </tspan><tspan x="1.86" y="4.45" style="letter-spacing: -.02em;">f</tspan><tspan x="3.24" y="4.45">eel hap</tspan><tspan x="15.55" y="4.45" style="letter-spacing: 0em;">p</tspan><tspan x="17.72" y="4.45" style="letter-spacing: -.05em;">y</tspan><tspan x="19.52" y="4.45">.</tspan></tspan><tspan style="font-size: 2.47px;"><tspan x="0" y="11.87">6/8/</tspan><tspan x="4.68" y="11.87" style="letter-spacing: 0em;">2</tspan><tspan x="6.05" y="11.87">4</tspan></tspan></text>
  <circle cx="261.86" cy="316.59" r=".71" style="fill: #808285;"/>
  <circle cx="265.02" cy="316.59" r=".71" style="fill: #bcbec0;"/>
  <circle cx="268.18" cy="316.59" r=".71" style="fill: #bcbec0;"/>
  <rect x="435.89" y="262.77" width="10.25" height="10.25" style="fill: #39b54a;"/>
  <rect x="446.14" y="262.77" width="10.25" height="10.25" style="fill: #92278f;"/>
  <rect x="456.39" y="262.77" width="10.25" height="10.25" style="fill: #f7941d;"/>
  <rect x="435.89" y="272.92" width="10.25" height="10.25" style="fill: #fff200;"/>
  <rect x="446.14" y="272.92" width="10.25" height="10.25" style="fill: #27aae1;"/>
  <rect x="456.39" y="272.92" width="10.25" height="10.25" style="fill: #662d91;"/>
  <rect x="435.89" y="283.07" width="10.25" height="10.25" style="fill: #f7941d;"/>
  <rect x="446.14" y="283.07" width="10.25" height="10.25" style="fill: #2b3990;"/>
  <rect x="456.39" y="283.07" width="10.25" height="10.25" style="fill: #8dc63f;"/>
  <rect x="435.89" y="293.22" width="10.25" height="10.25" style="fill: #d7df23;"/>
  <rect x="446.14" y="293.22" width="10.25" height="10.25" style="fill: #be1e2d;"/>
  <rect x="435.89" y="303.37" width="10.25" height="10.25" style="fill: #00a79d;"/>
  <rect x="446.14" y="303.37" width="10.25" height="10.25" style="fill: #ec008c;"/>
  <rect x="456.39" y="293.22" width="10.25" height="10.25" style="fill: #ed1c24;"/>
  <g>
    <polyline points="435.89 122.2 454.37 122.2 454.37 251.16" style="fill: none; stroke: #00aeef; stroke-miterlimit: 10; stroke-width: .62px;"/>
    <polygon points="451.84 249.11 452.3 248.69 454.37 250.92 456.45 248.69 456.9 249.11 454.37 251.83 451.84 249.11" style="fill: #00aeef;"/>
  </g>
  <g>
    <polyline points="326.09 25.25 392.99 25.25 392.99 73.15" style="fill: none; stroke: #00aeef; stroke-miterlimit: 10; stroke-width: .62px;"/>
    <polygon points="390.46 71.11 390.91 70.68 392.99 72.92 395.06 70.68 395.52 71.11 392.99 73.82 390.46 71.11" style="fill: #00aeef;"/>
  </g>
  <text transform="translate(93.26 106.44)" style="fill: #231f20; font-family: SFCompact-Regular, &apos;SF Compact&apos;; font-size: 11.13px; font-variation-settings: &apos;opsz&apos; 19, &apos;wght&apos; 457;"><tspan x="0" y="0">􀆪</tspan></text>
  <text transform="translate(267.04 9.27)" style="fill: #231f20; font-family: SFCompact-Regular, &apos;SF Compact&apos;; font-size: 11.13px; font-variation-settings: &apos;opsz&apos; 19, &apos;wght&apos; 457;"><tspan x="0" y="0">􀊫</tspan></text>
  <text transform="translate(265.73 108.37)" style="fill: #231f20; font-family: SFCompact-Regular, &apos;SF Compact&apos;; font-size: 11.13px; font-variation-settings: &apos;opsz&apos; 19, &apos;wght&apos; 457;"><tspan x="0" y="0">􀌲</tspan></text>
  <text transform="translate(388.17 108.37)" style="fill: #231f20; font-family: SFCompact-Regular, &apos;SF Compact&apos;; font-size: 11.13px; font-variation-settings: &apos;opsz&apos; 19, &apos;wght&apos; 457;"><tspan x="0" y="0">􀆃</tspan></text>
  <g>
    <polyline points="11.73 345.46 11.73 410.02 57.17 410.02" style="fill: none; stroke: #00aeef; stroke-miterlimit: 10; stroke-width: .62px;"/>
    <polygon points="55.12 412.55 54.7 412.1 56.93 410.02 54.7 407.95 55.12 407.5 57.84 410.02 55.12 412.55" style="fill: #00aeef;"/>
  </g>
  <rect x="69.22" y="396.59" width="426.9" height="26.87" rx="13.43" ry="13.43" style="fill: #00aeef;"/>
  <text transform="translate(11.73 419.71)" style="fill: #00aeef; font-family: UniversLTStd-Cn, &apos;Univers LT Std&apos;; font-size: 7.42px;"><tspan x="0" y="0">navigates</tspan></text>
  <text transform="translate(36.82 343.04)" style="fill: #00aeef; font-family: UniversLTStd-Cn, &apos;Univers LT Std&apos;; font-size: 7.42px;"><tspan x="0" y="0">inputs</tspan></text>
  <text transform="translate(103.55 264.58)" style="fill: #00aeef; font-family: UniversLTStd-Cn, &apos;Univers LT Std&apos;; font-size: 7.42px;"><tspan x="0" y="0">appended to </tspan></text>
  <text transform="translate(104.03 159.07)" style="fill: #00aeef; font-family: UniversLTStd-Cn, &apos;Univers LT Std&apos;; font-size: 7.42px;"><tspan x="0" y="0">sent to</tspan></text>
  <text transform="translate(154.13 126.24)" style="fill: #00aeef; font-family: UniversLTStd-Cn, &apos;Univers LT Std&apos;; font-size: 7.42px;"><tspan x="0" y="0">generates</tspan></text>
  <text transform="translate(280.61 76.39)" style="fill: #00aeef; font-family: UniversLTStd-Cn, &apos;Univers LT Std&apos;; font-size: 7.42px;"><tspan x="0" y="0">read by</tspan></text>
  <text transform="translate(398.72 30.4)" style="fill: #00aeef; font-family: UniversLTStd-Cn, &apos;Univers LT Std&apos;; font-size: 7.42px;"><tspan x="0" y="0">returns</tspan></text>
  <text transform="translate(355.37 201.45)" style="fill: #00aeef; font-family: UniversLTStd-Cn, &apos;Univers LT Std&apos;; font-size: 7.42px;"><tspan x="0" y="0">used for background</tspan></text>
  <text transform="translate(458.12 201.45)" style="fill: #00aeef; font-family: UniversLTStd-Cn, &apos;Univers LT Std&apos;; font-size: 7.42px;"><tspan x="0" y="0">added to</tspan></text>
  <text transform="translate(154.13 342.77)" style="fill: #00aeef; font-family: UniversLTStd-Cn, &apos;Univers LT Std&apos;; font-size: 7.42px;"><tspan x="0" y="0">added to</tspan></text>
  <text transform="translate(96.22 412.95)" style="fill: #fff; font-family: SFCompact-Regular, &apos;SF Compact&apos;; font-size: 14.83px; font-variation-settings: &apos;opsz&apos; 19, &apos;wght&apos; 457;"><tspan x="0" y="0">􀈊</tspan></text>
  <text transform="translate(262.52 414.43)" style="fill: #fff; font-family: SFCompact-Regular, &apos;SF Compact&apos;; font-size: 14.83px; font-variation-settings: &apos;opsz&apos; 19, &apos;wght&apos; 457;"><tspan x="0" y="0">􀉚</tspan></text>
  <text transform="translate(445.13 414.43)" style="fill: #fff; font-family: SFCompact-Regular, &apos;SF Compact&apos;; font-size: 14.83px; font-variation-settings: &apos;opsz&apos; 19, &apos;wght&apos; 457;"><tspan x="0" y="0">􀦳</tspan></text>
</svg>