<?xml version="1.0" encoding="UTF-8"?>
<svg id="a" data-name="Layer 1" xmlns="http://www.w3.org/2000/svg" xmlns:xlink="http://www.w3.org/1999/xlink" viewBox="0 0 523.01 115">
  <defs>
    <clipPath id="b">
      <rect x="0" width="100" height="100" style="fill: none;"/>
    </clipPath>
    <clipPath id="c">
      <rect x="0" y="33.33" width="100" height="66.67" style="fill: none;"/>
    </clipPath>
    <clipPath id="d">
      <rect x="0" y="40" width="100" height="60" style="fill: none;"/>
    </clipPath>
    <clipPath id="e">
      <rect x="0" y="25" width="100" height="75" style="fill: none;"/>
    </clipPath>
    <clipPath id="f">
      <rect x="0" y="50" width="100" height="50" style="fill: none;"/>
    </clipPath>
    <clipPath id="g">
      <rect x="141" y="0" width="100" height="100" style="fill: none;"/>
    </clipPath>
    <clipPath id="h">
      <rect x="141" y="33.33" width="100" height="66.67" style="fill: none;"/>
    </clipPath>
    <clipPath id="i">
      <rect x="141" y="43.33" width="100" height="56.67" style="fill: none;"/>
    </clipPath>
    <clipPath id="j">
      <rect x="141" y="40" width="100" height="60" style="fill: none;"/>
    </clipPath>
    <clipPath id="k">
      <rect x="141" y="25" width="100" height="75" style="fill: none;"/>
    </clipPath>
    <clipPath id="l">
      <rect x="141" y="50" width="100" height="50" style="fill: none;"/>
    </clipPath>
    <clipPath id="m">
      <rect x="282" y="50" width="100" height="50" style="fill: none;"/>
    </clipPath>
    <clipPath id="n">
      <rect x="282" y="0" width="100" height="100" style="fill: none;"/>
    </clipPath>
    <clipPath id="o">
      <rect x="282" y="33.33" width="100" height="66.67" style="fill: none;"/>
    </clipPath>
    <clipPath id="p">
      <rect x="282" y="43.33" width="100" height="56.67" style="fill: none;"/>
    </clipPath>
    <clipPath id="q">
      <rect x="282" y="40" width="100" height="60" style="fill: none;"/>
    </clipPath>
    <clipPath id="r">
      <rect x="282" y="45.67" width="100" height="54.33" style="fill: none;"/>
    </clipPath>
    <clipPath id="s">
      <rect x="282" y="25" width="100" height="75" style="fill: none;"/>
    </clipPath>
    <clipPath id="t">
      <rect x="423.01" y="0" width="100" height="100" style="fill: none;"/>
    </clipPath>
    <clipPath id="u">
      <rect x="423.01" y="25" width="100" height="75" style="fill: none;"/>
    </clipPath>
    <clipPath id="v">
      <rect x="423.01" y="50" width="100" height="50" style="fill: none;"/>
    </clipPath>
    <clipPath id="w">
      <rect x="423.01" y="47.33" width="100" height="52.66" style="fill: none;"/>
    </clipPath>
    <clipPath id="x">
      <rect x="423.01" y="33.33" width="100" height="66.67" style="fill: none;"/>
    </clipPath>
    <clipPath id="y">
      <rect x="423.01" y="43.33" width="100" height="56.67" style="fill: none;"/>
    </clipPath>
    <clipPath id="z">
      <rect x="423.01" y="40" width="100" height="60" style="fill: none;"/>
    </clipPath>
    <clipPath id="aa">
      <rect x="423.01" y="45.67" width="100" height="54.33" style="fill: none;"/>
    </clipPath>
  </defs>
  <g>
    <rect x="0" y="50" width="100" height="50" style="fill: none; stroke: #00a04d; stroke-miterlimit: 10; stroke-width: .5px;"/>
    <g style="fill: none; opacity: .1;">
      <g style="clip-path: url(#b); fill: none;">
        <path d="m0,100h100V0C50,0,50,100,0,100" style="fill: none;"/>
      </g>
    </g>
    <rect x="0" width="100" height="100" style="fill: none; stroke: #929497; stroke-miterlimit: 10; stroke-width: .5px;"/>
    <g style="fill: none; opacity: .1;">
      <g style="clip-path: url(#c); fill: none;">
        <path d="m0,33.33v66.67h100V33.33c-12.5,0-12.5,33.33-25,33.33s-12.5-33.33-25-33.33-12.5,33.33-25,33.33S12.5,33.33,0,33.33" style="fill: none;"/>
      </g>
    </g>
    <path d="m0,33.33v66.67h100V33.33c-12.5,0-12.5,33.33-25,33.33s-12.5-33.33-25-33.33-12.5,33.33-25,33.33S12.5,33.33,0,33.33Z" style="fill: none; stroke: #e9078a; stroke-miterlimit: 10; stroke-width: .5px;"/>
    <rect x="0" width="100" height="100" style="fill: none; stroke: #929497; stroke-miterlimit: 10; stroke-width: .5px;"/>
    <path d="m0,33.33v66.67h100V33.33c-12.5,0-12.5,33.33-25,33.33s-12.5-33.33-25-33.33-12.5,33.33-25,33.33S12.5,33.33,0,33.33Z" style="fill: none; stroke: #e9078a; stroke-miterlimit: 10; stroke-width: .5px;"/>
    <g style="fill: none; opacity: .1;">
      <g style="clip-path: url(#d); fill: none;">
        <path d="m0,40v60h100v-60c-6.25,0-6.25,20-12.5,20s-6.25-20-12.5-20-6.25,20-12.5,20-6.25-20-12.5-20-6.25,20-12.5,20-6.25-20-12.5-20-6.25,20-12.5,20S6.25,40,0,40" style="fill: none;"/>
      </g>
    </g>
    <path d="m0,40v60h100v-60c-6.25,0-6.25,20-12.5,20s-6.25-20-12.5-20-6.25,20-12.5,20-6.25-20-12.5-20-6.25,20-12.5,20-6.25-20-12.5-20-6.25,20-12.5,20S6.25,40,0,40Z" style="fill: none; stroke: #f69320; stroke-miterlimit: 10; stroke-width: .5px;"/>
    <path d="m0,40v60h100v-60c-6.25,0-6.25,20-12.5,20s-6.25-20-12.5-20-6.25,20-12.5,20-6.25-20-12.5-20-6.25,20-12.5,20-6.25-20-12.5-20-6.25,20-12.5,20S6.25,40,0,40Z" style="fill: none; stroke: #f69320; stroke-miterlimit: 10; stroke-width: .5px;"/>
    <g style="fill: none; opacity: .1;">
      <g style="clip-path: url(#e); fill: none;">
        <path d="m0,25v75h100V25c-25,0-25,50-50,50S25,25,0,25" style="fill: none;"/>
      </g>
    </g>
    <path d="m0,25v75h100V25c-25,0-25,50-50,50S25,25,0,25Z" style="fill: none; stroke: #00a54f; stroke-miterlimit: 10; stroke-width: .5px;"/>
    <path d="m0,25v75h100V25c-25,0-25,50-50,50S25,25,0,25Z" style="fill: none; stroke: #29abe2; stroke-miterlimit: 10; stroke-width: .5px;"/>
    <path d="m0,100h100V0C50,0,50,100,0,100Z" style="fill: none; stroke: #ed2024; stroke-miterlimit: 10; stroke-width: .5px;"/>
    <g style="fill: none; opacity: .1;">
      <g style="clip-path: url(#f); fill: none;">
        <rect x=".38" y="50.38" width="99.25" height="49.25" style="fill: none;"/>
        <path d="m99.25,99.25H.75v-48.5h98.5v48.5Zm.75-49.25H0v50h100v-50Z" style="fill: none;"/>
      </g>
    </g>
    <rect x="0" y="50" width="100" height="50" style="fill: none; stroke: #ea2027; stroke-miterlimit: 10; stroke-width: .5px;"/>
  </g>
  <g>
    <rect x="141" y="50" width="100" height="50" style="fill: none; stroke: #00a04d; stroke-miterlimit: 10; stroke-width: .5px;"/>
    <g style="fill: none; opacity: .1;">
      <g style="clip-path: url(#g); fill: none;">
        <path d="m141,100h100V0C191,0,191,100,141,100" style="fill: none;"/>
      </g>
    </g>
    <rect x="141" y="0" width="100" height="100" style="fill: none; stroke: #929497; stroke-miterlimit: 10; stroke-width: .5px;"/>
    <g style="fill: none; opacity: .1;">
      <g style="clip-path: url(#h); fill: none;">
        <path d="m141,33.33v66.67h100V33.33c-12.5,0-12.5,33.33-25,33.33s-12.5-33.33-25-33.33-12.5,33.33-25,33.33-12.5-33.33-25-33.33" style="fill: none;"/>
      </g>
    </g>
    <path d="m141,33.33v66.67h100V33.33c-12.5,0-12.5,33.33-25,33.33s-12.5-33.33-25-33.33-12.5,33.33-25,33.33-12.5-33.33-25-33.33Z" style="fill: none; stroke: #e9078a; stroke-miterlimit: 10; stroke-width: .5px;"/>
    <path d="m241,43.33c-3.12,0-3.12,13.33-6.25,13.33s-3.12-13.33-6.25-13.33-3.12,13.33-6.25,13.33-3.13-13.33-6.25-13.33-3.12,13.33-6.25,13.33-3.12-13.33-6.25-13.33-3.12,13.33-6.25,13.33-3.12-13.33-6.25-13.33-3.13,13.33-6.25,13.33-3.12-13.33-6.25-13.33-3.12,13.33-6.25,13.33-3.12-13.33-6.25-13.33-3.13,13.33-6.25,13.33-3.13-13.33-6.25-13.33-3.13,13.33-6.25,13.33-3.13-13.33-6.25-13.33" style="fill: none; stroke: #00a69c; stroke-miterlimit: 10; stroke-width: .5px;"/>
    <g style="fill: none; opacity: .1;">
      <g style="clip-path: url(#i); fill: none;">
        <path d="m141,43.33v56.67h100v-56.67c-3.13,0-3.13,13.33-6.25,13.33s-3.13-13.33-6.25-13.33-3.12,13.33-6.25,13.33-3.12-13.33-6.25-13.33-3.12,13.33-6.25,13.33-3.13-13.33-6.25-13.33-3.13,13.33-6.25,13.33-3.13-13.33-6.25-13.33-3.13,13.33-6.25,13.33-3.12-13.33-6.25-13.33-3.12,13.33-6.25,13.33-3.12-13.33-6.25-13.33-3.12,13.33-6.25,13.33-3.13-13.33-6.25-13.33-3.13,13.33-6.25,13.33-3.13-13.33-6.25-13.33" style="fill: none;"/>
      </g>
    </g>
    <path d="m141,43.33v56.67h100v-56.67c-3.13,0-3.13,13.33-6.25,13.33s-3.13-13.33-6.25-13.33-3.12,13.33-6.25,13.33-3.12-13.33-6.25-13.33-3.12,13.33-6.25,13.33-3.13-13.33-6.25-13.33-3.13,13.33-6.25,13.33-3.13-13.33-6.25-13.33-3.13,13.33-6.25,13.33-3.12-13.33-6.25-13.33-3.12,13.33-6.25,13.33-3.12-13.33-6.25-13.33-3.12,13.33-6.25,13.33-3.13-13.33-6.25-13.33-3.13,13.33-6.25,13.33-3.13-13.33-6.25-13.33Z" style="fill: none; stroke: #2d358f; stroke-miterlimit: 10; stroke-width: .5px;"/>
    <path d="m141,43.33v56.67h100v-56.67c-3.13,0-3.13,13.33-6.25,13.33s-3.13-13.33-6.25-13.33-3.12,13.33-6.25,13.33-3.12-13.33-6.25-13.33-3.12,13.33-6.25,13.33-3.13-13.33-6.25-13.33-3.13,13.33-6.25,13.33-3.13-13.33-6.25-13.33-3.13,13.33-6.25,13.33-3.12-13.33-6.25-13.33-3.12,13.33-6.25,13.33-3.12-13.33-6.25-13.33-3.12,13.33-6.25,13.33-3.13-13.33-6.25-13.33-3.13,13.33-6.25,13.33-3.13-13.33-6.25-13.33Z" style="fill: none; stroke: #2d358f; stroke-miterlimit: 10; stroke-width: .5px;"/>
    <rect x="141" y="0" width="100" height="100" style="fill: none; stroke: #929497; stroke-miterlimit: 10; stroke-width: .5px;"/>
    <path d="m141,33.33v66.67h100V33.33c-12.5,0-12.5,33.33-25,33.33s-12.5-33.33-25-33.33-12.5,33.33-25,33.33-12.5-33.33-25-33.33Z" style="fill: none; stroke: #e9078a; stroke-miterlimit: 10; stroke-width: .5px;"/>
    <path d="m241,43.33c-3.12,0-3.12,13.33-6.25,13.33s-3.12-13.33-6.25-13.33-3.12,13.33-6.25,13.33-3.13-13.33-6.25-13.33-3.12,13.33-6.25,13.33-3.12-13.33-6.25-13.33-3.12,13.33-6.25,13.33-3.12-13.33-6.25-13.33-3.13,13.33-6.25,13.33-3.12-13.33-6.25-13.33-3.12,13.33-6.25,13.33-3.12-13.33-6.25-13.33-3.13,13.33-6.25,13.33-3.13-13.33-6.25-13.33-3.13,13.33-6.25,13.33-3.13-13.33-6.25-13.33" style="fill: none; stroke: #00a69c; stroke-miterlimit: 10; stroke-width: .5px;"/>
    <path d="m141,43.33v56.67h100v-56.67c-3.13,0-3.13,13.33-6.25,13.33s-3.13-13.33-6.25-13.33-3.12,13.33-6.25,13.33-3.12-13.33-6.25-13.33-3.12,13.33-6.25,13.33-3.13-13.33-6.25-13.33-3.13,13.33-6.25,13.33-3.13-13.33-6.25-13.33-3.13,13.33-6.25,13.33-3.12-13.33-6.25-13.33-3.12,13.33-6.25,13.33-3.12-13.33-6.25-13.33-3.12,13.33-6.25,13.33-3.13-13.33-6.25-13.33-3.13,13.33-6.25,13.33-3.13-13.33-6.25-13.33Z" style="fill: none; stroke: #2d358f; stroke-miterlimit: 10; stroke-width: .5px;"/>
    <g style="fill: none; opacity: .1;">
      <g style="clip-path: url(#j); fill: none;">
        <path d="m141,40v60h100v-60c-6.25,0-6.25,20-12.5,20s-6.25-20-12.5-20-6.25,20-12.5,20-6.25-20-12.5-20-6.25,20-12.5,20-6.25-20-12.5-20-6.25,20-12.5,20-6.25-20-12.5-20" style="fill: none;"/>
      </g>
    </g>
    <path d="m141,40v60h100v-60c-6.25,0-6.25,20-12.5,20s-6.25-20-12.5-20-6.25,20-12.5,20-6.25-20-12.5-20-6.25,20-12.5,20-6.25-20-12.5-20-6.25,20-12.5,20-6.25-20-12.5-20Z" style="fill: none; stroke: #f69320; stroke-miterlimit: 10; stroke-width: .5px;"/>
    <path d="m141,40v60h100v-60c-6.25,0-6.25,20-12.5,20s-6.25-20-12.5-20-6.25,20-12.5,20-6.25-20-12.5-20-6.25,20-12.5,20-6.25-20-12.5-20-6.25,20-12.5,20-6.25-20-12.5-20Z" style="fill: none; stroke: #f69320; stroke-miterlimit: 10; stroke-width: .5px;"/>
    <path d="m141,43.33v56.67h100v-56.67c-3.13,0-3.13,13.33-6.25,13.33s-3.13-13.33-6.25-13.33-3.12,13.33-6.25,13.33-3.12-13.33-6.25-13.33-3.12,13.33-6.25,13.33-3.13-13.33-6.25-13.33-3.13,13.33-6.25,13.33-3.13-13.33-6.25-13.33-3.13,13.33-6.25,13.33-3.12-13.33-6.25-13.33-3.12,13.33-6.25,13.33-3.12-13.33-6.25-13.33-3.12,13.33-6.25,13.33-3.13-13.33-6.25-13.33-3.13,13.33-6.25,13.33-3.13-13.33-6.25-13.33Z" style="fill: none; stroke: #2d358f; stroke-miterlimit: 10; stroke-width: .5px;"/>
    <g style="fill: none; opacity: .1;">
      <g style="clip-path: url(#k); fill: none;">
        <path d="m141,25v75h100V25c-25,0-25,50-50,50s-25-50-50-50" style="fill: none;"/>
      </g>
    </g>
    <path d="m141,25v75h100V25c-25,0-25,50-50,50s-25-50-50-50Z" style="fill: none; stroke: #00a54f; stroke-miterlimit: 10; stroke-width: .5px;"/>
    <path d="m141,25v75h100V25c-25,0-25,50-50,50s-25-50-50-50Z" style="fill: none; stroke: #29abe2; stroke-miterlimit: 10; stroke-width: .5px;"/>
    <path d="m141,100h100V0C191,0,191,100,141,100Z" style="fill: none; stroke: #ed2024; stroke-miterlimit: 10; stroke-width: .5px;"/>
    <g style="fill: none; opacity: .1;">
      <g style="clip-path: url(#l); fill: none;">
        <rect x="141.38" y="50.38" width="99.25" height="49.25" style="fill: none;"/>
        <path d="m240.25,99.25h-98.5v-48.5h98.5v48.5Zm.75-49.25h-100v50h100v-50Z" style="fill: none;"/>
      </g>
    </g>
    <rect x="141" y="50" width="100" height="50" style="fill: none; stroke: #ea2027; stroke-miterlimit: 10; stroke-width: .5px;"/>
  </g>
  <g>
    <g style="fill: none; opacity: .1;">
      <g style="clip-path: url(#m); fill: none;">
        <rect x="282.38" y="50.37" width="99.25" height="49.25" style="fill: none;"/>
        <path d="m381.25,99.25h-98.5v-48.5h98.5v48.5Zm.75-49.25h-100v50h100v-50Z" style="fill: none;"/>
      </g>
    </g>
    <g style="fill: none; opacity: .1;">
      <g style="clip-path: url(#n); fill: none;">
        <path d="m282,100h100V0C332,0,332,100,282,100" style="fill: none;"/>
      </g>
    </g>
    <rect x="282" y="0" width="100" height="100" style="fill: none; stroke: #929497; stroke-miterlimit: 10; stroke-width: .5px;"/>
    <g style="fill: none; opacity: .1;">
      <g style="clip-path: url(#o); fill: none;">
        <path d="m282,33.33v66.67h100V33.33c-12.5,0-12.5,33.33-25,33.33s-12.5-33.33-25-33.33-12.5,33.33-25,33.33-12.5-33.33-25-33.33" style="fill: none;"/>
      </g>
    </g>
    <path d="m282,33.33v66.67h100V33.33c-12.5,0-12.5,33.33-25,33.33s-12.5-33.33-25-33.33-12.5,33.33-25,33.33-12.5-33.33-25-33.33Z" style="fill: none; stroke: #e9078a; stroke-miterlimit: 10; stroke-width: .5px;"/>
    <path d="m382,43.33c-3.12,0-3.12,13.33-6.25,13.33s-3.12-13.33-6.25-13.33-3.12,13.33-6.25,13.33-3.12-13.33-6.25-13.33-3.12,13.33-6.25,13.33-3.12-13.33-6.25-13.33-3.12,13.33-6.25,13.33-3.12-13.33-6.25-13.33-3.12,13.33-6.25,13.33-3.12-13.33-6.25-13.33-3.12,13.33-6.25,13.33-3.12-13.33-6.25-13.33-3.13,13.33-6.25,13.33-3.12-13.33-6.25-13.33-3.13,13.33-6.25,13.33-3.13-13.33-6.25-13.33" style="fill: none; stroke: #00a69c; stroke-miterlimit: 10; stroke-width: .5px;"/>
    <g style="fill: none; opacity: .1;">
      <g style="clip-path: url(#p); fill: none;">
        <path d="m282,43.33v56.67h100v-56.67c-3.13,0-3.13,13.33-6.25,13.33s-3.13-13.33-6.25-13.33-3.12,13.33-6.25,13.33-3.12-13.33-6.25-13.33-3.12,13.33-6.25,13.33-3.13-13.33-6.25-13.33-3.13,13.33-6.25,13.33-3.13-13.33-6.25-13.33-3.13,13.33-6.25,13.33-3.12-13.33-6.25-13.33-3.12,13.33-6.25,13.33-3.12-13.33-6.25-13.33-3.12,13.33-6.25,13.33-3.13-13.33-6.25-13.33-3.13,13.33-6.25,13.33-3.13-13.33-6.25-13.33" style="fill: none;"/>
      </g>
    </g>
    <path d="m282,43.33v56.67h100v-56.67c-3.13,0-3.13,13.33-6.25,13.33s-3.13-13.33-6.25-13.33-3.12,13.33-6.25,13.33-3.12-13.33-6.25-13.33-3.12,13.33-6.25,13.33-3.13-13.33-6.25-13.33-3.13,13.33-6.25,13.33-3.13-13.33-6.25-13.33-3.13,13.33-6.25,13.33-3.12-13.33-6.25-13.33-3.12,13.33-6.25,13.33-3.12-13.33-6.25-13.33-3.12,13.33-6.25,13.33-3.13-13.33-6.25-13.33-3.13,13.33-6.25,13.33-3.13-13.33-6.25-13.33Z" style="fill: none; stroke: #2d358f; stroke-miterlimit: 10; stroke-width: .5px;"/>
    <path d="m282,43.33v56.67h100v-56.67c-3.13,0-3.13,13.33-6.25,13.33s-3.13-13.33-6.25-13.33-3.12,13.33-6.25,13.33-3.12-13.33-6.25-13.33-3.12,13.33-6.25,13.33-3.13-13.33-6.25-13.33-3.13,13.33-6.25,13.33-3.13-13.33-6.25-13.33-3.13,13.33-6.25,13.33-3.12-13.33-6.25-13.33-3.12,13.33-6.25,13.33-3.12-13.33-6.25-13.33-3.12,13.33-6.25,13.33-3.13-13.33-6.25-13.33-3.13,13.33-6.25,13.33-3.13-13.33-6.25-13.33Z" style="fill: none; stroke: #2d358f; stroke-miterlimit: 10; stroke-width: .5px;"/>
    <path d="m282,45.67v54.33h100v-54.33c-1.56,0-1.56,8.67-3.13,8.67s-1.56-8.67-3.12-8.67-1.56,8.67-3.13,8.67-1.56-8.67-3.12-8.67-1.56,8.67-3.13,8.67-1.56-8.67-3.12-8.67-1.56,8.67-3.12,8.67-1.56-8.67-3.13-8.67-1.56,8.67-3.12,8.67-1.56-8.67-3.12-8.67-1.56,8.67-3.13,8.67-1.56-8.67-3.12-8.67-1.56,8.67-3.12,8.67-1.56-8.67-3.13-8.67-1.56,8.67-3.12,8.67-1.56-8.67-3.13-8.67-1.56,8.67-3.12,8.67-1.56-8.67-3.13-8.67-1.56,8.67-3.12,8.67-1.56-8.67-3.13-8.67-1.56,8.67-3.12,8.67-1.56-8.67-3.13-8.67-1.56,8.67-3.12,8.67-1.56-8.67-3.13-8.67-1.56,8.67-3.12,8.67-1.56-8.67-3.13-8.67-1.56,8.67-3.12,8.67-1.56-8.67-3.13-8.67-1.56,8.67-3.13,8.67-1.56-8.67-3.13-8.67-1.56,8.67-3.12,8.67-1.56-8.67-3.13-8.67Z" style="fill: none; stroke: #00a69c; stroke-miterlimit: 10; stroke-width: .5px;"/>
    <rect x="282" y="0" width="100" height="100" style="fill: none; stroke: #929497; stroke-miterlimit: 10; stroke-width: .5px;"/>
    <path d="m282,33.33v66.67h100V33.33c-12.5,0-12.5,33.33-25,33.33s-12.5-33.33-25-33.33-12.5,33.33-25,33.33-12.5-33.33-25-33.33Z" style="fill: none; stroke: #e9078a; stroke-miterlimit: 10; stroke-width: .5px;"/>
    <path d="m382,43.33c-3.12,0-3.12,13.33-6.25,13.33s-3.12-13.33-6.25-13.33-3.12,13.33-6.25,13.33-3.12-13.33-6.25-13.33-3.12,13.33-6.25,13.33-3.12-13.33-6.25-13.33-3.12,13.33-6.25,13.33-3.12-13.33-6.25-13.33-3.12,13.33-6.25,13.33-3.12-13.33-6.25-13.33-3.12,13.33-6.25,13.33-3.12-13.33-6.25-13.33-3.13,13.33-6.25,13.33-3.12-13.33-6.25-13.33-3.13,13.33-6.25,13.33-3.13-13.33-6.25-13.33" style="fill: none; stroke: #00a69c; stroke-miterlimit: 10; stroke-width: .5px;"/>
    <path d="m282,43.33v56.67h100v-56.67c-3.13,0-3.13,13.33-6.25,13.33s-3.13-13.33-6.25-13.33-3.12,13.33-6.25,13.33-3.12-13.33-6.25-13.33-3.12,13.33-6.25,13.33-3.13-13.33-6.25-13.33-3.13,13.33-6.25,13.33-3.13-13.33-6.25-13.33-3.13,13.33-6.25,13.33-3.12-13.33-6.25-13.33-3.12,13.33-6.25,13.33-3.12-13.33-6.25-13.33-3.12,13.33-6.25,13.33-3.13-13.33-6.25-13.33-3.13,13.33-6.25,13.33-3.13-13.33-6.25-13.33Z" style="fill: none; stroke: #2d358f; stroke-miterlimit: 10; stroke-width: .5px;"/>
    <g style="fill: none; opacity: .1;">
      <g style="clip-path: url(#q); fill: none;">
        <path d="m282,40v60h100v-60c-6.25,0-6.25,20-12.5,20s-6.25-20-12.5-20-6.25,20-12.5,20-6.25-20-12.5-20-6.25,20-12.5,20-6.25-20-12.5-20-6.25,20-12.5,20-6.25-20-12.5-20" style="fill: none;"/>
      </g>
    </g>
    <path d="m282,40v60h100v-60c-6.25,0-6.25,20-12.5,20s-6.25-20-12.5-20-6.25,20-12.5,20-6.25-20-12.5-20-6.25,20-12.5,20-6.25-20-12.5-20-6.25,20-12.5,20-6.25-20-12.5-20Z" style="fill: none; stroke: #f69320; stroke-miterlimit: 10; stroke-width: .5px;"/>
    <path d="m282,40v60h100v-60c-6.25,0-6.25,20-12.5,20s-6.25-20-12.5-20-6.25,20-12.5,20-6.25-20-12.5-20-6.25,20-12.5,20-6.25-20-12.5-20-6.25,20-12.5,20-6.25-20-12.5-20Z" style="fill: none; stroke: #f69320; stroke-miterlimit: 10; stroke-width: .5px;"/>
    <path d="m282,43.33v56.67h100v-56.67c-3.13,0-3.13,13.33-6.25,13.33s-3.13-13.33-6.25-13.33-3.12,13.33-6.25,13.33-3.12-13.33-6.25-13.33-3.12,13.33-6.25,13.33-3.13-13.33-6.25-13.33-3.13,13.33-6.25,13.33-3.13-13.33-6.25-13.33-3.13,13.33-6.25,13.33-3.12-13.33-6.25-13.33-3.12,13.33-6.25,13.33-3.12-13.33-6.25-13.33-3.12,13.33-6.25,13.33-3.13-13.33-6.25-13.33-3.13,13.33-6.25,13.33-3.13-13.33-6.25-13.33Z" style="fill: none; stroke: #2d358f; stroke-miterlimit: 10; stroke-width: .5px;"/>
    <path d="m282,45.67v54.33h100v-54.33c-1.56,0-1.56,8.67-3.13,8.67s-1.56-8.67-3.12-8.67-1.56,8.67-3.13,8.67-1.56-8.67-3.12-8.67-1.56,8.67-3.13,8.67-1.56-8.67-3.12-8.67-1.56,8.67-3.12,8.67-1.56-8.67-3.13-8.67-1.56,8.67-3.12,8.67-1.56-8.67-3.12-8.67-1.56,8.67-3.13,8.67-1.56-8.67-3.12-8.67-1.56,8.67-3.12,8.67-1.56-8.67-3.13-8.67-1.56,8.67-3.12,8.67-1.56-8.67-3.13-8.67-1.56,8.67-3.12,8.67-1.56-8.67-3.13-8.67-1.56,8.67-3.12,8.67-1.56-8.67-3.13-8.67-1.56,8.67-3.12,8.67-1.56-8.67-3.13-8.67-1.56,8.67-3.12,8.67-1.56-8.67-3.13-8.67-1.56,8.67-3.12,8.67-1.56-8.67-3.13-8.67-1.56,8.67-3.12,8.67-1.56-8.67-3.13-8.67-1.56,8.67-3.13,8.67-1.56-8.67-3.13-8.67-1.56,8.67-3.12,8.67-1.56-8.67-3.13-8.67Z" style="fill: none; stroke: #00a69c; stroke-miterlimit: 10; stroke-width: .5px;"/>
    <g style="fill: none; opacity: .1;">
      <g style="clip-path: url(#r); fill: none;">
        <path d="m282,45.67v54.33h100v-54.33c-1.56,0-1.56,8.67-3.13,8.67s-1.56-8.67-3.12-8.67-1.56,8.67-3.13,8.67-1.56-8.67-3.12-8.67-1.56,8.67-3.13,8.67-1.56-8.67-3.12-8.67-1.56,8.67-3.12,8.67-1.56-8.67-3.13-8.67-1.56,8.67-3.12,8.67-1.56-8.67-3.12-8.67-1.56,8.67-3.13,8.67-1.56-8.67-3.12-8.67-1.56,8.67-3.12,8.67-1.56-8.67-3.13-8.67-1.56,8.67-3.12,8.67-1.56-8.67-3.13-8.67-1.56,8.67-3.12,8.67-1.56-8.67-3.13-8.67-1.56,8.67-3.12,8.67-1.56-8.67-3.13-8.67-1.56,8.67-3.12,8.67-1.56-8.67-3.13-8.67-1.56,8.67-3.12,8.67-1.56-8.67-3.13-8.67-1.56,8.67-3.12,8.67-1.56-8.67-3.13-8.67-1.56,8.67-3.12,8.67-1.56-8.67-3.13-8.67-1.56,8.67-3.13,8.67-1.56-8.67-3.13-8.67-1.56,8.67-3.12,8.67-1.56-8.67-3.13-8.67" style="fill: none;"/>
      </g>
    </g>
    <g style="fill: none; opacity: .1;">
      <g style="clip-path: url(#s); fill: none;">
        <path d="m282,25v75h100V25c-25,0-25,50-50,50s-25-50-50-50" style="fill: none;"/>
      </g>
    </g>
    <path d="m282,25v75h100V25c-25,0-25,50-50,50s-25-50-50-50Z" style="fill: none; stroke: #00a54f; stroke-miterlimit: 10; stroke-width: .5px;"/>
    <path d="m282,25v75h100V25c-25,0-25,50-50,50s-25-50-50-50Z" style="fill: none; stroke: #29abe2; stroke-miterlimit: 10; stroke-width: .5px;"/>
    <path d="m282,100h100V0C332,0,332,100,282,100Z" style="fill: none; stroke: #ed2024; stroke-miterlimit: 10; stroke-width: .5px;"/>
    <rect x="282" y="50" width="100" height="50" style="fill: none; stroke: #ea2027; stroke-miterlimit: 10; stroke-width: .5px;"/>
    <rect x="282" y="50" width="100" height="50" style="fill: none; stroke: #00a04d; stroke-miterlimit: 10; stroke-width: .5px;"/>
  </g>
  <g>
    <g style="fill: none; opacity: .1;">
      <g style="clip-path: url(#t); fill: none;">
        <path d="m423.01,100h100V0C473.01,0,473.01,100,423.01,100" style="fill: none;"/>
      </g>
    </g>
    <g style="fill: none; opacity: .1;">
      <g style="clip-path: url(#u); fill: none;">
        <path d="m423.01,25v75h100V25c-25,0-25,50-50,50s-25-50-50-50" style="fill: none;"/>
      </g>
    </g>
    <path d="m423.01,25v75h100V25c-25,0-25,50-50,50s-25-50-50-50Z" style="fill: none; stroke: #00a54f; stroke-miterlimit: 10; stroke-width: .5px;"/>
    <path d="m423.01,25v75h100V25c-25,0-25,50-50,50s-25-50-50-50Z" style="fill: none; stroke: #29abe2; stroke-miterlimit: 10; stroke-width: .5px;"/>
    <path d="m423.01,100h100V0C473.01,0,473.01,100,423.01,100Z" style="fill: none; stroke: #ed2024; stroke-miterlimit: 10; stroke-width: .5px;"/>
    <g style="fill: none; opacity: .1;">
      <g style="clip-path: url(#v); fill: none;">
        <rect x="423.38" y="50.37" width="99.25" height="49.25" style="fill: none;"/>
        <path d="m522.26,99.25h-98.5v-48.5h98.5v48.5Zm.75-49.25h-100v50h100v-50Z" style="fill: none;"/>
      </g>
    </g>
    <rect x="423.01" y="50" width="100" height="50" style="fill: none; stroke: #ea2027; stroke-miterlimit: 10; stroke-width: .5px;"/>
    <rect x="423.01" y="50" width="100" height="50" style="fill: none; stroke: #00a04d; stroke-miterlimit: 10; stroke-width: .5px;"/>
    <g style="fill: none; opacity: .1;">
      <g style="clip-path: url(#w); fill: none;">
        <path d="m423.01,47.33v52.67h100v-52.67c-.78,0-.78,5.33-1.56,5.33s-.78-5.33-1.56-5.33-.78,5.33-1.56,5.33-.78-5.33-1.56-5.33-.78,5.33-1.56,5.33-.78-5.33-1.56-5.33-.78,5.33-1.56,5.33-.78-5.33-1.56-5.33-.78,5.33-1.56,5.33-.78-5.33-1.56-5.33-.78,5.33-1.56,5.33-.78-5.33-1.56-5.33-.78,5.33-1.56,5.33-.78-5.33-1.56-5.33-.78,5.33-1.56,5.33-.78-5.33-1.56-5.33-.78,5.33-1.56,5.33-.78-5.33-1.56-5.33-.78,5.33-1.56,5.33-.78-5.33-1.56-5.33-.78,5.33-1.56,5.33-.78-5.33-1.56-5.33-.78,5.33-1.56,5.33-.78-5.33-1.56-5.33-.78,5.33-1.56,5.33-.78-5.33-1.56-5.33-.78,5.33-1.56,5.33-.78-5.33-1.56-5.33-.78,5.33-1.56,5.33-.78-5.33-1.56-5.33-.78,5.33-1.56,5.33-.78-5.33-1.56-5.33-.78,5.33-1.56,5.33-.78-5.33-1.56-5.33-.78,5.33-1.56,5.33-.78-5.33-1.56-5.33-.78,5.33-1.56,5.33-.78-5.33-1.56-5.33-.78,5.33-1.56,5.33-.78-5.33-1.56-5.33-.78,5.33-1.56,5.33-.78-5.33-1.56-5.33-.78,5.33-1.56,5.33-.78-5.33-1.56-5.33-.78,5.33-1.56,5.33-.78-5.33-1.56-5.33-.78,5.33-1.56,5.33-.78-5.33-1.56-5.33-.78,5.33-1.56,5.33-.78-5.33-1.56-5.33-.78,5.33-1.56,5.33-.78-5.33-1.56-5.33-.78,5.33-1.56,5.33-.78-5.33-1.56-5.33-.78,5.33-1.56,5.33-.78-5.33-1.56-5.33-.78,5.33-1.56,5.33-.78-5.33-1.56-5.33-.78,5.33-1.56,5.33-.78-5.33-1.56-5.33-.78,5.33-1.56,5.33-.78-5.33-1.56-5.33-.78,5.33-1.56,5.33-.78-5.33-1.56-5.33" style="fill: none;"/>
      </g>
    </g>
    <rect x="423.01" y="0" width="100" height="100" style="fill: none; stroke: #929497; stroke-miterlimit: 10; stroke-width: .5px;"/>
    <g style="fill: none; opacity: .1;">
      <g style="clip-path: url(#x); fill: none;">
        <path d="m423.01,33.33v66.67h100V33.33c-12.5,0-12.5,33.33-25,33.33s-12.5-33.33-25-33.33-12.5,33.33-25,33.33-12.5-33.33-25-33.33" style="fill: none;"/>
      </g>
    </g>
    <path d="m423.01,33.33v66.67h100V33.33c-12.5,0-12.5,33.33-25,33.33s-12.5-33.33-25-33.33-12.5,33.33-25,33.33-12.5-33.33-25-33.33Z" style="fill: none; stroke: #e9078a; stroke-miterlimit: 10; stroke-width: .5px;"/>
    <path d="m523.01,43.33c-3.12,0-3.12,13.33-6.25,13.33s-3.12-13.33-6.25-13.33-3.12,13.33-6.25,13.33-3.12-13.33-6.25-13.33-3.12,13.33-6.25,13.33-3.12-13.33-6.25-13.33-3.12,13.33-6.25,13.33-3.13-13.33-6.25-13.33-3.12,13.33-6.25,13.33-3.12-13.33-6.25-13.33-3.12,13.33-6.25,13.33-3.12-13.33-6.25-13.33-3.13,13.33-6.25,13.33-3.13-13.33-6.25-13.33-3.13,13.33-6.25,13.33-3.13-13.33-6.25-13.33" style="fill: none; stroke: #00a69c; stroke-miterlimit: 10; stroke-width: .5px;"/>
    <g style="fill: none; opacity: .1;">
      <g style="clip-path: url(#y); fill: none;">
        <path d="m423.01,43.33v56.67h100v-56.67c-3.13,0-3.13,13.33-6.25,13.33s-3.13-13.33-6.25-13.33-3.12,13.33-6.25,13.33-3.12-13.33-6.25-13.33-3.12,13.33-6.25,13.33-3.13-13.33-6.25-13.33-3.13,13.33-6.25,13.33-3.13-13.33-6.25-13.33-3.13,13.33-6.25,13.33-3.12-13.33-6.25-13.33-3.12,13.33-6.25,13.33-3.12-13.33-6.25-13.33-3.12,13.33-6.25,13.33-3.13-13.33-6.25-13.33-3.13,13.33-6.25,13.33-3.13-13.33-6.25-13.33" style="fill: none;"/>
      </g>
    </g>
    <path d="m423.01,43.33v56.67h100v-56.67c-3.13,0-3.13,13.33-6.25,13.33s-3.13-13.33-6.25-13.33-3.12,13.33-6.25,13.33-3.12-13.33-6.25-13.33-3.12,13.33-6.25,13.33-3.13-13.33-6.25-13.33-3.13,13.33-6.25,13.33-3.13-13.33-6.25-13.33-3.13,13.33-6.25,13.33-3.12-13.33-6.25-13.33-3.12,13.33-6.25,13.33-3.12-13.33-6.25-13.33-3.12,13.33-6.25,13.33-3.13-13.33-6.25-13.33-3.13,13.33-6.25,13.33-3.13-13.33-6.25-13.33Z" style="fill: none; stroke: #2d358f; stroke-miterlimit: 10; stroke-width: .5px;"/>
    <path d="m423.01,43.33v56.67h100v-56.67c-3.13,0-3.13,13.33-6.25,13.33s-3.13-13.33-6.25-13.33-3.12,13.33-6.25,13.33-3.12-13.33-6.25-13.33-3.12,13.33-6.25,13.33-3.13-13.33-6.25-13.33-3.13,13.33-6.25,13.33-3.13-13.33-6.25-13.33-3.13,13.33-6.25,13.33-3.12-13.33-6.25-13.33-3.12,13.33-6.25,13.33-3.12-13.33-6.25-13.33-3.12,13.33-6.25,13.33-3.13-13.33-6.25-13.33-3.13,13.33-6.25,13.33-3.13-13.33-6.25-13.33Z" style="fill: none; stroke: #2d358f; stroke-miterlimit: 10; stroke-width: .5px;"/>
    <path d="m423.01,45.67v54.33h100v-54.33c-1.56,0-1.56,8.67-3.13,8.67s-1.56-8.67-3.12-8.67-1.56,8.67-3.13,8.67-1.56-8.67-3.12-8.67-1.56,8.67-3.13,8.67-1.56-8.67-3.12-8.67-1.56,8.67-3.12,8.67-1.56-8.67-3.13-8.67-1.56,8.67-3.12,8.67-1.56-8.67-3.12-8.67-1.56,8.67-3.13,8.67-1.56-8.67-3.12-8.67-1.56,8.67-3.12,8.67-1.56-8.67-3.13-8.67-1.56,8.67-3.12,8.67-1.56-8.67-3.13-8.67-1.56,8.67-3.12,8.67-1.56-8.67-3.13-8.67-1.56,8.67-3.12,8.67-1.56-8.67-3.13-8.67-1.56,8.67-3.12,8.67-1.56-8.67-3.13-8.67-1.56,8.67-3.12,8.67-1.56-8.67-3.13-8.67-1.56,8.67-3.12,8.67-1.56-8.67-3.13-8.67-1.56,8.67-3.12,8.67-1.56-8.67-3.13-8.67-1.56,8.67-3.13,8.67-1.56-8.67-3.13-8.67-1.56,8.67-3.12,8.67-1.56-8.67-3.13-8.67Z" style="fill: none; stroke: #00a69c; stroke-miterlimit: 10; stroke-width: .5px;"/>
    <rect x="423.01" y="0" width="100" height="100" style="fill: none; stroke: #929497; stroke-miterlimit: 10; stroke-width: .5px;"/>
    <path d="m423.01,33.33v66.67h100V33.33c-12.5,0-12.5,33.33-25,33.33s-12.5-33.33-25-33.33-12.5,33.33-25,33.33-12.5-33.33-25-33.33Z" style="fill: none; stroke: #e9078a; stroke-miterlimit: 10; stroke-width: .5px;"/>
    <path d="m523.01,43.33c-3.12,0-3.12,13.33-6.25,13.33s-3.12-13.33-6.25-13.33-3.12,13.33-6.25,13.33-3.12-13.33-6.25-13.33-3.12,13.33-6.25,13.33-3.12-13.33-6.25-13.33-3.12,13.33-6.25,13.33-3.13-13.33-6.25-13.33-3.12,13.33-6.25,13.33-3.12-13.33-6.25-13.33-3.12,13.33-6.25,13.33-3.12-13.33-6.25-13.33-3.13,13.33-6.25,13.33-3.13-13.33-6.25-13.33-3.13,13.33-6.25,13.33-3.13-13.33-6.25-13.33" style="fill: none; stroke: #00a69c; stroke-miterlimit: 10; stroke-width: .5px;"/>
    <path d="m423.01,43.33v56.67h100v-56.67c-3.13,0-3.13,13.33-6.25,13.33s-3.13-13.33-6.25-13.33-3.12,13.33-6.25,13.33-3.12-13.33-6.25-13.33-3.12,13.33-6.25,13.33-3.13-13.33-6.25-13.33-3.13,13.33-6.25,13.33-3.13-13.33-6.25-13.33-3.13,13.33-6.25,13.33-3.12-13.33-6.25-13.33-3.12,13.33-6.25,13.33-3.12-13.33-6.25-13.33-3.12,13.33-6.25,13.33-3.13-13.33-6.25-13.33-3.13,13.33-6.25,13.33-3.13-13.33-6.25-13.33Z" style="fill: none; stroke: #2d358f; stroke-miterlimit: 10; stroke-width: .5px;"/>
    <g style="fill: none; opacity: .1;">
      <g style="clip-path: url(#z); fill: none;">
        <path d="m423.01,40v60h100v-60c-6.25,0-6.25,20-12.5,20s-6.25-20-12.5-20-6.25,20-12.5,20-6.25-20-12.5-20-6.25,20-12.5,20-6.25-20-12.5-20-6.25,20-12.5,20-6.25-20-12.5-20" style="fill: none;"/>
      </g>
    </g>
    <path d="m423.01,40v60h100v-60c-6.25,0-6.25,20-12.5,20s-6.25-20-12.5-20-6.25,20-12.5,20-6.25-20-12.5-20-6.25,20-12.5,20-6.25-20-12.5-20-6.25,20-12.5,20-6.25-20-12.5-20Z" style="fill: none; stroke: #f69320; stroke-miterlimit: 10; stroke-width: .5px;"/>
    <path d="m423.01,40v60h100v-60c-6.25,0-6.25,20-12.5,20s-6.25-20-12.5-20-6.25,20-12.5,20-6.25-20-12.5-20-6.25,20-12.5,20-6.25-20-12.5-20-6.25,20-12.5,20-6.25-20-12.5-20Z" style="fill: none; stroke: #f69320; stroke-miterlimit: 10; stroke-width: .5px;"/>
    <path d="m423.01,43.33v56.67h100v-56.67c-3.13,0-3.13,13.33-6.25,13.33s-3.13-13.33-6.25-13.33-3.12,13.33-6.25,13.33-3.12-13.33-6.25-13.33-3.12,13.33-6.25,13.33-3.13-13.33-6.25-13.33-3.13,13.33-6.25,13.33-3.13-13.33-6.25-13.33-3.13,13.33-6.25,13.33-3.12-13.33-6.25-13.33-3.12,13.33-6.25,13.33-3.12-13.33-6.25-13.33-3.12,13.33-6.25,13.33-3.13-13.33-6.25-13.33-3.13,13.33-6.25,13.33-3.13-13.33-6.25-13.33Z" style="fill: none; stroke: #2d358f; stroke-miterlimit: 10; stroke-width: .5px;"/>
    <path d="m423.01,45.67v54.33h100v-54.33c-1.56,0-1.56,8.67-3.13,8.67s-1.56-8.67-3.12-8.67-1.56,8.67-3.13,8.67-1.56-8.67-3.12-8.67-1.56,8.67-3.13,8.67-1.56-8.67-3.12-8.67-1.56,8.67-3.12,8.67-1.56-8.67-3.13-8.67-1.56,8.67-3.12,8.67-1.56-8.67-3.12-8.67-1.56,8.67-3.13,8.67-1.56-8.67-3.12-8.67-1.56,8.67-3.12,8.67-1.56-8.67-3.13-8.67-1.56,8.67-3.12,8.67-1.56-8.67-3.13-8.67-1.56,8.67-3.12,8.67-1.56-8.67-3.13-8.67-1.56,8.67-3.12,8.67-1.56-8.67-3.13-8.67-1.56,8.67-3.12,8.67-1.56-8.67-3.13-8.67-1.56,8.67-3.12,8.67-1.56-8.67-3.13-8.67-1.56,8.67-3.12,8.67-1.56-8.67-3.13-8.67-1.56,8.67-3.12,8.67-1.56-8.67-3.13-8.67-1.56,8.67-3.13,8.67-1.56-8.67-3.13-8.67-1.56,8.67-3.12,8.67-1.56-8.67-3.13-8.67Z" style="fill: none; stroke: #00a69c; stroke-miterlimit: 10; stroke-width: .5px;"/>
    <g style="fill: none; opacity: .1;">
      <g style="clip-path: url(#aa); fill: none;">
        <path d="m423.01,45.67v54.33h100v-54.33c-1.56,0-1.56,8.67-3.13,8.67s-1.56-8.67-3.12-8.67-1.56,8.67-3.13,8.67-1.56-8.67-3.12-8.67-1.56,8.67-3.13,8.67-1.56-8.67-3.12-8.67-1.56,8.67-3.12,8.67-1.56-8.67-3.13-8.67-1.56,8.67-3.12,8.67-1.56-8.67-3.12-8.67-1.56,8.67-3.13,8.67-1.56-8.67-3.12-8.67-1.56,8.67-3.12,8.67-1.56-8.67-3.13-8.67-1.56,8.67-3.12,8.67-1.56-8.67-3.13-8.67-1.56,8.67-3.12,8.67-1.56-8.67-3.13-8.67-1.56,8.67-3.12,8.67-1.56-8.67-3.13-8.67-1.56,8.67-3.12,8.67-1.56-8.67-3.13-8.67-1.56,8.67-3.12,8.67-1.56-8.67-3.13-8.67-1.56,8.67-3.12,8.67-1.56-8.67-3.13-8.67-1.56,8.67-3.12,8.67-1.56-8.67-3.13-8.67-1.56,8.67-3.13,8.67-1.56-8.67-3.13-8.67-1.56,8.67-3.12,8.67-1.56-8.67-3.13-8.67" style="fill: none;"/>
      </g>
    </g>
    <path d="m423.01,47.33v52.67h100v-52.67c-.78,0-.78,5.33-1.56,5.33s-.78-5.33-1.56-5.33-.78,5.33-1.56,5.33-.78-5.33-1.56-5.33-.78,5.33-1.56,5.33-.78-5.33-1.56-5.33-.78,5.33-1.56,5.33-.78-5.33-1.56-5.33-.78,5.33-1.56,5.33-.78-5.33-1.56-5.33-.78,5.33-1.56,5.33-.78-5.33-1.56-5.33-.78,5.33-1.56,5.33-.78-5.33-1.56-5.33-.78,5.33-1.56,5.33-.78-5.33-1.56-5.33-.78,5.33-1.56,5.33-.78-5.33-1.56-5.33-.78,5.33-1.56,5.33-.78-5.33-1.56-5.33-.78,5.33-1.56,5.33-.78-5.33-1.56-5.33-.78,5.33-1.56,5.33-.78-5.33-1.56-5.33-.78,5.33-1.56,5.33-.78-5.33-1.56-5.33-.78,5.33-1.56,5.33-.78-5.33-1.56-5.33-.78,5.33-1.56,5.33-.78-5.33-1.56-5.33-.78,5.33-1.56,5.33-.78-5.33-1.56-5.33-.78,5.33-1.56,5.33-.78-5.33-1.56-5.33-.78,5.33-1.56,5.33-.78-5.33-1.56-5.33-.78,5.33-1.56,5.33-.78-5.33-1.56-5.33-.78,5.33-1.56,5.33-.78-5.33-1.56-5.33-.78,5.33-1.56,5.33-.78-5.33-1.56-5.33-.78,5.33-1.56,5.33-.78-5.33-1.56-5.33-.78,5.33-1.56,5.33-.78-5.33-1.56-5.33-.78,5.33-1.56,5.33-.78-5.33-1.56-5.33-.78,5.33-1.56,5.33-.78-5.33-1.56-5.33-.78,5.33-1.56,5.33-.78-5.33-1.56-5.33-.78,5.33-1.56,5.33-.78-5.33-1.56-5.33-.78,5.33-1.56,5.33-.78-5.33-1.56-5.33-.78,5.33-1.56,5.33-.78-5.33-1.56-5.33-.78,5.33-1.56,5.33-.78-5.33-1.56-5.33-.78,5.33-1.56,5.33-.78-5.33-1.56-5.33-.78,5.33-1.56,5.33-.78-5.33-1.56-5.33Z" style="fill: none; stroke: gray; stroke-miterlimit: 10; stroke-width: .5px;"/>
  </g>
</svg>